<?xml version="1.0" encoding="utf-8"?>
<!-- Generator: Adobe Illustrator 23.0.0, SVG Export Plug-In . SVG Version: 6.00 Build 0)  -->
<svg version="1.1" id="Capa_1" xmlns="http://www.w3.org/2000/svg" xmlns:xlink="http://www.w3.org/1999/xlink" x="0px" y="0px"
	 viewBox="0 0 118 152" style="enable-background:new 0 0 118 152;" xml:space="preserve">
<style type="text/css">
	.st0{fill:#FFFFFF;}
</style>
<path class="st0" d="M2.4,76c0-10.7,1-20.4,3-29.2s5.2-16.3,9.6-22.6c4.4-6.3,10.2-11.1,17.4-14.4C39.7,6.3,48.6,4.6,59,4.6
	c10.4,0,19.2,1.7,26.4,5.2c7.2,3.3,13,8.1,17.4,14.4c4.5,6.3,7.8,13.8,9.8,22.6s3,18.5,3,29.2c0,10.8-1,20.6-3,29.4
	c-2,8.8-5.3,16.3-9.8,22.6c-4.4,6.3-10.2,11.1-17.4,14.4c-7.2,3.3-16,5-26.4,5c-10.4,0-19.3-1.7-26.6-5c-7.2-3.3-13-8.1-17.4-14.4
	c-4.4-6.3-7.6-13.8-9.6-22.6C3.4,96.6,2.4,86.8,2.4,76z M80.2,76c0-5.5-0.2-10.7-0.6-15.6c-0.4-5.1-1.3-9.5-2.8-13.4
	c-1.3-3.9-3.4-6.9-6.2-9.2c-2.8-2.3-6.7-3.4-11.6-3.4s-8.8,1.1-11.6,3.4c-2.8,2.3-4.9,5.3-6.4,9.2c-1.3,3.9-2.2,8.3-2.6,13.4
	C38,65.3,37.8,70.5,37.8,76c0,5.7,0.2,11.1,0.6,16.2c0.4,4.9,1.3,9.3,2.6,13.2c1.5,3.7,3.6,6.7,6.4,9c2.8,2.1,6.7,3.2,11.6,3.2
	s8.8-1.1,11.6-3.2c2.8-2.3,4.9-5.3,6.2-9c1.5-3.9,2.4-8.3,2.8-13.2C80,87.1,80.2,81.7,80.2,76z"/>
</svg>
