<svg width="371" height="298" viewBox="0 0 371 298" fill="none" xmlns="http://www.w3.org/2000/svg">
<path d="M1 244L1 297L54 297" stroke="white" stroke-width="2"/>
<path d="M370 54L370 1L317 0.999998" stroke="white" stroke-width="2"/>
<path d="M128.8 140C128.8 129.333 129.8 119.6 131.8 110.8C133.8 102 137 94.4667 141.4 88.2C145.8 81.9333 151.6 77.1333 158.8 73.8C166.133 70.3333 175 68.6 185.4 68.6C195.8 68.6 204.6 70.3333 211.8 73.8C219 77.1333 224.8 81.9333 229.2 88.2C233.733 94.4667 237 102 239 110.8C241 119.6 242 129.333 242 140C242 150.8 241 160.6 239 169.4C237 178.2 233.733 185.733 229.2 192C224.8 198.267 219 203.067 211.8 206.4C204.6 209.733 195.8 211.4 185.4 211.4C175 211.4 166.133 209.733 158.8 206.4C151.6 203.067 145.8 198.267 141.4 192C137 185.733 133.8 178.2 131.8 169.4C129.8 160.6 128.8 150.8 128.8 140ZM206.6 140C206.6 134.533 206.4 129.333 206 124.4C205.6 119.333 204.667 114.867 203.2 111C201.867 107.133 199.8 104.067 197 101.8C194.2 99.5333 190.333 98.4 185.4 98.4C180.467 98.4 176.6 99.5333 173.8 101.8C171 104.067 168.867 107.133 167.4 111C166.067 114.867 165.2 119.333 164.8 124.4C164.4 129.333 164.2 134.533 164.2 140C164.2 145.733 164.4 151.133 164.8 156.2C165.2 161.133 166.067 165.533 167.4 169.4C168.867 173.133 171 176.133 173.8 178.4C176.6 180.533 180.467 181.6 185.4 181.6C190.333 181.6 194.2 180.533 197 178.4C199.8 176.133 201.867 173.133 203.2 169.4C204.667 165.533 205.6 161.133 206 156.2C206.4 151.133 206.6 145.733 206.6 140Z" fill="white"/>
</svg>
