<svg width="373" height="300" viewBox="0 0 373 300" fill="none" xmlns="http://www.w3.org/2000/svg">
<path d="M129.8 150C129.8 139.333 130.8 129.6 132.8 120.8C134.8 112 138 104.467 142.4 98.2C146.8 91.9333 152.6 87.1333 159.8 83.8C167.133 80.3333 176 78.6 186.4 78.6C196.8 78.6 205.6 80.3333 212.8 83.8C220 87.1333 225.8 91.9333 230.2 98.2C234.733 104.467 238 112 240 120.8C242 129.6 243 139.333 243 150C243 160.8 242 170.6 240 179.4C238 188.2 234.733 195.733 230.2 202C225.8 208.267 220 213.067 212.8 216.4C205.6 219.733 196.8 221.4 186.4 221.4C176 221.4 167.133 219.733 159.8 216.4C152.6 213.067 146.8 208.267 142.4 202C138 195.733 134.8 188.2 132.8 179.4C130.8 170.6 129.8 160.8 129.8 150ZM207.6 150C207.6 144.533 207.4 139.333 207 134.4C206.6 129.333 205.667 124.867 204.2 121C202.867 117.133 200.8 114.067 198 111.8C195.2 109.533 191.333 108.4 186.4 108.4C181.467 108.4 177.6 109.533 174.8 111.8C172 114.067 169.867 117.133 168.4 121C167.067 124.867 166.2 129.333 165.8 134.4C165.4 139.333 165.2 144.533 165.2 150C165.2 155.733 165.4 161.133 165.8 166.2C166.2 171.133 167.067 175.533 168.4 179.4C169.867 183.133 172 186.133 174.8 188.4C177.6 190.533 181.467 191.6 186.4 191.6C191.333 191.6 195.2 190.533 198 188.4C200.8 186.133 202.867 183.133 204.2 179.4C205.667 175.533 206.6 171.133 207 166.2C207.4 161.133 207.6 155.733 207.6 150Z" fill="white"/>
<path d="M42.89 297.89L7.48001 297.89C6.02662 297.89 4.63274 297.313 3.60504 296.285C2.57734 295.257 2 293.863 2 292.41L2 257" stroke="white" stroke-width="3" stroke-miterlimit="10"/>
<path d="M330 2.00001L365.41 2.00001C366.129 1.99869 366.842 2.13921 367.506 2.41351C368.171 2.68782 368.775 3.09053 369.284 3.59859C369.793 4.10666 370.197 4.71011 370.473 5.37442C370.748 6.03872 370.89 6.75084 370.89 7.47001L370.89 42.89" stroke="white" stroke-width="3" stroke-miterlimit="10"/>
</svg>
