<?xml version="1.0" encoding="utf-8"?>
<!-- Generator: Adobe Illustrator 23.0.0, SVG Export Plug-In . SVG Version: 6.00 Build 0)  -->
<svg version="1.1" id="Capa_1" xmlns="http://www.w3.org/2000/svg" xmlns:xlink="http://www.w3.org/1999/xlink" x="0px" y="0px"
	 viewBox="0 0 118 152" style="enable-background:new 0 0 118 152;" xml:space="preserve">
<style type="text/css">
	.st0{fill:#FFFFFF;}
</style>
<path class="st0" d="M8.8,121.3l36.6-34.8c6.7-6.3,11.9-11.4,15.6-15.4c3.9-4.1,6.6-7.9,8.2-11.2c1.7-3.3,2.6-6.9,2.6-10.6
	c0-4.5-1.2-8-3.6-10.4c-2.4-2.5-6-3.8-10.8-3.8c-2.9,0-5.5,0.8-7.8,2.4c-2.3,1.5-4.1,3.7-5.4,6.8c-1.3,2.9-2.1,6.7-2.2,11.2H8.4
	c0.3-11.7,2.7-21.3,7.4-28.6c4.7-7.3,10.8-12.7,18.4-16.2c7.6-3.6,15.9-5.4,25-5.4c11.2,0,20.3,1.9,27.4,5.8s12.3,9,15.6,15.4
	c3.3,6.4,5,13.4,5,21c0,6-0.9,11.5-2.8,16.6c-1.7,4.9-4.8,10.1-9.2,15.6c-4.4,5.3-10.6,11.7-18.6,19L56,117.5h53.6v29.2H8.8V121.3z"
	/>
</svg>
