<svg width="371" height="298" viewBox="0 0 371 298" fill="none" xmlns="http://www.w3.org/2000/svg">
<path d="M1 244L1 297L54 297" stroke="white" stroke-width="2"/>
<path d="M370 54L370 1L317 0.999998" stroke="white" stroke-width="2"/>
<path d="M135.8 181.6L172.4 146.8C179.067 140.533 184.267 135.4 188 131.4C191.867 127.267 194.6 123.533 196.2 120.2C197.933 116.867 198.8 113.333 198.8 109.6C198.8 105.067 197.6 101.6 195.2 99.2C192.8 96.6667 189.2 95.4 184.4 95.4C181.467 95.4 178.867 96.2 176.6 97.8C174.333 99.2667 172.533 101.533 171.2 104.6C169.867 107.533 169.133 111.267 169 115.8H135.4C135.667 104.067 138.133 94.5333 142.8 87.2C147.467 79.8667 153.6 74.4667 161.2 71C168.8 67.4 177.133 65.6 186.2 65.6C197.4 65.6 206.533 67.5333 213.6 71.4C220.667 75.2667 225.867 80.4 229.2 86.8C232.533 93.2 234.2 100.2 234.2 107.8C234.2 113.8 233.267 119.333 231.4 124.4C229.667 129.333 226.6 134.533 222.2 140C217.8 145.333 211.6 151.667 203.6 159L183 177.8H236.6V207H135.8V181.6Z" fill="white"/>
</svg>
