<svg width="373" height="300" viewBox="0 0 373 300" fill="none" xmlns="http://www.w3.org/2000/svg">
<path d="M135.8 194.6L172.4 159.8C179.067 153.533 184.267 148.4 188 144.4C191.867 140.267 194.6 136.533 196.2 133.2C197.933 129.867 198.8 126.333 198.8 122.6C198.8 118.067 197.6 114.6 195.2 112.2C192.8 109.667 189.2 108.4 184.4 108.4C181.467 108.4 178.867 109.2 176.6 110.8C174.333 112.267 172.533 114.533 171.2 117.6C169.867 120.533 169.133 124.267 169 128.8H135.4C135.667 117.067 138.133 107.533 142.8 100.2C147.467 92.8667 153.6 87.4667 161.2 84C168.8 80.4 177.133 78.6 186.2 78.6C197.4 78.6 206.533 80.5333 213.6 84.4C220.667 88.2667 225.867 93.4 229.2 99.8C232.533 106.2 234.2 113.2 234.2 120.8C234.2 126.8 233.267 132.333 231.4 137.4C229.667 142.333 226.6 147.533 222.2 153C217.8 158.333 211.6 164.667 203.6 172L183 190.8H236.6V220H135.8V194.6Z" fill="white"/>
<path d="M42.89 297.89L7.48001 297.89C6.02662 297.89 4.63274 297.313 3.60504 296.285C2.57734 295.257 2 293.863 2 292.41L2 257" stroke="white" stroke-width="3" stroke-miterlimit="10"/>
<path d="M330 2.00001L365.41 2.00001C366.129 1.99869 366.842 2.13921 367.506 2.41351C368.171 2.68782 368.775 3.09053 369.284 3.59859C369.793 4.10666 370.197 4.71011 370.473 5.37442C370.748 6.03872 370.89 6.75084 370.89 7.47001L370.89 42.89" stroke="white" stroke-width="3" stroke-miterlimit="10"/>
</svg>
