<svg width="373" height="300" viewBox="0 0 373 300" fill="none" xmlns="http://www.w3.org/2000/svg">
<path d="M137 122.4C137.4 112.667 139.667 104.6 143.8 98.2C147.933 91.6667 153.667 86.8 161 83.6C168.333 80.2667 177 78.6 187 78.6C197.267 78.6 205.933 80.3333 213 83.8C220.067 87.2667 225.4 91.9333 229 97.8C232.733 103.667 234.6 110.333 234.6 117.8C234.6 123.933 233.467 129 231.2 133C228.933 137 226.067 140.133 222.6 142.4C219.267 144.667 216 146.333 212.8 147.4V148.2C217.6 149.8 221.8 151.933 225.4 154.6C229.133 157.267 232 160.667 234 164.8C236.133 168.933 237.2 174.067 237.2 180.2C237.2 188.333 235.267 195.533 231.4 201.8C227.667 207.933 222.2 212.733 215 216.2C207.8 219.667 199.133 221.4 189 221.4C178.733 221.4 169.6 219.933 161.6 217C153.6 214.067 147.267 209.2 142.6 202.4C138.067 195.6 135.667 186.467 135.4 175H169.6C169.6 181.133 171.067 185.467 174 188C177.067 190.4 181.6 191.6 187.6 191.6C190.933 191.6 193.733 191.067 196 190C198.267 188.8 200 187.133 201.2 185C202.4 182.867 203 180.267 203 177.2C203 171.467 201.067 167.6 197.2 165.6C193.333 163.467 187.133 162.4 178.6 162.4H172.2V136.4H178.6C182.2 136.4 185.6 136.133 188.8 135.6C192.133 134.933 194.867 133.667 197 131.8C199.133 129.8 200.2 126.8 200.2 122.8C200.2 118 198.933 114.4 196.4 112C194 109.6 190.6 108.4 186.2 108.4C182.6 108.4 179.733 109.067 177.6 110.4C175.6 111.6 174.067 113.267 173 115.4C172.067 117.533 171.533 119.867 171.4 122.4H137Z" fill="white"/>
<path d="M42.89 297.89L7.48001 297.89C6.02662 297.89 4.63274 297.313 3.60504 296.285C2.57734 295.257 2 293.863 2 292.41L2 257" stroke="white" stroke-width="3" stroke-miterlimit="10"/>
<path d="M330 2.00001L365.41 2.00001C366.129 1.99869 366.842 2.13921 367.506 2.41351C368.171 2.68782 368.775 3.09053 369.284 3.59859C369.793 4.10666 370.197 4.71011 370.473 5.37442C370.748 6.03872 370.89 6.75084 370.89 7.47001L370.89 42.89" stroke="white" stroke-width="3" stroke-miterlimit="10"/>
</svg>
