<?xml version="1.0" encoding="utf-8"?>
<!-- Generator: Adobe Illustrator 23.0.0, SVG Export Plug-In . SVG Version: 6.00 Build 0)  -->
<svg version="1.1" id="Capa_1" xmlns="http://www.w3.org/2000/svg" xmlns:xlink="http://www.w3.org/1999/xlink" x="0px" y="0px"
	 viewBox="0 0 118 152" style="enable-background:new 0 0 118 152;" xml:space="preserve">
<style type="text/css">
	.st0{fill:#FFFFFF;}
</style>
<path class="st0" d="M9.7,48.4c0.4-9.7,2.7-17.8,6.8-24.2c4.1-6.5,9.9-11.4,17.2-14.6c7.3-3.3,16-5,26-5c10.3,0,18.9,1.7,26,5.2
	c7.1,3.5,12.4,8.1,16,14c3.7,5.9,5.6,12.5,5.6,20c0,6.1-1.1,11.2-3.4,15.2s-5.1,7.1-8.6,9.4c-3.3,2.3-6.6,3.9-9.8,5v0.8
	c4.8,1.6,9,3.7,12.6,6.4c3.7,2.7,6.6,6.1,8.6,10.2c2.1,4.1,3.2,9.3,3.2,15.4c0,8.1-1.9,15.3-5.8,21.6c-3.7,6.1-9.2,10.9-16.4,14.4
	c-7.2,3.5-15.9,5.2-26,5.2c-10.3,0-19.4-1.5-27.4-4.4s-14.3-7.8-19-14.6c-4.5-6.8-6.9-15.9-7.2-27.4h34.2c0,6.1,1.5,10.5,4.4,13
	c3.1,2.4,7.6,3.6,13.6,3.6c3.3,0,6.1-0.5,8.4-1.6c2.3-1.2,4-2.9,5.2-5s1.8-4.7,1.8-7.8c0-5.7-1.9-9.6-5.8-11.6
	c-3.9-2.1-10.1-3.2-18.6-3.2h-6.4v-26h6.4c3.6,0,7-0.3,10.2-0.8c3.3-0.7,6.1-1.9,8.2-3.8c2.1-2,3.2-5,3.2-9c0-4.8-1.3-8.4-3.8-10.8
	c-2.4-2.4-5.8-3.6-10.2-3.6c-3.6,0-6.5,0.7-8.6,2c-2,1.2-3.5,2.9-4.6,5c-0.9,2.1-1.5,4.5-1.6,7H9.7z"/>
</svg>
