<svg width="371" height="298" viewBox="0 0 371 298" fill="none" xmlns="http://www.w3.org/2000/svg">
<path d="M1 244L1 297L54 297" stroke="white" stroke-width="2"/>
<path d="M370 54L370 1L317 0.999998" stroke="white" stroke-width="2"/>
<path d="M133 126.4C133.4 116.667 135.667 108.6 139.8 102.2C143.933 95.6667 149.667 90.8 157 87.6C164.333 84.2667 173 82.6 183 82.6C193.267 82.6 201.933 84.3333 209 87.8C216.067 91.2667 221.4 95.9333 225 101.8C228.733 107.667 230.6 114.333 230.6 121.8C230.6 127.933 229.467 133 227.2 137C224.933 141 222.067 144.133 218.6 146.4C215.267 148.667 212 150.333 208.8 151.4V152.2C213.6 153.8 217.8 155.933 221.4 158.6C225.133 161.267 228 164.667 230 168.8C232.133 172.933 233.2 178.067 233.2 184.2C233.2 192.333 231.267 199.533 227.4 205.8C223.667 211.933 218.2 216.733 211 220.2C203.8 223.667 195.133 225.4 185 225.4C174.733 225.4 165.6 223.933 157.6 221C149.6 218.067 143.267 213.2 138.6 206.4C134.067 199.6 131.667 190.467 131.4 179H165.6C165.6 185.133 167.067 189.467 170 192C173.067 194.4 177.6 195.6 183.6 195.6C186.933 195.6 189.733 195.067 192 194C194.267 192.8 196 191.133 197.2 189C198.4 186.867 199 184.267 199 181.2C199 175.467 197.067 171.6 193.2 169.6C189.333 167.467 183.133 166.4 174.6 166.4H168.2V140.4H174.6C178.2 140.4 181.6 140.133 184.8 139.6C188.133 138.933 190.867 137.667 193 135.8C195.133 133.8 196.2 130.8 196.2 126.8C196.2 122 194.933 118.4 192.4 116C190 113.6 186.6 112.4 182.2 112.4C178.6 112.4 175.733 113.067 173.6 114.4C171.6 115.6 170.067 117.267 169 119.4C168.067 121.533 167.533 123.867 167.4 126.4H133Z" fill="white"/>
</svg>
