<svg width="371" height="298" viewBox="0 0 371 298" fill="none" xmlns="http://www.w3.org/2000/svg">
<path d="M1 244L1 297L54 297" stroke="white" stroke-width="2"/>
<path d="M370 54L370 1L317 0.999998" stroke="white" stroke-width="2"/>
<path d="M226 77V106.2H167V131.6C169.667 128.667 172.8 126.4 176.4 124.8C180.133 123.2 184.867 122.4 190.6 122.4C198.333 122.4 205 123.733 210.6 126.4C216.2 129.067 220.8 132.6 224.4 137C228.133 141.4 230.867 146.4 232.6 152C234.333 157.467 235.2 163 235.2 168.6C235.2 179 233.067 187.933 228.8 195.4C224.667 202.867 218.8 208.6 211.2 212.6C203.6 216.467 194.533 218.4 184 218.4C172.933 218.4 163.467 216.533 155.6 212.8C147.867 208.933 141.867 203.733 137.6 197.2C133.467 190.667 131.2 183.2 130.8 174.8H165C165.667 178.267 167.4 181.467 170.2 184.4C173.133 187.2 177.333 188.6 182.8 188.6C186.8 188.6 190 187.867 192.4 186.4C194.933 184.8 196.8 182.467 198 179.4C199.2 176.333 199.8 172.667 199.8 168.4C199.8 162.267 198.267 157.733 195.2 154.8C192.267 151.867 188 150.4 182.4 150.4C178.133 150.4 174.6 151.6 171.8 154C169 156.267 167.2 158.867 166.4 161.8H132.2V77H226Z" fill="white"/>
</svg>
