<svg width="373" height="300" viewBox="0 0 373 300" fill="none" xmlns="http://www.w3.org/2000/svg">
<path d="M229 80V109.2H170V134.6C172.667 131.667 175.8 129.4 179.4 127.8C183.133 126.2 187.867 125.4 193.6 125.4C201.333 125.4 208 126.733 213.6 129.4C219.2 132.067 223.8 135.6 227.4 140C231.133 144.4 233.867 149.4 235.6 155C237.333 160.467 238.2 166 238.2 171.6C238.2 182 236.067 190.933 231.8 198.4C227.667 205.867 221.8 211.6 214.2 215.6C206.6 219.467 197.533 221.4 187 221.4C175.933 221.4 166.467 219.533 158.6 215.8C150.867 211.933 144.867 206.733 140.6 200.2C136.467 193.667 134.2 186.2 133.8 177.8H168C168.667 181.267 170.4 184.467 173.2 187.4C176.133 190.2 180.333 191.6 185.8 191.6C189.8 191.6 193 190.867 195.4 189.4C197.933 187.8 199.8 185.467 201 182.4C202.2 179.333 202.8 175.667 202.8 171.4C202.8 165.267 201.267 160.733 198.2 157.8C195.267 154.867 191 153.4 185.4 153.4C181.133 153.4 177.6 154.6 174.8 157C172 159.267 170.2 161.867 169.4 164.8H135.2V80H229Z" fill="white"/>
<path d="M42.89 297.89L7.48001 297.89C6.02662 297.89 4.63274 297.313 3.60504 296.285C2.57734 295.257 2 293.863 2 292.41L2 257" stroke="white" stroke-width="3" stroke-miterlimit="10"/>
<path d="M330 2.00001L365.41 2.00001C366.129 1.99869 366.842 2.13921 367.506 2.41351C368.171 2.68782 368.775 3.09053 369.284 3.59859C369.793 4.10666 370.197 4.71011 370.473 5.37442C370.748 6.03872 370.89 6.75084 370.89 7.47001L370.89 42.89" stroke="white" stroke-width="3" stroke-miterlimit="10"/>
</svg>
