<?xml version="1.0" encoding="utf-8"?>
<!-- Generator: Adobe Illustrator 23.0.0, SVG Export Plug-In . SVG Version: 6.00 Build 0)  -->
<svg version="1.1" id="Capa_1" xmlns="http://www.w3.org/2000/svg" xmlns:xlink="http://www.w3.org/1999/xlink" x="0px" y="0px"
	 viewBox="0 0 118 152" style="enable-background:new 0 0 118 152;" xml:space="preserve">
<style type="text/css">
	.st0{fill:#FFFFFF;}
</style>
<path class="st0" d="M101.4,4.6v29.2h-59v25.4c2.7-2.9,5.8-5.2,9.4-6.8C55.5,50.8,60.3,50,66,50c7.7,0,14.4,1.3,20,4
	c5.6,2.7,10.2,6.2,13.8,10.6c3.7,4.4,6.5,9.4,8.2,15c1.7,5.5,2.6,11,2.6,16.6c0,10.4-2.1,19.3-6.4,26.8c-4.1,7.5-10,13.2-17.6,17.2
	c-7.6,3.9-16.7,5.8-27.2,5.8c-11.1,0-20.5-1.9-28.4-5.6c-7.7-3.9-13.7-9.1-18-15.6c-4.1-6.5-6.4-14-6.8-22.4h34.2
	c0.7,3.5,2.4,6.7,5.2,9.6c2.9,2.8,7.1,4.2,12.6,4.2c4,0,7.2-0.7,9.6-2.2c2.5-1.6,4.4-3.9,5.6-7s1.8-6.7,1.8-11
	c0-6.1-1.5-10.7-4.6-13.6c-2.9-2.9-7.2-4.4-12.8-4.4c-4.3,0-7.8,1.2-10.6,3.6c-2.8,2.3-4.6,4.9-5.4,7.8H7.6V4.6H101.4z"/>
</svg>
