<?xml version="1.0" encoding="utf-8"?>
<!-- Generator: Adobe Illustrator 23.0.0, SVG Export Plug-In . SVG Version: 6.00 Build 0)  -->
<svg version="1.1" id="Capa_1" xmlns="http://www.w3.org/2000/svg" xmlns:xlink="http://www.w3.org/1999/xlink" x="0px" y="0px"
	 viewBox="0 0 118 152" style="enable-background:new 0 0 118 152;" xml:space="preserve">
<style type="text/css">
	.st0{fill:#FFFFFF;}
</style>
<path class="st0" d="M59.2,146.7c-10.4,0-19.7-2.1-27.8-6.4S16.8,130.2,12,122.7c-4.7-7.6-7-16.3-7-26c0-7.1,1.4-14.3,4.2-21.8
	c2.9-7.5,7.5-15.3,13.6-23.6L57,5.3h38.4L54.6,58.9L27,91.5c1.9-12.7,6.5-22.4,14-29.2c7.5-6.8,16.5-10.2,27-10.2
	c8.1,0,15.6,1.8,22.4,5.4c6.8,3.5,12.3,8.6,16.4,15.4c4.1,6.7,6.2,14.9,6.2,24.6c0,10-2.5,18.7-7.4,26.2c-4.9,7.3-11.5,13-19.6,17
	C77.9,144.7,68.9,146.7,59.2,146.7z M40.2,97.7c0,3.9,0.7,7.3,2.2,10.2c1.6,2.9,3.8,5.2,6.6,6.8c2.9,1.6,6.3,2.4,10.2,2.4
	c3.9,0,7.2-0.8,10-2.4c2.8-1.6,4.9-3.9,6.4-6.8s2.2-6.3,2.2-10.2c0-3.9-0.7-7.2-2.2-10c-1.5-2.9-3.6-5.2-6.4-6.8
	c-2.8-1.6-6.1-2.4-10-2.4c-3.9,0-7.3,0.8-10.2,2.4c-2.8,1.6-5,3.9-6.6,6.8C40.9,90.5,40.2,93.8,40.2,97.7z"/>
</svg>
