<svg width="371" height="298" viewBox="0 0 371 298" fill="none" xmlns="http://www.w3.org/2000/svg">
<path d="M1 244L1 297L54 297" stroke="white" stroke-width="2"/>
<path d="M370 54L370 1L317 0.999998" stroke="white" stroke-width="2"/>
<path d="M192.6 208.4C182.2 208.4 172.933 206.267 164.8 202C156.667 197.733 150.2 191.867 145.4 184.4C140.733 176.8 138.4 168.133 138.4 158.4C138.4 151.333 139.8 144.067 142.6 136.6C145.533 129.133 150.067 121.267 156.2 113L190.4 67H228.8L188 120.6L160.4 153.2C162.267 140.533 166.933 130.8 174.4 124C181.867 117.2 190.867 113.8 201.4 113.8C209.533 113.8 217 115.6 223.8 119.2C230.6 122.667 236.067 127.8 240.2 134.6C244.333 141.267 246.4 149.467 246.4 159.2C246.4 169.2 243.933 177.933 239 185.4C234.067 192.733 227.533 198.4 219.4 202.4C211.267 206.4 202.333 208.4 192.6 208.4ZM173.6 159.4C173.6 163.267 174.333 166.667 175.8 169.6C177.4 172.533 179.6 174.8 182.4 176.4C185.333 178 188.733 178.8 192.6 178.8C196.467 178.8 199.8 178 202.6 176.4C205.4 174.8 207.533 172.533 209 169.6C210.467 166.667 211.2 163.267 211.2 159.4C211.2 155.533 210.467 152.2 209 149.4C207.533 146.467 205.4 144.2 202.6 142.6C199.8 141 196.467 140.2 192.6 140.2C188.733 140.2 185.333 141 182.4 142.6C179.6 144.2 177.4 146.467 175.8 149.4C174.333 152.2 173.6 155.533 173.6 159.4Z" fill="white"/>
</svg>
