<svg width="373" height="300" viewBox="0 0 373 300" fill="none" xmlns="http://www.w3.org/2000/svg">
<path d="M186.6 221.4C176.2 221.4 166.933 219.267 158.8 215C150.667 210.733 144.2 204.867 139.4 197.4C134.733 189.8 132.4 181.133 132.4 171.4C132.4 164.333 133.8 157.067 136.6 149.6C139.533 142.133 144.067 134.267 150.2 126L184.4 80H222.8L182 133.6L154.4 166.2C156.267 153.533 160.933 143.8 168.4 137C175.867 130.2 184.867 126.8 195.4 126.8C203.533 126.8 211 128.6 217.8 132.2C224.6 135.667 230.067 140.8 234.2 147.6C238.333 154.267 240.4 162.467 240.4 172.2C240.4 182.2 237.933 190.933 233 198.4C228.067 205.733 221.533 211.4 213.4 215.4C205.267 219.4 196.333 221.4 186.6 221.4ZM167.6 172.4C167.6 176.267 168.333 179.667 169.8 182.6C171.4 185.533 173.6 187.8 176.4 189.4C179.333 191 182.733 191.8 186.6 191.8C190.467 191.8 193.8 191 196.6 189.4C199.4 187.8 201.533 185.533 203 182.6C204.467 179.667 205.2 176.267 205.2 172.4C205.2 168.533 204.467 165.2 203 162.4C201.533 159.467 199.4 157.2 196.6 155.6C193.8 154 190.467 153.2 186.6 153.2C182.733 153.2 179.333 154 176.4 155.6C173.6 157.2 171.4 159.467 169.8 162.4C168.333 165.2 167.6 168.533 167.6 172.4Z" fill="white"/>
<path d="M42.89 297.89L7.48001 297.89C6.02662 297.89 4.63274 297.313 3.60504 296.285C2.57734 295.257 2 293.863 2 292.41L2 257" stroke="white" stroke-width="3" stroke-miterlimit="10"/>
<path d="M330 2.00001L365.41 2.00001C366.129 1.99869 366.842 2.13921 367.506 2.41351C368.171 2.68782 368.775 3.09053 369.284 3.59859C369.793 4.10666 370.197 4.71011 370.473 5.37442C370.748 6.03872 370.89 6.75084 370.89 7.47001L370.89 42.89" stroke="white" stroke-width="3" stroke-miterlimit="10"/>
</svg>
