<svg id="Capa_1" data-name="Capa 1" xmlns="http://www.w3.org/2000/svg" xmlns:xlink="http://www.w3.org/1999/xlink" viewBox="0 0 358.94 486.54"><defs><style>.cls-1{fill:none;}.cls-2{fill:#261d38;}.cls-3{clip-path:url(#clip-path);}.cls-4{fill:#fff;}</style><clipPath id="clip-path" transform="translate(-5.73 -5)"><circle class="cls-1" cx="185.2" cy="184.47" r="179.47"/></clipPath></defs><title>chatBot</title><circle class="cls-2" cx="179.47" cy="179.47" r="179.47"/><g class="cls-3"><path class="cls-4" d="M187.12,313.31A104.33,104.33,0,0,0,269.18,144.5c18.14-6.93,32.72-18.39,41.84-39,12.7-28.58-4.76-44.85-4.76-44.85s-13.49,38.5-52,40.48c-21.32,1.1-42,2-61.45,3.59-1.89-.1-3.78-.16-5.7-.16a104.37,104.37,0,0,0,0,208.73Zm0-160A55.61,55.61,0,1,1,131.52,209,55.61,55.61,0,0,1,187.12,153.34Z" transform="translate(-5.73 -5)"/><path class="cls-4" d="M247.07,336.56l-.18,0c-35.53-5.22-56.11-2.4-100.19-8.7-46.25-6.6-52-40.47-52-40.47S77.26,303.63,90,332.2c14.2,32.07,41.63,42,75.14,47.16,12.84,2,26.56,3.24,40.78,4.77,4.7.51,9.45,1,14.24,1.64,50.32,6.29,53.87,35.34,54,42.19,0,.93,0,1.46,0,1.46-7.35,48.08-49.44,52.2-80.49,50.12a77.95,77.95,0,1,0,53.48-143Z" transform="translate(-5.73 -5)"/><path class="cls-4" d="M165.07,223.24c2.84-1.17,16-5.32,9.7-26-3.23-11.78-13.5-12.35-13.5-12.35s-14.44-2.67-16.72,17.1S162.24,224.41,165.07,223.24Z" transform="translate(-5.73 -5)"/><path class="cls-4" d="M195.09,210.45c3.48-2.89,9-6.93,13.85-8,6.42-1.47,13,8.43,17.59,13.67a1.89,1.89,0,0,0,3.3-1.07c.92-11.84-10.6-24.68-20.67-23.48-12.5,1.66-16.11,11.19-17.13,17.14A1.88,1.88,0,0,0,195.09,210.45Z" transform="translate(-5.73 -5)"/></g></svg>