<?xml version="1.0" encoding="utf-8"?>
<!-- Generator: Adobe Illustrator 23.0.0, SVG Export Plug-In . SVG Version: 6.00 Build 0)  -->
<svg version="1.1" id="Capa_1" xmlns="http://www.w3.org/2000/svg" xmlns:xlink="http://www.w3.org/1999/xlink" x="0px" y="0px"
	 viewBox="0 0 606.7 319.8" style="enable-background:new 0 0 606.7 319.8;" xml:space="preserve">
<style type="text/css">
	.st0{fill:#FFFFFF;}
</style>
<title>Costo</title>
<path class="st0" d="M1.7,71.6c0-1.4,0.4-2.7,1.1-3.9c0.7-1,1.7-1.8,2.8-2.3c1.3-0.6,2.7-0.8,4.2-0.8c1.4,0,2.9,0.2,4.2,0.8
	c1,0.5,1.9,1.3,2.5,2.3s0.9,2.1,0.9,3.2c0,0.8-0.2,1.7-0.5,2.4c-0.3,0.6-0.8,1.1-1.4,1.5c-0.5,0.3-1,0.6-1.6,0.8v0.1
	c0.7,0.2,1.4,0.6,2,1s1.1,1,1.4,1.6c0.4,0.8,0.5,1.6,0.5,2.5c0,1.2-0.3,2.4-0.9,3.5c-0.6,1-1.5,1.8-2.6,2.3
	c-1.3,0.6-2.7,0.9-4.2,0.8c-1.5,0-3-0.2-4.4-0.7c-1.2-0.4-2.3-1.3-3-2.3c-0.8-1.3-1.2-2.8-1.1-4.4h5.5c-0.1,0.8,0.1,1.6,0.7,2.1
	c0.6,0.4,1.4,0.6,2.2,0.6c0.5,0,0.9-0.1,1.3-0.3c0.3-0.2,0.6-0.5,0.8-0.8c0.2-0.4,0.3-0.8,0.3-1.3c0.1-0.8-0.3-1.5-0.9-1.9
	c-0.9-0.4-2-0.6-3-0.5h-1v-4h1c0.6,0,1.1,0,1.7-0.1c0.5-0.1,0.9-0.3,1.3-0.6c0.4-0.4,0.5-0.9,0.5-1.4c0-0.6-0.2-1.3-0.6-1.7
	c-0.4-0.4-1-0.6-1.6-0.6c-0.5,0-1,0.1-1.4,0.3c-0.3,0.2-0.6,0.5-0.7,0.8c-0.4,0.3-0.5,0.6-0.5,1H1.7z M35.8,64.8v4.7h-9.4v4.1
	c0.4-0.5,0.9-0.8,1.5-1.1c0.7-0.3,1.5-0.4,2.3-0.4c1.1,0,2.2,0.2,3.2,0.6c0.9,0.4,1.6,1,2.2,1.7c0.6,0.7,1,1.5,1.3,2.4
	s0.4,1.8,0.4,2.7c0,1.5-0.3,3-1,4.3c-0.6,1.2-1.6,2.1-2.8,2.8c-1.4,0.7-2.8,1-4.3,0.9c-1.6,0-3.1-0.3-4.5-0.9
	c-1.2-0.6-2.2-1.4-2.9-2.5c-0.7-1.1-1-2.3-1.1-3.6h5.5c0.1,0.6,0.4,1.1,0.8,1.5c0.6,0.5,1.3,0.7,2,0.7c0.5,0,1.1-0.1,1.5-0.3
	c0.4-0.3,0.7-0.7,0.9-1.1c0.2-0.6,0.3-1.2,0.3-1.8c0.1-0.8-0.2-1.6-0.7-2.2c-0.5-0.5-1.3-0.7-2-0.7c-0.6,0-1.2,0.2-1.7,0.6
	c-0.4,0.3-0.7,0.7-0.9,1.2h-5.5V64.8H35.8z M40,76c0-1.6,0.1-3.1,0.5-4.7c0.3-1.3,0.8-2.5,1.5-3.6c0.7-1,1.7-1.8,2.8-2.3
	c1.3-0.6,2.8-0.9,4.3-0.8c1.5,0,2.9,0.2,4.2,0.8c1.1,0.5,2.1,1.3,2.8,2.3c0.8,1.1,1.3,2.3,1.5,3.6c0.6,3.1,0.6,6.3,0,9.4
	c-0.3,1.3-0.8,2.5-1.6,3.6c-0.7,1-1.7,1.8-2.8,2.3c-1.3,0.6-2.8,0.8-4.2,0.8c-1.5,0-2.9-0.2-4.3-0.8c-1.1-0.5-2.1-1.3-2.8-2.3
	c-0.7-1.1-1.2-2.3-1.5-3.6C40.1,79.2,40,77.6,40,76z M52.4,76c0-0.9,0-1.7-0.1-2.5c-0.1-0.7-0.2-1.5-0.4-2.1s-0.5-1.1-1-1.5
	s-1.2-0.6-1.9-0.5c-0.7,0-1.3,0.2-1.8,0.5c-0.5,0.4-0.8,0.9-1,1.5c-0.2,0.7-0.4,1.4-0.4,2.1c-0.1,0.8-0.1,1.6-0.1,2.5s0,1.8,0.1,2.6
	c0,0.7,0.2,1.4,0.4,2.1c0.2,0.6,0.5,1.1,1,1.4c0.5,0.4,1.2,0.5,1.8,0.5c0.7,0,1.3-0.1,1.9-0.5c0.5-0.4,0.8-0.9,1-1.4
	c0.2-0.7,0.4-1.4,0.4-2.1C52.4,77.8,52.4,76.9,52.4,76z M60.9,76c0-1.6,0.1-3.1,0.5-4.7c0.3-1.3,0.8-2.5,1.5-3.6
	c0.7-1,1.7-1.8,2.8-2.3c1.3-0.6,2.8-0.9,4.3-0.8c1.5,0,2.9,0.2,4.2,0.8c1.1,0.5,2.1,1.3,2.8,2.3c0.8,1.1,1.3,2.3,1.6,3.6
	c0.6,3.1,0.6,6.3,0,9.4c-0.3,1.3-0.8,2.5-1.6,3.6c-0.7,1-1.7,1.8-2.8,2.3c-1.3,0.6-2.8,0.8-4.2,0.8c-1.5,0-2.9-0.2-4.3-0.8
	c-1.1-0.5-2.1-1.3-2.8-2.3c-0.8-1.1-1.3-2.3-1.6-3.6C61.1,79.2,60.9,77.6,60.9,76z M73.4,76c0-0.9,0-1.7-0.1-2.5
	c-0.1-0.7-0.2-1.5-0.4-2.1c-0.2-0.6-0.5-1.1-1-1.5c-1.1-0.7-2.6-0.7-3.7,0c-0.5,0.4-0.8,0.9-1,1.5c-0.2,0.7-0.4,1.4-0.4,2.1
	c-0.1,0.8-0.1,1.6-0.1,2.5s0,1.8,0.1,2.6c0.1,0.7,0.2,1.4,0.4,2.1c0.2,0.6,0.5,1.1,1,1.4c1.1,0.7,2.6,0.7,3.7,0
	c0.5-0.4,0.8-0.9,1-1.4c0.2-0.7,0.4-1.4,0.4-2.1C73.3,77.8,73.4,76.9,73.4,76z M91.1,64.8h5.6v13.8c0,0.8,0.2,1.5,0.5,2.2
	c0.3,0.6,0.8,1.1,1.4,1.4c0.7,0.3,1.4,0.5,2.2,0.5c0.8,0,1.5-0.1,2.2-0.5c0.6-0.3,1.1-0.8,1.5-1.4c0.4-0.7,0.6-1.4,0.6-2.2V64.8h5.6
	v13.3c0,1.4-0.2,2.8-0.8,4.1c-0.5,1.1-1.3,2.1-2.2,2.9c-0.9,0.8-2,1.4-3.2,1.7c-1.2,0.4-2.5,0.6-3.7,0.6c-1.7,0-3.3-0.3-4.8-1
	c-1.4-0.7-2.6-1.8-3.5-3.1c-0.9-1.6-1.4-3.4-1.3-5.2L91.1,64.8z M118.5,80.4c0.1,0.5,0.3,1.1,0.6,1.5c0.3,0.4,0.7,0.6,1.2,0.8
	c0.5,0.2,1.1,0.2,1.6,0.2c0.8,0.1,1.6-0.2,2.3-0.6c0.5-0.4,0.8-1,0.8-1.6c0-0.5-0.2-0.9-0.5-1.3c-0.4-0.4-0.9-0.6-1.4-0.8
	c-0.6-0.2-1.3-0.5-2-0.7s-1.7-0.5-2.6-0.8c-0.8-0.3-1.7-0.7-2.4-1.2c-0.7-0.5-1.4-1.1-1.8-1.9c-0.5-0.9-0.7-1.9-0.6-2.9
	c0-1.3,0.3-2.5,1.1-3.6c0.7-1,1.8-1.8,2.9-2.2c2.6-1,5.5-1,8.1-0.1c1.1,0.4,2,1,2.8,1.9c0.8,0.9,1.3,1.9,1.6,3l-5.1,0.9
	c-0.1-0.4-0.3-0.8-0.6-1.1c-0.3-0.3-0.7-0.5-1.1-0.6c-0.4-0.1-0.8-0.2-1.2-0.2c-0.5,0-1,0.1-1.4,0.3c-0.4,0.2-0.8,0.4-1.1,0.7
	c-0.3,0.3-0.4,0.7-0.4,1.1s0.1,0.8,0.4,1.2c0.4,0.3,0.8,0.6,1.3,0.8c0.5,0.2,1.1,0.5,1.8,0.7c0.9,0.3,1.8,0.6,2.7,0.9
	s1.8,0.7,2.6,1.3c0.8,0.5,1.4,1.1,1.9,1.9c0.5,0.9,0.8,1.9,0.7,2.9c0.1,2.5-1.4,4.8-3.7,5.8c-1.5,0.6-3.1,1-4.7,0.9
	c-1.5,0-2.9-0.2-4.3-0.7c-1.2-0.4-2.3-1.1-3.1-2c-0.8-0.9-1.4-2.1-1.6-3.3L118.5,80.4z M142.7,64.8c2.2-0.1,4.3,0.4,6.2,1.4
	c1.7,0.9,3.1,2.3,4.1,3.9c2,3.6,2,8,0,11.7c-1,1.7-2.4,3.1-4.1,4c-1.9,1-4.1,1.5-6.2,1.4h-9.1V64.8H142.7z M142.4,82.6
	c1.8,0.1,3.5-0.5,4.8-1.8c1.2-1.3,1.8-3,1.7-4.8c0.1-1.8-0.5-3.5-1.7-4.8c-1.3-1.2-3-1.9-4.8-1.8h-3.2v13L142.4,82.6z M81.3,218.3
	h5.6v13.8c0,0.8,0.2,1.5,0.5,2.2c0.3,0.6,0.8,1.1,1.4,1.4c0.7,0.3,1.4,0.5,2.2,0.4c0.8,0,1.5-0.1,2.2-0.4c0.6-0.3,1.1-0.8,1.5-1.4
	c0.4-0.7,0.6-1.4,0.6-2.2v-13.8h5.6v13.3c0,1.4-0.2,2.8-0.8,4.1c-0.5,1.1-1.3,2.1-2.2,2.9c-0.9,0.8-2,1.4-3.2,1.7
	c-1.2,0.4-2.5,0.6-3.7,0.6c-1.7,0-3.3-0.3-4.8-1c-1.4-0.7-2.6-1.8-3.5-3.1c-0.9-1.6-1.4-3.4-1.3-5.2L81.3,218.3z M108.7,233.9
	c0.1,0.5,0.3,1.1,0.6,1.5c0.3,0.4,0.7,0.6,1.2,0.8s1.1,0.2,1.6,0.2c0.8,0.1,1.6-0.2,2.3-0.6c0.5-0.4,0.8-1,0.8-1.6
	c0-0.5-0.2-0.9-0.5-1.3c-0.4-0.4-0.9-0.6-1.4-0.8c-0.6-0.2-1.3-0.5-2-0.7c-0.8-0.2-1.7-0.5-2.6-0.8c-0.8-0.3-1.7-0.7-2.4-1.2
	c-0.7-0.5-1.4-1.1-1.8-1.9c-0.5-0.9-0.7-1.9-0.6-2.9c0-1.3,0.3-2.5,1.1-3.6c0.7-1,1.8-1.8,2.9-2.2c2.6-1,5.5-1,8.1-0.1
	c1.1,0.4,2,1,2.8,1.9s1.3,1.9,1.6,3l-5.1,0.9c-0.1-0.4-0.3-0.8-0.6-1.1c-0.3-0.3-0.7-0.5-1.1-0.6s-0.8-0.2-1.2-0.2
	c-0.5,0-1,0.1-1.4,0.3s-0.8,0.4-1.1,0.7c-0.3,0.3-0.4,0.7-0.4,1.1c0,0.4,0.1,0.8,0.4,1.1c0.4,0.3,0.8,0.6,1.3,0.8s1.1,0.5,1.8,0.7
	c0.9,0.3,1.8,0.6,2.7,0.9c0.9,0.3,1.8,0.7,2.6,1.3c0.8,0.5,1.4,1.1,1.9,1.9c0.5,0.9,0.8,1.9,0.7,2.9c0.1,2.5-1.4,4.8-3.7,5.8
	c-1.5,0.6-3.1,1-4.7,0.9c-1.5,0-2.9-0.2-4.3-0.7c-1.2-0.4-2.3-1.1-3.1-2c-0.8-0.9-1.4-2.1-1.6-3.3L108.7,233.9z M133,218.3
	c2.2-0.1,4.3,0.4,6.2,1.4c1.7,0.9,3.1,2.3,4.1,3.9c2,3.6,2,8,0,11.7c-1,1.7-2.4,3.1-4.1,4c-1.9,1-4.1,1.5-6.2,1.4h-9.1v-22.4
	L133,218.3L133,218.3z M132.6,236.1c1.8,0.1,3.5-0.5,4.8-1.8c1.2-1.3,1.8-3,1.7-4.8c0.1-1.8-0.5-3.5-1.7-4.8c-1.3-1.2-3-1.9-4.8-1.8
	h-3.2v13h3.2V236.1z M168.6,84h0.3v9.7h-2.4V71.2h2.1l0.2,3c0.5-0.9,1.3-1.7,2.2-2.3c1.1-0.7,2.3-1,3.6-0.9c2.7,0,5.2,1.5,6.4,3.9
	c0.7,1.3,1,2.8,1,4.4c0,1.5-0.3,3-0.9,4.4c-0.6,1.2-1.5,2.2-2.6,2.8c-1.2,0.7-2.5,1-3.8,1c-1.3,0.1-2.7-0.3-3.8-1
	C169.8,85.9,169.1,85,168.6,84z M179.3,79.2c0.1-1.6-0.4-3.1-1.4-4.4c-1-1.1-2.4-1.7-3.8-1.6c-1,0-1.9,0.2-2.7,0.7s-1.4,1.2-1.9,2
	c-0.5,1-0.7,2.1-0.7,3.2s0.2,2.2,0.7,3.2c0.4,0.9,1.1,1.6,1.9,2.1c0.8,0.5,1.8,0.7,2.7,0.7c1.4,0.1,2.8-0.5,3.8-1.6
	C178.9,82.4,179.4,80.8,179.3,79.2L179.3,79.2z M195.9,87.2l-0.2-2.9c-0.4,0.9-1.1,1.8-2,2.3c-1,0.6-2.2,0.8-3.3,0.8
	c-1,0-2-0.2-2.9-0.5c-1.6-0.6-2.6-2.2-2.5-3.9c0-1.3,0.5-2.5,1.5-3.3c1.3-1,2.8-1.5,4.4-1.6l4.9-0.5v-1.3c0-0.8-0.3-1.6-1-2.1
	c-0.8-0.6-1.7-0.9-2.7-0.8c-1,0-2,0.2-2.8,0.8c-0.7,0.5-1.3,1.3-1.5,2.2l-2.2-0.8c0.4-1.3,1.2-2.5,2.3-3.3c1.2-0.8,2.7-1.2,4.2-1.2
	c1.6-0.1,3.2,0.4,4.4,1.5c1.1,1,1.7,2.5,1.6,3.9v10.8L195.9,87.2L195.9,87.2z M195.7,79.6l-5,0.6c-0.9,0.1-1.7,0.4-2.4,0.9
	c-0.5,0.4-0.9,1.1-0.8,1.8c0,0.7,0.3,1.4,0.8,1.8c0.7,0.5,1.5,0.7,2.4,0.7c1,0,2-0.2,2.9-0.7c0.7-0.4,1.3-1.1,1.6-1.9
	c0.4-0.8,0.6-1.7,0.6-2.6L195.7,79.6z M202.8,71.2h2.2l0.1,2.3c0.4-0.6,0.9-1.1,1.5-1.5s1.3-0.7,2-0.8c0.8-0.2,1.6-0.2,2.4,0v2.4
	c-0.8-0.2-1.6-0.2-2.4,0c-0.7,0.2-1.3,0.5-1.8,1s-0.9,1.1-1.1,1.7c-0.3,0.8-0.4,1.6-0.4,2.5v8.4h-2.4L202.8,71.2z M224.3,87.2
	l-0.2-2.9c-0.4,1-1.1,1.8-2,2.3c-1,0.6-2.2,0.8-3.3,0.8c-1,0-2-0.2-2.9-0.5c-0.8-0.3-1.4-0.9-1.9-1.5c-0.4-0.7-0.7-1.6-0.6-2.4
	c0-1.3,0.5-2.5,1.5-3.3c1.3-1,2.8-1.5,4.4-1.6l4.9-0.5v-1.3c0-0.8-0.3-1.6-1-2.1c-0.8-0.6-1.7-0.9-2.7-0.8c-1,0-2,0.2-2.8,0.8
	c-0.7,0.5-1.3,1.3-1.5,2.2l-2.2-0.8c0.4-1.3,1.2-2.5,2.3-3.3c1.2-0.8,2.7-1.2,4.2-1.2c1.6-0.1,3.2,0.4,4.4,1.5
	c1.1,1,1.7,2.5,1.6,3.9v10.8L224.3,87.2L224.3,87.2z M224.1,79.6l-5,0.6c-0.9,0.1-1.7,0.4-2.4,0.9c-1,0.9-1.1,2.4-0.2,3.3
	c0.1,0.1,0.2,0.2,0.2,0.2c0.7,0.5,1.5,0.7,2.4,0.7c1,0,2-0.2,2.9-0.7c0.7-0.4,1.3-1.1,1.7-1.9s0.5-1.7,0.5-2.6L224.1,79.6z
	 M253.3,87.2h-2.2l-0.2-2.3c-0.5,0.8-1.2,1.5-2,1.9c-0.9,0.4-1.9,0.7-2.9,0.6c-1.1,0-2.2-0.2-3.2-0.8c-0.9-0.5-1.7-1.3-2.1-2.3
	c-0.5-1.2-0.8-2.5-0.7-3.9v-9.3h2.4v9c-0.1,1.3,0.2,2.6,1,3.7c0.8,0.9,1.9,1.3,3.1,1.3c1.2,0.1,2.4-0.4,3.2-1.3
	c0.9-1.1,1.3-2.6,1.2-4v-8.7h2.4V87.2z M258.1,71.2h2.2l0.1,2.3c0.5-0.8,1.2-1.4,2-1.8c0.9-0.5,1.9-0.7,2.9-0.7
	c1.1,0,2.2,0.3,3.2,0.8c0.9,0.5,1.7,1.4,2.1,2.3c0.6,1.2,0.8,2.5,0.8,3.9v9.2H269v-8.9c0.1-1.3-0.3-2.7-1.1-3.8
	c-0.8-0.9-1.9-1.4-3.1-1.3c-1.2-0.1-2.4,0.4-3.3,1.4c-0.9,1.2-1.3,2.6-1.2,4.1v8.6h-2.4L258.1,71.2z M297.4,71.2h2.2v13
	c0,1.8-0.4,3.5-1.3,5c-0.9,1.4-2.2,2.5-3.8,3.2c-1.9,0.8-4,1.2-6.1,1.1l-0.4-2.2c3,0,5.3-0.7,6.8-1.9c1.6-1.3,2.5-3.2,2.3-5.3v-0.2
	l0.3,0.1c-1.1,2.2-3.5,3.6-6,3.5c-1.4,0-2.7-0.3-3.9-1c-1.1-0.7-2-1.7-2.6-2.9c-0.6-1.4-0.9-2.9-0.9-4.3c0-1.5,0.3-3,0.9-4.3
	c0.6-1.1,1.5-2.1,2.6-2.8c1.2-0.7,2.5-1,3.9-1c0.9,0,1.7,0.1,2.6,0.4c0.7,0.3,1.4,0.6,1.9,1.2c0.5,0.5,1,1,1.3,1.6L297.4,71.2z
	 M286.7,79.2c-0.1,1.6,0.4,3.1,1.4,4.4c1,1.1,2.4,1.7,3.9,1.6c0.9,0,1.9-0.2,2.7-0.7c0.8-0.5,1.4-1.2,1.9-2c0.5-1,0.7-2.1,0.7-3.2
	s-0.2-2.2-0.7-3.2c-0.4-0.8-1.1-1.5-1.9-2c-2.1-1.3-4.8-0.9-6.5,0.9C287.2,76.2,286.7,77.7,286.7,79.2L286.7,79.2z M304.5,71.2h2.2
	l0.1,2.3c0.4-0.6,0.9-1.1,1.5-1.5s1.3-0.7,2-0.8c0.8-0.2,1.6-0.2,2.4,0v2.4c-0.8-0.2-1.6-0.2-2.4,0c-0.7,0.2-1.3,0.5-1.8,1
	s-0.9,1.1-1.2,1.8c-0.3,0.8-0.4,1.6-0.4,2.5v8.4h-2.4L304.5,71.2z M329.2,87.2H327l-0.2-2.3c-0.5,0.8-1.2,1.5-2,1.9
	c-0.9,0.4-1.9,0.7-2.9,0.6c-1.1,0-2.2-0.2-3.2-0.8c-0.9-0.5-1.7-1.3-2.1-2.3c-0.5-1.2-0.8-2.5-0.7-3.9v-9.3h2.4v9
	c-0.1,1.3,0.3,2.7,1.1,3.7c0.8,0.9,1.9,1.3,3.1,1.3c1.2,0.1,2.4-0.4,3.3-1.3c0.9-1.1,1.3-2.6,1.2-4v-8.7h2.4L329.2,87.2z M336.2,84
	h0.3v9.7h-2.4V71.2h2.2l0.2,3c0.5-0.9,1.3-1.7,2.2-2.3c1.1-0.7,2.3-1,3.6-0.9c2.7,0,5.2,1.5,6.4,3.9c0.7,1.3,1,2.8,1,4.4
	c0,1.5-0.3,3-0.9,4.4c-0.6,1.2-1.5,2.2-2.6,2.8c-1.2,0.7-2.5,1-3.8,1s-2.7-0.3-3.8-1C337.5,85.9,336.7,85,336.2,84L336.2,84z
	 M346.9,79.2c0.1-1.6-0.4-3.1-1.4-4.4c-1-1.1-2.4-1.7-3.8-1.6c-1,0-1.9,0.2-2.7,0.7c-0.8,0.5-1.4,1.2-1.9,2c-0.5,1-0.7,2.1-0.7,3.2
	s0.2,2.2,0.7,3.2c0.4,0.9,1.1,1.6,1.9,2.1s1.8,0.7,2.7,0.7c1.4,0.1,2.8-0.5,3.8-1.6C346.5,82.4,347,80.8,346.9,79.2L346.9,79.2z
	 M360.3,87.5c-1.4,0-2.8-0.3-4.1-1c-1.2-0.7-2.2-1.6-2.8-2.8c-1.4-2.8-1.4-6,0-8.8c0.7-1.2,1.7-2.2,2.9-2.8c1.3-0.7,2.7-1,4.1-1
	s2.8,0.3,4.1,1c1.2,0.7,2.2,1.6,2.9,2.8c0.7,1.3,1.1,2.8,1,4.3c0.1,1.5-0.3,3.1-1,4.4c-0.7,1.2-1.7,2.2-2.9,2.8
	C363.2,87.1,361.8,87.5,360.3,87.5L360.3,87.5z M360.3,85.2c0.9,0,1.8-0.2,2.6-0.6c0.8-0.5,1.5-1.2,2-2c0.6-1,0.8-2.2,0.8-3.4
	c0-1.2-0.2-2.4-0.8-3.4c-0.5-0.8-1.2-1.5-2-1.9s-1.7-0.6-2.6-0.6s-1.8,0.2-2.6,0.6c-0.9,0.5-1.5,1.1-2,2c-0.5,1-0.8,2.2-0.7,3.4
	c0,1.2,0.2,2.3,0.7,3.4c0.4,0.8,1.1,1.5,1.9,2C358.5,85,359.4,85.2,360.3,85.2L360.3,85.2z M14.5,108.6h-0.3V98.3h2.4v23h-2.1
	l-0.2-3c-0.5,0.9-1.3,1.7-2.2,2.3c-1.1,0.7-2.3,1-3.6,0.9c-1.4,0-2.7-0.3-3.9-1c-1.1-0.7-2-1.7-2.6-2.9c-0.6-1.4-0.9-2.9-0.9-4.3
	c0-1.5,0.3-3,0.9-4.3c0.6-1.2,1.5-2.2,2.6-2.9c1.2-0.7,2.5-1,3.9-1c1.3,0,2.6,0.3,3.8,1C13.3,106.8,14,107.6,14.5,108.6z M3.8,113.4
	c-0.1,1.6,0.4,3.1,1.4,4.4c1,1.1,2.4,1.7,3.8,1.6c0.9,0,1.9-0.2,2.7-0.7s1.4-1.2,1.9-2c0.5-1,0.7-2.1,0.7-3.2s-0.2-2.2-0.7-3.2
	c-0.4-0.8-1.1-1.5-1.9-2s-1.7-0.8-2.7-0.7c-1.5-0.1-2.9,0.5-3.8,1.6C4.2,110.3,3.7,111.9,3.8,113.4L3.8,113.4z M28.3,121.6
	c-1.4,0-2.8-0.4-4-1.1c-1.2-0.7-2.1-1.8-2.7-3c-0.7-1.3-1-2.8-1-4.3c0-1.4,0.3-2.9,1-4.2c0.6-1.2,1.6-2.2,2.7-2.8
	c1.2-0.7,2.5-1.1,3.9-1.1s2.7,0.3,3.9,1c1.1,0.6,2.1,1.5,2.7,2.7c0.7,1.2,1,2.5,0.9,3.9c0,0.2,0,0.5,0,0.7s0,0.5-0.1,0.8H23.2
	c0,0.9,0.3,1.8,0.7,2.7c0.8,1.6,2.5,2.5,4.3,2.5c1.1,0,2.2-0.2,3.1-0.7c0.8-0.4,1.5-1.1,1.9-2l2.1,0.8c-0.6,1.3-1.6,2.4-2.8,3.1
	C31.3,121.3,29.8,121.7,28.3,121.6L28.3,121.6z M33.1,112.1c0-0.9-0.2-1.7-0.6-2.4c-0.4-0.7-1-1.3-1.7-1.7c-0.8-0.4-1.7-0.6-2.6-0.6
	c-0.8,0-1.6,0.2-2.3,0.6s-1.3,1-1.8,1.7s-0.7,1.5-0.8,2.4H33.1z M62.7,99v2.2H51.3v7.5c0.6-0.7,1.3-1.3,2.2-1.7
	c1-0.4,2.1-0.7,3.2-0.6c1.2,0,2.4,0.2,3.5,0.7c0.9,0.4,1.7,1,2.3,1.8c0.6,0.7,1,1.5,1.3,2.4c0.3,0.8,0.4,1.7,0.4,2.5
	c0,1.4-0.3,2.7-0.9,3.9c-0.6,1.2-1.5,2.2-2.7,2.9c-1.3,0.8-2.8,1.1-4.3,1.1c-1.4,0-2.7-0.2-3.9-0.8c-1.1-0.5-2-1.3-2.7-2.2
	c-0.7-1-1.1-2.1-1.3-3.3h2.5c0.2,1.2,0.9,2.3,1.9,3s2.3,1.1,3.5,1c1,0,2.1-0.2,3-0.7c0.8-0.5,1.4-1.2,1.7-2c0.4-0.9,0.6-1.9,0.6-2.9
	c0.3-2.6-1.6-4.9-4.1-5.2c-0.3,0-0.7,0-1,0c-1.1,0-2.2,0.3-3.2,0.8c-0.9,0.5-1.6,1.3-2,2.2h-2.4V99C48.9,99,62.7,99,62.7,99z
	 M68.3,110.2c0-1.5,0.1-3,0.4-4.5c0.2-1.3,0.6-2.5,1.2-3.7c0.6-1,1.4-1.8,2.4-2.4c1.2-0.6,2.6-0.9,3.9-0.9c1.4-0.1,2.7,0.2,3.9,0.9
	c1,0.5,1.8,1.4,2.4,2.4c0.6,1.1,1,2.4,1.2,3.7c0.2,1.5,0.4,3,0.4,4.5s-0.1,3.1-0.4,4.6c-0.2,1.3-0.6,2.5-1.2,3.6
	c-0.6,1-1.4,1.8-2.4,2.4c-1.2,0.6-2.6,0.9-3.9,0.8c-1.4,0-2.7-0.2-3.9-0.8c-1-0.5-1.8-1.4-2.4-2.4c-0.6-1.1-1-2.4-1.2-3.6
	C68.4,113.3,68.3,111.7,68.3,110.2L68.3,110.2z M81.5,110.2c0-1.2-0.1-2.4-0.2-3.5c-0.1-1-0.3-2-0.7-2.9c-0.3-0.8-0.8-1.5-1.6-2
	c-0.9-0.5-1.8-0.8-2.9-0.7c-1,0-2,0.2-2.8,0.7c-0.7,0.5-1.3,1.2-1.6,2c-0.4,0.9-0.6,1.9-0.7,2.9c-0.1,1.2-0.2,2.3-0.2,3.5
	c0,1.3,0,2.5,0.2,3.6c0.1,1,0.3,2,0.7,2.9c0.3,0.8,0.9,1.5,1.6,2c0.9,0.5,1.8,0.7,2.8,0.7s2-0.2,2.9-0.7c0.7-0.5,1.3-1.2,1.6-2
	c0.4-0.9,0.6-1.9,0.7-2.9C81.4,112.6,81.5,111.4,81.5,110.2L81.5,110.2z M96.9,116h0.3v9.7h-2.4v-22.5H97l0.2,3
	c0.5-0.9,1.3-1.7,2.2-2.3c1.1-0.7,2.3-1,3.6-0.9c2.7,0,5.2,1.5,6.4,3.9c0.7,1.3,1,2.8,1,4.4c0,1.5-0.3,3-0.9,4.3
	c-0.6,1.2-1.5,2.2-2.6,2.8c-1.2,0.7-2.5,1-3.8,1c-1.3,0.1-2.7-0.3-3.8-1C98.1,117.9,97.4,117,96.9,116L96.9,116z M107.6,111.2
	c0.1-1.6-0.4-3.1-1.4-4.4c-1-1.1-2.4-1.7-3.8-1.6c-1,0-1.9,0.2-2.7,0.7c-0.8,0.5-1.4,1.2-1.9,2c-0.5,1-0.7,2.1-0.7,3.2
	s0.2,2.2,0.7,3.2c0.4,0.9,1.1,1.6,1.9,2.1s1.8,0.7,2.7,0.7c1.4,0.1,2.8-0.5,3.8-1.6C107.2,114.4,107.7,112.8,107.6,111.2z
	 M120.8,119.5c-1.4,0-2.8-0.4-4-1.1c-1.2-0.7-2.1-1.8-2.7-3c-0.7-1.3-1-2.8-1-4.3c0-1.4,0.3-2.9,1-4.2c0.6-1.2,1.6-2.2,2.7-2.8
	c1.2-0.7,2.5-1.1,3.9-1.1c1.4,0,2.7,0.3,3.9,1c1.1,0.6,2.1,1.5,2.7,2.7c0.7,1.2,1,2.5,0.9,3.9c0,0.2,0,0.5,0,0.7s0,0.5-0.1,0.8
	h-12.4c0,0.9,0.3,1.8,0.7,2.7c0.4,0.7,1,1.4,1.8,1.8s1.6,0.7,2.5,0.6c1.1,0,2.2-0.2,3.1-0.7c0.8-0.4,1.5-1.1,1.9-2l2.1,0.8
	c-0.6,1.3-1.6,2.4-2.8,3.1C123.8,119.1,122.4,119.5,120.8,119.5L120.8,119.5z M125.6,110c0-0.9-0.2-1.7-0.6-2.4
	c-0.4-0.7-1-1.3-1.7-1.7c-0.8-0.4-1.7-0.6-2.6-0.6c-0.8,0-1.6,0.2-2.3,0.6c-0.7,0.4-1.3,1-1.7,1.7c-0.5,0.7-0.7,1.5-0.8,2.4H125.6z
	 M132.2,103.2h2.2l0.1,2.3c0.4-0.6,0.9-1.1,1.5-1.5s1.3-0.7,2-0.8c0.8-0.2,1.6-0.2,2.4,0v2.4c-0.8-0.2-1.6-0.2-2.4,0
	c-0.7,0.2-1.3,0.5-1.8,1s-0.9,1.1-1.2,1.8c-0.3,0.8-0.4,1.6-0.4,2.4v8.4h-2.4V103.2z M145,114.3c0.1,0.6,0.3,1.1,0.7,1.6
	c0.4,0.4,0.8,0.7,1.3,0.9c0.6,0.2,1.3,0.3,1.9,0.3c0.9,0.1,1.8-0.2,2.6-0.6c0.6-0.4,0.9-1,0.9-1.7c0-0.5-0.2-1-0.5-1.3
	c-0.4-0.4-0.9-0.7-1.4-0.8c-0.6-0.3-1.2-0.5-1.9-0.6l-1.8-0.4c-0.6-0.2-1.2-0.4-1.8-0.8c-0.6-0.3-1-0.7-1.4-1.2
	c-0.4-0.6-0.6-1.3-0.5-2c0-0.9,0.2-1.7,0.7-2.4c0.5-0.7,1.3-1.3,2.1-1.6c1-0.4,2-0.6,3.1-0.6c1.2,0,2.4,0.3,3.5,0.9
	c1,0.6,1.8,1.5,2.1,2.7l-2.2,0.8c-0.1-0.5-0.4-0.9-0.8-1.3c-0.4-0.3-0.8-0.5-1.3-0.6s-0.9-0.2-1.4-0.2c-0.8,0-1.6,0.2-2.3,0.6
	c-0.6,0.3-1,1-0.9,1.7c0,0.4,0.1,0.7,0.3,1s0.5,0.5,0.8,0.6c0.4,0.2,0.8,0.3,1.2,0.4c0.5,0.1,1,0.2,1.5,0.4c0.6,0.2,1.3,0.3,1.9,0.6
	c0.6,0.2,1.2,0.5,1.8,0.9c0.5,0.3,1,0.8,1.3,1.3c0.4,0.6,0.6,1.3,0.6,2c0,0.9-0.3,1.7-0.8,2.5c-0.6,0.7-1.3,1.3-2.2,1.6
	c-1,0.4-2.1,0.6-3.1,0.6c-1.4,0.1-2.9-0.3-4.1-1.1c-1.1-0.8-1.9-1.9-2.1-3.3L145,114.3z M165.8,119.5c-1.4,0-2.8-0.3-4.1-1
	c-1.2-0.7-2.2-1.6-2.8-2.8c-1.4-2.8-1.4-6,0-8.8c0.7-1.2,1.7-2.2,2.9-2.8c1.3-0.7,2.7-1,4.1-1c1.4,0,2.8,0.3,4.1,1
	c1.2,0.7,2.2,1.6,2.8,2.8c0.7,1.3,1.1,2.8,1,4.3c0.1,1.5-0.3,3.1-1,4.4c-0.7,1.2-1.7,2.2-2.9,2.8
	C168.7,119.1,167.3,119.5,165.8,119.5L165.8,119.5z M165.8,117.2c0.9,0,1.8-0.2,2.6-0.6c0.8-0.5,1.5-1.2,2-2c0.6-1,0.8-2.2,0.8-3.4
	c0-1.2-0.2-2.4-0.8-3.4c-0.5-0.8-1.2-1.5-2-1.9s-1.7-0.6-2.6-0.6c-0.9,0-1.8,0.2-2.6,0.6c-0.9,0.5-1.5,1.1-2,2
	c-0.5,1-0.8,2.2-0.7,3.4c0,1.2,0.2,2.3,0.7,3.4c0.4,0.8,1.1,1.5,1.9,2C164,117,164.9,117.2,165.8,117.2z M177.8,103.2h2.2l0.1,2.3
	c0.5-0.8,1.2-1.4,2-1.8c0.9-0.5,1.9-0.7,2.9-0.7c1.1,0,2.2,0.3,3.2,0.8c0.9,0.5,1.7,1.4,2.1,2.3c0.6,1.2,0.8,2.5,0.8,3.9v9.2h-2.4
	v-8.9c0.1-1.3-0.3-2.7-1.1-3.8c-0.8-0.9-1.9-1.4-3.1-1.3c-1.2-0.1-2.4,0.4-3.3,1.4c-0.8,1.2-1.3,2.6-1.2,4.1v8.6h-2.4L177.8,103.2z
	 M205.9,119.2l-0.2-2.9c-0.4,0.9-1.1,1.7-2,2.3c-1,0.6-2.2,0.8-3.3,0.8c-1,0-2-0.2-2.9-0.5c-1.6-0.6-2.6-2.2-2.5-3.9
	c0-1.3,0.5-2.5,1.5-3.3c1.3-1,2.8-1.5,4.4-1.6l4.9-0.5v-1.2c0-0.8-0.3-1.6-1-2.1c-0.8-0.6-1.7-0.9-2.7-0.8c-1,0-2,0.2-2.8,0.8
	c-0.7,0.5-1.3,1.3-1.5,2.2l-2.2-0.8c0.4-1.3,1.2-2.5,2.3-3.3c1.2-0.8,2.7-1.2,4.2-1.2c1.6-0.1,3.2,0.4,4.4,1.5
	c1.1,1,1.7,2.5,1.6,3.9v10.8L205.9,119.2z M205.7,111.5l-5,0.6c-0.9,0.1-1.7,0.4-2.4,0.9c-0.5,0.4-0.9,1.1-0.8,1.8
	c0,0.7,0.3,1.4,0.8,1.8c0.7,0.5,1.5,0.7,2.4,0.7c1,0,2-0.2,2.9-0.7c0.7-0.4,1.3-1.1,1.6-1.9c0.4-0.8,0.6-1.7,0.6-2.6L205.7,111.5z
	 M325.9,240.5l-0.2-2.9c-0.4,0.9-1.1,1.7-2,2.3c-1,0.6-2.2,0.8-3.3,0.8c-1,0-2-0.2-2.9-0.5c-1.6-0.6-2.6-2.2-2.5-3.9
	c0-1.3,0.5-2.5,1.5-3.3c1.3-1,2.8-1.5,4.4-1.6l4.9-0.5v-1.2c0-0.8-0.3-1.6-1-2.1c-0.8-0.6-1.7-0.9-2.7-0.8c-1,0-2,0.2-2.8,0.8
	c-0.7,0.5-1.3,1.3-1.5,2.2l-2.2-0.8c0.4-1.3,1.2-2.5,2.3-3.3c1.2-0.8,2.7-1.2,4.2-1.2c1.6-0.1,3.2,0.4,4.4,1.5
	c1.1,1,1.7,2.5,1.6,3.9v10.8L325.9,240.5z M325.7,232.8l-5,0.6c-0.9,0.1-1.7,0.4-2.4,0.9c-0.5,0.4-0.9,1.1-0.8,1.8
	c0,0.7,0.3,1.4,0.8,1.8c0.7,0.5,1.5,0.7,2.4,0.7c1,0,2-0.2,2.9-0.7c0.7-0.4,1.3-1.1,1.6-1.9c0.4-0.8,0.6-1.7,0.5-2.6V232.8z
	 M214.1,114.3c0.1,0.6,0.3,1.1,0.7,1.6c0.4,0.4,0.8,0.7,1.3,0.9c0.6,0.2,1.3,0.3,1.9,0.3c0.9,0.1,1.8-0.2,2.6-0.6
	c0.6-0.4,0.9-1,0.9-1.7c0-0.5-0.2-1-0.5-1.3c-0.4-0.4-0.9-0.7-1.4-0.8c-0.6-0.3-1.3-0.5-1.9-0.6l-1.8-0.4c-0.6-0.2-1.2-0.4-1.8-0.8
	c-0.6-0.3-1-0.7-1.4-1.2c-0.4-0.6-0.6-1.3-0.5-2c0-0.9,0.2-1.7,0.7-2.4c0.5-0.7,1.3-1.3,2.1-1.6c1-0.4,2-0.6,3.1-0.6
	c1.2,0,2.4,0.3,3.5,0.9c1,0.6,1.8,1.5,2.1,2.7l-2.2,0.8c-0.1-0.5-0.4-1-0.8-1.3c-0.4-0.3-0.8-0.5-1.3-0.6s-0.9-0.2-1.4-0.2
	c-0.8,0-1.6,0.2-2.3,0.6c-0.6,0.4-0.9,1-0.9,1.7c0,0.4,0.1,0.7,0.3,1s0.5,0.5,0.8,0.6c0.4,0.2,0.8,0.3,1.2,0.4
	c0.5,0.1,1,0.2,1.5,0.4c0.6,0.2,1.3,0.3,1.9,0.6c0.6,0.2,1.2,0.5,1.8,0.9c0.5,0.3,1,0.8,1.3,1.3c0.4,0.6,0.6,1.3,0.6,2
	c0,0.9-0.3,1.7-0.8,2.5c-0.6,0.7-1.3,1.3-2.1,1.6c-1,0.4-2.1,0.6-3.1,0.6c-1.4,0.1-2.9-0.3-4.1-1.1c-1.1-0.8-1.9-1.9-2.1-3.3
	L214.1,114.3z M8.9,215.8h2V243h-2C8.9,243,8.9,215.8,8.9,215.8z M6.6,233.8c0.1,0.5,0.3,1.1,0.6,1.5s0.8,0.6,1.2,0.8
	c0.5,0.2,1.1,0.2,1.6,0.2c0.8,0.1,1.6-0.2,2.3-0.6c0.5-0.4,0.8-1,0.8-1.6c0-0.5-0.2-0.9-0.5-1.3c-0.4-0.4-0.9-0.6-1.4-0.8
	c-0.6-0.2-1.3-0.5-2-0.7c-0.7-0.2-1.7-0.5-2.6-0.8c-0.9-0.3-1.7-0.7-2.4-1.2s-1.4-1.1-1.8-1.9c-0.5-0.9-0.7-1.9-0.6-2.9
	c0-1.3,0.3-2.5,1.1-3.6c0.8-1,1.8-1.8,3-2.2c2.6-1,5.5-1,8.1-0.1c1.1,0.4,2,1,2.8,1.9s1.3,1.9,1.6,3l-5.1,0.9
	c-0.1-0.4-0.3-0.8-0.6-1.2c-0.3-0.3-0.7-0.5-1.1-0.6s-0.8-0.2-1.2-0.2c-0.5,0-1,0.1-1.4,0.3s-0.8,0.4-1.1,0.7s-0.4,0.7-0.4,1.1
	c0,0.4,0.1,0.8,0.4,1.1c0.4,0.3,0.8,0.6,1.3,0.8c0.5,0.2,1.1,0.5,1.8,0.7c0.9,0.3,1.8,0.6,2.7,0.9c0.9,0.3,1.8,0.7,2.6,1.3
	c0.8,0.5,1.4,1.1,1.9,1.9c0.5,0.9,0.8,1.9,0.7,2.9c0,1.2-0.3,2.4-0.9,3.4c-0.7,1.1-1.6,1.9-2.8,2.4c-1.5,0.6-3.1,1-4.7,0.9
	c-1.5,0-2.9-0.2-4.3-0.7c-1.2-0.4-2.2-1.1-3.1-2c-0.8-0.9-1.4-2.1-1.6-3.3L6.6,233.8z M24,222.9h-3.2v-4.7h8.8v22.4H24
	C24,240.6,24,222.9,24,222.9z M48,218.2v4.7h-9.4v4.1c0.4-0.5,0.9-0.8,1.4-1.1c0.7-0.3,1.5-0.4,2.3-0.4c1.1,0,2.2,0.2,3.2,0.6
	c0.9,0.4,1.6,1,2.2,1.7c0.6,0.7,1,1.5,1.3,2.4s0.4,1.8,0.4,2.6c0,1.5-0.3,3-1,4.3c-0.6,1.2-1.6,2.1-2.8,2.8c-1.4,0.7-2.8,1-4.4,0.9
	c-1.6,0-3.1-0.3-4.5-0.9c-2.4-1.1-4-3.5-4-6.1h5.5c0.1,0.6,0.4,1.1,0.8,1.5c0.6,0.5,1.3,0.7,2,0.7c0.5,0,1.1-0.1,1.5-0.3
	c0.4-0.3,0.7-0.7,0.9-1.1c0.2-0.6,0.3-1.2,0.3-1.8c0.1-0.8-0.2-1.6-0.7-2.2c-0.5-0.5-1.3-0.7-2-0.7c-0.6,0-1.2,0.2-1.7,0.6
	c-0.4,0.3-0.7,0.7-0.9,1.2H33v-13.6h15V218.2z M52.3,229.4c0-1.6,0.1-3.1,0.5-4.7c0.3-1.3,0.8-2.5,1.5-3.6c0.7-1,1.7-1.8,2.8-2.3
	c1.3-0.6,2.8-0.9,4.3-0.8c1.5,0,2.9,0.2,4.2,0.8c1.1,0.5,2.1,1.3,2.8,2.3c0.8,1.1,1.3,2.3,1.6,3.6c0.6,3.1,0.6,6.3,0,9.4
	c-0.3,1.3-0.8,2.5-1.6,3.6c-0.7,1-1.7,1.8-2.8,2.3c-1.3,0.6-2.8,0.8-4.2,0.8c-1.5,0-2.9-0.2-4.3-0.8c-1.1-0.5-2.1-1.3-2.8-2.3
	c-0.7-1.1-1.3-2.3-1.5-3.6C52.4,232.6,52.2,231,52.3,229.4L52.3,229.4z M64.7,229.4c0-0.9,0-1.7-0.1-2.5c0-0.7-0.2-1.5-0.5-2.1
	c-0.2-0.6-0.5-1.1-1-1.5s-1.2-0.6-1.9-0.5c-0.7,0-1.3,0.2-1.9,0.5c-0.5,0.4-0.8,0.9-1,1.5c-0.2,0.7-0.4,1.4-0.4,2.1
	c-0.1,0.8-0.1,1.6-0.1,2.5s0,1.8,0.1,2.6c0,0.7,0.2,1.4,0.4,2.1c0.2,0.6,0.5,1.1,1,1.4c0.5,0.4,1.2,0.5,1.9,0.5
	c0.7,0,1.3-0.1,1.9-0.5c0.5-0.4,0.8-0.9,1-1.4c0.3-0.7,0.4-1.4,0.5-2.1C64.6,231.2,64.7,230.3,64.7,229.4L64.7,229.4z M158.1,237.4
	h0.3v9.7H156v-22.4h2.2l0.2,3c0.5-0.9,1.3-1.7,2.2-2.3c1.1-0.7,2.3-1,3.6-0.9c2.7,0,5.2,1.5,6.4,3.9c0.7,1.3,1,2.8,1,4.4
	c0,1.5-0.3,3-0.9,4.4c-0.6,1.2-1.5,2.2-2.6,2.8c-1.2,0.7-2.5,1-3.8,1s-2.7-0.3-3.8-1C159.5,239.3,158.7,238.4,158.1,237.4
	L158.1,237.4z M168.9,232.6c0.1-1.6-0.4-3.1-1.4-4.4c-1-1.1-2.4-1.7-3.8-1.6c-1,0-1.9,0.2-2.7,0.7s-1.4,1.2-1.9,2
	c-0.5,1-0.7,2.1-0.7,3.2c0,1.1,0.2,2.2,0.7,3.2c0.4,0.9,1.1,1.6,1.9,2.1c0.8,0.5,1.8,0.7,2.7,0.7c1.4,0.1,2.8-0.5,3.8-1.6
	C168.5,235.7,169,234.2,168.9,232.6L168.9,232.6z M182.3,240.8c-1.4,0-2.8-0.3-4.1-1c-1.2-0.7-2.2-1.6-2.8-2.8c-1.4-2.8-1.4-6,0-8.8
	c0.7-1.2,1.7-2.2,2.9-2.8c1.3-0.7,2.7-1,4.1-1c1.4,0,2.8,0.3,4.1,1c1.2,0.7,2.2,1.6,2.9,2.8c0.7,1.3,1.1,2.8,1,4.4
	c0,1.5-0.3,3.1-1,4.4c-0.7,1.2-1.7,2.2-2.9,2.8C185.2,240.5,183.7,240.9,182.3,240.8L182.3,240.8z M182.3,238.6
	c0.9,0,1.8-0.2,2.6-0.6c0.8-0.5,1.5-1.2,2-2c0.6-1,0.8-2.2,0.8-3.4s-0.2-2.4-0.8-3.4c-0.5-0.8-1.2-1.5-2-1.9c-1.6-0.9-3.6-0.9-5.3,0
	c-0.9,0.5-1.5,1.1-2,2c-0.5,1-0.8,2.2-0.7,3.4c0,1.2,0.2,2.3,0.7,3.4c0.4,0.8,1.1,1.5,1.9,2C180.5,238.4,181.4,238.6,182.3,238.6
	L182.3,238.6z M194.3,224.6h2.2l0.1,2.3c0.4-0.6,0.9-1.1,1.5-1.5s1.3-0.7,2-0.8c0.8-0.2,1.6-0.2,2.4,0v2.4c-0.8-0.2-1.6-0.2-2.4,0
	c-0.7,0.2-1.3,0.5-1.8,1s-0.9,1.1-1.2,1.8c-0.3,0.8-0.4,1.6-0.4,2.5v8.4h-2.4L194.3,224.6z M217,237.3h0.3v9.7h-2.4v-22.4h2.2l0.2,3
	c0.5-0.9,1.3-1.7,2.2-2.3c1.1-0.7,2.3-1,3.6-0.9c2.7,0,5.2,1.5,6.4,3.9c0.7,1.3,1,2.8,1,4.4c0,1.5-0.3,3-0.9,4.4
	c-0.6,1.2-1.5,2.2-2.6,2.8c-1.2,0.7-2.5,1-3.8,1s-2.7-0.3-3.8-1C218.2,239.3,217.4,238.4,217,237.3L217,237.3z M227.7,232.6
	c0.1-1.6-0.4-3.1-1.4-4.4c-1-1.1-2.4-1.7-3.8-1.6c-1,0-1.9,0.2-2.7,0.7s-1.4,1.2-1.9,2c-0.5,1-0.7,2.1-0.7,3.2
	c0,1.1,0.2,2.2,0.7,3.2c0.4,0.9,1,1.6,1.9,2.1c0.8,0.5,1.8,0.7,2.7,0.7c1.4,0.1,2.8-0.5,3.8-1.6
	C227.2,235.7,227.7,234.2,227.7,232.6L227.7,232.6z M240.9,240.8c-1.4,0-2.8-0.4-4-1.1c-1.2-0.7-2.1-1.8-2.7-3c-0.7-1.3-1-2.8-1-4.3
	c0-1.4,0.3-2.9,1-4.2c0.6-1.2,1.6-2.2,2.7-2.8c1.2-0.7,2.6-1.1,3.9-1.1c1.4,0,2.7,0.3,3.9,1c1.1,0.6,2.1,1.5,2.7,2.7
	c0.6,1.2,1,2.5,0.9,3.9c0,0.2,0,0.5,0,0.7s0,0.5-0.1,0.8h-12.5c0,0.9,0.3,1.8,0.7,2.6c0.4,0.7,1,1.4,1.8,1.8
	c0.8,0.4,1.6,0.7,2.5,0.6c1.1,0,2.2-0.2,3.1-0.7c0.8-0.4,1.5-1.1,1.9-2l2.1,0.8c-0.6,1.3-1.6,2.4-2.8,3.1
	C243.9,240.5,242.4,240.9,240.9,240.8L240.9,240.8z M245.7,231.3c0.1-1.7-0.8-3.3-2.3-4.1c-0.8-0.4-1.7-0.6-2.6-0.6
	c-0.8,0-1.6,0.2-2.3,0.6c-0.7,0.4-1.3,1-1.8,1.7s-0.7,1.5-0.8,2.4L245.7,231.3L245.7,231.3z M252.3,224.6h2.2l0.1,2.3
	c0.4-0.6,0.9-1.1,1.5-1.5s1.3-0.7,2-0.8c0.8-0.2,1.6-0.2,2.4,0v2.4c-0.8-0.2-1.6-0.2-2.4,0c-0.7,0.2-1.3,0.5-1.8,1s-1,1.1-1.2,1.8
	c-0.3,0.8-0.4,1.6-0.4,2.5v8.4h-2.5L252.3,224.6z M265.1,235.7c0.1,0.6,0.3,1.1,0.7,1.6c0.4,0.4,0.8,0.7,1.3,0.9
	c0.6,0.2,1.3,0.3,1.9,0.3c0.9,0.1,1.8-0.2,2.6-0.6c0.6-0.4,0.9-1,0.9-1.7c0-0.5-0.2-1-0.5-1.3c-0.4-0.4-0.9-0.7-1.4-0.8
	c-0.6-0.3-1.3-0.5-1.9-0.6s-1.1-0.3-1.8-0.4c-0.6-0.2-1.2-0.4-1.8-0.8c-0.6-0.3-1-0.7-1.4-1.2c-0.4-0.6-0.6-1.3-0.5-2
	c0-0.9,0.2-1.7,0.7-2.4s1.3-1.3,2.1-1.6c1-0.4,2-0.6,3.1-0.6c1.2,0,2.4,0.3,3.5,0.9c1,0.6,1.8,1.5,2.2,2.7l-2.2,0.8
	c-0.1-0.5-0.4-1-0.8-1.3s-0.8-0.5-1.3-0.6s-0.9-0.2-1.4-0.2c-0.8,0-1.6,0.2-2.3,0.6c-0.6,0.4-0.9,1-0.9,1.7c0,0.4,0.1,0.7,0.3,1
	c0.2,0.3,0.5,0.5,0.8,0.6c0.4,0.2,0.8,0.3,1.2,0.4c0.5,0.1,1,0.2,1.5,0.4c0.6,0.2,1.3,0.3,1.9,0.6c0.6,0.2,1.2,0.5,1.8,0.9
	c0.5,0.3,1,0.8,1.4,1.3c0.4,0.6,0.6,1.3,0.5,2c0,0.9-0.3,1.7-0.8,2.5c-0.6,0.7-1.3,1.3-2.1,1.6c-1,0.4-2.1,0.6-3.1,0.6
	c-1.4,0.1-2.9-0.3-4.1-1.1c-1.1-0.8-1.9-1.9-2.1-3.3L265.1,235.7z M285.9,240.8c-1.4,0-2.8-0.3-4.1-1c-1.2-0.7-2.2-1.6-2.8-2.8
	c-1.4-2.8-1.4-6,0-8.8c0.7-1.2,1.7-2.2,2.9-2.9c1.3-0.7,2.7-1,4.1-1s2.8,0.3,4.1,1c1.2,0.7,2.2,1.6,2.9,2.9c0.7,1.3,1.1,2.8,1,4.3
	c0,1.5-0.3,3.1-1,4.4c-0.7,1.2-1.7,2.2-2.9,2.9C288.7,240.5,287.3,240.9,285.9,240.8L285.9,240.8z M285.9,238.5
	c0.9,0,1.8-0.2,2.7-0.6c0.8-0.5,1.5-1.2,2-2c0.6-1,0.8-2.2,0.8-3.4c0.1-1.2-0.2-2.4-0.8-3.4c-0.5-0.8-1.2-1.5-2-1.9
	c-1.6-0.9-3.6-0.9-5.3,0c-0.9,0.4-1.6,1.1-2,2c-0.5,1-0.8,2.2-0.7,3.4c0,1.2,0.2,2.3,0.7,3.4c0.4,0.8,1.1,1.5,1.9,2
	C284.1,238.4,285,238.6,285.9,238.5L285.9,238.5z M297.9,224.5h2.1l0.1,2.3c0.5-0.8,1.2-1.4,2-1.8c0.9-0.5,1.9-0.7,2.9-0.7
	c1.1,0,2.2,0.3,3.2,0.8c0.9,0.5,1.7,1.4,2.1,2.3c0.6,1.2,0.8,2.5,0.8,3.9v9.2h-2.4v-8.8c0.1-1.3-0.3-2.7-1.1-3.8
	c-0.8-0.9-1.9-1.4-3.1-1.3c-1.2-0.1-2.4,0.4-3.3,1.4c-0.8,1.2-1.3,2.6-1.1,4.1v8.6h-2.4L297.9,224.5z M348.5,240.7
	c-1.4,0-2.8-0.4-4-1.1c-1.2-0.7-2.1-1.8-2.7-3c-0.7-1.3-1-2.8-1-4.3c0-1.4,0.3-2.9,1-4.2c0.6-1.2,1.6-2.2,2.7-2.8
	c1.2-0.7,2.6-1.1,3.9-1.1c1.4,0,2.7,0.3,3.9,1c1.1,0.6,2.1,1.5,2.7,2.7c0.7,1.2,1,2.5,0.9,3.9c0,0.2,0,0.5,0,0.7s0,0.5-0.1,0.8
	h-12.5c0,0.9,0.3,1.8,0.7,2.6c0.4,0.7,1,1.4,1.8,1.8c0.8,0.4,1.6,0.7,2.5,0.6c1.1,0,2.2-0.2,3.1-0.7c0.8-0.4,1.5-1.1,1.9-2l2.1,0.8
	c-0.6,1.3-1.6,2.4-2.8,3.1c-1.3,0.8-2.8,1.2-4.3,1.1L348.5,240.7z M353.3,231.3c0-0.9-0.2-1.7-0.6-2.4s-1-1.3-1.7-1.7
	c-0.8-0.4-1.7-0.6-2.6-0.6c-0.8,0-1.6,0.2-2.3,0.6c-0.7,0.4-1.3,1-1.8,1.7s-0.7,1.5-0.8,2.4H353.3z M359.8,224.5h2.2l0.1,2.3
	c0.5-0.8,1.2-1.4,2-1.8c0.9-0.5,1.9-0.7,2.9-0.7c1.1,0,2.2,0.3,3.2,0.8c0.9,0.5,1.7,1.4,2.1,2.3c0.6,1.2,0.8,2.5,0.8,3.9v9.2h-2.4
	v-8.8c0.1-1.3-0.3-2.7-1.1-3.8c-0.8-0.9-1.9-1.4-3.1-1.3c-1.2-0.1-2.4,0.4-3.3,1.4c-0.9,1.2-1.3,2.6-1.2,4.1v8.6h-2.4L359.8,224.5z
	 M3.2,257.1h2.3v16H3.2V257.1z M4.5,253.9c-0.5,0-0.9-0.2-1.2-0.5c-0.6-0.7-0.6-1.7,0-2.4c0.3-0.3,0.8-0.5,1.2-0.5
	c0.9,0,1.7,0.8,1.7,1.7C6.1,253.2,5.4,253.9,4.5,253.9z M11,257.1h2.2l0.1,2.3c0.5-0.8,1.2-1.4,2-1.8c0.9-0.5,1.9-0.7,2.9-0.7
	c1.1,0,2.2,0.3,3.2,0.8c1,0.6,1.7,1.4,2.2,2.4c0.6,1.2,0.8,2.5,0.8,3.9v9.2H22v-8.9c0.1-1.3-0.3-2.7-1.1-3.8
	c-0.8-0.9-1.9-1.4-3.1-1.3c-1.2-0.1-2.4,0.4-3.3,1.4c-0.8,1.2-1.3,2.6-1.2,4.1v8.6h-2.4L11,257.1z M30.4,268.2
	c0.1,0.6,0.3,1.1,0.7,1.6c0.4,0.4,0.8,0.7,1.3,0.9c0.6,0.2,1.3,0.3,1.9,0.3c0.9,0.1,1.8-0.2,2.6-0.6c0.6-0.4,0.9-1,0.9-1.7
	c0-0.5-0.2-1-0.5-1.3c-0.4-0.3-0.9-0.6-1.4-0.7c-0.6-0.3-1.3-0.5-1.9-0.6l-1.8-0.5c-0.6-0.2-1.2-0.4-1.8-0.8c-0.6-0.3-1-0.7-1.4-1.2
	c-0.4-0.6-0.6-1.3-0.5-2c0-0.9,0.2-1.7,0.7-2.4c0.5-0.7,1.3-1.3,2.1-1.6c1-0.4,2-0.6,3.1-0.6c1.2,0,2.4,0.3,3.5,0.9s1.8,1.5,2.2,2.7
	l-2.2,0.8c-0.1-0.5-0.4-1-0.8-1.3c-0.4-0.3-0.8-0.5-1.3-0.6s-0.9-0.2-1.4-0.2c-0.8,0-1.6,0.2-2.3,0.6c-0.6,0.4-0.9,1-0.9,1.7
	c0,0.4,0.1,0.7,0.3,1s0.5,0.5,0.8,0.6c0.4,0.2,0.8,0.3,1.2,0.4c0.5,0.1,1,0.2,1.5,0.4c0.6,0.2,1.3,0.3,1.9,0.6
	c0.6,0.2,1.2,0.5,1.8,0.9c0.5,0.3,1,0.8,1.3,1.3c0.4,0.6,0.6,1.3,0.6,2c0,0.9-0.3,1.7-0.8,2.5c-0.6,0.7-1.3,1.3-2.2,1.6
	c-1,0.4-2.1,0.6-3.1,0.6c-1.4,0.1-2.9-0.3-4.1-1.1c-1.1-0.8-1.9-1.9-2.1-3.3L30.4,268.2z M51,273.3c-1.4,0-2.8-0.3-4.1-1
	c-1.2-0.7-2.1-1.7-2.8-2.9c-1.3-2.7-1.3-5.9,0-8.6c0.6-1.2,1.6-2.2,2.8-2.9c1.2-0.7,2.7-1.1,4.1-1.1c1.5,0,3,0.4,4.3,1.1
	c1.2,0.7,2.2,1.8,2.7,3.1l-2.2,0.8c-0.3-0.9-1-1.6-1.8-2c-1.8-1-4-1-5.8,0c-0.8,0.5-1.4,1.2-1.8,2.1c-0.4,1-0.7,2.1-0.6,3.2
	c-0.1,1.6,0.4,3.1,1.4,4.3c1,1.1,2.4,1.7,3.8,1.6c1,0,2-0.2,2.9-0.7c0.8-0.5,1.5-1.2,1.9-2l2.2,0.8c-0.6,1.3-1.5,2.4-2.7,3.1
	c-1.3,0.8-2.8,1.2-4.4,1.2L51,273.3z M62,257.1h2.2l0.1,2.3c0.4-0.6,0.9-1.1,1.5-1.5s1.3-0.7,2-0.8c0.8-0.2,1.6-0.2,2.4,0v2.4
	c-0.8-0.2-1.6-0.2-2.4,0c-0.7,0.2-1.3,0.5-1.8,1s-0.9,1.1-1.2,1.8c-0.3,0.8-0.4,1.6-0.4,2.5v8.4H62L62,257.1z M74,257.1h2.4v16H74
	V257.1z M75.3,253.9c-0.5,0-0.9-0.2-1.2-0.5c-0.6-0.7-0.6-1.7,0-2.4c0.3-0.3,0.8-0.5,1.2-0.5c0.9,0,1.7,0.8,1.7,1.7
	C76.9,253.2,76.2,253.9,75.3,253.9z M84,269.9h0.2v9.7h-2.4v-22.4H84l0.2,3c0.5-0.9,1.3-1.7,2.2-2.3c1.1-0.7,2.3-1,3.6-0.9
	c2.7,0,5.2,1.5,6.4,3.9c0.7,1.3,1,2.8,1,4.4c0,1.5-0.3,3-0.9,4.4c-0.6,1.2-1.5,2.2-2.6,2.9c-1.2,0.7-2.5,1-3.8,1s-2.7-0.3-3.8-1
	C85.2,271.8,84.4,271,84,269.9L84,269.9z M94.7,265.2c0.1-1.6-0.4-3.1-1.4-4.4c-1-1.1-2.4-1.7-3.8-1.6c-1,0-1.9,0.2-2.7,0.7
	c-0.8,0.5-1.4,1.2-1.9,2c-0.5,1-0.7,2.1-0.7,3.2s0.2,2.2,0.7,3.2c0.4,0.9,1.1,1.6,1.9,2.1s1.8,0.7,2.7,0.7c1.4,0.1,2.8-0.5,3.8-1.6
	C94.2,268.3,94.7,266.8,94.7,265.2L94.7,265.2z M108,273.4c-1.4,0-2.8-0.3-4.1-1c-1.2-0.7-2.1-1.7-2.8-2.9c-1.3-2.7-1.3-5.9,0-8.6
	c0.6-1.2,1.6-2.2,2.8-2.9c1.2-0.7,2.7-1.1,4.1-1.1c1.5,0,3,0.4,4.3,1.1c1.2,0.7,2.2,1.8,2.7,3.1l-2.2,0.8c-0.3-0.9-1-1.6-1.8-2
	c-1.8-1-4-1-5.8,0c-0.8,0.5-1.4,1.2-1.9,2.1c-0.4,1-0.7,2.1-0.6,3.2c-0.1,1.6,0.4,3.1,1.4,4.3c1,1.1,2.4,1.7,3.8,1.6
	c1,0,2-0.2,2.9-0.7c0.8-0.5,1.5-1.2,1.9-2l2.2,0.8c-0.6,1.3-1.5,2.4-2.7,3.1C111,273.1,109.5,273.5,108,273.4L108,273.4z
	 M119.5,257.2h2.4v16h-2.4C119.5,273.2,119.5,257.2,119.5,257.2z M120.7,254c-0.9,0-1.7-0.8-1.7-1.7c0-0.9,0.8-1.7,1.7-1.7
	s1.7,0.8,1.7,1.7C122.4,253.2,121.6,254,120.7,254z M134.2,273.4c-1.4,0-2.8-0.3-4.1-1c-1.2-0.7-2.2-1.6-2.8-2.8
	c-1.4-2.8-1.4-6,0-8.8c0.7-1.2,1.6-2.2,2.9-2.9c1.3-0.7,2.7-1,4.1-1c1.4,0,2.8,0.3,4.1,1c1.2,0.7,2.2,1.6,2.9,2.9s1.1,2.8,1.1,4.4
	c0,1.5-0.3,3.1-1.1,4.4c-0.7,1.2-1.7,2.2-2.9,2.9C137,273.1,135.6,273.5,134.2,273.4L134.2,273.4z M134.2,271.1
	c0.9,0,1.8-0.2,2.6-0.6c0.8-0.5,1.5-1.2,2-2c0.6-1,0.8-2.2,0.8-3.4c0-1.2-0.2-2.4-0.8-3.4c-0.5-0.8-1.2-1.5-2-1.9
	c-1.6-0.9-3.6-0.9-5.3,0c-0.9,0.5-1.5,1.1-2,2c-0.5,1-0.8,2.2-0.7,3.4c0,1.2,0.2,2.3,0.7,3.4c0.4,0.8,1.1,1.5,1.9,2
	C132.3,271,133.2,271.2,134.2,271.1L134.2,271.1z M146.2,257.2h2.2l0.1,2.3c0.5-0.8,1.2-1.4,2-1.8c0.9-0.5,1.9-0.7,2.9-0.7
	c1.1,0,2.2,0.3,3.2,0.8c0.9,0.5,1.7,1.4,2.1,2.3c0.6,1.2,0.8,2.5,0.8,3.9v9.2h-2.4v-8.9c0.1-1.3-0.3-2.7-1.1-3.8
	c-0.8-0.9-1.9-1.4-3.1-1.3c-1.2-0.1-2.4,0.4-3.3,1.4c-0.9,1.2-1.3,2.6-1.2,4.1v8.6H146L146.2,257.2z M170.9,273.4
	c-1.4,0-2.8-0.4-4-1.1s-2.1-1.8-2.7-3c-0.7-1.3-1-2.8-1-4.3c0-1.4,0.3-2.9,1-4.2c1.3-2.4,3.9-4,6.7-3.9c1.4,0,2.7,0.3,3.9,1
	c1.1,0.6,2.1,1.5,2.7,2.7c0.7,1.2,1,2.5,0.9,3.9c0,0.2,0,0.5,0,0.7c0,0.3,0,0.5-0.1,0.8h-12.5c0,0.9,0.3,1.8,0.7,2.6
	c0.4,0.7,1,1.4,1.8,1.8s1.6,0.7,2.5,0.6c1.1,0,2.2-0.2,3.1-0.7c0.8-0.4,1.5-1.1,1.9-2l2.1,0.8c-0.6,1.3-1.6,2.4-2.8,3.1
	C173.8,273.1,172.3,273.5,170.9,273.4L170.9,273.4z M175.7,263.9c0.1-1.7-0.8-3.3-2.3-4.1c-0.8-0.4-1.7-0.6-2.6-0.6
	c-0.8,0-1.6,0.2-2.3,0.6s-1.3,1-1.8,1.7s-0.7,1.5-0.8,2.4H175.7z M183.6,268.3c0.1,0.6,0.3,1.1,0.7,1.6c0.4,0.4,0.8,0.7,1.3,0.9
	c0.6,0.2,1.3,0.3,1.9,0.3c0.9,0.1,1.8-0.2,2.6-0.6c0.6-0.4,0.9-1,0.9-1.7c0-0.5-0.2-1-0.5-1.3c-0.4-0.4-0.9-0.7-1.4-0.8
	c-0.6-0.3-1.3-0.5-1.9-0.6l-1.8-0.4c-0.6-0.2-1.2-0.4-1.8-0.8c-0.6-0.3-1-0.7-1.4-1.2c-0.4-0.6-0.6-1.3-0.6-2c0-0.9,0.2-1.7,0.7-2.4
	c0.5-0.7,1.3-1.3,2.1-1.6c1-0.4,2-0.6,3.1-0.6c1.2,0,2.4,0.3,3.5,0.9c1,0.6,1.8,1.5,2.2,2.7l-2.2,0.8c-0.1-0.5-0.4-1-0.8-1.3
	c-0.4-0.3-0.8-0.5-1.3-0.6s-0.9-0.2-1.4-0.2c-0.8,0-1.6,0.2-2.3,0.6c-0.6,0.4-0.9,1-0.9,1.7c0,0.4,0.1,0.7,0.3,1s0.5,0.5,0.8,0.6
	c0.4,0.2,0.8,0.3,1.2,0.5c0.5,0.1,1,0.2,1.5,0.4c0.6,0.2,1.3,0.3,1.9,0.6c0.6,0.2,1.2,0.5,1.8,0.9c0.5,0.3,1,0.8,1.3,1.3
	c0.4,0.6,0.6,1.3,0.5,2c0,0.9-0.2,1.7-0.8,2.5c-0.6,0.7-1.3,1.3-2.1,1.6c-1,0.4-2.1,0.6-3.1,0.6c-1.4,0.1-2.9-0.3-4.1-1.1
	c-1.1-0.8-1.9-1.9-2.1-3.3L183.6,268.3z M206.9,257.2h2.4v16h-2.4V257.2z M208.1,254c-0.5,0-0.9-0.2-1.2-0.5c-0.6-0.7-0.6-1.7,0-2.4
	c0.3-0.3,0.8-0.5,1.2-0.5s0.8,0.2,1.1,0.5c0.7,0.6,0.7,1.7,0,2.4l0,0C209,253.9,208.5,254.1,208.1,254L208.1,254z M214.7,257.2h2.2
	l0.1,2.3c0.5-0.8,1.2-1.4,2-1.8c0.9-0.5,1.9-0.7,2.9-0.7c1.1,0,2.2,0.3,3.2,0.8c0.9,0.5,1.7,1.4,2.1,2.3c0.6,1.2,0.8,2.5,0.8,3.9
	v9.2h-2.4v-8.9c0.1-1.3-0.3-2.7-1.1-3.8c-0.8-0.9-1.9-1.4-3.1-1.3c-1.2-0.1-2.4,0.4-3.3,1.4c-0.9,1.2-1.3,2.6-1.2,4.1v8.6h-2.4
	L214.7,257.2z M245.1,260.4h-0.3v-10.3h2.4v23h-2.3l-0.2-3c-0.5,0.9-1.3,1.7-2.2,2.3c-1.1,0.7-2.3,1-3.6,0.9c-1.4,0-2.7-0.3-3.9-1
	c-1.1-0.7-2-1.7-2.6-2.9c-0.6-1.4-0.9-2.9-0.9-4.4s0.3-3,0.9-4.3c0.6-1.2,1.5-2.2,2.6-2.9c1.2-0.7,2.5-1,3.9-1c1.3,0,2.6,0.3,3.8,1
	C243.7,258.5,244.5,259.4,245.1,260.4L245.1,260.4z M234.3,265.2c-0.1,1.6,0.3,3.2,1.3,4.4c1,1.1,2.4,1.7,3.8,1.6
	c0.9,0,1.9-0.2,2.7-0.7s1.5-1.2,1.9-2.1c0.5-1,0.7-2.1,0.7-3.2s-0.2-2.2-0.7-3.2c-0.4-0.8-1.1-1.5-1.9-2c-0.8-0.5-1.7-0.8-2.7-0.7
	c-1.5-0.1-2.9,0.5-3.8,1.6C234.6,262.1,234.1,263.7,234.3,265.2L234.3,265.2z M252.6,257.2h2.4v16h-2.5L252.6,257.2z M253.8,254
	c-0.5,0-0.9-0.2-1.2-0.5c-0.6-0.7-0.6-1.7,0-2.4c0.3-0.3,0.8-0.5,1.2-0.5c0.9,0,1.7,0.8,1.7,1.7C255.5,253.2,254.7,254,253.8,254z
	 M261.3,257.2l5,13.3l5.1-13.3h2.5l-6.4,16H265l-6.3-16H261.3z M277.7,257.2h2.4v16h-2.5L277.7,257.2z M278.9,254
	c-0.9,0-1.7-0.8-1.7-1.7c0-0.9,0.8-1.7,1.7-1.7l0,0c0.9,0,1.7,0.8,1.7,1.7c0,0.5-0.2,0.9-0.5,1.2C279.8,253.9,279.3,254.1,278.9,254
	L278.9,254z M297.8,260.4h-0.3v-10.3h2.4v23h-2.2l-0.2-3c-0.5,0.9-1.3,1.7-2.2,2.3c-1.1,0.7-2.3,1-3.6,0.9c-1.4,0-2.7-0.3-3.9-1
	c-1.1-0.7-2-1.7-2.6-2.9c-0.6-1.4-0.9-2.9-0.9-4.4s0.3-3,0.9-4.3c0.6-1.2,1.5-2.2,2.6-2.9c1.2-0.7,2.5-1,3.9-1c1.3,0,2.6,0.3,3.8,1
	C296.5,258.5,297.3,259.4,297.8,260.4L297.8,260.4z M287.1,265.2c-0.1,1.6,0.4,3.1,1.4,4.4c1,1.1,2.4,1.7,3.8,1.6
	c0.9,0,1.9-0.2,2.7-0.7c0.8-0.5,1.5-1.2,1.9-2.1c0.5-1,0.7-2.1,0.7-3.2s-0.2-2.2-0.7-3.2c-0.4-0.8-1.1-1.5-1.9-2s-1.7-0.8-2.7-0.7
	c-1.5-0.1-2.9,0.5-3.8,1.6C287.5,262.1,286.9,263.6,287.1,265.2L287.1,265.2z M318,273.2h-2.2l-0.2-2.3c-0.5,0.8-1.2,1.5-2,1.9
	c-0.9,0.4-1.9,0.7-2.9,0.6c-1.1,0-2.2-0.2-3.2-0.8c-0.9-0.5-1.7-1.3-2.1-2.3c-0.5-1.2-0.8-2.5-0.7-3.9v-9.3h2.4v9
	c-0.1,1.3,0.3,2.7,1.1,3.7c0.8,0.9,1.9,1.3,3.1,1.3c1.2,0.1,2.4-0.4,3.2-1.3c0.9-1.1,1.3-2.6,1.2-4v-8.7h2.4L318,273.2z
	 M332.9,273.2l-0.2-2.9c-0.4,1-1.1,1.8-2,2.3c-1,0.6-2.2,0.8-3.3,0.8c-1,0-2-0.2-2.9-0.5c-0.8-0.3-1.4-0.9-1.9-1.5
	c-0.4-0.7-0.7-1.6-0.6-2.4c0-1.3,0.5-2.5,1.5-3.3c1.3-1,2.8-1.5,4.4-1.6l4.9-0.5v-1.3c0-0.8-0.3-1.6-1-2.1c-0.8-0.6-1.7-0.9-2.7-0.8
	c-1,0-2,0.2-2.8,0.8c-0.7,0.5-1.3,1.3-1.5,2.2l-2.2-0.8c0.4-1.3,1.2-2.5,2.3-3.3c1.2-0.8,2.7-1.2,4.2-1.2c1.6-0.1,3.2,0.4,4.4,1.5
	c1.1,1,1.7,2.5,1.6,3.9v10.8L332.9,273.2z M332.7,265.5l-5,0.6c-0.9,0.1-1.7,0.4-2.4,0.9c-1,0.9-1.1,2.4-0.2,3.3
	c0.1,0.1,0.2,0.2,0.2,0.2c0.7,0.5,1.5,0.7,2.4,0.7c1,0,2-0.2,2.9-0.7c0.7-0.4,1.3-1.1,1.6-1.9c0.4-0.8,0.5-1.7,0.5-2.6V265.5z
	 M339.8,250.1h2.4v23h-2.4V250.1z M353.8,273.4c-1.4,0-2.8-0.4-4-1.1s-2.1-1.8-2.7-3c-0.7-1.3-1-2.8-1-4.3c0-1.4,0.3-2.9,1-4.2
	c0.6-1.2,1.6-2.2,2.7-2.9c1.2-0.7,2.5-1.1,3.9-1.1s2.7,0.3,3.9,1c1.1,0.6,2.1,1.5,2.7,2.7c0.7,1.2,1,2.5,0.9,3.9c0,0.2,0,0.5,0,0.7
	s0,0.5-0.1,0.8h-12.5c0,0.9,0.3,1.8,0.7,2.6c0.8,1.6,2.5,2.5,4.3,2.5c1.1,0,2.2-0.2,3.1-0.7c0.8-0.4,1.5-1.1,1.9-2l2.1,0.8
	c-0.6,1.3-1.6,2.4-2.8,3.1C356.6,273.1,355.2,273.5,353.8,273.4L353.8,273.4z M358.5,263.9c0-0.9-0.2-1.7-0.6-2.4
	c-0.4-0.7-1-1.3-1.7-1.7c-0.8-0.4-1.7-0.6-2.6-0.6c-0.8,0-1.6,0.2-2.3,0.6c-0.7,0.4-1.3,1-1.8,1.7s-0.7,1.5-0.8,2.4H358.5z
	 M366.4,268.3c0.1,0.6,0.3,1.1,0.7,1.6c0.4,0.4,0.8,0.7,1.3,0.9c0.6,0.2,1.3,0.3,1.9,0.3c0.9,0.1,1.8-0.2,2.6-0.6
	c0.6-0.4,0.9-1,0.9-1.7c0-0.5-0.2-1-0.5-1.3c-0.4-0.4-0.9-0.7-1.4-0.8c-0.6-0.3-1.3-0.5-1.9-0.6l-1.8-0.4c-0.6-0.2-1.2-0.4-1.8-0.8
	c-0.6-0.3-1-0.7-1.4-1.2c-0.4-0.6-0.6-1.3-0.5-2c0-0.9,0.2-1.7,0.7-2.4c0.5-0.7,1.3-1.3,2.1-1.6c1-0.4,2-0.6,3.1-0.6
	c1.2,0,2.4,0.3,3.5,0.9s1.8,1.5,2.2,2.7l-2.2,0.8c-0.1-0.5-0.4-1-0.8-1.3s-0.8-0.5-1.3-0.6s-0.9-0.2-1.4-0.2c-0.8,0-1.6,0.2-2.3,0.6
	c-0.6,0.4-0.9,1-0.9,1.7c0,0.4,0.1,0.7,0.3,1c0.2,0.3,0.5,0.5,0.8,0.6c0.4,0.2,0.8,0.3,1.2,0.5c0.5,0.1,1,0.2,1.5,0.4
	c0.6,0.2,1.3,0.3,1.9,0.6c0.6,0.2,1.2,0.5,1.8,0.9c0.5,0.3,1,0.8,1.3,1.3c0.4,0.6,0.6,1.3,0.5,2c0,0.9-0.3,1.7-0.8,2.5
	c-0.6,0.7-1.3,1.3-2.1,1.6c-1,0.4-2.1,0.6-3.1,0.6c-1.4,0.1-2.9-0.3-4.1-1.1c-1.1-0.8-1.9-1.9-2.1-3.3L366.4,268.3z M381.6,273.3
	c-0.5,0-0.9-0.2-1.3-0.5c-0.6-0.7-0.6-1.8,0-2.5c0.3-0.3,0.8-0.5,1.3-0.5c1,0,1.8,0.8,1.8,1.8C383.4,272.5,382.6,273.3,381.6,273.3z
	 M229,118.9c-0.5,0-0.9-0.2-1.3-0.5c-0.6-0.7-0.6-1.8,0-2.5c0.3-0.3,0.8-0.5,1.3-0.5c1,0,1.8,0.8,1.8,1.8S230,118.9,229,118.9z"/>
<g>
	<path class="st0" d="M20.1,25.3c2.1,2.1,3.1,5,3.1,8.5c0,1.6-0.3,3.2-0.8,4.6s-1.2,2.7-2.2,3.7c-0.9,1.1-2.1,1.9-3.5,2.5
		s-2.9,0.9-4.6,0.9s-3.2-0.3-4.6-0.9C6.1,44,5,43.2,4,42.1s-1.7-2.3-2.2-3.7S1,35.4,1,33.8c0-1.7,0.3-3.2,0.8-4.6S3,26.5,4,25.5
		s2.1-1.9,3.5-2.5c1.4-0.6,2.9-0.9,4.6-0.9C15.4,22,18,23.1,20.1,25.3z M8.1,39c1.1,1.2,2.4,1.8,4.1,1.8c1,0,1.9-0.2,2.6-0.6
		c0.7-0.4,1.3-0.9,1.8-1.5s0.8-1.4,1-2.2s0.3-1.7,0.3-2.7c0-0.9-0.1-1.8-0.3-2.6c-0.2-0.9-0.5-1.6-1-2.3c-0.5-0.6-1-1.2-1.8-1.6
		c-0.7-0.4-1.6-0.6-2.6-0.6s-1.9,0.2-2.7,0.6c-0.7,0.4-1.4,0.9-1.8,1.5c-0.5,0.6-0.8,1.4-1,2.3c-0.2,0.9-0.3,1.7-0.3,2.7
		C6.4,36,7,37.8,8.1,39z"/>
	<path class="st0" d="M25.2,22.3H34c0.8,0,1.5,0,2.3,0.1s1.5,0.2,2.2,0.4s1.3,0.5,1.9,0.9c0.6,0.4,1.1,1,1.6,1.7
		c0.8,1.2,1.2,2.6,1.2,4.1c0,1.3-0.2,2.5-0.7,3.5s-1.1,1.7-1.9,2.3c-0.8,0.6-1.7,1-2.8,1.3S35.6,37,34.3,37h-4v8.2h-5.1V22.3z
		 M30.4,32.1h4c0.5,0,0.9,0,1.4-0.1c0.4,0,0.8-0.2,1.2-0.3c0.3-0.2,0.6-0.4,0.8-0.8c0.2-0.3,0.3-0.8,0.3-1.4c0-0.2,0-0.4-0.1-0.6
		c0-0.2-0.1-0.5-0.2-0.7c-0.1-0.2-0.2-0.4-0.4-0.6c-0.2-0.2-0.4-0.3-0.6-0.3c-0.2,0-0.4-0.1-0.8-0.1c-0.4,0-0.9-0.1-1.6-0.1h-3.9v5
		H30.4z"/>
	<path class="st0" d="M59.2,36.3h5.2l-0.1,1.3c-0.1,1.3-0.5,2.4-1,3.4s-1.2,1.8-2.1,2.5c-0.8,0.7-1.8,1.2-2.9,1.5s-2.3,0.5-3.5,0.5
		c-1.8,0-3.3-0.3-4.6-0.9s-2.4-1.4-3.3-2.5c-0.9-1.1-1.6-2.3-2.1-3.7s-0.7-3-0.7-4.6c0-1.7,0.2-3.2,0.7-4.6c0.5-1.4,1.2-2.7,2.1-3.7
		c0.9-1.1,2-1.9,3.3-2.5c1.3-0.6,2.9-0.9,4.6-0.9c1.2,0,2.3,0.2,3.4,0.5c1.1,0.3,2.1,0.8,3,1.5c0.9,0.6,1.6,1.4,2.2,2.4
		c0.6,0.9,0.9,2,1,3.3l0.1,1.3h-5.3l-0.1-1.2c0-0.6-0.2-1.1-0.5-1.5s-0.6-0.7-1-1s-0.8-0.4-1.3-0.5s-1-0.2-1.5-0.2
		c-1,0-1.9,0.2-2.6,0.6c-0.7,0.4-1.3,0.9-1.7,1.6c-0.4,0.6-0.7,1.4-0.9,2.3c-0.2,0.9-0.3,1.7-0.3,2.6c0,0.9,0.1,1.8,0.3,2.6
		s0.5,1.6,0.9,2.2s1,1.2,1.7,1.6c0.7,0.4,1.6,0.6,2.6,0.6c1.2,0,2.1-0.3,3-0.8c0.9-0.5,1.3-1.4,1.4-2.6L59.2,36.3z"/>
	<path class="st0" d="M66.5,45.2V22.3h5.1v22.9H66.5z"/>
	<path class="st0" d="M92.6,25.3c2.1,2.1,3.1,5,3.1,8.5c0,1.6-0.3,3.2-0.8,4.6s-1.2,2.7-2.2,3.7c-0.9,1.1-2.1,1.9-3.5,2.5
		s-2.9,0.9-4.6,0.9s-3.2-0.3-4.6-0.9c-1.4-0.6-2.5-1.4-3.5-2.5s-1.7-2.3-2.2-3.7s-0.8-3-0.8-4.6c0-1.7,0.3-3.2,0.8-4.6
		s1.2-2.7,2.2-3.7s2.1-1.9,3.5-2.5c1.4-0.6,2.9-0.9,4.6-0.9C87.9,22,90.5,23.1,92.6,25.3z M80.6,39c1.1,1.2,2.4,1.8,4.1,1.8
		c1,0,1.9-0.2,2.6-0.6c0.7-0.4,1.3-0.9,1.8-1.5s0.8-1.4,1-2.2s0.3-1.7,0.3-2.7c0-0.9-0.1-1.8-0.3-2.6c-0.2-0.9-0.5-1.6-1-2.3
		c-0.5-0.6-1-1.2-1.8-1.6c-0.7-0.4-1.6-0.6-2.6-0.6s-1.9,0.2-2.7,0.6c-0.7,0.4-1.4,0.9-1.8,1.5c-0.5,0.6-0.8,1.4-1,2.3
		c-0.2,0.9-0.3,1.7-0.3,2.7C78.9,36,79.5,37.8,80.6,39z"/>
	<path class="st0" d="M97.7,22.3h4.6l8.9,13.3V22.3h5v22.9h-4.6l-8.8-13.3v13.3h-5L97.7,22.3L97.7,22.3z"/>
	<path class="st0" d="M130.3,45.2V22.3h5.1v22.9H130.3z"/>
</g>
<g>
	<path class="st0" d="M20.1,178.5c2.1,2.1,3.1,5,3.1,8.5c0,1.6-0.3,3.2-0.8,4.6s-1.2,2.7-2.2,3.7c-0.9,1.1-2.1,1.9-3.5,2.5
		s-2.9,0.9-4.6,0.9s-3.2-0.3-4.6-0.9c-1.4-0.6-2.5-1.4-3.5-2.5s-1.7-2.3-2.2-3.7S1,188.6,1,187c0-1.7,0.3-3.2,0.8-4.6
		s1.2-2.7,2.2-3.7s2.1-1.9,3.5-2.5s2.9-0.9,4.6-0.9C15.4,175.2,18,176.3,20.1,178.5z M8.1,192.3c1.1,1.2,2.4,1.8,4.1,1.8
		c1,0,1.9-0.2,2.6-0.6c0.7-0.4,1.3-0.9,1.8-1.5s0.8-1.4,1-2.2s0.3-1.7,0.3-2.7c0-0.9-0.1-1.8-0.3-2.6c-0.2-0.9-0.5-1.6-1-2.3
		c-0.5-0.6-1-1.2-1.8-1.6c-0.7-0.4-1.6-0.6-2.6-0.6s-1.9,0.2-2.7,0.6c-0.7,0.4-1.4,0.9-1.8,1.5c-0.5,0.6-0.8,1.4-1,2.3
		c-0.2,0.9-0.3,1.7-0.3,2.7C6.4,189.3,7,191,8.1,192.3z"/>
	<path class="st0" d="M25.2,175.6H34c0.8,0,1.5,0,2.3,0.1s1.5,0.2,2.2,0.4s1.3,0.5,1.9,0.9c0.6,0.4,1.1,1,1.6,1.7
		c0.8,1.2,1.2,2.6,1.2,4.1c0,1.3-0.2,2.5-0.7,3.5s-1.1,1.7-1.9,2.3c-0.8,0.6-1.7,1-2.8,1.3s-2.2,0.4-3.5,0.4h-4v8.2h-5.1V175.6z
		 M30.4,185.4h4c0.5,0,0.9,0,1.4-0.1c0.4,0,0.8-0.2,1.2-0.3c0.3-0.2,0.6-0.4,0.8-0.8c0.2-0.3,0.3-0.8,0.3-1.4c0-0.2,0-0.4-0.1-0.6
		c0-0.2-0.1-0.5-0.2-0.7c-0.1-0.2-0.2-0.4-0.4-0.6c-0.2-0.2-0.4-0.3-0.6-0.3c-0.2,0-0.4-0.1-0.8-0.1c-0.4,0-0.9-0.1-1.6-0.1h-3.9v5
		H30.4z"/>
	<path class="st0" d="M59.2,189.6h5.2l-0.1,1.3c-0.1,1.3-0.5,2.4-1,3.4s-1.2,1.8-2.1,2.5c-0.8,0.7-1.8,1.2-2.9,1.5s-2.3,0.5-3.5,0.5
		c-1.8,0-3.3-0.3-4.6-0.9s-2.4-1.4-3.3-2.5c-0.9-1.1-1.6-2.3-2.1-3.7s-0.7-3-0.7-4.6c0-1.7,0.2-3.2,0.7-4.6c0.5-1.4,1.2-2.7,2.1-3.7
		c0.9-1.1,2-1.9,3.3-2.5s2.9-0.9,4.6-0.9c1.2,0,2.3,0.2,3.4,0.5c1.1,0.3,2.1,0.8,3,1.5c0.9,0.6,1.6,1.4,2.2,2.4c0.6,0.9,0.9,2,1,3.3
		l0.1,1.3h-5.3l-0.1-1.1c0-0.6-0.2-1.1-0.5-1.5s-0.6-0.7-1-1s-0.8-0.4-1.3-0.5s-1-0.2-1.5-0.2c-1,0-1.9,0.2-2.6,0.6
		c-0.7,0.4-1.3,0.9-1.7,1.6c-0.4,0.6-0.7,1.4-0.9,2.3c-0.2,0.9-0.3,1.7-0.3,2.6c0,0.9,0.1,1.8,0.3,2.6s0.5,1.6,0.9,2.2
		s1,1.2,1.7,1.6c0.7,0.4,1.6,0.6,2.6,0.6c1.2,0,2.1-0.3,3-0.8c0.9-0.5,1.3-1.4,1.4-2.6L59.2,189.6z"/>
	<path class="st0" d="M66.5,198.4v-22.9h5.1v22.9H66.5z"/>
	<path class="st0" d="M92.6,178.5c2.1,2.1,3.1,5,3.1,8.5c0,1.6-0.3,3.2-0.8,4.6s-1.2,2.7-2.2,3.7c-0.9,1.1-2.1,1.9-3.5,2.5
		s-2.9,0.9-4.6,0.9s-3.2-0.3-4.6-0.9c-1.4-0.6-2.5-1.4-3.5-2.5s-1.7-2.3-2.2-3.7s-0.8-3-0.8-4.6c0-1.7,0.3-3.2,0.8-4.6
		s1.2-2.7,2.2-3.7s2.1-1.9,3.5-2.5s2.9-0.9,4.6-0.9C87.9,175.2,90.5,176.3,92.6,178.5z M80.6,192.3c1.1,1.2,2.4,1.8,4.1,1.8
		c1,0,1.9-0.2,2.6-0.6c0.7-0.4,1.3-0.9,1.8-1.5s0.8-1.4,1-2.2s0.3-1.7,0.3-2.7c0-0.9-0.1-1.8-0.3-2.6c-0.2-0.9-0.5-1.6-1-2.3
		c-0.5-0.6-1-1.2-1.8-1.6c-0.7-0.4-1.6-0.6-2.6-0.6s-1.9,0.2-2.7,0.6c-0.7,0.4-1.4,0.9-1.8,1.5c-0.5,0.6-0.8,1.4-1,2.3
		c-0.2,0.9-0.3,1.7-0.3,2.7C78.9,189.3,79.5,191,80.6,192.3z"/>
	<path class="st0" d="M97.7,175.6h4.6l8.9,13.3v-13.3h5v22.9h-4.6l-8.8-13.3v13.3h-5L97.7,175.6L97.7,175.6z"/>
	<path class="st0" d="M137,188c0.7-0.4,1.3-0.8,2-1.2s1.3-0.8,1.8-1.3c0.5-0.4,1-0.9,1.3-1.3c0.3-0.4,0.5-0.9,0.5-1.3
		c0-1.6-1.1-2.3-3.4-2.3c-0.6,0-1.1,0.1-1.5,0.2c-0.4,0.1-0.7,0.3-0.9,0.5s-0.4,0.4-0.5,0.6c-0.1,0.2-0.2,0.4-0.2,0.6H131
		c0-0.7,0.1-1.4,0.5-2.3c0.3-0.8,0.8-1.6,1.4-2.3c0.6-0.7,1.5-1.3,2.5-1.7c1-0.5,2.3-0.7,3.8-0.7c1.7,0,3.1,0.3,4.2,0.8
		c1.1,0.5,2,1.2,2.6,1.9c0.6,0.8,1.1,1.6,1.4,2.4c0.3,0.9,0.4,1.6,0.4,2.3c0,1.2-0.3,2.3-0.8,3.2s-1.2,1.8-2,2.6s-1.7,1.4-2.7,2.1
		c-1,0.6-1.9,1.2-2.8,1.7c-0.2,0.1-0.5,0.3-0.7,0.4s-0.5,0.3-0.8,0.5h9v5.1h-17.2v-2.6c0-0.9,0.2-1.8,0.6-2.5
		c0.4-0.8,0.9-1.4,1.6-2.1c0.7-0.6,1.4-1.2,2.3-1.7C135.3,189.1,136.2,188.5,137,188z"/>
</g>
</svg>
