<svg id="Capa_1" data-name="Capa 1" xmlns="http://www.w3.org/2000/svg" viewBox="0 0 606.67 179.73"><defs><style>.cls-1{fill:#fff;}.cls-2{fill:none;stroke:#fff;stroke-miterlimit:10;stroke-width:3px;}</style></defs><title>Costo</title><path class="cls-1" d="M32.12,52.9A7.55,7.55,0,0,1,33.2,49,6,6,0,0,1,36,46.69a10,10,0,0,1,4.16-.8,9.49,9.49,0,0,1,4.16.83A6.13,6.13,0,0,1,46.84,49a5.9,5.9,0,0,1,.89,3.2,4.92,4.92,0,0,1-.54,2.44,4.26,4.26,0,0,1-1.38,1.5,6.3,6.3,0,0,1-1.57.8V57a7.23,7.23,0,0,1,2,1,4.26,4.26,0,0,1,1.38,1.63,5.41,5.41,0,0,1,.51,2.47,6.41,6.41,0,0,1-.93,3.45,6.05,6.05,0,0,1-2.62,2.31,9.61,9.61,0,0,1-4.16.83,12.68,12.68,0,0,1-4.39-.7,6.17,6.17,0,0,1-3-2.34,8.18,8.18,0,0,1-1.15-4.38h5.47A2.64,2.64,0,0,0,38,63.4a3.49,3.49,0,0,0,2.17.57,3.22,3.22,0,0,0,1.35-.25,2.07,2.07,0,0,0,.83-.8,2.57,2.57,0,0,0,.29-1.25,1.89,1.89,0,0,0-.93-1.86,6.5,6.5,0,0,0-3-.51h-1V55.14h1A9.36,9.36,0,0,0,40.4,55a2.74,2.74,0,0,0,1.32-.61A1.89,1.89,0,0,0,42.23,53a2.28,2.28,0,0,0-.61-1.72A2.18,2.18,0,0,0,40,50.66a2.61,2.61,0,0,0-1.38.32,1.88,1.88,0,0,0-.73.8,3.12,3.12,0,0,0-.26,1.12Zm34.07-6.78v4.67H56.75v4.06a4.59,4.59,0,0,1,1.5-1.09,6,6,0,0,1,2.28-.38,7.37,7.37,0,0,1,3.2.64,6.25,6.25,0,0,1,2.2,1.7,6.71,6.71,0,0,1,1.32,2.4,8.93,8.93,0,0,1,.41,2.65,8.51,8.51,0,0,1-1,4.29,6.74,6.74,0,0,1-2.82,2.75,9.44,9.44,0,0,1-4.35.93,10.47,10.47,0,0,1-4.54-.9,7.11,7.11,0,0,1-2.88-2.49A7.22,7.22,0,0,1,51,61.76h5.47a3,3,0,0,0,.83,1.54,2.8,2.8,0,0,0,2,.67,2.94,2.94,0,0,0,1.53-.35,2.24,2.24,0,0,0,.9-1.12A4.88,4.88,0,0,0,62,60.74a2.9,2.9,0,0,0-.74-2.18,2.77,2.77,0,0,0-2-.7,2.48,2.48,0,0,0-1.69.58,2.41,2.41,0,0,0-.87,1.24H51.18V46.12Zm4.21,11.2a21.17,21.17,0,0,1,.48-4.68A10.21,10.21,0,0,1,72.41,49a6.94,6.94,0,0,1,2.79-2.31,9.94,9.94,0,0,1,4.25-.83,9.78,9.78,0,0,1,4.23.83A6.91,6.91,0,0,1,86.46,49,9.73,9.73,0,0,1,88,52.64,23.15,23.15,0,0,1,88,62a9.78,9.78,0,0,1-1.57,3.62,6.81,6.81,0,0,1-2.78,2.3,10.1,10.1,0,0,1-4.23.8,10.27,10.27,0,0,1-4.25-.8,6.84,6.84,0,0,1-2.79-2.3A10.26,10.26,0,0,1,70.88,62,21.29,21.29,0,0,1,70.4,57.32Zm12.44,0c0-.88,0-1.71-.09-2.5a8.07,8.07,0,0,0-.45-2.14,3.18,3.18,0,0,0-1-1.48,2.9,2.9,0,0,0-1.86-.54,2.85,2.85,0,0,0-1.85.54,3.49,3.49,0,0,0-1,1.48,8.56,8.56,0,0,0-.41,2.14c-.07.79-.1,1.62-.1,2.5s0,1.78.1,2.59A8.59,8.59,0,0,0,76.57,62a3.42,3.42,0,0,0,1,1.44,3,3,0,0,0,1.85.51,3,3,0,0,0,1.86-.51,3.11,3.11,0,0,0,1-1.44,8.1,8.1,0,0,0,.45-2.11C82.81,59.1,82.84,58.23,82.84,57.32Zm8.49,0a21.17,21.17,0,0,1,.48-4.68A10.22,10.22,0,0,1,93.35,49a6.91,6.91,0,0,1,2.78-2.31,10,10,0,0,1,4.26-.83,9.74,9.74,0,0,1,4.22.83A6.94,6.94,0,0,1,107.4,49,9.9,9.9,0,0,1,109,52.64,23.15,23.15,0,0,1,109,62a10,10,0,0,1-1.57,3.62,6.84,6.84,0,0,1-2.79,2.3,10.05,10.05,0,0,1-4.22.8,10.35,10.35,0,0,1-4.26-.8,6.81,6.81,0,0,1-2.78-2.3A10.27,10.27,0,0,1,91.81,62,21.29,21.29,0,0,1,91.33,57.32Zm12.45,0c0-.88,0-1.71-.09-2.5a8.07,8.07,0,0,0-.45-2.14,3.34,3.34,0,0,0-1-1.48,3.47,3.47,0,0,0-3.72,0,3.48,3.48,0,0,0-1,1.48,9,9,0,0,0-.42,2.14c-.06.79-.09,1.62-.09,2.5s0,1.78.09,2.59A9.06,9.06,0,0,0,97.51,62a3.4,3.4,0,0,0,1,1.44,3.65,3.65,0,0,0,3.72,0,3.26,3.26,0,0,0,1-1.44,8.1,8.1,0,0,0,.45-2.11C103.75,59.1,103.78,58.23,103.78,57.32Zm17.72-11.2h5.56V59.94a4.43,4.43,0,0,0,.52,2.21A3.4,3.4,0,0,0,129,63.52a4.89,4.89,0,0,0,2.17.45,5.21,5.21,0,0,0,2.24-.45,3.36,3.36,0,0,0,1.47-1.37,4.24,4.24,0,0,0,.55-2.21V46.12H141V59.43a9.82,9.82,0,0,1-.8,4.09A8.34,8.34,0,0,1,138,66.44a9.45,9.45,0,0,1-3.17,1.72,11.94,11.94,0,0,1-3.74.58,11.16,11.16,0,0,1-4.8-1,8.46,8.46,0,0,1-3.49-3.11,9.46,9.46,0,0,1-1.31-5.18ZM148.92,61.7a3,3,0,0,0,.64,1.5,3,3,0,0,0,1.21.8,5.47,5.47,0,0,0,1.6.23,3.76,3.76,0,0,0,2.31-.61,2,2,0,0,0,.83-1.63,1.66,1.66,0,0,0-.51-1.28,3.62,3.62,0,0,0-1.38-.8c-.58-.24-1.25-.47-2-.71s-1.71-.5-2.59-.8a13,13,0,0,1-2.43-1.18,5.58,5.58,0,0,1-1.79-1.89,5.44,5.44,0,0,1-.64-2.88,5.81,5.81,0,0,1,1.09-3.58,6.53,6.53,0,0,1,2.94-2.21,12.1,12.1,0,0,1,8.13-.13,6.81,6.81,0,0,1,2.78,1.89,6.74,6.74,0,0,1,1.57,3l-5.12.9A2.17,2.17,0,0,0,155,51.2a2.68,2.68,0,0,0-1.08-.64,3.54,3.54,0,0,0-1.22-.22,3.8,3.8,0,0,0-1.41.26,2.58,2.58,0,0,0-1.05.73,1.74,1.74,0,0,0-.39,1.12,1.54,1.54,0,0,0,.45,1.15,4.46,4.46,0,0,0,1.28.8c.53.24,1.12.46,1.76.68.87.27,1.77.57,2.69.89a12.15,12.15,0,0,1,2.56,1.25,5.6,5.6,0,0,1,1.89,1.92,5.32,5.32,0,0,1,.73,2.91,6.17,6.17,0,0,1-3.71,5.79,10.79,10.79,0,0,1-4.7.9,13,13,0,0,1-4.32-.67,7.73,7.73,0,0,1-3.11-2,6.78,6.78,0,0,1-1.6-3.3Zm24.23-15.58a13.12,13.12,0,0,1,6.24,1.4,10,10,0,0,1,4.1,3.94,12.34,12.34,0,0,1,0,11.68,10.18,10.18,0,0,1-4.1,4,13,13,0,0,1-6.24,1.41H164V46.12Zm-.35,17.72a6.38,6.38,0,0,0,4.77-1.76,6.5,6.5,0,0,0,1.72-4.76,6.44,6.44,0,0,0-1.72-4.77,6.38,6.38,0,0,0-4.77-1.76h-3.23V63.84Zm16.84,4.84a1.68,1.68,0,0,1-1.25-.52,1.74,1.74,0,0,1-.48-1.24,1.76,1.76,0,0,1,.48-1.25,1.71,1.71,0,0,1,1.25-.51,1.69,1.69,0,0,1,1.22.51,1.71,1.71,0,0,1,.51,1.25,1.68,1.68,0,0,1-.51,1.24A1.66,1.66,0,0,1,189.64,68.68ZM207,65.28l.26,0v9.67h-2.4V52.52H207l.16,3a6.34,6.34,0,0,1,2.17-2.27,6.56,6.56,0,0,1,3.62-.93,7.07,7.07,0,0,1,6.37,3.87,9.26,9.26,0,0,1,1,4.36,9.61,9.61,0,0,1-.93,4.35,6.87,6.87,0,0,1-2.56,2.85,7.1,7.1,0,0,1-3.84,1,6.78,6.78,0,0,1-3.81-1A6.07,6.07,0,0,1,207,65.28Zm10.75-4.76a6.28,6.28,0,0,0-1.44-4.36,4.78,4.78,0,0,0-3.8-1.63,5.31,5.31,0,0,0-2.72.71,4.85,4.85,0,0,0-1.86,2,7.18,7.18,0,0,0-.67,3.24,7.09,7.09,0,0,0,.67,3.2,5.09,5.09,0,0,0,1.86,2.08,5.3,5.3,0,0,0,2.72.7,4.79,4.79,0,0,0,3.8-1.6A6.39,6.39,0,0,0,217.72,60.52Zm16.53,8-.19-2.88a5.2,5.2,0,0,1-2,2.3,6.3,6.3,0,0,1-3.32.8,7.23,7.23,0,0,1-2.95-.54,4,4,0,0,1-2.53-3.94,4.14,4.14,0,0,1,1.51-3.3,7.73,7.73,0,0,1,4.35-1.6l4.93-.54V57.54a2.6,2.6,0,0,0-1-2.14,4,4,0,0,0-2.69-.84,4.85,4.85,0,0,0-2.79.77,4,4,0,0,0-1.5,2.21l-2.18-.77a6,6,0,0,1,2.34-3.29,7.23,7.23,0,0,1,4.19-1.19,6.23,6.23,0,0,1,4.42,1.47,5.06,5.06,0,0,1,1.6,3.94V68.52Zm-.19-7.65-5,.57a4.53,4.53,0,0,0-2.43.9,2.19,2.19,0,0,0-.84,1.79,2.21,2.21,0,0,0,.8,1.79,3.7,3.7,0,0,0,2.37.68,5.34,5.34,0,0,0,2.88-.71A4.09,4.09,0,0,0,233.51,64a6.22,6.22,0,0,0,.55-2.62Zm7.08-8.35h2.21l.13,2.33A6.3,6.3,0,0,1,245,53.38a5.68,5.68,0,0,1,2-.83,5.88,5.88,0,0,1,2.37,0v2.4a5.89,5.89,0,0,0-2.44,0,4.05,4.05,0,0,0-1.82,1A4.52,4.52,0,0,0,244,57.67a6.6,6.6,0,0,0-.42,2.46v8.39h-2.4Zm21.55,16-.2-2.88a5.11,5.11,0,0,1-2,2.3,6.31,6.31,0,0,1-3.33.8,7.21,7.21,0,0,1-2.94-.54,4.46,4.46,0,0,1-1.89-1.54,4.39,4.39,0,0,1-.64-2.4,4.16,4.16,0,0,1,1.5-3.3,7.79,7.79,0,0,1,4.36-1.6l4.92-.54V57.54a2.6,2.6,0,0,0-1-2.14,4,4,0,0,0-2.69-.84,4.84,4.84,0,0,0-2.78.77,3.92,3.92,0,0,0-1.5,2.21l-2.18-.77a6,6,0,0,1,2.34-3.29,7.23,7.23,0,0,1,4.19-1.19,6.18,6.18,0,0,1,4.41,1.47,5,5,0,0,1,1.6,3.94V68.52Zm-.2-7.65-5,.57a4.59,4.59,0,0,0-2.43.9,2.37,2.37,0,0,0,0,3.58,3.68,3.68,0,0,0,2.37.68,5.34,5.34,0,0,0,2.88-.71A4.09,4.09,0,0,0,262,64a6.37,6.37,0,0,0,.54-2.62Zm29.14,7.65h-2.17l-.16-2.31a5.09,5.09,0,0,1-2,1.89,6.24,6.24,0,0,1-2.91.64,6.54,6.54,0,0,1-3.23-.77,5.2,5.2,0,0,1-2.14-2.3,9,9,0,0,1-.74-3.87V52.52h2.37v9a5.77,5.77,0,0,0,1,3.74,3.88,3.88,0,0,0,3.11,1.25,4.15,4.15,0,0,0,3.23-1.31,5.85,5.85,0,0,0,1.22-4V52.52h2.36Zm4.88-16h2.21l.13,2.27a5.16,5.16,0,0,1,2-1.83,6.13,6.13,0,0,1,2.91-.67,6.31,6.31,0,0,1,3.2.8,5.15,5.15,0,0,1,2.14,2.34,8.63,8.63,0,0,1,.77,3.87v9.22h-2.4V59.59a5.68,5.68,0,0,0-1.09-3.78,3.72,3.72,0,0,0-3.07-1.31,4.06,4.06,0,0,0-3.26,1.38,6.16,6.16,0,0,0-1.16,4.06v8.58h-2.4Zm39.29,0H338v13a9.3,9.3,0,0,1-1.31,5,8.32,8.32,0,0,1-3.81,3.2,14.9,14.9,0,0,1-6.08,1.12l-.38-2.21c3,0,5.29-.67,6.84-1.89a6.19,6.19,0,0,0,2.34-5.25v-.35l.26.06a6.4,6.4,0,0,1-6,3.46,7.43,7.43,0,0,1-3.87-1,7,7,0,0,1-2.56-2.88,9.88,9.88,0,0,1-.9-4.35,9.63,9.63,0,0,1,.9-4.32A7,7,0,0,1,326,53.32a7.18,7.18,0,0,1,3.87-1,6.84,6.84,0,0,1,2.56.45,5.75,5.75,0,0,1,1.92,1.15,6.26,6.26,0,0,1,1.31,1.6Zm-10.69,8a6.48,6.48,0,0,0,1.41,4.38,4.94,4.94,0,0,0,3.87,1.6,5.08,5.08,0,0,0,2.66-.7,4.88,4.88,0,0,0,1.86-2,6.91,6.91,0,0,0,.7-3.23,6.67,6.67,0,0,0-.7-3.2,4.82,4.82,0,0,0-1.86-2,5.26,5.26,0,0,0-6.5.89A6.35,6.35,0,0,0,325.11,60.52Zm17.81-8h2.21l.13,2.33a6.48,6.48,0,0,1,1.53-1.47,5.68,5.68,0,0,1,2-.83,5.89,5.89,0,0,1,2.37,0v2.4a5.89,5.89,0,0,0-2.44,0,4.05,4.05,0,0,0-1.82,1,4.52,4.52,0,0,0-1.18,1.79,6.6,6.6,0,0,0-.42,2.46v8.39h-2.4Zm24.62,16h-2.18l-.16-2.31a5.14,5.14,0,0,1-2,1.89,6.24,6.24,0,0,1-2.91.64,6.51,6.51,0,0,1-3.23-.77,5.22,5.22,0,0,1-2.15-2.3,9,9,0,0,1-.73-3.87V52.52h2.36v9a5.77,5.77,0,0,0,1.06,3.74,3.88,3.88,0,0,0,3.1,1.25A4.16,4.16,0,0,0,364,65.22a5.85,5.85,0,0,0,1.21-4V52.52h2.37Zm7-3.24.26,0v9.67h-2.4V52.52h2.21l.16,3A6.34,6.34,0,0,1,377,53.22a6.56,6.56,0,0,1,3.62-.93A7.07,7.07,0,0,1,387,56.16a9.26,9.26,0,0,1,1,4.36,9.61,9.61,0,0,1-.93,4.35,6.87,6.87,0,0,1-2.56,2.85,7.1,7.1,0,0,1-3.84,1,6.81,6.81,0,0,1-3.81-1A6.07,6.07,0,0,1,374.56,65.28Zm10.76-4.76a6.28,6.28,0,0,0-1.44-4.36,4.8,4.8,0,0,0-3.81-1.63,5.33,5.33,0,0,0-2.72.71,4.85,4.85,0,0,0-1.86,2,7.18,7.18,0,0,0-.67,3.24,7.09,7.09,0,0,0,.67,3.2,5.09,5.09,0,0,0,1.86,2.08,5.33,5.33,0,0,0,2.72.7,4.81,4.81,0,0,0,3.81-1.6A6.39,6.39,0,0,0,385.32,60.52Zm13.42,8.22a8.22,8.22,0,0,1-4.06-1,7.09,7.09,0,0,1-2.82-2.82,10,10,0,0,1,0-8.8,7.3,7.3,0,0,1,2.85-2.85,8.42,8.42,0,0,1,4.09-1,8.29,8.29,0,0,1,4.07,1,7.17,7.17,0,0,1,2.85,2.85,8.6,8.6,0,0,1,1,4.35,8.84,8.84,0,0,1-1,4.42,7.31,7.31,0,0,1-2.88,2.85A8.49,8.49,0,0,1,398.74,68.74Zm0-2.27a5.89,5.89,0,0,0,2.65-.61,4.92,4.92,0,0,0,2-2,6.59,6.59,0,0,0,.8-3.39,6.71,6.71,0,0,0-.77-3.4,4.75,4.75,0,0,0-2-1.92,5.68,5.68,0,0,0-2.63-.64,5.61,5.61,0,0,0-2.62.64,4.8,4.8,0,0,0-2,2,6.8,6.8,0,0,0-.73,3.36,6.92,6.92,0,0,0,.73,3.39,4.87,4.87,0,0,0,1.92,2A5.75,5.75,0,0,0,398.71,66.47ZM432,55.75l-.25,0V45.48h2.4v23H432l-.16-3a6.22,6.22,0,0,1-2.21,2.27,6.46,6.46,0,0,1-3.58.93,7.44,7.44,0,0,1-3.88-1,7,7,0,0,1-2.56-2.88,10,10,0,0,1-.89-4.35,9.76,9.76,0,0,1,.89-4.32,7,7,0,0,1,2.56-2.88,7.19,7.19,0,0,1,3.88-1,6.71,6.71,0,0,1,3.77,1A6.35,6.35,0,0,1,432,55.75Zm-10.75,4.77a6.48,6.48,0,0,0,1.41,4.38,4.85,4.85,0,0,0,3.84,1.6,5.16,5.16,0,0,0,2.69-.7,4.86,4.86,0,0,0,1.85-2,6.91,6.91,0,0,0,.71-3.23,6.67,6.67,0,0,0-.71-3.2,4.8,4.8,0,0,0-1.85-2,5,5,0,0,0-2.69-.74,4.89,4.89,0,0,0-3.84,1.63A6.37,6.37,0,0,0,421.27,60.52Zm24.53,8.22a7.39,7.39,0,0,1-4-1.09,7.65,7.65,0,0,1-2.72-3,9.17,9.17,0,0,1-1-4.32,8.56,8.56,0,0,1,1-4.16,7.25,7.25,0,0,1,2.72-2.85,7.32,7.32,0,0,1,3.93-1.06,7.78,7.78,0,0,1,3.88,1,6.85,6.85,0,0,1,2.68,2.66,7.29,7.29,0,0,1,.9,3.87c0,.23,0,.48,0,.74s-.05.53-.07.83H440.71a5.57,5.57,0,0,0,.74,2.65,4.68,4.68,0,0,0,4.28,2.47,6.42,6.42,0,0,0,3.14-.71,4.18,4.18,0,0,0,1.89-2l2.08.83a7,7,0,0,1-2.79,3.1A8.25,8.25,0,0,1,445.8,68.74Zm4.77-9.47a4.44,4.44,0,0,0-.61-2.43,4.35,4.35,0,0,0-1.73-1.67,5.41,5.41,0,0,0-2.59-.61,4.67,4.67,0,0,0-2.34.61,5.19,5.19,0,0,0-1.76,1.7,5.34,5.34,0,0,0-.8,2.4Zm29.59-13.15v2.24H468.83v7.45A5.16,5.16,0,0,1,471,54.15a7.54,7.54,0,0,1,3.17-.64,8,8,0,0,1,3.46.67,6.39,6.39,0,0,1,2.27,1.76,6.81,6.81,0,0,1,1.28,2.4,8.06,8.06,0,0,1,.41,2.53,8.53,8.53,0,0,1-.89,3.9A6.76,6.76,0,0,1,478,67.65a7.92,7.92,0,0,1-4.32,1.09,9.16,9.16,0,0,1-3.93-.8,7,7,0,0,1-2.69-2.21,7.86,7.86,0,0,1-1.28-3.33h2.5a4.94,4.94,0,0,0,1.85,3,5.94,5.94,0,0,0,3.55,1,5.58,5.58,0,0,0,2.95-.71,4.2,4.2,0,0,0,1.73-2,6.85,6.85,0,0,0,.57-2.88,4.67,4.67,0,0,0-5.18-5.15,6.12,6.12,0,0,0-3.17.8,4.85,4.85,0,0,0-1.95,2.24h-2.4V46.12Zm5.63,11.2a27.85,27.85,0,0,1,.35-4.55,11.2,11.2,0,0,1,1.22-3.65,5.87,5.87,0,0,1,2.4-2.36,8,8,0,0,1,3.93-.87,7.88,7.88,0,0,1,3.91.87,6,6,0,0,1,2.4,2.36,11.2,11.2,0,0,1,1.21,3.65,26.74,26.74,0,0,1,.36,4.55,27.35,27.35,0,0,1-.36,4.6A11.1,11.1,0,0,1,500,65.54a6.08,6.08,0,0,1-2.4,2.37,8.24,8.24,0,0,1-3.91.83,8.35,8.35,0,0,1-3.93-.83,6,6,0,0,1-2.4-2.37,11.1,11.1,0,0,1-1.22-3.62A28.49,28.49,0,0,1,485.79,57.32Zm13.18,0a29.68,29.68,0,0,0-.19-3.52,10.54,10.54,0,0,0-.67-2.92,4.14,4.14,0,0,0-1.57-2,4.89,4.89,0,0,0-2.85-.74,5,5,0,0,0-2.84.74,4.32,4.32,0,0,0-1.6,2,10.87,10.87,0,0,0-.71,2.92,35,35,0,0,0-.16,3.52c0,1.3.05,2.5.16,3.61a10.7,10.7,0,0,0,.71,2.91,4.32,4.32,0,0,0,1.6,2,5.4,5.4,0,0,0,2.84.67,5.32,5.32,0,0,0,2.85-.67,4.14,4.14,0,0,0,1.57-2,10.38,10.38,0,0,0,.67-2.91A31.14,31.14,0,0,0,499,57.32Zm-463.69,46,.26,0v9.67h-2.4V90.52h2.21l.16,3a6.34,6.34,0,0,1,2.17-2.27,6.56,6.56,0,0,1,3.62-.93,7.07,7.07,0,0,1,6.37,3.87,9.26,9.26,0,0,1,1,4.36,9.61,9.61,0,0,1-.93,4.35,6.87,6.87,0,0,1-2.56,2.85,7.1,7.1,0,0,1-3.84,1,6.78,6.78,0,0,1-3.81-1A6.07,6.07,0,0,1,35.28,103.28ZM46,98.52a6.28,6.28,0,0,0-1.44-4.36,4.8,4.8,0,0,0-3.81-1.63,5.31,5.31,0,0,0-2.72.71,4.85,4.85,0,0,0-1.86,2,7.18,7.18,0,0,0-.67,3.24,7.09,7.09,0,0,0,.67,3.2,5.09,5.09,0,0,0,1.86,2.08,5.3,5.3,0,0,0,2.72.7,4.81,4.81,0,0,0,3.81-1.6A6.39,6.39,0,0,0,46,98.52Zm13.23,8.22a7.39,7.39,0,0,1-4-1.09,7.58,7.58,0,0,1-2.72-3,9.06,9.06,0,0,1-1-4.32,8.45,8.45,0,0,1,1-4.16,7.18,7.18,0,0,1,2.72-2.85,7.32,7.32,0,0,1,3.93-1.06,7.71,7.71,0,0,1,3.87,1,6.81,6.81,0,0,1,2.69,2.66,7.29,7.29,0,0,1,.9,3.87c0,.23,0,.48,0,.74s0,.53-.07.83H54.18a5.68,5.68,0,0,0,.73,2.65,5.24,5.24,0,0,0,1.76,1.83,5.09,5.09,0,0,0,2.53.64,6.45,6.45,0,0,0,3.14-.71,4.18,4.18,0,0,0,1.89-2l2.08.83a7,7,0,0,1-2.79,3.1A8.25,8.25,0,0,1,59.27,106.74ZM64,97.27a4.35,4.35,0,0,0-.6-2.43,4.41,4.41,0,0,0-1.73-1.67,5.41,5.41,0,0,0-2.59-.61,4.64,4.64,0,0,0-2.34.61A5.19,5.19,0,0,0,55,94.87a5.34,5.34,0,0,0-.8,2.4Zm6.58-6.75h2.21l.12,2.33a6.52,6.52,0,0,1,1.54-1.47,5.68,5.68,0,0,1,2-.83,5.84,5.84,0,0,1,2.36,0v2.4a5.84,5.84,0,0,0-2.43,0,4.05,4.05,0,0,0-1.82,1,4.65,4.65,0,0,0-1.19,1.79A6.82,6.82,0,0,0,73,98.13v8.39h-2.4Zm12.84,11.1a3.61,3.61,0,0,0,.71,1.6,3.23,3.23,0,0,0,1.31.93,5.36,5.36,0,0,0,1.92.32,4.33,4.33,0,0,0,2.56-.64,2,2,0,0,0,.89-1.67,1.76,1.76,0,0,0-.54-1.34,3.71,3.71,0,0,0-1.38-.83A12.4,12.4,0,0,0,87,99.38l-1.79-.45a8.88,8.88,0,0,1-1.82-.77A4.13,4.13,0,0,1,82,96.92a3.47,3.47,0,0,1-.54-2,4,4,0,0,1,.73-2.4,5,5,0,0,1,2.08-1.63,7.64,7.64,0,0,1,3.07-.58,7,7,0,0,1,3.52.87A4.59,4.59,0,0,1,93,93.84l-2.24.77A2.31,2.31,0,0,0,90,93.33a3.29,3.29,0,0,0-1.31-.61,6.77,6.77,0,0,0-1.41-.16,4.31,4.31,0,0,0-2.34.58A1.84,1.84,0,0,0,84,94.8a1.71,1.71,0,0,0,.29,1,2.18,2.18,0,0,0,.8.64,6.7,6.7,0,0,0,1.21.45c.47.1,1,.23,1.54.38a16.26,16.26,0,0,1,1.89.58,7.77,7.77,0,0,1,1.79.86,4.09,4.09,0,0,1,1.34,1.34,3.56,3.56,0,0,1,.55,2,4.07,4.07,0,0,1-.77,2.46,4.94,4.94,0,0,1-2.15,1.6,7.77,7.77,0,0,1-3.13.58,7.2,7.2,0,0,1-4.1-1.09,5.42,5.42,0,0,1-2.14-3.26Zm20.79,5.12a8.22,8.22,0,0,1-4.06-1,7.09,7.09,0,0,1-2.82-2.82,10,10,0,0,1,0-8.8,7.3,7.3,0,0,1,2.85-2.85,8.42,8.42,0,0,1,4.09-1,8.29,8.29,0,0,1,4.07,1,7.17,7.17,0,0,1,2.85,2.85,8.6,8.6,0,0,1,1,4.35,8.84,8.84,0,0,1-1,4.42,7.31,7.31,0,0,1-2.88,2.85A8.49,8.49,0,0,1,104.24,106.74Zm0-2.27a5.89,5.89,0,0,0,2.65-.61,4.92,4.92,0,0,0,2-2,6.59,6.59,0,0,0,.8-3.39,6.71,6.71,0,0,0-.77-3.4,4.75,4.75,0,0,0-2-1.92,5.68,5.68,0,0,0-2.63-.64,5.61,5.61,0,0,0-2.62.64,4.8,4.8,0,0,0-2,2,6.8,6.8,0,0,0-.73,3.36,6.92,6.92,0,0,0,.73,3.39,4.87,4.87,0,0,0,1.92,2A5.75,5.75,0,0,0,104.21,104.47Zm12-14h2.21l.13,2.27a5.2,5.2,0,0,1,2-1.83,6.2,6.2,0,0,1,2.92-.67,6.31,6.31,0,0,1,3.2.8,5.2,5.2,0,0,1,2.14,2.34,8.63,8.63,0,0,1,.77,3.87v9.22h-2.4V97.59a5.68,5.68,0,0,0-1.09-3.78A3.72,3.72,0,0,0,123,92.5a4.08,4.08,0,0,0-3.27,1.38,6.22,6.22,0,0,0-1.15,4.06v8.58h-2.4Zm28.05,16-.19-2.88a5.25,5.25,0,0,1-2,2.3,6.3,6.3,0,0,1-3.32.8,7.23,7.23,0,0,1-2.95-.54,4,4,0,0,1-2.53-3.94,4.14,4.14,0,0,1,1.51-3.3,7.73,7.73,0,0,1,4.35-1.6l4.93-.54V95.54a2.6,2.6,0,0,0-1-2.14,4,4,0,0,0-2.69-.84,4.85,4.85,0,0,0-2.79.77,4,4,0,0,0-1.5,2.21l-2.18-.77a6,6,0,0,1,2.34-3.29,7.23,7.23,0,0,1,4.19-1.19,6.23,6.23,0,0,1,4.42,1.47,5.06,5.06,0,0,1,1.6,3.94v10.82Zm-.19-7.65-5,.57a4.53,4.53,0,0,0-2.43.9,2.19,2.19,0,0,0-.84,1.79,2.21,2.21,0,0,0,.8,1.79,3.7,3.7,0,0,0,2.37.68,5.34,5.34,0,0,0,2.88-.71,4.09,4.09,0,0,0,1.63-1.89,6.22,6.22,0,0,0,.55-2.62Zm8.39,2.75a3.61,3.61,0,0,0,.71,1.6,3.23,3.23,0,0,0,1.31.93,5.36,5.36,0,0,0,1.92.32,4.33,4.33,0,0,0,2.56-.64,2,2,0,0,0,.89-1.67,1.76,1.76,0,0,0-.54-1.34,3.71,3.71,0,0,0-1.38-.83,12.4,12.4,0,0,0-1.92-.61l-1.79-.45a8.88,8.88,0,0,1-1.82-.77A4.13,4.13,0,0,1,151,96.92a3.47,3.47,0,0,1-.54-2,4,4,0,0,1,.73-2.4,5,5,0,0,1,2.08-1.63,7.64,7.64,0,0,1,3.07-.58,7,7,0,0,1,3.52.87A4.59,4.59,0,0,1,162,93.84l-2.24.77a2.31,2.31,0,0,0-.83-1.28,3.29,3.29,0,0,0-1.31-.61,6.77,6.77,0,0,0-1.41-.16,4.31,4.31,0,0,0-2.34.58A1.84,1.84,0,0,0,153,94.8a1.71,1.71,0,0,0,.29,1,2.18,2.18,0,0,0,.8.64,6.7,6.7,0,0,0,1.21.45c.47.1,1,.23,1.54.38a16.26,16.26,0,0,1,1.89.58,7.77,7.77,0,0,1,1.79.86,4.09,4.09,0,0,1,1.34,1.34,3.56,3.56,0,0,1,.55,2,4.07,4.07,0,0,1-.77,2.46,4.94,4.94,0,0,1-2.15,1.6,7.77,7.77,0,0,1-3.13.58,7.2,7.2,0,0,1-4.1-1.09,5.42,5.42,0,0,1-2.14-3.26Zm15.19,5.06a1.71,1.71,0,0,1-1.25-.52,1.74,1.74,0,0,1-.48-1.24,1.76,1.76,0,0,1,.48-1.25,1.71,1.71,0,0,1,1.25-.51,1.69,1.69,0,0,1,1.22.51,1.71,1.71,0,0,1,.51,1.25,1.76,1.76,0,0,1-1.73,1.76Zm25.27.06a11.74,11.74,0,0,1-4.42-.83,11.19,11.19,0,0,1-3.55-2.34,11.43,11.43,0,0,1-2.37-3.61,12.68,12.68,0,0,1-.83-4.64,12.37,12.37,0,0,1,.83-4.61,10.75,10.75,0,0,1,5.92-6,11.74,11.74,0,0,1,4.42-.83,11.38,11.38,0,0,1,4.35.83,10.58,10.58,0,0,1,5.89,6,12,12,0,0,1,.86,4.61,12.28,12.28,0,0,1-.86,4.64,11,11,0,0,1-2.34,3.61,10.76,10.76,0,0,1-3.55,2.34A11.38,11.38,0,0,1,192.91,106.74Zm0-2.24a8.38,8.38,0,0,0,4.32-1.12,8.07,8.07,0,0,0,3-3.17,11.26,11.26,0,0,0,0-9.79,7.82,7.82,0,0,0-3-3.17,8.48,8.48,0,0,0-4.32-1.12,8.74,8.74,0,0,0-4.39,1.12,7.82,7.82,0,0,0-3,3.17,11.26,11.26,0,0,0,0,9.79,8.07,8.07,0,0,0,3,3.17A8.64,8.64,0,0,0,192.91,104.5Zm29.9-22.78h2v27.2h-2Zm-2.24,18a3.13,3.13,0,0,0,.64,1.5,3,3,0,0,0,1.22.8,5.43,5.43,0,0,0,1.6.23,3.71,3.71,0,0,0,2.3-.61,2,2,0,0,0,.83-1.63,1.66,1.66,0,0,0-.51-1.28,3.65,3.65,0,0,0-1.37-.8c-.58-.24-1.25-.47-2-.71s-1.72-.5-2.59-.8a12.44,12.44,0,0,1-2.43-1.18,5.61,5.61,0,0,1-1.8-1.89,5.53,5.53,0,0,1-.64-2.88,5.88,5.88,0,0,1,1.09-3.58,6.62,6.62,0,0,1,3-2.21,12.07,12.07,0,0,1,8.12-.13,6.91,6.91,0,0,1,2.79,1.89,6.84,6.84,0,0,1,1.57,3l-5.12.9a2.17,2.17,0,0,0-.58-1.16,2.65,2.65,0,0,0-1.09-.64,3.44,3.44,0,0,0-1.21-.22,3.73,3.73,0,0,0-1.41.26,2.68,2.68,0,0,0-1.06.73,1.78,1.78,0,0,0-.38,1.12,1.54,1.54,0,0,0,.45,1.15,4.33,4.33,0,0,0,1.28.8c.53.24,1.12.46,1.76.68.87.27,1.77.57,2.68.89a11.92,11.92,0,0,1,2.56,1.25,5.6,5.6,0,0,1,1.89,1.92,5.33,5.33,0,0,1,.74,2.91,6.3,6.3,0,0,1-.93,3.39,6.4,6.4,0,0,1-2.78,2.4,10.81,10.81,0,0,1-4.71.9,13,13,0,0,1-4.32-.67,7.69,7.69,0,0,1-3.1-2,6.69,6.69,0,0,1-1.6-3.3ZM238,88.79h-3.2V84.12h8.77v22.4H238Zm24-4.67v4.67h-9.44v4.06A4.53,4.53,0,0,1,254,91.76a5.87,5.87,0,0,1,2.27-.38,7.34,7.34,0,0,1,3.2.64,6.38,6.38,0,0,1,2.21,1.7,6.84,6.84,0,0,1,1.31,2.4,8.62,8.62,0,0,1,.41,2.65,8.51,8.51,0,0,1-1,4.29,6.74,6.74,0,0,1-2.82,2.75,9.44,9.44,0,0,1-4.35.93,10.47,10.47,0,0,1-4.54-.9,6.8,6.8,0,0,1-4-6.08h5.47a3.12,3.12,0,0,0,.83,1.54,2.82,2.82,0,0,0,2,.67,3,3,0,0,0,1.54-.35,2.27,2.27,0,0,0,.89-1.12,4.88,4.88,0,0,0,.29-1.76,2.9,2.9,0,0,0-.74-2.18,2.76,2.76,0,0,0-2-.7,2.49,2.49,0,0,0-1.7.58,2.33,2.33,0,0,0-.86,1.24H247V84.12Zm4.21,11.2a21.17,21.17,0,0,1,.48-4.68A10.21,10.21,0,0,1,268.19,87,7,7,0,0,1,271,84.72a9.94,9.94,0,0,1,4.25-.83,9.75,9.75,0,0,1,4.23.83A6.91,6.91,0,0,1,282.24,87a9.73,9.73,0,0,1,1.57,3.61,23.15,23.15,0,0,1,0,9.38,9.78,9.78,0,0,1-1.57,3.62,6.81,6.81,0,0,1-2.78,2.3,10.07,10.07,0,0,1-4.23.8,10.27,10.27,0,0,1-4.25-.8,6.9,6.9,0,0,1-2.79-2.3,10.26,10.26,0,0,1-1.53-3.62A21.29,21.29,0,0,1,266.18,95.32Zm12.45,0c0-.88,0-1.71-.1-2.5a7.35,7.35,0,0,0-.45-2.14,3.18,3.18,0,0,0-1-1.48,2.9,2.9,0,0,0-1.86-.54,2.87,2.87,0,0,0-1.85.54,3.49,3.49,0,0,0-1,1.48,8.56,8.56,0,0,0-.41,2.14c-.07.79-.1,1.62-.1,2.5s0,1.78.1,2.59a8.59,8.59,0,0,0,.41,2.11,3.42,3.42,0,0,0,1,1.44,3,3,0,0,0,1.85.51,3,3,0,0,0,1.86-.51,3.11,3.11,0,0,0,1-1.44,7.36,7.36,0,0,0,.45-2.11C278.59,97.1,278.63,96.23,278.63,95.32Zm32.59,11.2h-4.77l-.38-1.86a6,6,0,0,1-1.83,1.5,4.71,4.71,0,0,1-2.33.58,5.78,5.78,0,0,1-3.07-.8,5.62,5.62,0,0,1-2-2.37,9,9,0,0,1-.7-3.74V90.52h5.24v8.7a3.38,3.38,0,0,0,.58,2.11,2.1,2.1,0,0,0,1.73.71,2,2,0,0,0,1.69-.74,3.34,3.34,0,0,0,.61-2.14V90.52h5.25Zm7.37-5.32a2.21,2.21,0,0,0,.39.8,1.53,1.53,0,0,0,.67.45,2.61,2.61,0,0,0,1,.16,2.31,2.31,0,0,0,1.28-.29.83.83,0,0,0,.48-.73.72.72,0,0,0-.39-.67,2.92,2.92,0,0,0-.92-.42c-.39-.11-.79-.2-1.22-.29s-1.13-.24-1.79-.41a9.17,9.17,0,0,1-1.92-.74,4.63,4.63,0,0,1-1.51-1.38,3.91,3.91,0,0,1-.57-2.2,4.57,4.57,0,0,1,.77-2.63A5,5,0,0,1,317.06,91a8.62,8.62,0,0,1,3.68-.71A7.23,7.23,0,0,1,325,91.38a5.63,5.63,0,0,1,2.18,3l-4.55,1a.9.9,0,0,0-.38-.57,1.49,1.49,0,0,0-.64-.32,2.91,2.91,0,0,0-.77-.1,1.73,1.73,0,0,0-1.09.29.75.75,0,0,0-.35.61.65.65,0,0,0,.19.48,1.52,1.52,0,0,0,.51.25c.24.07.51.13.8.19a9.82,9.82,0,0,1,1,.2q1,.23,1.95.54a7.29,7.29,0,0,1,1.89.83,4.31,4.31,0,0,1,1.44,1.44,4.7,4.7,0,0,1,.57,2.34,4.52,4.52,0,0,1-.8,2.62,5.52,5.52,0,0,1-2.37,1.86,9.54,9.54,0,0,1-3.84.67,8.9,8.9,0,0,1-4.67-1.12,5,5,0,0,1-2.27-3.39ZM341.48,93h-.77V83.48H346v23h-4.74l-.29-2a4.82,4.82,0,0,1-1.79,1.57,5.32,5.32,0,0,1-2.62.67,6.53,6.53,0,0,1-3.56-1,7.08,7.08,0,0,1-2.46-2.85,10,10,0,0,1-.9-4.38,9.85,9.85,0,0,1,.9-4.39,6.9,6.9,0,0,1,2.43-2.85,6.59,6.59,0,0,1,3.59-1,5.46,5.46,0,0,1,3,.8A5.91,5.91,0,0,1,341.48,93Zm-6.21,5.51A3.8,3.8,0,0,0,336,101a2.5,2.5,0,0,0,2,.89,2.41,2.41,0,0,0,1.34-.38,2.52,2.52,0,0,0,1-1.12,4.47,4.47,0,0,0,0-3.65,2.52,2.52,0,0,0-1-1.12,2.28,2.28,0,0,0-1.34-.41,2.43,2.43,0,0,0-2,.92A3.81,3.81,0,0,0,335.27,98.52Zm25.83,4.76.25,0v9.67H359V90.52h2.21l.16,3a6.37,6.37,0,0,1,2.18-2.27,6.52,6.52,0,0,1,3.61-.93,7,7,0,0,1,6.37,3.87,9.26,9.26,0,0,1,1,4.36,9.61,9.61,0,0,1-.93,4.35,6.87,6.87,0,0,1-2.56,2.85,7.1,7.1,0,0,1-3.84,1,6.83,6.83,0,0,1-3.81-1A6,6,0,0,1,361.1,103.28Zm10.75-4.76a6.28,6.28,0,0,0-1.44-4.36,4.8,4.8,0,0,0-3.81-1.63,5.33,5.33,0,0,0-2.72.71,4.85,4.85,0,0,0-1.86,2,7.31,7.31,0,0,0-.67,3.24,7.22,7.22,0,0,0,.67,3.2,5.09,5.09,0,0,0,1.86,2.08,5.33,5.33,0,0,0,2.72.7,4.81,4.81,0,0,0,3.81-1.6A6.39,6.39,0,0,0,371.85,98.52Zm13.42,8.22a8.25,8.25,0,0,1-4.06-1,7.09,7.09,0,0,1-2.82-2.82,10,10,0,0,1,0-8.8,7.3,7.3,0,0,1,2.85-2.85,8.42,8.42,0,0,1,4.09-1,8.29,8.29,0,0,1,4.07,1,7.17,7.17,0,0,1,2.85,2.85,8.6,8.6,0,0,1,1.05,4.35,8.84,8.84,0,0,1-1.05,4.42,7.31,7.31,0,0,1-2.88,2.85A8.49,8.49,0,0,1,385.27,106.74Zm0-2.27a5.89,5.89,0,0,0,2.65-.61,4.92,4.92,0,0,0,2-2,6.59,6.59,0,0,0,.8-3.39,6.71,6.71,0,0,0-.77-3.4,4.75,4.75,0,0,0-2-1.92,5.7,5.7,0,0,0-5.25,0,4.8,4.8,0,0,0-2,2,6.8,6.8,0,0,0-.73,3.36,6.92,6.92,0,0,0,.73,3.39,4.87,4.87,0,0,0,1.92,2A5.75,5.75,0,0,0,385.24,104.47Zm12-14h2.21l.13,2.33a6.52,6.52,0,0,1,1.54-1.47,5.64,5.64,0,0,1,2-.83,5.89,5.89,0,0,1,2.37,0v2.4a5.84,5.84,0,0,0-2.43,0,4.09,4.09,0,0,0-1.83,1,4.63,4.63,0,0,0-1.18,1.79,6.6,6.6,0,0,0-.42,2.46v8.39h-2.4Zm22.65,12.76.25,0v9.67h-2.4V90.52h2.21l.16,3a6.37,6.37,0,0,1,2.18-2.27,6.52,6.52,0,0,1,3.61-.93,7,7,0,0,1,6.37,3.87,9.26,9.26,0,0,1,1,4.36,9.61,9.61,0,0,1-.93,4.35,6.8,6.8,0,0,1-2.56,2.85,7.06,7.06,0,0,1-3.84,1,6.77,6.77,0,0,1-3.8-1A6,6,0,0,1,419.88,103.28Zm10.75-4.76a6.28,6.28,0,0,0-1.44-4.36,4.8,4.8,0,0,0-3.81-1.63,5.33,5.33,0,0,0-2.72.71,4.77,4.77,0,0,0-1.85,2,7.18,7.18,0,0,0-.68,3.24,7.09,7.09,0,0,0,.68,3.2,5,5,0,0,0,1.85,2.08,5.33,5.33,0,0,0,2.72.7,4.81,4.81,0,0,0,3.81-1.6A6.39,6.39,0,0,0,430.63,98.52Zm13.23,8.22a7.41,7.41,0,0,1-4-1.09,7.65,7.65,0,0,1-2.72-3,9.17,9.17,0,0,1-1-4.32,8.56,8.56,0,0,1,1-4.16,7.25,7.25,0,0,1,2.72-2.85,7.33,7.33,0,0,1,3.94-1.06,7.71,7.71,0,0,1,3.87,1,6.88,6.88,0,0,1,2.69,2.66,7.29,7.29,0,0,1,.89,3.87c0,.23,0,.48,0,.74s0,.53-.06.83H438.77a5.57,5.57,0,0,0,.74,2.65,5.15,5.15,0,0,0,1.76,1.83,5.06,5.06,0,0,0,2.53.64,6.41,6.41,0,0,0,3.13-.71,4.09,4.09,0,0,0,1.89-2l2.08.83a7.05,7.05,0,0,1-2.78,3.1A8.31,8.31,0,0,1,443.86,106.74Zm4.77-9.47a4.46,4.46,0,0,0-2.34-4.1,5.41,5.41,0,0,0-2.59-.61,4.69,4.69,0,0,0-2.34.61,5.19,5.19,0,0,0-1.76,1.7,5.47,5.47,0,0,0-.8,2.4Zm6.57-6.75h2.21l.13,2.33a6.48,6.48,0,0,1,1.53-1.47,5.68,5.68,0,0,1,2-.83,5.89,5.89,0,0,1,2.37,0v2.4a5.84,5.84,0,0,0-2.43,0,4,4,0,0,0-1.83,1A4.63,4.63,0,0,0,458,95.67a6.6,6.6,0,0,0-.42,2.46v8.39h-2.4Zm12.85,11.1a3.6,3.6,0,0,0,.7,1.6,3.3,3.3,0,0,0,1.31.93,5.44,5.44,0,0,0,1.92.32,4.31,4.31,0,0,0,2.56-.64,2,2,0,0,0,.9-1.67,1.74,1.74,0,0,0-.55-1.34,3.74,3.74,0,0,0-1.37-.83,13.13,13.13,0,0,0-1.92-.61c-.56-.13-1.15-.28-1.79-.45a9.21,9.21,0,0,1-1.83-.77,4.33,4.33,0,0,1-1.41-1.24,3.47,3.47,0,0,1-.54-2,3.93,3.93,0,0,1,.74-2.4,4.94,4.94,0,0,1,2.08-1.63,7.61,7.61,0,0,1,3.07-.58,7,7,0,0,1,3.52.87,4.57,4.57,0,0,1,2.17,2.68l-2.24.77a2.25,2.25,0,0,0-.83-1.28,3.22,3.22,0,0,0-1.31-.61,6.77,6.77,0,0,0-1.41-.16,4.25,4.25,0,0,0-2.33.58,1.82,1.82,0,0,0-.87,1.66,1.79,1.79,0,0,0,.29,1,2.26,2.26,0,0,0,.8.64,6.82,6.82,0,0,0,1.22.45c.46.1,1,.23,1.53.38a16.26,16.26,0,0,1,1.89.58,7.58,7.58,0,0,1,1.79.86,4.12,4.12,0,0,1,1.35,1.34,3.56,3.56,0,0,1,.54,2,4.07,4.07,0,0,1-.77,2.46,5,5,0,0,1-2.14,1.6,7.82,7.82,0,0,1-3.14.58,7.16,7.16,0,0,1-4.09-1.09,5.43,5.43,0,0,1-2.15-3.26Zm20.78,5.12a8.25,8.25,0,0,1-4.06-1,7.15,7.15,0,0,1-2.82-2.82,10,10,0,0,1,0-8.8,7.43,7.43,0,0,1,2.85-2.85,8.46,8.46,0,0,1,4.1-1,8.25,8.25,0,0,1,4.06,1,7,7,0,0,1,2.85,2.85,8.6,8.6,0,0,1,1.05,4.35,8.84,8.84,0,0,1-1.05,4.42,7.31,7.31,0,0,1-2.88,2.85A8.46,8.46,0,0,1,488.83,106.74Zm0-2.27a6,6,0,0,0,2.66-.61,5,5,0,0,0,2-2,6.5,6.5,0,0,0,.8-3.39,6.61,6.61,0,0,0-.77-3.4,4.75,4.75,0,0,0-2-1.92,5.7,5.7,0,0,0-5.25,0,4.73,4.73,0,0,0-2,2,6.8,6.8,0,0,0-.74,3.36,6.92,6.92,0,0,0,.74,3.39,4.87,4.87,0,0,0,1.92,2A5.71,5.71,0,0,0,488.8,104.47Zm12-14H503l.13,2.27a5.23,5.23,0,0,1,2-1.83,6.13,6.13,0,0,1,2.91-.67,6.28,6.28,0,0,1,3.2.8,5.15,5.15,0,0,1,2.14,2.34,8.49,8.49,0,0,1,.77,3.87v9.22h-2.4V97.59a5.68,5.68,0,0,0-1.09-3.78,3.71,3.71,0,0,0-3.07-1.31,4.07,4.07,0,0,0-3.26,1.38,6.16,6.16,0,0,0-1.15,4.06v8.58h-2.4Zm28,16-.19-2.88a5.29,5.29,0,0,1-2,2.3,6.36,6.36,0,0,1-3.33.8,7.21,7.21,0,0,1-2.94-.54,4,4,0,0,1-2.53-3.94,4.16,4.16,0,0,1,1.5-3.3,7.73,7.73,0,0,1,4.35-1.6l4.93-.54V95.54a2.6,2.6,0,0,0-1-2.14,4,4,0,0,0-2.69-.84,4.8,4.8,0,0,0-2.78.77,3.93,3.93,0,0,0-1.51,2.21l-2.17-.77a6,6,0,0,1,2.33-3.29,7.26,7.26,0,0,1,4.2-1.19,6.2,6.2,0,0,1,4.41,1.47,5,5,0,0,1,1.6,3.94v10.82Zm-.19-7.65-5,.57a4.53,4.53,0,0,0-2.43.9,2.37,2.37,0,0,0,0,3.58,3.66,3.66,0,0,0,2.37.68,5.34,5.34,0,0,0,2.88-.71,4.15,4.15,0,0,0,1.63-1.89,6.37,6.37,0,0,0,.54-2.62Zm22.77,7.87a7.44,7.44,0,0,1-4-1.09,7.65,7.65,0,0,1-2.72-3,9.17,9.17,0,0,1-1-4.32,8.56,8.56,0,0,1,1-4.16,7.25,7.25,0,0,1,2.72-2.85,7.36,7.36,0,0,1,3.94-1.06,7.71,7.71,0,0,1,3.87,1,6.88,6.88,0,0,1,2.69,2.66,7.2,7.2,0,0,1,.89,3.87c0,.23,0,.48,0,.74s0,.53-.06.83H546.33a5.69,5.69,0,0,0,.74,2.65,5.15,5.15,0,0,0,1.76,1.83,5.09,5.09,0,0,0,2.53.64,6.38,6.38,0,0,0,3.13-.71,4.09,4.09,0,0,0,1.89-2l2.08.83a7.05,7.05,0,0,1-2.78,3.1A8.31,8.31,0,0,1,551.42,106.74Zm4.77-9.47a4.36,4.36,0,0,0-.61-2.43,4.28,4.28,0,0,0-1.73-1.67,5.39,5.39,0,0,0-2.59-.61,4.63,4.63,0,0,0-2.33.61,5.1,5.1,0,0,0-1.76,1.7,5.23,5.23,0,0,0-.8,2.4Zm6.57-6.75H565l.13,2.27a5.16,5.16,0,0,1,2-1.83,6.13,6.13,0,0,1,2.91-.67,6.31,6.31,0,0,1,3.2.8,5.15,5.15,0,0,1,2.14,2.34,8.63,8.63,0,0,1,.77,3.87v9.22h-2.4V97.59a5.68,5.68,0,0,0-1.09-3.78,3.72,3.72,0,0,0-3.07-1.31,4.06,4.06,0,0,0-3.26,1.38,6.16,6.16,0,0,0-1.16,4.06v8.58h-2.4Zm-529.14,38H36v16H33.62Zm1.22-3.2a1.64,1.64,0,0,1-1.22-.48,1.74,1.74,0,0,1,0-2.4,1.64,1.64,0,0,1,1.22-.48,1.68,1.68,0,0,1,0,3.36Zm6.55,3.2H43.6l.13,2.27a5.2,5.2,0,0,1,2-1.83,6.13,6.13,0,0,1,2.91-.67,6.25,6.25,0,0,1,3.2.8A5.17,5.17,0,0,1,54,131.43a8.63,8.63,0,0,1,.77,3.87v9.22h-2.4v-8.93a5.72,5.72,0,0,0-1.09-3.78,3.73,3.73,0,0,0-3.07-1.31,4.08,4.08,0,0,0-3.27,1.38,6.16,6.16,0,0,0-1.15,4.06v8.58h-2.4Zm19.34,11.1a3.73,3.73,0,0,0,.71,1.6,3.4,3.4,0,0,0,1.31.93,5.36,5.36,0,0,0,1.92.32,4.33,4.33,0,0,0,2.56-.64,2,2,0,0,0,.89-1.67,1.76,1.76,0,0,0-.54-1.34A3.71,3.71,0,0,0,66.2,138a12.4,12.4,0,0,0-1.92-.61l-1.79-.45a8.88,8.88,0,0,1-1.82-.77,4.13,4.13,0,0,1-1.41-1.24,3.47,3.47,0,0,1-.54-2,4,4,0,0,1,.73-2.4,5,5,0,0,1,2.08-1.63,7.64,7.64,0,0,1,3.07-.58,7,7,0,0,1,3.52.87,4.55,4.55,0,0,1,2.18,2.68l-2.24.77a2.31,2.31,0,0,0-.83-1.28,3.29,3.29,0,0,0-1.31-.61,6.77,6.77,0,0,0-1.41-.16,4.31,4.31,0,0,0-2.34.58,1.84,1.84,0,0,0-.86,1.66,1.71,1.71,0,0,0,.29,1,2.26,2.26,0,0,0,.8.64,6.7,6.7,0,0,0,1.21.45c.47.1,1,.23,1.54.38a16.26,16.26,0,0,1,1.89.58,7.77,7.77,0,0,1,1.79.86,4.09,4.09,0,0,1,1.34,1.34,3.48,3.48,0,0,1,.55,2,4.07,4.07,0,0,1-.77,2.46,4.94,4.94,0,0,1-2.15,1.6,7.77,7.77,0,0,1-3.13.58,7.22,7.22,0,0,1-4.1-1.09,5.46,5.46,0,0,1-2.14-3.26Zm20.69,5.12a8,8,0,0,1-4.09-1,7.25,7.25,0,0,1-2.75-2.85,10.13,10.13,0,0,1,0-8.61,7,7,0,0,1,2.75-2.91,7.74,7.74,0,0,1,4.09-1.06,8.06,8.06,0,0,1,4.32,1.15,6.45,6.45,0,0,1,2.69,3.14l-2.21.77a3.8,3.8,0,0,0-1.76-2,5.87,5.87,0,0,0-5.76,0,5,5,0,0,0-1.85,2.08,7.26,7.26,0,0,0-.64,3.17,6.3,6.3,0,0,0,1.44,4.32,4.94,4.94,0,0,0,3.84,1.6,5.72,5.72,0,0,0,2.91-.74,4.62,4.62,0,0,0,1.89-2l2.17.77a6.61,6.61,0,0,1-2.72,3.1A8.13,8.13,0,0,1,81.42,144.74Zm11-16.22H94.6l.13,2.33a6.11,6.11,0,0,1,1.53-1.47,5.68,5.68,0,0,1,2-.83,5.88,5.88,0,0,1,2.37,0v2.4a5.57,5.57,0,0,0-2.44,0,4.05,4.05,0,0,0-1.82,1,4.45,4.45,0,0,0-1.18,1.79,6.6,6.6,0,0,0-.42,2.46v8.39h-2.4Zm12,0h2.37v16H104.4Zm1.22-3.2a1.66,1.66,0,0,1-1.22-.48,1.74,1.74,0,0,1,0-2.4,1.66,1.66,0,0,1,1.22-.48,1.68,1.68,0,0,1,0,3.36Zm8.69,16,.26,0v9.67h-2.4v-22.4h2.21l.16,3a6.34,6.34,0,0,1,2.17-2.27,6.56,6.56,0,0,1,3.62-.93,7.07,7.07,0,0,1,6.37,3.87,9.26,9.26,0,0,1,1,4.36,9.61,9.61,0,0,1-.93,4.35,6.87,6.87,0,0,1-2.56,2.85,7.1,7.1,0,0,1-3.84,1,6.81,6.81,0,0,1-3.81-1A6.13,6.13,0,0,1,114.31,141.28Zm10.76-4.76a6.28,6.28,0,0,0-1.44-4.36,4.8,4.8,0,0,0-3.81-1.63,5.33,5.33,0,0,0-2.72.71,4.79,4.79,0,0,0-1.86,2,7.18,7.18,0,0,0-.67,3.24,7.09,7.09,0,0,0,.67,3.2,5.15,5.15,0,0,0,1.86,2.08,5.43,5.43,0,0,0,2.72.7,4.81,4.81,0,0,0,3.81-1.6A6.39,6.39,0,0,0,125.07,136.52Zm13.32,8.22a8,8,0,0,1-4.09-1,7.25,7.25,0,0,1-2.75-2.85,10.13,10.13,0,0,1,0-8.61,7,7,0,0,1,2.75-2.91,7.74,7.74,0,0,1,4.09-1.06,8.06,8.06,0,0,1,4.32,1.15,6.45,6.45,0,0,1,2.69,3.14l-2.21.77a3.8,3.8,0,0,0-1.76-2,5.87,5.87,0,0,0-5.76,0,5,5,0,0,0-1.85,2.08,7.26,7.26,0,0,0-.64,3.17,6.3,6.3,0,0,0,1.44,4.32,4.94,4.94,0,0,0,3.84,1.6,5.72,5.72,0,0,0,2.91-.74,4.62,4.62,0,0,0,1.89-2l2.17.77a6.61,6.61,0,0,1-2.72,3.1A8.13,8.13,0,0,1,138.39,144.74Zm11.45-16.22h2.37v16h-2.37Zm1.21-3.2a1.68,1.68,0,1,1,0-3.36,1.68,1.68,0,0,1,0,3.36Zm13.47,19.42a8.25,8.25,0,0,1-4.06-1,7.09,7.09,0,0,1-2.82-2.82,10,10,0,0,1,0-8.8,7.23,7.23,0,0,1,2.85-2.85,8.42,8.42,0,0,1,4.09-1,8.29,8.29,0,0,1,4.07,1,7.11,7.11,0,0,1,2.85,2.85,8.6,8.6,0,0,1,1.05,4.35,8.84,8.84,0,0,1-1.05,4.42,7.31,7.31,0,0,1-2.88,2.85A8.49,8.49,0,0,1,164.52,144.74Zm0-2.27a6,6,0,0,0,2.65-.61,4.92,4.92,0,0,0,2-2,6.59,6.59,0,0,0,.8-3.39,6.71,6.71,0,0,0-.77-3.4,4.75,4.75,0,0,0-2-1.92,5.7,5.7,0,0,0-5.25,0,4.8,4.8,0,0,0-2,2,6.8,6.8,0,0,0-.73,3.36,6.92,6.92,0,0,0,.73,3.39,4.87,4.87,0,0,0,1.92,2A5.88,5.88,0,0,0,164.49,142.47Zm12-13.95h2.21l.13,2.27a5.16,5.16,0,0,1,2-1.83,6.13,6.13,0,0,1,2.91-.67,6.31,6.31,0,0,1,3.2.8,5.2,5.2,0,0,1,2.14,2.34,8.63,8.63,0,0,1,.77,3.87v9.22h-2.4v-8.93a5.66,5.66,0,0,0-1.09-3.78,3.72,3.72,0,0,0-3.07-1.31,4,4,0,0,0-3.26,1.38,6.16,6.16,0,0,0-1.16,4.06v8.58h-2.4Zm24.75,16.22a7.44,7.44,0,0,1-4-1.09,7.73,7.73,0,0,1-2.72-3,9.17,9.17,0,0,1-1-4.32,8.56,8.56,0,0,1,1-4.16,7.44,7.44,0,0,1,6.66-3.91,7.71,7.71,0,0,1,3.87,1,6.88,6.88,0,0,1,2.69,2.66,7.29,7.29,0,0,1,.9,3.87,6.46,6.46,0,0,1,0,.74c0,.25,0,.53-.06.83H196.15a5.57,5.57,0,0,0,.73,2.65,5.24,5.24,0,0,0,1.76,1.83,5.09,5.09,0,0,0,2.53.64,6.45,6.45,0,0,0,3.14-.71,4.12,4.12,0,0,0,1.88-2l2.08.83a7,7,0,0,1-2.78,3.1A8.29,8.29,0,0,1,201.23,144.74Zm4.77-9.47a4.48,4.48,0,0,0-2.33-4.1,5.43,5.43,0,0,0-2.6-.61,4.63,4.63,0,0,0-2.33.61,5.1,5.1,0,0,0-1.76,1.7,5.23,5.23,0,0,0-.8,2.4Zm7.89,4.35a3.72,3.72,0,0,0,.7,1.6,3.36,3.36,0,0,0,1.32.93,5.36,5.36,0,0,0,1.92.32,4.33,4.33,0,0,0,2.56-.64,2,2,0,0,0,.89-1.67,1.76,1.76,0,0,0-.54-1.34,3.71,3.71,0,0,0-1.38-.83,12.4,12.4,0,0,0-1.92-.61l-1.79-.45a8.88,8.88,0,0,1-1.82-.77,4.13,4.13,0,0,1-1.41-1.24,3.4,3.4,0,0,1-.55-2,4,4,0,0,1,.74-2.4,4.94,4.94,0,0,1,2.08-1.63,7.64,7.64,0,0,1,3.07-.58,7,7,0,0,1,3.52.87,4.59,4.59,0,0,1,2.18,2.68l-2.24.77a2.31,2.31,0,0,0-.83-1.28,3.33,3.33,0,0,0-1.32-.61,6.76,6.76,0,0,0-1.4-.16,4.31,4.31,0,0,0-2.34.58,1.82,1.82,0,0,0-.86,1.66,1.78,1.78,0,0,0,.28,1,2.36,2.36,0,0,0,.8.64,6.82,6.82,0,0,0,1.22.45c.47.1,1,.23,1.54.38a16.73,16.73,0,0,1,1.88.58,7.84,7.84,0,0,1,1.8.86,4.09,4.09,0,0,1,1.34,1.34,3.56,3.56,0,0,1,.54,2,4.06,4.06,0,0,1-.76,2.46,5,5,0,0,1-2.15,1.6,7.77,7.77,0,0,1-3.13.58,7.2,7.2,0,0,1-4.1-1.09,5.42,5.42,0,0,1-2.14-3.26Zm23.32-11.1h2.37v16h-2.37Zm1.22-3.2a1.66,1.66,0,0,1-1.22-.48,1.74,1.74,0,0,1,0-2.4,1.66,1.66,0,0,1,1.22-.48,1.56,1.56,0,0,1,1.15.48,1.67,1.67,0,0,1,0,2.4A1.56,1.56,0,0,1,238.43,125.32Zm6.55,3.2h2.21l.13,2.27a5.16,5.16,0,0,1,2-1.83,6.13,6.13,0,0,1,2.91-.67,6.31,6.31,0,0,1,3.2.8,5.2,5.2,0,0,1,2.14,2.34,8.63,8.63,0,0,1,.77,3.87v9.22H256v-8.93a5.66,5.66,0,0,0-1.09-3.78,3.72,3.72,0,0,0-3.07-1.31,4,4,0,0,0-3.26,1.38,6.16,6.16,0,0,0-1.16,4.06v8.58H245Zm30.39,3.23-.26,0v-10.3h2.4v23H275.3l-.16-3a6.14,6.14,0,0,1-2.21,2.27,6.46,6.46,0,0,1-3.58.93,7.43,7.43,0,0,1-3.87-1,7.1,7.1,0,0,1-2.56-2.88,9.88,9.88,0,0,1-.9-4.35,9.63,9.63,0,0,1,.9-4.32,7,7,0,0,1,2.56-2.88,7.18,7.18,0,0,1,3.87-1,6.75,6.75,0,0,1,3.78,1A6.36,6.36,0,0,1,275.37,131.75Zm-10.76,4.77A6.48,6.48,0,0,0,266,140.9a4.85,4.85,0,0,0,3.84,1.6,5.24,5.24,0,0,0,2.69-.7,4.88,4.88,0,0,0,1.86-2.05,6.91,6.91,0,0,0,.7-3.23,6.67,6.67,0,0,0-.7-3.2,4.82,4.82,0,0,0-1.86-2,5,5,0,0,0-2.69-.74,4.89,4.89,0,0,0-3.84,1.63A6.37,6.37,0,0,0,264.61,136.52Zm18.29-8h2.37v16H282.9Zm1.22-3.2a1.66,1.66,0,0,1-1.22-.48,1.74,1.74,0,0,1,0-2.4,1.66,1.66,0,0,1,1.22-.48,1.68,1.68,0,0,1,0,3.36Zm7.48,3.2,5,13.31,5.09-13.31h2.53l-6.4,16h-2.5l-6.33-16Zm16.43,0h2.36v16H308Zm1.21-3.2a1.68,1.68,0,1,1,0-3.36,1.71,1.71,0,0,1,1.67,1.69,1.55,1.55,0,0,1-.52,1.19A1.56,1.56,0,0,1,309.24,125.32Zm18.91,6.43-.26,0v-10.3h2.4v23h-2.21l-.16-3a6.19,6.19,0,0,1-2.2,2.27,6.5,6.5,0,0,1-3.59.93,7.43,7.43,0,0,1-3.87-1,7.1,7.1,0,0,1-2.56-2.88,9.88,9.88,0,0,1-.9-4.35,9.63,9.63,0,0,1,.9-4.32,7,7,0,0,1,2.56-2.88,7.18,7.18,0,0,1,3.87-1,6.73,6.73,0,0,1,3.78,1A6.36,6.36,0,0,1,328.15,131.75Zm-10.75,4.77a6.52,6.52,0,0,0,1.4,4.38,4.85,4.85,0,0,0,3.84,1.6,5.24,5.24,0,0,0,2.69-.7,4.88,4.88,0,0,0,1.86-2.05,6.91,6.91,0,0,0,.7-3.23,6.67,6.67,0,0,0-.7-3.2,4.82,4.82,0,0,0-1.86-2,5,5,0,0,0-2.69-.74,4.89,4.89,0,0,0-3.84,1.63A6.41,6.41,0,0,0,317.4,136.52Zm30.89,8h-2.18l-.16-2.31a5.14,5.14,0,0,1-2,1.89,6.24,6.24,0,0,1-2.91.64,6.51,6.51,0,0,1-3.23-.77,5.22,5.22,0,0,1-2.15-2.3,9,9,0,0,1-.73-3.87v-9.28h2.36v9a5.77,5.77,0,0,0,1.06,3.74,3.88,3.88,0,0,0,3.1,1.25,4.16,4.16,0,0,0,3.24-1.31,5.85,5.85,0,0,0,1.21-4v-8.67h2.37Zm14.9,0-.2-2.88a5.17,5.17,0,0,1-2,2.3,6.31,6.31,0,0,1-3.33.8,7.21,7.21,0,0,1-2.94-.54,4.46,4.46,0,0,1-1.89-1.54,4.39,4.39,0,0,1-.64-2.4,4.16,4.16,0,0,1,1.5-3.3,7.79,7.79,0,0,1,4.36-1.6l4.92-.54v-1.28a2.6,2.6,0,0,0-1-2.14,4,4,0,0,0-2.69-.84,4.84,4.84,0,0,0-2.78.77,3.92,3.92,0,0,0-1.5,2.21l-2.18-.77a6,6,0,0,1,2.34-3.29,7.23,7.23,0,0,1,4.19-1.19,6.18,6.18,0,0,1,4.41,1.47,5,5,0,0,1,1.6,3.94v10.82Zm-.2-7.65-5,.57a4.59,4.59,0,0,0-2.43.9,2.37,2.37,0,0,0,0,3.58,3.68,3.68,0,0,0,2.37.68,5.34,5.34,0,0,0,2.88-.71,4.09,4.09,0,0,0,1.63-1.89,6.37,6.37,0,0,0,.54-2.62Zm7.09-15.39h2.4v23h-2.4Zm14,23.26a7.39,7.39,0,0,1-4-1.09,7.65,7.65,0,0,1-2.72-3,9.17,9.17,0,0,1-1-4.32,8.56,8.56,0,0,1,1-4.16,7.25,7.25,0,0,1,2.72-2.85,7.32,7.32,0,0,1,3.93-1.06,7.75,7.75,0,0,1,3.88,1,6.85,6.85,0,0,1,2.68,2.66,7.29,7.29,0,0,1,.9,3.87c0,.23,0,.48,0,.74s0,.53-.07.83H379a5.57,5.57,0,0,0,.74,2.65,4.68,4.68,0,0,0,4.28,2.47,6.42,6.42,0,0,0,3.14-.71,4.18,4.18,0,0,0,1.89-2l2.08.83a7,7,0,0,1-2.79,3.1A8.25,8.25,0,0,1,384.08,144.74Zm4.77-9.47a4.44,4.44,0,0,0-.61-2.43,4.35,4.35,0,0,0-1.73-1.67,5.41,5.41,0,0,0-2.59-.61,4.67,4.67,0,0,0-2.34.61,5.19,5.19,0,0,0-1.76,1.7,5.34,5.34,0,0,0-.8,2.4Zm7.88,4.35a3.73,3.73,0,0,0,.71,1.6,3.4,3.4,0,0,0,1.31.93,5.36,5.36,0,0,0,1.92.32,4.33,4.33,0,0,0,2.56-.64,2,2,0,0,0,.89-1.67,1.76,1.76,0,0,0-.54-1.34,3.71,3.71,0,0,0-1.38-.83,12.4,12.4,0,0,0-1.92-.61l-1.79-.45a8.88,8.88,0,0,1-1.82-.77,4.13,4.13,0,0,1-1.41-1.24,3.47,3.47,0,0,1-.54-2,4,4,0,0,1,.73-2.4,5,5,0,0,1,2.08-1.63,7.64,7.64,0,0,1,3.07-.58,7,7,0,0,1,3.52.87,4.55,4.55,0,0,1,2.18,2.68l-2.24.77a2.31,2.31,0,0,0-.83-1.28,3.29,3.29,0,0,0-1.31-.61,6.77,6.77,0,0,0-1.41-.16,4.31,4.31,0,0,0-2.34.58,1.84,1.84,0,0,0-.86,1.66,1.71,1.71,0,0,0,.29,1,2.26,2.26,0,0,0,.8.64,6.7,6.7,0,0,0,1.21.45c.47.1,1,.23,1.54.38a16.26,16.26,0,0,1,1.89.58,7.77,7.77,0,0,1,1.79.86,4.09,4.09,0,0,1,1.34,1.34,3.48,3.48,0,0,1,.55,2,4.07,4.07,0,0,1-.77,2.46,4.94,4.94,0,0,1-2.15,1.6,7.77,7.77,0,0,1-3.13.58,7.22,7.22,0,0,1-4.1-1.09,5.46,5.46,0,0,1-2.14-3.26Zm15.19,5.06a1.71,1.71,0,0,1-1.25-.52,1.85,1.85,0,0,1,0-2.49,1.71,1.71,0,0,1,1.25-.51,1.76,1.76,0,0,1,0,3.52Z" transform="translate(-0.66 -8.33)"/><path class="cls-2" d="M565,9.83h35.41a5.49,5.49,0,0,1,5.48,5.48V50.72" transform="translate(-0.66 -8.33)"/><path class="cls-2" d="M43.05,186.56H7.64a5.48,5.48,0,0,1-5.48-5.48V145.67" transform="translate(-0.66 -8.33)"/></svg>