<?xml version="1.0" encoding="utf-8"?>
<!-- Generator: Adobe Illustrator 23.0.0, SVG Export Plug-In . SVG Version: 6.00 Build 0)  -->
<svg version="1.1" id="Capa_1" xmlns="http://www.w3.org/2000/svg" xmlns:xlink="http://www.w3.org/1999/xlink" x="0px" y="0px"
	 viewBox="0 0 606.7 319.8" style="enable-background:new 0 0 606.7 319.8;" xml:space="preserve">
<style type="text/css">
	.st0{fill:#FFFFFF;}
</style>
<title>Costo</title>
<path class="st0" d="M8.5,80.7c0-1.4,0.4-2.7,1.1-3.9c0.7-1,1.7-1.8,2.8-2.3c1.3-0.6,2.7-0.8,4.2-0.8c1.4,0,2.9,0.2,4.2,0.8
	c1,0.5,1.9,1.3,2.5,2.3c0.6,1,0.9,2.1,0.9,3.2c0,0.8-0.2,1.7-0.5,2.4c-0.3,0.6-0.8,1.1-1.4,1.5c-0.5,0.3-1,0.6-1.6,0.8v0.1
	c0.7,0.2,1.4,0.6,2,1c0.6,0.4,1.1,1,1.4,1.6c0.4,0.8,0.5,1.6,0.5,2.5c0,1.2-0.3,2.4-0.9,3.5c-0.6,1-1.5,1.8-2.6,2.3
	c-1.3,0.6-2.7,0.9-4.2,0.8c-1.5,0-3-0.2-4.4-0.7c-1.2-0.4-2.3-1.3-3-2.3c-0.8-1.3-1.2-2.8-1.1-4.4h5.5c-0.1,0.8,0.1,1.6,0.7,2.1
	c0.6,0.4,1.4,0.6,2.2,0.6c0.5,0,0.9-0.1,1.3-0.3c0.3-0.2,0.6-0.5,0.8-0.8c0.2-0.4,0.3-0.8,0.3-1.3c0.1-0.8-0.3-1.5-0.9-1.9
	c-0.9-0.4-2-0.6-3-0.5h-1V83h1c0.6,0,1.1,0,1.7-0.1c0.5-0.1,0.9-0.3,1.3-0.6c0.4-0.4,0.5-0.9,0.5-1.4c0-0.6-0.2-1.3-0.6-1.7
	c-0.4-0.4-1-0.6-1.6-0.6c-0.5,0-1,0.1-1.4,0.3c-0.3,0.2-0.6,0.5-0.7,0.8C14.1,80,14,80.3,14,80.7L8.5,80.7z M42.6,73.9v4.7h-9.4v4.1
	c0.4-0.5,0.9-0.8,1.5-1.1c0.7-0.3,1.5-0.4,2.3-0.4c1.1,0,2.2,0.2,3.2,0.6c0.9,0.4,1.6,1,2.2,1.7c0.6,0.7,1,1.5,1.3,2.4
	c0.3,0.9,0.4,1.8,0.4,2.7c0,1.5-0.3,3-1,4.3c-0.6,1.2-1.6,2.1-2.8,2.8c-1.4,0.7-2.8,1-4.3,0.9c-1.6,0-3.1-0.3-4.5-0.9
	c-1.2-0.6-2.2-1.4-2.9-2.5c-0.7-1.1-1-2.3-1.1-3.6h5.5c0.1,0.6,0.4,1.1,0.8,1.5c0.6,0.5,1.3,0.7,2,0.7c0.5,0,1.1-0.1,1.5-0.3
	c0.4-0.3,0.7-0.7,0.9-1.1c0.2-0.6,0.3-1.2,0.3-1.8c0.1-0.8-0.2-1.6-0.7-2.2c-0.5-0.5-1.3-0.7-2-0.7c-0.6,0-1.2,0.2-1.7,0.6
	c-0.4,0.3-0.7,0.7-0.9,1.2h-5.5V73.9L42.6,73.9z M46.8,85.1c0-1.6,0.1-3.1,0.5-4.7c0.3-1.3,0.8-2.5,1.5-3.6c0.7-1,1.7-1.8,2.8-2.3
	c1.3-0.6,2.8-0.9,4.3-0.8c1.5,0,2.9,0.2,4.2,0.8c1.1,0.5,2.1,1.3,2.8,2.3c0.8,1.1,1.3,2.3,1.5,3.6c0.6,3.1,0.6,6.3,0,9.4
	c-0.3,1.3-0.8,2.5-1.6,3.6c-0.7,1-1.7,1.8-2.8,2.3c-1.3,0.6-2.8,0.8-4.2,0.8c-1.5,0-2.9-0.2-4.3-0.8c-1.1-0.5-2.1-1.3-2.8-2.3
	c-0.7-1.1-1.2-2.3-1.5-3.6C46.9,88.3,46.8,86.7,46.8,85.1z M59.2,85.1c0-0.9,0-1.7-0.1-2.5c-0.1-0.7-0.2-1.5-0.4-2.1
	c-0.2-0.6-0.5-1.1-1-1.5c-0.5-0.4-1.2-0.6-1.9-0.5c-0.7,0-1.3,0.2-1.8,0.5c-0.5,0.4-0.8,0.9-1,1.5c-0.2,0.7-0.4,1.4-0.4,2.1
	c-0.1,0.8-0.1,1.6-0.1,2.5c0,0.9,0,1.8,0.1,2.6c0,0.7,0.2,1.4,0.4,2.1c0.2,0.6,0.5,1.1,1,1.4c0.5,0.4,1.2,0.5,1.8,0.5
	c0.7,0,1.3-0.1,1.9-0.5c0.5-0.4,0.8-0.9,1-1.4c0.2-0.7,0.4-1.4,0.4-2.1C59.2,86.9,59.2,86,59.2,85.1z M67.7,85.1
	c0-1.6,0.1-3.1,0.5-4.7c0.3-1.3,0.8-2.5,1.5-3.6c0.7-1,1.7-1.8,2.8-2.3c1.3-0.6,2.8-0.9,4.3-0.8c1.5,0,2.9,0.2,4.2,0.8
	c1.1,0.5,2.1,1.3,2.8,2.3c0.8,1.1,1.3,2.3,1.6,3.6c0.6,3.1,0.6,6.3,0,9.4c-0.3,1.3-0.8,2.5-1.6,3.6c-0.7,1-1.7,1.8-2.8,2.3
	c-1.3,0.6-2.8,0.8-4.2,0.8c-1.5,0-2.9-0.2-4.3-0.8c-1.1-0.5-2.1-1.3-2.8-2.3c-0.8-1.1-1.3-2.3-1.6-3.6
	C67.9,88.3,67.7,86.7,67.7,85.1z M80.2,85.1c0-0.9,0-1.7-0.1-2.5c-0.1-0.7-0.2-1.5-0.4-2.1c-0.2-0.6-0.5-1.1-1-1.5
	c-1.1-0.7-2.6-0.7-3.7,0c-0.5,0.4-0.8,0.9-1,1.5c-0.2,0.7-0.4,1.4-0.4,2.1c-0.1,0.8-0.1,1.6-0.1,2.5c0,0.9,0,1.8,0.1,2.6
	c0.1,0.7,0.2,1.4,0.4,2.1c0.2,0.6,0.5,1.1,1,1.4c1.1,0.7,2.6,0.7,3.7,0c0.5-0.4,0.8-0.9,1-1.4c0.2-0.7,0.4-1.4,0.4-2.1
	C80.1,86.9,80.2,86,80.2,85.1z M97.9,73.9h5.6v13.8c0,0.8,0.2,1.5,0.5,2.2c0.3,0.6,0.8,1.1,1.4,1.4c0.7,0.3,1.4,0.5,2.2,0.5
	c0.8,0,1.5-0.1,2.2-0.5c0.6-0.3,1.1-0.8,1.5-1.4c0.4-0.7,0.6-1.4,0.6-2.2V73.9h5.6v13.3c0,1.4-0.2,2.8-0.8,4.1
	c-0.5,1.1-1.3,2.1-2.2,2.9c-0.9,0.8-2,1.4-3.2,1.7c-1.2,0.4-2.5,0.6-3.7,0.6c-1.7,0-3.3-0.3-4.8-1c-1.4-0.7-2.6-1.8-3.5-3.1
	c-0.9-1.6-1.4-3.4-1.3-5.2L97.9,73.9z M125.3,89.5c0.1,0.5,0.3,1.1,0.6,1.5c0.3,0.4,0.7,0.6,1.2,0.8c0.5,0.2,1.1,0.2,1.6,0.2
	c0.8,0.1,1.6-0.2,2.3-0.6c0.5-0.4,0.8-1,0.8-1.6c0-0.5-0.2-0.9-0.5-1.3c-0.4-0.4-0.9-0.6-1.4-0.8c-0.6-0.2-1.3-0.5-2-0.7
	c-0.7-0.2-1.7-0.5-2.6-0.8c-0.8-0.3-1.7-0.7-2.4-1.2c-0.7-0.5-1.4-1.1-1.8-1.9c-0.5-0.9-0.7-1.9-0.6-2.9c0-1.3,0.3-2.5,1.1-3.6
	c0.7-1,1.8-1.8,2.9-2.2c2.6-1,5.5-1,8.1-0.1c1.1,0.4,2,1,2.8,1.9c0.8,0.9,1.3,1.9,1.6,3l-5.1,0.9c-0.1-0.4-0.3-0.8-0.6-1.1
	c-0.3-0.3-0.7-0.5-1.1-0.6c-0.4-0.1-0.8-0.2-1.2-0.2c-0.5,0-1,0.1-1.4,0.3c-0.4,0.2-0.8,0.4-1.1,0.7c-0.3,0.3-0.4,0.7-0.4,1.1
	c0,0.4,0.1,0.8,0.4,1.2c0.4,0.3,0.8,0.6,1.3,0.8c0.5,0.2,1.1,0.5,1.8,0.7c0.9,0.3,1.8,0.6,2.7,0.9c0.9,0.3,1.8,0.7,2.6,1.3
	c0.8,0.5,1.4,1.1,1.9,1.9c0.5,0.9,0.8,1.9,0.7,2.9c0.1,2.5-1.4,4.8-3.7,5.8c-1.5,0.6-3.1,1-4.7,0.9c-1.5,0-2.9-0.2-4.3-0.7
	c-1.2-0.4-2.3-1.1-3.1-2c-0.8-0.9-1.4-2.1-1.6-3.3L125.3,89.5z M149.5,73.9c2.2-0.1,4.3,0.4,6.2,1.4c1.7,0.9,3.1,2.3,4.1,3.9
	c2,3.6,2,8,0,11.7c-1,1.7-2.4,3.1-4.1,4c-1.9,1-4.1,1.5-6.2,1.4h-9.1V73.9L149.5,73.9z M149.2,91.7c1.8,0.1,3.5-0.5,4.8-1.8
	c1.2-1.3,1.8-3,1.7-4.8c0.1-1.8-0.5-3.5-1.7-4.8c-1.3-1.2-3-1.9-4.8-1.8H146v13L149.2,91.7z M88.1,227.4h5.6v13.8
	c0,0.8,0.2,1.5,0.5,2.2c0.3,0.6,0.8,1.1,1.4,1.4c0.7,0.3,1.4,0.5,2.2,0.4c0.8,0,1.5-0.1,2.2-0.4c0.6-0.3,1.1-0.8,1.5-1.4
	c0.4-0.7,0.6-1.4,0.6-2.2v-13.8h5.6v13.3c0,1.4-0.2,2.8-0.8,4.1c-0.5,1.1-1.3,2.1-2.2,2.9c-0.9,0.8-2,1.4-3.2,1.7
	c-1.2,0.4-2.5,0.6-3.7,0.6c-1.7,0-3.3-0.3-4.8-1c-1.4-0.7-2.6-1.8-3.5-3.1c-0.9-1.6-1.4-3.4-1.3-5.2L88.1,227.4z M115.5,243
	c0.1,0.5,0.3,1.1,0.6,1.5c0.3,0.4,0.7,0.6,1.2,0.8c0.5,0.2,1.1,0.2,1.6,0.2c0.8,0.1,1.6-0.2,2.3-0.6c0.5-0.4,0.8-1,0.8-1.6
	c0-0.5-0.2-0.9-0.5-1.3c-0.4-0.4-0.9-0.6-1.4-0.8c-0.6-0.2-1.3-0.5-2-0.7c-0.8-0.2-1.7-0.5-2.6-0.8c-0.8-0.3-1.7-0.7-2.4-1.2
	c-0.7-0.5-1.4-1.1-1.8-1.9c-0.5-0.9-0.7-1.9-0.6-2.9c0-1.3,0.3-2.5,1.1-3.6c0.7-1,1.8-1.8,2.9-2.2c2.6-1,5.5-1,8.1-0.1
	c1.1,0.4,2,1,2.8,1.9c0.8,0.9,1.3,1.9,1.6,3l-5.1,0.9c-0.1-0.4-0.3-0.8-0.6-1.1c-0.3-0.3-0.7-0.5-1.1-0.6c-0.4-0.1-0.8-0.2-1.2-0.2
	c-0.5,0-1,0.1-1.4,0.3c-0.4,0.2-0.8,0.4-1.1,0.7c-0.3,0.3-0.4,0.7-0.4,1.1c0,0.4,0.1,0.8,0.4,1.1c0.4,0.3,0.8,0.6,1.3,0.8
	c0.5,0.2,1.1,0.5,1.8,0.7c0.9,0.3,1.8,0.6,2.7,0.9c0.9,0.3,1.8,0.7,2.6,1.3c0.8,0.5,1.4,1.1,1.9,1.9c0.5,0.9,0.8,1.9,0.7,2.9
	c0.1,2.5-1.4,4.8-3.7,5.8c-1.5,0.6-3.1,1-4.7,0.9c-1.5,0-2.9-0.2-4.3-0.7c-1.2-0.4-2.3-1.1-3.1-2c-0.8-0.9-1.4-2.1-1.6-3.3
	L115.5,243z M139.8,227.4c2.2-0.1,4.3,0.4,6.2,1.4c1.7,0.9,3.1,2.3,4.1,3.9c2,3.6,2,8,0,11.7c-1,1.7-2.4,3.1-4.1,4
	c-1.9,1-4.1,1.5-6.2,1.4h-9.1v-22.4H139.8z M139.4,245.2c1.8,0.1,3.5-0.5,4.8-1.8c1.2-1.3,1.8-3,1.7-4.8c0.1-1.8-0.5-3.5-1.7-4.8
	c-1.3-1.2-3-1.9-4.8-1.8h-3.2v13H139.4z M175.4,93.1h0.3v9.7h-2.4V80.3h2.1l0.2,3c0.5-0.9,1.3-1.7,2.2-2.3c1.1-0.7,2.3-1,3.6-0.9
	c2.7,0,5.2,1.5,6.4,3.9c0.7,1.3,1,2.8,1,4.4c0,1.5-0.3,3-0.9,4.4c-0.6,1.2-1.5,2.2-2.6,2.8c-1.2,0.7-2.5,1-3.8,1
	c-1.3,0.1-2.7-0.3-3.8-1C176.6,95,175.9,94.1,175.4,93.1z M186.1,88.3c0.1-1.6-0.4-3.1-1.4-4.4c-1-1.1-2.4-1.7-3.8-1.6
	c-1,0-1.9,0.2-2.7,0.7c-0.8,0.5-1.4,1.2-1.9,2c-0.5,1-0.7,2.1-0.7,3.2c0,1.1,0.2,2.2,0.7,3.2c0.4,0.9,1.1,1.6,1.9,2.1
	c0.8,0.5,1.8,0.7,2.7,0.7c1.4,0.1,2.8-0.5,3.8-1.6C185.7,91.5,186.2,89.9,186.1,88.3L186.1,88.3z M202.7,96.3l-0.2-2.9
	c-0.4,0.9-1.1,1.8-2,2.3c-1,0.6-2.2,0.8-3.3,0.8c-1,0-2-0.2-2.9-0.5c-1.6-0.6-2.6-2.2-2.5-3.9c0-1.3,0.5-2.5,1.5-3.3
	c1.3-1,2.8-1.5,4.4-1.6l4.9-0.5v-1.3c0-0.8-0.3-1.6-1-2.1c-0.8-0.6-1.7-0.9-2.7-0.8c-1,0-2,0.2-2.8,0.8c-0.7,0.5-1.3,1.3-1.5,2.2
	l-2.2-0.8c0.4-1.3,1.2-2.5,2.3-3.3c1.2-0.8,2.7-1.2,4.2-1.2c1.6-0.1,3.2,0.4,4.4,1.5c1.1,1,1.7,2.5,1.6,3.9v10.8H202.7z M202.5,88.7
	l-5,0.6c-0.9,0.1-1.7,0.4-2.4,0.9c-0.5,0.4-0.9,1.1-0.8,1.8c0,0.7,0.3,1.4,0.8,1.8c0.7,0.5,1.5,0.7,2.4,0.7c1,0,2-0.2,2.9-0.7
	c0.7-0.4,1.3-1.1,1.6-1.9c0.4-0.8,0.6-1.7,0.6-2.6L202.5,88.7z M209.6,80.3h2.2l0.1,2.3c0.4-0.6,0.9-1.1,1.5-1.5
	c0.6-0.4,1.3-0.7,2-0.8c0.8-0.2,1.6-0.2,2.4,0v2.4c-0.8-0.2-1.6-0.2-2.4,0c-0.7,0.2-1.3,0.5-1.8,1c-0.5,0.5-0.9,1.1-1.1,1.7
	c-0.3,0.8-0.4,1.6-0.4,2.5v8.4h-2.4L209.6,80.3z M231.1,96.3l-0.2-2.9c-0.4,1-1.1,1.8-2,2.3c-1,0.6-2.2,0.8-3.3,0.8
	c-1,0-2-0.2-2.9-0.5c-0.8-0.3-1.4-0.9-1.9-1.5c-0.4-0.7-0.7-1.6-0.6-2.4c0-1.3,0.5-2.5,1.5-3.3c1.3-1,2.8-1.5,4.4-1.6l4.9-0.5v-1.3
	c0-0.8-0.3-1.6-1-2.1c-0.8-0.6-1.7-0.9-2.7-0.8c-1,0-2,0.2-2.8,0.8c-0.7,0.5-1.3,1.3-1.5,2.2l-2.2-0.8c0.4-1.3,1.2-2.5,2.3-3.3
	c1.2-0.8,2.7-1.2,4.2-1.2c1.6-0.1,3.2,0.4,4.4,1.5c1.1,1,1.7,2.5,1.6,3.9v10.8H231.1z M230.9,88.7l-5,0.6c-0.9,0.1-1.7,0.4-2.4,0.9
	c-1,0.9-1.1,2.4-0.2,3.3c0.1,0.1,0.2,0.2,0.2,0.2c0.7,0.5,1.5,0.7,2.4,0.7c1,0,2-0.2,2.9-0.7c0.7-0.4,1.3-1.1,1.7-1.9
	c0.4-0.8,0.5-1.7,0.5-2.6L230.9,88.7z M260.1,96.3h-2.2l-0.2-2.3c-0.5,0.8-1.2,1.5-2,1.9c-0.9,0.4-1.9,0.7-2.9,0.6
	c-1.1,0-2.2-0.2-3.2-0.8c-0.9-0.5-1.7-1.3-2.1-2.3c-0.5-1.2-0.8-2.5-0.7-3.9v-9.3h2.4v9c-0.1,1.3,0.2,2.6,1,3.7
	c0.8,0.9,1.9,1.3,3.1,1.3c1.2,0.1,2.4-0.4,3.2-1.3c0.9-1.1,1.3-2.6,1.2-4v-8.7h2.4L260.1,96.3z M264.9,80.3h2.2l0.1,2.3
	c0.5-0.8,1.2-1.4,2-1.8c0.9-0.5,1.9-0.7,2.9-0.7c1.1,0,2.2,0.3,3.2,0.8c0.9,0.5,1.7,1.4,2.1,2.3c0.6,1.2,0.8,2.5,0.8,3.9v9.2h-2.4
	v-8.9c0.1-1.3-0.3-2.7-1.1-3.8c-0.8-0.9-1.9-1.4-3.1-1.3c-1.2-0.1-2.4,0.4-3.3,1.4c-0.9,1.2-1.3,2.6-1.2,4.1v8.6h-2.4L264.9,80.3z
	 M304.2,80.3h2.2v13c0,1.8-0.4,3.5-1.3,5c-0.9,1.4-2.2,2.5-3.8,3.2c-1.9,0.8-4,1.2-6.1,1.1l-0.4-2.2c3,0,5.3-0.7,6.8-1.9
	c1.6-1.3,2.5-3.2,2.3-5.3V93l0.3,0.1c-1.1,2.2-3.5,3.6-6,3.5c-1.4,0-2.7-0.3-3.9-1c-1.1-0.7-2-1.7-2.6-2.9c-0.6-1.4-0.9-2.9-0.9-4.3
	c0-1.5,0.3-3,0.9-4.3c0.6-1.1,1.5-2.1,2.6-2.8c1.2-0.7,2.5-1,3.9-1c0.9,0,1.7,0.1,2.6,0.4c0.7,0.3,1.4,0.6,1.9,1.2
	c0.5,0.5,1,1,1.3,1.6L304.2,80.3z M293.5,88.3c-0.1,1.6,0.4,3.1,1.4,4.4c1,1.1,2.4,1.7,3.9,1.6c0.9,0,1.9-0.2,2.7-0.7
	c0.8-0.5,1.4-1.2,1.9-2c0.5-1,0.7-2.1,0.7-3.2c0-1.1-0.2-2.2-0.7-3.2c-0.4-0.8-1.1-1.5-1.9-2c-2.1-1.3-4.8-0.9-6.5,0.9
	C294,85.3,293.5,86.8,293.5,88.3L293.5,88.3z M311.3,80.3h2.2l0.1,2.3c0.4-0.6,0.9-1.1,1.5-1.5c0.6-0.4,1.3-0.7,2-0.8
	c0.8-0.2,1.6-0.2,2.4,0v2.4c-0.8-0.2-1.6-0.2-2.4,0c-0.7,0.2-1.3,0.5-1.8,1c-0.5,0.5-0.9,1.1-1.2,1.8c-0.3,0.8-0.4,1.6-0.4,2.5v8.4
	h-2.4L311.3,80.3z M336,96.3h-2.2l-0.2-2.3c-0.5,0.8-1.2,1.5-2,1.9c-0.9,0.4-1.9,0.7-2.9,0.6c-1.1,0-2.2-0.2-3.2-0.8
	c-0.9-0.5-1.7-1.3-2.1-2.3c-0.5-1.2-0.8-2.5-0.7-3.9v-9.3h2.4v9c-0.1,1.3,0.3,2.7,1.1,3.7c0.8,0.9,1.9,1.3,3.1,1.3
	c1.2,0.1,2.4-0.4,3.3-1.3c0.9-1.1,1.3-2.6,1.2-4v-8.7h2.4L336,96.3z M343,93.1h0.3v9.7h-2.4V80.3h2.2l0.2,3c0.5-0.9,1.3-1.7,2.2-2.3
	c1.1-0.7,2.3-1,3.6-0.9c2.7,0,5.2,1.5,6.4,3.9c0.7,1.3,1,2.8,1,4.4c0,1.5-0.3,3-0.9,4.4c-0.6,1.2-1.5,2.2-2.6,2.8
	c-1.2,0.7-2.5,1-3.8,1c-1.3,0-2.7-0.3-3.8-1C344.3,95,343.5,94.1,343,93.1L343,93.1z M353.7,88.3c0.1-1.6-0.4-3.1-1.4-4.4
	c-1-1.1-2.4-1.7-3.8-1.6c-1,0-1.9,0.2-2.7,0.7c-0.8,0.5-1.4,1.2-1.9,2c-0.5,1-0.7,2.1-0.7,3.2c0,1.1,0.2,2.2,0.7,3.2
	c0.4,0.9,1.1,1.6,1.9,2.1c0.8,0.5,1.8,0.7,2.7,0.7c1.4,0.1,2.8-0.5,3.8-1.6C353.3,91.5,353.8,89.9,353.7,88.3L353.7,88.3z
	 M367.1,96.6c-1.4,0-2.8-0.3-4.1-1c-1.2-0.7-2.2-1.6-2.8-2.8c-1.4-2.8-1.4-6,0-8.8c0.7-1.2,1.7-2.2,2.9-2.8c1.3-0.7,2.7-1,4.1-1
	c1.4,0,2.8,0.3,4.1,1c1.2,0.7,2.2,1.6,2.9,2.8c0.7,1.3,1.1,2.8,1,4.3c0.1,1.5-0.3,3.1-1,4.4c-0.7,1.2-1.7,2.2-2.9,2.8
	C370,96.2,368.6,96.6,367.1,96.6L367.1,96.6z M367.1,94.3c0.9,0,1.8-0.2,2.6-0.6c0.8-0.5,1.5-1.2,2-2c0.6-1,0.8-2.2,0.8-3.4
	c0-1.2-0.2-2.4-0.8-3.4c-0.5-0.8-1.2-1.5-2-1.9c-0.8-0.4-1.7-0.6-2.6-0.6c-0.9,0-1.8,0.2-2.6,0.6c-0.9,0.5-1.5,1.1-2,2
	c-0.5,1-0.8,2.2-0.7,3.4c0,1.2,0.2,2.3,0.7,3.4c0.4,0.8,1.1,1.5,1.9,2C365.3,94.1,366.2,94.3,367.1,94.3L367.1,94.3z M21.3,117.7
	h-0.3v-10.3h2.4v23h-2.1l-0.2-3c-0.5,0.9-1.3,1.7-2.2,2.3c-1.1,0.7-2.3,1-3.6,0.9c-1.4,0-2.7-0.3-3.9-1c-1.1-0.7-2-1.7-2.6-2.9
	c-0.6-1.4-0.9-2.9-0.9-4.3c0-1.5,0.3-3,0.9-4.3c0.6-1.2,1.5-2.2,2.6-2.9c1.2-0.7,2.5-1,3.9-1c1.3,0,2.6,0.3,3.8,1
	C20.1,115.9,20.8,116.7,21.3,117.7z M10.6,122.5c-0.1,1.6,0.4,3.1,1.4,4.4c1,1.1,2.4,1.7,3.8,1.6c0.9,0,1.9-0.2,2.7-0.7
	c0.8-0.5,1.4-1.2,1.9-2c0.5-1,0.7-2.1,0.7-3.2c0-1.1-0.2-2.2-0.7-3.2c-0.4-0.8-1.1-1.5-1.9-2c-0.8-0.5-1.7-0.8-2.7-0.7
	c-1.5-0.1-2.9,0.5-3.8,1.6C11,119.4,10.5,121,10.6,122.5L10.6,122.5z M35.1,130.7c-1.4,0-2.8-0.4-4-1.1c-1.2-0.7-2.1-1.8-2.7-3
	c-0.7-1.3-1-2.8-1-4.3c0-1.4,0.3-2.9,1-4.2c0.6-1.2,1.6-2.2,2.7-2.8c1.2-0.7,2.5-1.1,3.9-1.1c1.4,0,2.7,0.3,3.9,1
	c1.1,0.6,2.1,1.5,2.7,2.7c0.7,1.2,1,2.5,0.9,3.9c0,0.2,0,0.5,0,0.7s0,0.5-0.1,0.8H30c0,0.9,0.3,1.8,0.7,2.7c0.8,1.6,2.5,2.5,4.3,2.5
	c1.1,0,2.2-0.2,3.1-0.7c0.8-0.4,1.5-1.1,1.9-2l2.1,0.8c-0.6,1.3-1.6,2.4-2.8,3.1C38.1,130.4,36.6,130.8,35.1,130.7L35.1,130.7z
	 M39.9,121.2c0-0.9-0.2-1.7-0.6-2.4c-0.4-0.7-1-1.3-1.7-1.7c-0.8-0.4-1.7-0.6-2.6-0.6c-0.8,0-1.6,0.2-2.3,0.6
	c-0.7,0.4-1.3,1-1.8,1.7c-0.5,0.7-0.7,1.5-0.8,2.4H39.9z M69.5,108.1v2.2H58.1v7.5c0.6-0.7,1.3-1.3,2.2-1.7c1-0.4,2.1-0.7,3.2-0.6
	c1.2,0,2.4,0.2,3.5,0.7c0.9,0.4,1.7,1,2.3,1.8c0.6,0.7,1,1.5,1.3,2.4c0.3,0.8,0.4,1.7,0.4,2.5c0,1.4-0.3,2.7-0.9,3.9
	c-0.6,1.2-1.5,2.2-2.7,2.9c-1.3,0.8-2.8,1.1-4.3,1.1c-1.4,0-2.7-0.2-3.9-0.8c-1.1-0.5-2-1.3-2.7-2.2c-0.7-1-1.1-2.1-1.3-3.3h2.5
	c0.2,1.2,0.9,2.3,1.9,3c1,0.7,2.3,1.1,3.5,1c1,0,2.1-0.2,3-0.7c0.8-0.5,1.4-1.2,1.7-2c0.4-0.9,0.6-1.9,0.6-2.9
	c0.3-2.6-1.6-4.9-4.1-5.2c-0.3,0-0.7,0-1,0c-1.1,0-2.2,0.3-3.2,0.8c-0.9,0.5-1.6,1.3-2,2.2h-2.4v-12.6H69.5z M75.1,119.3
	c0-1.5,0.1-3,0.4-4.5c0.2-1.3,0.6-2.5,1.2-3.7c0.6-1,1.4-1.8,2.4-2.4c1.2-0.6,2.6-0.9,3.9-0.9c1.4-0.1,2.7,0.2,3.9,0.9
	c1,0.5,1.8,1.4,2.4,2.4c0.6,1.1,1,2.4,1.2,3.7c0.2,1.5,0.4,3,0.4,4.5c0,1.5-0.1,3.1-0.4,4.6c-0.2,1.3-0.6,2.5-1.2,3.6
	c-0.6,1-1.4,1.8-2.4,2.4c-1.2,0.6-2.6,0.9-3.9,0.8c-1.4,0-2.7-0.2-3.9-0.8c-1-0.5-1.8-1.4-2.4-2.4c-0.6-1.1-1-2.4-1.2-3.6
	C75.2,122.4,75.1,120.8,75.1,119.3L75.1,119.3z M88.3,119.3c0-1.2-0.1-2.4-0.2-3.5c-0.1-1-0.3-2-0.7-2.9c-0.3-0.8-0.8-1.5-1.6-2
	c-0.9-0.5-1.8-0.8-2.9-0.7c-1,0-2,0.2-2.8,0.7c-0.7,0.5-1.3,1.2-1.6,2c-0.4,0.9-0.6,1.9-0.7,2.9c-0.1,1.2-0.2,2.3-0.2,3.5
	c0,1.3,0,2.5,0.2,3.6c0.1,1,0.3,2,0.7,2.9c0.3,0.8,0.9,1.5,1.6,2c0.9,0.5,1.8,0.7,2.8,0.7c1,0,2-0.2,2.9-0.7c0.7-0.5,1.3-1.2,1.6-2
	c0.4-0.9,0.6-1.9,0.7-2.9C88.2,121.7,88.3,120.5,88.3,119.3L88.3,119.3z M103.7,125.1h0.3v9.7h-2.4v-22.5h2.2l0.2,3
	c0.5-0.9,1.3-1.7,2.2-2.3c1.1-0.7,2.3-1,3.6-0.9c2.7,0,5.2,1.5,6.4,3.9c0.7,1.3,1,2.8,1,4.4c0,1.5-0.3,3-0.9,4.3
	c-0.6,1.2-1.5,2.2-2.6,2.8c-1.2,0.7-2.5,1-3.8,1c-1.3,0.1-2.7-0.3-3.8-1C104.9,127,104.2,126.1,103.7,125.1L103.7,125.1z
	 M114.4,120.3c0.1-1.6-0.4-3.1-1.4-4.4c-1-1.1-2.4-1.7-3.8-1.6c-1,0-1.9,0.2-2.7,0.7c-0.8,0.5-1.4,1.2-1.9,2c-0.5,1-0.7,2.1-0.7,3.2
	c0,1.1,0.2,2.2,0.7,3.2c0.4,0.9,1.1,1.6,1.9,2.1c0.8,0.5,1.8,0.7,2.7,0.7c1.4,0.1,2.8-0.5,3.8-1.6
	C114,123.5,114.5,121.9,114.4,120.3z M127.6,128.6c-1.4,0-2.8-0.4-4-1.1c-1.2-0.7-2.1-1.8-2.7-3c-0.7-1.3-1-2.8-1-4.3
	c0-1.4,0.3-2.9,1-4.2c0.6-1.2,1.6-2.2,2.7-2.8c1.2-0.7,2.5-1.1,3.9-1.1c1.4,0,2.7,0.3,3.9,1c1.1,0.6,2.1,1.5,2.7,2.7
	c0.7,1.2,1,2.5,0.9,3.9c0,0.2,0,0.5,0,0.7s0,0.5-0.1,0.8h-12.4c0,0.9,0.3,1.8,0.7,2.7c0.4,0.7,1,1.4,1.8,1.8
	c0.8,0.4,1.6,0.7,2.5,0.6c1.1,0,2.2-0.2,3.1-0.7c0.8-0.4,1.5-1.1,1.9-2l2.1,0.8c-0.6,1.3-1.6,2.4-2.8,3.1
	C130.6,128.2,129.2,128.6,127.6,128.6L127.6,128.6z M132.4,119.1c0-0.9-0.2-1.7-0.6-2.4c-0.4-0.7-1-1.3-1.7-1.7
	c-0.8-0.4-1.7-0.6-2.6-0.6c-0.8,0-1.6,0.2-2.3,0.6c-0.7,0.4-1.3,1-1.7,1.7c-0.5,0.7-0.7,1.5-0.8,2.4L132.4,119.1z M139,112.3h2.2
	l0.1,2.3c0.4-0.6,0.9-1.1,1.5-1.5c0.6-0.4,1.3-0.7,2-0.8c0.8-0.2,1.6-0.2,2.4,0v2.4c-0.8-0.2-1.6-0.2-2.4,0c-0.7,0.2-1.3,0.5-1.8,1
	c-0.5,0.5-0.9,1.1-1.2,1.8c-0.3,0.8-0.4,1.6-0.4,2.4v8.4H139L139,112.3z M151.8,123.4c0.1,0.6,0.3,1.1,0.7,1.6
	c0.4,0.4,0.8,0.7,1.3,0.9c0.6,0.2,1.3,0.3,1.9,0.3c0.9,0.1,1.8-0.2,2.6-0.6c0.6-0.4,0.9-1,0.9-1.7c0-0.5-0.2-1-0.5-1.3
	c-0.4-0.4-0.9-0.7-1.4-0.8c-0.6-0.3-1.2-0.5-1.9-0.6l-1.8-0.4c-0.6-0.2-1.2-0.4-1.8-0.8c-0.6-0.3-1-0.7-1.4-1.2
	c-0.4-0.6-0.6-1.3-0.5-2c0-0.9,0.2-1.7,0.7-2.4c0.5-0.7,1.3-1.3,2.1-1.6c1-0.4,2-0.6,3.1-0.6c1.2,0,2.4,0.3,3.5,0.9
	c1,0.6,1.8,1.5,2.1,2.7l-2.2,0.8c-0.1-0.5-0.4-0.9-0.8-1.3c-0.4-0.3-0.8-0.5-1.3-0.6c-0.5-0.1-0.9-0.2-1.4-0.2
	c-0.8,0-1.6,0.2-2.3,0.6c-0.6,0.3-1,1-0.9,1.7c0,0.4,0.1,0.7,0.3,1c0.2,0.3,0.5,0.5,0.8,0.6c0.4,0.2,0.8,0.3,1.2,0.4
	c0.5,0.1,1,0.2,1.5,0.4c0.6,0.2,1.3,0.3,1.9,0.6c0.6,0.2,1.2,0.5,1.8,0.9c0.5,0.3,1,0.8,1.3,1.3c0.4,0.6,0.6,1.3,0.6,2
	c0,0.9-0.3,1.7-0.8,2.5c-0.6,0.7-1.3,1.3-2.2,1.6c-1,0.4-2.1,0.6-3.1,0.6c-1.4,0.1-2.9-0.3-4.1-1.1c-1.1-0.8-1.9-1.9-2.1-3.3
	L151.8,123.4z M172.6,128.6c-1.4,0-2.8-0.3-4.1-1c-1.2-0.7-2.2-1.6-2.8-2.8c-1.4-2.8-1.4-6,0-8.8c0.7-1.2,1.7-2.2,2.9-2.8
	c1.3-0.7,2.7-1,4.1-1c1.4,0,2.8,0.3,4.1,1c1.2,0.7,2.2,1.6,2.8,2.8c0.7,1.3,1.1,2.8,1,4.3c0.1,1.5-0.3,3.1-1,4.4
	c-0.7,1.2-1.7,2.2-2.9,2.8C175.5,128.2,174.1,128.6,172.6,128.6L172.6,128.6z M172.6,126.3c0.9,0,1.8-0.2,2.6-0.6
	c0.8-0.5,1.5-1.2,2-2c0.6-1,0.8-2.2,0.8-3.4c0-1.2-0.2-2.4-0.8-3.4c-0.5-0.8-1.2-1.5-2-1.9c-0.8-0.4-1.7-0.6-2.6-0.6
	c-0.9,0-1.8,0.2-2.6,0.6c-0.9,0.5-1.5,1.1-2,2c-0.5,1-0.8,2.2-0.7,3.4c0,1.2,0.2,2.3,0.7,3.4c0.4,0.8,1.1,1.5,1.9,2
	C170.8,126.1,171.7,126.3,172.6,126.3z M184.6,112.3h2.2l0.1,2.3c0.5-0.8,1.2-1.4,2-1.8c0.9-0.5,1.9-0.7,2.9-0.7
	c1.1,0,2.2,0.3,3.2,0.8c0.9,0.5,1.7,1.4,2.1,2.3c0.6,1.2,0.8,2.5,0.8,3.9v9.2h-2.4v-8.9c0.1-1.3-0.3-2.7-1.1-3.8
	c-0.8-0.9-1.9-1.4-3.1-1.3c-1.2-0.1-2.4,0.4-3.3,1.4c-0.8,1.2-1.3,2.6-1.2,4.1v8.6h-2.4L184.6,112.3z M212.7,128.3l-0.2-2.9
	c-0.4,0.9-1.1,1.7-2,2.3c-1,0.6-2.2,0.8-3.3,0.8c-1,0-2-0.2-2.9-0.5c-1.6-0.6-2.6-2.2-2.5-3.9c0-1.3,0.5-2.5,1.5-3.3
	c1.3-1,2.8-1.5,4.4-1.6l4.9-0.5v-1.2c0-0.8-0.3-1.6-1-2.1c-0.8-0.6-1.7-0.9-2.7-0.8c-1,0-2,0.2-2.8,0.8c-0.7,0.5-1.3,1.3-1.5,2.2
	l-2.2-0.8c0.4-1.3,1.2-2.5,2.3-3.3c1.2-0.8,2.7-1.2,4.2-1.2c1.6-0.1,3.2,0.4,4.4,1.5c1.1,1,1.7,2.5,1.6,3.9v10.8L212.7,128.3z
	 M212.5,120.6l-5,0.6c-0.9,0.1-1.7,0.4-2.4,0.9c-0.5,0.4-0.9,1.1-0.8,1.8c0,0.7,0.3,1.4,0.8,1.8c0.7,0.5,1.5,0.7,2.4,0.7
	c1,0,2-0.2,2.9-0.7c0.7-0.4,1.3-1.1,1.6-1.9c0.4-0.8,0.6-1.7,0.6-2.6L212.5,120.6z M332.7,249.6l-0.2-2.9c-0.4,0.9-1.1,1.7-2,2.3
	c-1,0.6-2.2,0.8-3.3,0.8c-1,0-2-0.2-2.9-0.5c-1.6-0.6-2.6-2.2-2.5-3.9c0-1.3,0.5-2.5,1.5-3.3c1.3-1,2.8-1.5,4.4-1.6l4.9-0.5v-1.2
	c0-0.8-0.3-1.6-1-2.1c-0.8-0.6-1.7-0.9-2.7-0.8c-1,0-2,0.2-2.8,0.8c-0.7,0.5-1.3,1.3-1.5,2.2l-2.2-0.8c0.4-1.3,1.2-2.5,2.3-3.3
	c1.2-0.8,2.7-1.2,4.2-1.2c1.6-0.1,3.2,0.4,4.4,1.5c1.1,1,1.7,2.5,1.6,3.9v10.8L332.7,249.6z M332.5,241.9l-5,0.6
	c-0.9,0.1-1.7,0.4-2.4,0.9c-0.5,0.4-0.9,1.1-0.8,1.8c0,0.7,0.3,1.4,0.8,1.8c0.7,0.5,1.5,0.7,2.4,0.7c1,0,2-0.2,2.9-0.7
	c0.7-0.4,1.3-1.1,1.6-1.9c0.4-0.8,0.6-1.7,0.5-2.6L332.5,241.9z M220.9,123.4c0.1,0.6,0.3,1.1,0.7,1.6c0.4,0.4,0.8,0.7,1.3,0.9
	c0.6,0.2,1.3,0.3,1.9,0.3c0.9,0.1,1.8-0.2,2.6-0.6c0.6-0.4,0.9-1,0.9-1.7c0-0.5-0.2-1-0.5-1.3c-0.4-0.4-0.9-0.7-1.4-0.8
	c-0.6-0.3-1.3-0.5-1.9-0.6l-1.8-0.4c-0.6-0.2-1.2-0.4-1.8-0.8c-0.6-0.3-1-0.7-1.4-1.2c-0.4-0.6-0.6-1.3-0.5-2c0-0.9,0.2-1.7,0.7-2.4
	c0.5-0.7,1.3-1.3,2.1-1.6c1-0.4,2-0.6,3.1-0.6c1.2,0,2.4,0.3,3.5,0.9c1,0.6,1.8,1.5,2.1,2.7l-2.2,0.8c-0.1-0.5-0.4-1-0.8-1.3
	c-0.4-0.3-0.8-0.5-1.3-0.6c-0.5-0.1-0.9-0.2-1.4-0.2c-0.8,0-1.6,0.2-2.3,0.6c-0.6,0.4-0.9,1-0.9,1.7c0,0.4,0.1,0.7,0.3,1
	c0.2,0.3,0.5,0.5,0.8,0.6c0.4,0.2,0.8,0.3,1.2,0.4c0.5,0.1,1,0.2,1.5,0.4c0.6,0.2,1.3,0.3,1.9,0.6c0.6,0.2,1.2,0.5,1.8,0.9
	c0.5,0.3,1,0.8,1.3,1.3c0.4,0.6,0.6,1.3,0.6,2c0,0.9-0.3,1.7-0.8,2.5c-0.6,0.7-1.3,1.3-2.1,1.6c-1,0.4-2.1,0.6-3.1,0.6
	c-1.4,0.1-2.9-0.3-4.1-1.1c-1.1-0.8-1.9-1.9-2.1-3.3L220.9,123.4z M15.7,224.9h2v27.2h-2V224.9z M13.4,242.9
	c0.1,0.5,0.3,1.1,0.6,1.5c0.3,0.4,0.8,0.6,1.2,0.8c0.5,0.2,1.1,0.2,1.6,0.2c0.8,0.1,1.6-0.2,2.3-0.6c0.5-0.4,0.8-1,0.8-1.6
	c0-0.5-0.2-0.9-0.5-1.3c-0.4-0.4-0.9-0.6-1.4-0.8c-0.6-0.2-1.3-0.5-2-0.7c-0.7-0.2-1.7-0.5-2.6-0.8c-0.9-0.3-1.7-0.7-2.4-1.2
	c-0.7-0.5-1.4-1.1-1.8-1.9c-0.5-0.9-0.7-1.9-0.6-2.9c0-1.3,0.3-2.5,1.1-3.6c0.8-1,1.8-1.8,3-2.2c2.6-1,5.5-1,8.1-0.1
	c1.1,0.4,2,1,2.8,1.9c0.8,0.9,1.3,1.9,1.6,3l-5.1,0.9c-0.1-0.4-0.3-0.8-0.6-1.2c-0.3-0.3-0.7-0.5-1.1-0.6c-0.4-0.1-0.8-0.2-1.2-0.2
	c-0.5,0-1,0.1-1.4,0.3c-0.4,0.2-0.8,0.4-1.1,0.7c-0.3,0.3-0.4,0.7-0.4,1.1c0,0.4,0.1,0.8,0.4,1.1c0.4,0.3,0.8,0.6,1.3,0.8
	c0.5,0.2,1.1,0.5,1.8,0.7c0.9,0.3,1.8,0.6,2.7,0.9c0.9,0.3,1.8,0.7,2.6,1.3c0.8,0.5,1.4,1.1,1.9,1.9c0.5,0.9,0.8,1.9,0.7,2.9
	c0,1.2-0.3,2.4-0.9,3.4c-0.7,1.1-1.6,1.9-2.8,2.4c-1.5,0.6-3.1,1-4.7,0.9c-1.5,0-2.9-0.2-4.3-0.7c-1.2-0.4-2.2-1.1-3.1-2
	c-0.8-0.9-1.4-2.1-1.6-3.3L13.4,242.9z M30.8,232h-3.2v-4.7h8.8v22.4h-5.6V232z M54.8,227.3v4.7h-9.4v4.1c0.4-0.5,0.9-0.8,1.4-1.1
	c0.7-0.3,1.5-0.4,2.3-0.4c1.1,0,2.2,0.2,3.2,0.6c0.9,0.4,1.6,1,2.2,1.7c0.6,0.7,1,1.5,1.3,2.4c0.3,0.9,0.4,1.8,0.4,2.6
	c0,1.5-0.3,3-1,4.3c-0.6,1.2-1.6,2.1-2.8,2.8c-1.4,0.7-2.8,1-4.4,0.9c-1.6,0-3.1-0.3-4.5-0.9c-2.4-1.1-4-3.5-4-6.1H45
	c0.1,0.6,0.4,1.1,0.8,1.5c0.6,0.5,1.3,0.7,2,0.7c0.5,0,1.1-0.1,1.5-0.3c0.4-0.3,0.7-0.7,0.9-1.1c0.2-0.6,0.3-1.2,0.3-1.8
	c0.1-0.8-0.2-1.6-0.7-2.2c-0.5-0.5-1.3-0.7-2-0.7c-0.6,0-1.2,0.2-1.7,0.6c-0.4,0.3-0.7,0.7-0.9,1.2h-5.4v-13.6H54.8z M59.1,238.5
	c0-1.6,0.1-3.1,0.5-4.7c0.3-1.3,0.8-2.5,1.5-3.6c0.7-1,1.7-1.8,2.8-2.3c1.3-0.6,2.8-0.9,4.3-0.8c1.5,0,2.9,0.2,4.2,0.8
	c1.1,0.5,2.1,1.3,2.8,2.3c0.8,1.1,1.3,2.3,1.6,3.6c0.6,3.1,0.6,6.3,0,9.4c-0.3,1.3-0.8,2.5-1.6,3.6c-0.7,1-1.7,1.8-2.8,2.3
	c-1.3,0.6-2.8,0.8-4.2,0.8c-1.5,0-2.9-0.2-4.3-0.8c-1.1-0.5-2.1-1.3-2.8-2.3c-0.7-1.1-1.3-2.3-1.5-3.6
	C59.2,241.7,59,240.1,59.1,238.5L59.1,238.5z M71.5,238.5c0-0.9,0-1.7-0.1-2.5c0-0.7-0.2-1.5-0.5-2.1c-0.2-0.6-0.5-1.1-1-1.5
	c-0.5-0.4-1.2-0.6-1.9-0.5c-0.7,0-1.3,0.2-1.9,0.5c-0.5,0.4-0.8,0.9-1,1.5c-0.2,0.7-0.4,1.4-0.4,2.1c-0.1,0.8-0.1,1.6-0.1,2.5
	c0,0.9,0,1.8,0.1,2.6c0,0.7,0.2,1.4,0.4,2.1c0.2,0.6,0.5,1.1,1,1.4c0.5,0.4,1.2,0.5,1.9,0.5c0.7,0,1.3-0.1,1.9-0.5
	c0.5-0.4,0.8-0.9,1-1.4c0.3-0.7,0.4-1.4,0.5-2.1C71.4,240.3,71.5,239.4,71.5,238.5L71.5,238.5z M164.9,246.5h0.3v9.7h-2.4v-22.4h2.2
	l0.2,3c0.5-0.9,1.3-1.7,2.2-2.3c1.1-0.7,2.3-1,3.6-0.9c2.7,0,5.2,1.5,6.4,3.9c0.7,1.3,1,2.8,1,4.4c0,1.5-0.3,3-0.9,4.4
	c-0.6,1.2-1.5,2.2-2.6,2.8c-1.2,0.7-2.5,1-3.8,1c-1.3,0-2.7-0.3-3.8-1C166.3,248.4,165.5,247.5,164.9,246.5L164.9,246.5z
	 M175.7,241.7c0.1-1.6-0.4-3.1-1.4-4.4c-1-1.1-2.4-1.7-3.8-1.6c-1,0-1.9,0.2-2.7,0.7c-0.8,0.5-1.4,1.2-1.9,2c-0.5,1-0.7,2.1-0.7,3.2
	c0,1.1,0.2,2.2,0.7,3.2c0.4,0.9,1.1,1.6,1.9,2.1c0.8,0.5,1.8,0.7,2.7,0.7c1.4,0.1,2.8-0.5,3.8-1.6
	C175.3,244.8,175.8,243.3,175.7,241.7L175.7,241.7z M189.1,249.9c-1.4,0-2.8-0.3-4.1-1c-1.2-0.7-2.2-1.6-2.8-2.8
	c-1.4-2.8-1.4-6,0-8.8c0.7-1.2,1.7-2.2,2.9-2.8c1.3-0.7,2.7-1,4.1-1c1.4,0,2.8,0.3,4.1,1c1.2,0.7,2.2,1.6,2.9,2.8
	c0.7,1.3,1.1,2.8,1,4.4c0,1.5-0.3,3.1-1,4.4c-0.7,1.2-1.7,2.2-2.9,2.8C192,249.6,190.5,250,189.1,249.9L189.1,249.9z M189.1,247.7
	c0.9,0,1.8-0.2,2.6-0.6c0.8-0.5,1.5-1.2,2-2c0.6-1,0.8-2.2,0.8-3.4c0-1.2-0.2-2.4-0.8-3.4c-0.5-0.8-1.2-1.5-2-1.9
	c-1.6-0.9-3.6-0.9-5.3,0c-0.9,0.5-1.5,1.1-2,2c-0.5,1-0.8,2.2-0.7,3.4c0,1.2,0.2,2.3,0.7,3.4c0.4,0.8,1.1,1.5,1.9,2
	C187.3,247.5,188.2,247.7,189.1,247.7L189.1,247.7z M201.1,233.7h2.2l0.1,2.3c0.4-0.6,0.9-1.1,1.5-1.5c0.6-0.4,1.3-0.7,2-0.8
	c0.8-0.2,1.6-0.2,2.4,0v2.4c-0.8-0.2-1.6-0.2-2.4,0c-0.7,0.2-1.3,0.5-1.8,1c-0.5,0.5-0.9,1.1-1.2,1.8c-0.3,0.8-0.4,1.6-0.4,2.5v8.4
	h-2.4L201.1,233.7z M223.8,246.4h0.3v9.7h-2.4v-22.4h2.2l0.2,3c0.5-0.9,1.3-1.7,2.2-2.3c1.1-0.7,2.3-1,3.6-0.9
	c2.7,0,5.2,1.5,6.4,3.9c0.7,1.3,1,2.8,1,4.4c0,1.5-0.3,3-0.9,4.4c-0.6,1.2-1.5,2.2-2.6,2.8c-1.2,0.7-2.5,1-3.8,1
	c-1.3,0-2.7-0.3-3.8-1C225,248.4,224.2,247.5,223.8,246.4L223.8,246.4z M234.5,241.7c0.1-1.6-0.4-3.1-1.4-4.4
	c-1-1.1-2.4-1.7-3.8-1.6c-1,0-1.9,0.2-2.7,0.7c-0.8,0.5-1.4,1.2-1.9,2c-0.5,1-0.7,2.1-0.7,3.2c0,1.1,0.2,2.2,0.7,3.2
	c0.4,0.9,1,1.6,1.9,2.1c0.8,0.5,1.8,0.7,2.7,0.7c1.4,0.1,2.8-0.5,3.8-1.6C234,244.8,234.5,243.3,234.5,241.7L234.5,241.7z
	 M247.7,249.9c-1.4,0-2.8-0.4-4-1.1c-1.2-0.7-2.1-1.8-2.7-3c-0.7-1.3-1-2.8-1-4.3c0-1.4,0.3-2.9,1-4.2c0.6-1.2,1.6-2.2,2.7-2.8
	c1.2-0.7,2.6-1.1,3.9-1.1c1.4,0,2.7,0.3,3.9,1c1.1,0.6,2.1,1.5,2.7,2.7c0.6,1.2,1,2.5,0.9,3.9c0,0.2,0,0.5,0,0.7s0,0.5-0.1,0.8
	h-12.5c0,0.9,0.3,1.8,0.7,2.6c0.4,0.7,1,1.4,1.8,1.8c0.8,0.4,1.6,0.7,2.5,0.6c1.1,0,2.2-0.2,3.1-0.7c0.8-0.4,1.5-1.1,1.9-2l2.1,0.8
	c-0.6,1.3-1.6,2.4-2.8,3.1C250.7,249.6,249.2,250,247.7,249.9L247.7,249.9z M252.5,238.4c0.1-1.7-0.8-3.3-2.3-4.1
	c-0.8-0.4-1.7-0.6-2.6-0.6c-0.8,0-1.6,0.2-2.3,0.6c-0.7,0.4-1.3,1-1.8,1.7c-0.5,0.7-0.7,1.5-0.8,2.4H252.5z M259.1,233.7h2.2
	l0.1,2.3c0.4-0.6,0.9-1.1,1.5-1.5c0.6-0.4,1.3-0.7,2-0.8c0.8-0.2,1.6-0.2,2.4,0v2.4c-0.8-0.2-1.6-0.2-2.4,0c-0.7,0.2-1.3,0.5-1.8,1
	c-0.5,0.5-1,1.1-1.2,1.8c-0.3,0.8-0.4,1.6-0.4,2.5v8.4H259L259.1,233.7z M271.9,244.8c0.1,0.6,0.3,1.1,0.7,1.6
	c0.4,0.4,0.8,0.7,1.3,0.9c0.6,0.2,1.3,0.3,1.9,0.3c0.9,0.1,1.8-0.2,2.6-0.6c0.6-0.4,0.9-1,0.9-1.7c0-0.5-0.2-1-0.5-1.3
	c-0.4-0.4-0.9-0.7-1.4-0.8c-0.6-0.3-1.3-0.5-1.9-0.6c-0.6-0.1-1.1-0.3-1.8-0.4c-0.6-0.2-1.2-0.4-1.8-0.8c-0.6-0.3-1-0.7-1.4-1.2
	c-0.4-0.6-0.6-1.3-0.5-2c0-0.9,0.2-1.7,0.7-2.4c0.5-0.7,1.3-1.3,2.1-1.6c1-0.4,2-0.6,3.1-0.6c1.2,0,2.4,0.3,3.5,0.9
	c1,0.6,1.8,1.5,2.2,2.7l-2.2,0.8c-0.1-0.5-0.4-1-0.8-1.3c-0.4-0.3-0.8-0.5-1.3-0.6c-0.5-0.1-0.9-0.2-1.4-0.2c-0.8,0-1.6,0.2-2.3,0.6
	c-0.6,0.4-0.9,1-0.9,1.7c0,0.4,0.1,0.7,0.3,1c0.2,0.3,0.5,0.5,0.8,0.6c0.4,0.2,0.8,0.3,1.2,0.4c0.5,0.1,1,0.2,1.5,0.4
	c0.6,0.2,1.3,0.3,1.9,0.6c0.6,0.2,1.2,0.5,1.8,0.9c0.5,0.3,1,0.8,1.4,1.3c0.4,0.6,0.6,1.3,0.5,2c0,0.9-0.3,1.7-0.8,2.5
	c-0.6,0.7-1.3,1.3-2.1,1.6c-1,0.4-2.1,0.6-3.1,0.6c-1.4,0.1-2.9-0.3-4.1-1.1c-1.1-0.8-1.9-1.9-2.1-3.3L271.9,244.8z M292.7,249.9
	c-1.4,0-2.8-0.3-4.1-1c-1.2-0.7-2.2-1.6-2.8-2.8c-1.4-2.8-1.4-6,0-8.8c0.7-1.2,1.7-2.2,2.9-2.9c1.3-0.7,2.7-1,4.1-1
	c1.4,0,2.8,0.3,4.1,1c1.2,0.7,2.2,1.6,2.9,2.9c0.7,1.3,1.1,2.8,1,4.3c0,1.5-0.3,3.1-1,4.4c-0.7,1.2-1.7,2.2-2.9,2.9
	C295.5,249.6,294.1,250,292.7,249.9L292.7,249.9z M292.7,247.6c0.9,0,1.8-0.2,2.7-0.6c0.8-0.5,1.5-1.2,2-2c0.6-1,0.8-2.2,0.8-3.4
	c0.1-1.2-0.2-2.4-0.8-3.4c-0.5-0.8-1.2-1.5-2-1.9c-1.6-0.9-3.6-0.9-5.3,0c-0.9,0.4-1.6,1.1-2,2c-0.5,1-0.8,2.2-0.7,3.4
	c0,1.2,0.2,2.3,0.7,3.4c0.4,0.8,1.1,1.5,1.9,2C290.9,247.5,291.8,247.7,292.7,247.6L292.7,247.6z M304.7,233.6h2.1l0.1,2.3
	c0.5-0.8,1.2-1.4,2-1.8c0.9-0.5,1.9-0.7,2.9-0.7c1.1,0,2.2,0.3,3.2,0.8c0.9,0.5,1.7,1.4,2.1,2.3c0.6,1.2,0.8,2.5,0.8,3.9v9.2h-2.4
	v-8.8c0.1-1.3-0.3-2.7-1.1-3.8c-0.8-0.9-1.9-1.4-3.1-1.3c-1.2-0.1-2.4,0.4-3.3,1.4c-0.8,1.2-1.3,2.6-1.1,4.1v8.6h-2.4L304.7,233.6z
	 M355.3,249.8c-1.4,0-2.8-0.4-4-1.1c-1.2-0.7-2.1-1.8-2.7-3c-0.7-1.3-1-2.8-1-4.3c0-1.4,0.3-2.9,1-4.2c0.6-1.2,1.6-2.2,2.7-2.8
	c1.2-0.7,2.6-1.1,3.9-1.1c1.4,0,2.7,0.3,3.9,1c1.1,0.6,2.1,1.5,2.7,2.7c0.7,1.2,1,2.5,0.9,3.9c0,0.2,0,0.5,0,0.7s0,0.5-0.1,0.8
	h-12.5c0,0.9,0.3,1.8,0.7,2.6c0.4,0.7,1,1.4,1.8,1.8c0.8,0.4,1.6,0.7,2.5,0.6c1.1,0,2.2-0.2,3.1-0.7c0.8-0.4,1.5-1.1,1.9-2l2.1,0.8
	c-0.6,1.3-1.6,2.4-2.8,3.1c-1.3,0.8-2.8,1.2-4.3,1.1L355.3,249.8z M360.1,238.4c0-0.9-0.2-1.7-0.6-2.4c-0.4-0.7-1-1.3-1.7-1.7
	c-0.8-0.4-1.7-0.6-2.6-0.6c-0.8,0-1.6,0.2-2.3,0.6c-0.7,0.4-1.3,1-1.8,1.7c-0.5,0.7-0.7,1.5-0.8,2.4H360.1z M366.6,233.6h2.2
	l0.1,2.3c0.5-0.8,1.2-1.4,2-1.8c0.9-0.5,1.9-0.7,2.9-0.7c1.1,0,2.2,0.3,3.2,0.8c0.9,0.5,1.7,1.4,2.1,2.3c0.6,1.2,0.8,2.5,0.8,3.9
	v9.2h-2.4v-8.8c0.1-1.3-0.3-2.7-1.1-3.8c-0.8-0.9-1.9-1.4-3.1-1.3c-1.2-0.1-2.4,0.4-3.3,1.4c-0.9,1.2-1.3,2.6-1.2,4.1v8.6h-2.4
	L366.6,233.6z M10,266.2h2.3v16H10L10,266.2z M11.3,263c-0.5,0-0.9-0.2-1.2-0.5c-0.6-0.7-0.6-1.7,0-2.4c0.3-0.3,0.8-0.5,1.2-0.5
	c0.9,0,1.7,0.8,1.7,1.7C12.9,262.3,12.2,263,11.3,263z M17.8,266.2H20l0.1,2.3c0.5-0.8,1.2-1.4,2-1.8C23,266.2,24,266,25,266
	c1.1,0,2.2,0.3,3.2,0.8c1,0.6,1.7,1.4,2.2,2.4c0.6,1.2,0.8,2.5,0.8,3.9v9.2h-2.4v-8.9c0.1-1.3-0.3-2.7-1.1-3.8
	c-0.8-0.9-1.9-1.4-3.1-1.3c-1.2-0.1-2.4,0.4-3.3,1.4c-0.8,1.2-1.3,2.6-1.2,4.1v8.6h-2.4L17.8,266.2z M37.2,277.3
	c0.1,0.6,0.3,1.1,0.7,1.6c0.4,0.4,0.8,0.7,1.3,0.9c0.6,0.2,1.3,0.3,1.9,0.3c0.9,0.1,1.8-0.2,2.6-0.6c0.6-0.4,0.9-1,0.9-1.7
	c0-0.5-0.2-1-0.5-1.3c-0.4-0.3-0.9-0.6-1.4-0.7c-0.6-0.3-1.3-0.5-1.9-0.6l-1.8-0.5c-0.6-0.2-1.2-0.4-1.8-0.8c-0.6-0.3-1-0.7-1.4-1.2
	c-0.4-0.6-0.6-1.3-0.5-2c0-0.9,0.2-1.7,0.7-2.4c0.5-0.7,1.3-1.3,2.1-1.6c1-0.4,2-0.6,3.1-0.6c1.2,0,2.4,0.3,3.5,0.9
	c1.1,0.6,1.8,1.5,2.2,2.7l-2.2,0.8c-0.1-0.5-0.4-1-0.8-1.3c-0.4-0.3-0.8-0.5-1.3-0.6c-0.5-0.1-0.9-0.2-1.4-0.2
	c-0.8,0-1.6,0.2-2.3,0.6c-0.6,0.4-0.9,1-0.9,1.7c0,0.4,0.1,0.7,0.3,1c0.2,0.3,0.5,0.5,0.8,0.6c0.4,0.2,0.8,0.3,1.2,0.4
	c0.5,0.1,1,0.2,1.5,0.4c0.6,0.2,1.3,0.3,1.9,0.6c0.6,0.2,1.2,0.5,1.8,0.9c0.5,0.3,1,0.8,1.3,1.3c0.4,0.6,0.6,1.3,0.6,2
	c0,0.9-0.3,1.7-0.8,2.5c-0.6,0.7-1.3,1.3-2.2,1.6c-1,0.4-2.1,0.6-3.1,0.6c-1.4,0.1-2.9-0.3-4.1-1.1c-1.1-0.8-1.9-1.9-2.1-3.3
	L37.2,277.3z M57.8,282.4c-1.4,0-2.8-0.3-4.1-1c-1.2-0.7-2.1-1.7-2.8-2.9c-1.3-2.7-1.3-5.9,0-8.6c0.6-1.2,1.6-2.2,2.8-2.9
	c1.2-0.7,2.7-1.1,4.1-1.1c1.5,0,3,0.4,4.3,1.1c1.2,0.7,2.2,1.8,2.7,3.1l-2.2,0.8c-0.3-0.9-1-1.6-1.8-2c-1.8-1-4-1-5.8,0
	c-0.8,0.5-1.4,1.2-1.8,2.1c-0.4,1-0.7,2.1-0.6,3.2c-0.1,1.6,0.4,3.1,1.4,4.3c1,1.1,2.4,1.7,3.8,1.6c1,0,2-0.2,2.9-0.7
	c0.8-0.5,1.5-1.2,1.9-2l2.2,0.8c-0.6,1.3-1.5,2.4-2.7,3.1c-1.3,0.8-2.8,1.2-4.4,1.2L57.8,282.4z M68.8,266.2H71l0.1,2.3
	c0.4-0.6,0.9-1.1,1.5-1.5c0.6-0.4,1.3-0.7,2-0.8c0.8-0.2,1.6-0.2,2.4,0v2.4c-0.8-0.2-1.6-0.2-2.4,0c-0.7,0.2-1.3,0.5-1.8,1
	c-0.5,0.5-0.9,1.1-1.2,1.8c-0.3,0.8-0.4,1.6-0.4,2.5v8.4h-2.4L68.8,266.2z M80.8,266.2h2.4v16h-2.4L80.8,266.2z M82.1,263
	c-0.5,0-0.9-0.2-1.2-0.5c-0.6-0.7-0.6-1.7,0-2.4c0.3-0.3,0.8-0.5,1.2-0.5c0.9,0,1.7,0.8,1.7,1.7C83.7,262.3,83,263,82.1,263z
	 M90.8,279H91v9.7h-2.4v-22.4h2.2l0.2,3c0.5-0.9,1.3-1.7,2.2-2.3c1.1-0.7,2.3-1,3.6-0.9c2.7,0,5.2,1.5,6.4,3.9c0.7,1.3,1,2.8,1,4.4
	c0,1.5-0.3,3-0.9,4.4c-0.6,1.2-1.5,2.2-2.6,2.9c-1.2,0.7-2.5,1-3.8,1c-1.3,0-2.7-0.3-3.8-1C92,280.9,91.2,280.1,90.8,279L90.8,279z
	 M101.5,274.3c0.1-1.6-0.4-3.1-1.4-4.4c-1-1.1-2.4-1.7-3.8-1.6c-1,0-1.9,0.2-2.7,0.7c-0.8,0.5-1.4,1.2-1.9,2c-0.5,1-0.7,2.1-0.7,3.2
	c0,1.1,0.2,2.2,0.7,3.2c0.4,0.9,1.1,1.6,1.9,2.1c0.8,0.5,1.8,0.7,2.7,0.7c1.4,0.1,2.8-0.5,3.8-1.6
	C101,277.4,101.5,275.9,101.5,274.3L101.5,274.3z M114.8,282.5c-1.4,0-2.8-0.3-4.1-1c-1.2-0.7-2.1-1.7-2.8-2.9
	c-1.3-2.7-1.3-5.9,0-8.6c0.6-1.2,1.6-2.2,2.8-2.9c1.2-0.7,2.7-1.1,4.1-1.1c1.5,0,3,0.4,4.3,1.1c1.2,0.7,2.2,1.8,2.7,3.1l-2.2,0.8
	c-0.3-0.9-1-1.6-1.8-2c-1.8-1-4-1-5.8,0c-0.8,0.5-1.4,1.2-1.9,2.1c-0.4,1-0.7,2.1-0.6,3.2c-0.1,1.6,0.4,3.1,1.4,4.3
	c1,1.1,2.4,1.7,3.8,1.6c1,0,2-0.2,2.9-0.7c0.8-0.5,1.5-1.2,1.9-2l2.2,0.8c-0.6,1.3-1.5,2.4-2.7,3.1
	C117.8,282.2,116.3,282.6,114.8,282.5L114.8,282.5z M126.3,266.3h2.4v16h-2.4V266.3z M127.5,263.1c-0.9,0-1.7-0.8-1.7-1.7
	c0-0.9,0.8-1.7,1.7-1.7c0.9,0,1.7,0.8,1.7,1.7C129.2,262.3,128.4,263.1,127.5,263.1z M141,282.5c-1.4,0-2.8-0.3-4.1-1
	c-1.2-0.7-2.2-1.6-2.8-2.8c-1.4-2.8-1.4-6,0-8.8c0.7-1.2,1.6-2.2,2.9-2.9c1.3-0.7,2.7-1,4.1-1c1.4,0,2.8,0.3,4.1,1
	c1.2,0.7,2.2,1.6,2.9,2.9c0.7,1.3,1.1,2.8,1.1,4.4c0,1.5-0.3,3.1-1.1,4.4c-0.7,1.2-1.7,2.2-2.9,2.9
	C143.8,282.2,142.4,282.6,141,282.5L141,282.5z M141,280.2c0.9,0,1.8-0.2,2.6-0.6c0.8-0.5,1.5-1.2,2-2c0.6-1,0.8-2.2,0.8-3.4
	c0-1.2-0.2-2.4-0.8-3.4c-0.5-0.8-1.2-1.5-2-1.9c-1.6-0.9-3.6-0.9-5.3,0c-0.9,0.5-1.5,1.1-2,2c-0.5,1-0.8,2.2-0.7,3.4
	c0,1.2,0.2,2.3,0.7,3.4c0.4,0.8,1.1,1.5,1.9,2C139.1,280.1,140,280.3,141,280.2L141,280.2z M153,266.3h2.2l0.1,2.3
	c0.5-0.8,1.2-1.4,2-1.8c0.9-0.5,1.9-0.7,2.9-0.7c1.1,0,2.2,0.3,3.2,0.8c0.9,0.5,1.7,1.4,2.1,2.3c0.6,1.2,0.8,2.5,0.8,3.9v9.2h-2.4
	v-8.9c0.1-1.3-0.3-2.7-1.1-3.8c-0.8-0.9-1.9-1.4-3.1-1.3c-1.2-0.1-2.4,0.4-3.3,1.4c-0.9,1.2-1.3,2.6-1.2,4.1v8.6h-2.4L153,266.3z
	 M177.7,282.5c-1.4,0-2.8-0.4-4-1.1c-1.2-0.7-2.1-1.8-2.7-3c-0.7-1.3-1-2.8-1-4.3c0-1.4,0.3-2.9,1-4.2c1.3-2.4,3.9-4,6.7-3.9
	c1.4,0,2.7,0.3,3.9,1c1.1,0.6,2.1,1.5,2.7,2.7c0.7,1.2,1,2.5,0.9,3.9c0,0.2,0,0.5,0,0.7c0,0.3,0,0.5-0.1,0.8h-12.5
	c0,0.9,0.3,1.8,0.7,2.6c0.4,0.7,1,1.4,1.8,1.8c0.8,0.4,1.6,0.7,2.5,0.6c1.1,0,2.2-0.2,3.1-0.7c0.8-0.4,1.5-1.1,1.9-2l2.1,0.8
	c-0.6,1.3-1.6,2.4-2.8,3.1C180.6,282.2,179.1,282.6,177.7,282.5L177.7,282.5z M182.5,273c0.1-1.7-0.8-3.3-2.3-4.1
	c-0.8-0.4-1.7-0.6-2.6-0.6c-0.8,0-1.6,0.2-2.3,0.6c-0.7,0.4-1.3,1-1.8,1.7c-0.5,0.7-0.7,1.5-0.8,2.4H182.5z M190.4,277.4
	c0.1,0.6,0.3,1.1,0.7,1.6c0.4,0.4,0.8,0.7,1.3,0.9c0.6,0.2,1.3,0.3,1.9,0.3c0.9,0.1,1.8-0.2,2.6-0.6c0.6-0.4,0.9-1,0.9-1.7
	c0-0.5-0.2-1-0.5-1.3c-0.4-0.4-0.9-0.7-1.4-0.8c-0.6-0.3-1.3-0.5-1.9-0.6l-1.8-0.4c-0.6-0.2-1.2-0.4-1.8-0.8c-0.6-0.3-1-0.7-1.4-1.2
	c-0.4-0.6-0.6-1.3-0.6-2c0-0.9,0.2-1.7,0.7-2.4c0.5-0.7,1.3-1.3,2.1-1.6c1-0.4,2-0.6,3.1-0.6c1.2,0,2.4,0.3,3.5,0.9
	c1,0.6,1.8,1.5,2.2,2.7l-2.2,0.8c-0.1-0.5-0.4-1-0.8-1.3c-0.4-0.3-0.8-0.5-1.3-0.6c-0.5-0.1-0.9-0.2-1.4-0.2c-0.8,0-1.6,0.2-2.3,0.6
	c-0.6,0.4-0.9,1-0.9,1.7c0,0.4,0.1,0.7,0.3,1c0.2,0.3,0.5,0.5,0.8,0.6c0.4,0.2,0.8,0.3,1.2,0.5c0.5,0.1,1,0.2,1.5,0.4
	c0.6,0.2,1.3,0.3,1.9,0.6c0.6,0.2,1.2,0.5,1.8,0.9c0.5,0.3,1,0.8,1.3,1.3c0.4,0.6,0.6,1.3,0.5,2c0,0.9-0.2,1.7-0.8,2.5
	c-0.6,0.7-1.3,1.3-2.1,1.6c-1,0.4-2.1,0.6-3.1,0.6c-1.4,0.1-2.9-0.3-4.1-1.1c-1.1-0.8-1.9-1.9-2.1-3.3L190.4,277.4z M213.7,266.3
	h2.4v16h-2.4V266.3z M214.9,263.1c-0.5,0-0.9-0.2-1.2-0.5c-0.6-0.7-0.6-1.7,0-2.4c0.3-0.3,0.8-0.5,1.2-0.5c0.4,0,0.8,0.2,1.1,0.5
	c0.7,0.6,0.7,1.7,0,2.4c0,0,0,0,0,0C215.8,263,215.3,263.2,214.9,263.1L214.9,263.1z M221.5,266.3h2.2l0.1,2.3
	c0.5-0.8,1.2-1.4,2-1.8c0.9-0.5,1.9-0.7,2.9-0.7c1.1,0,2.2,0.3,3.2,0.8c0.9,0.5,1.7,1.4,2.1,2.3c0.6,1.2,0.8,2.5,0.8,3.9v9.2h-2.4
	v-8.9c0.1-1.3-0.3-2.7-1.1-3.8c-0.8-0.9-1.9-1.4-3.1-1.3c-1.2-0.1-2.4,0.4-3.3,1.4c-0.9,1.2-1.3,2.6-1.2,4.1v8.6h-2.4L221.5,266.3z
	 M251.9,269.5h-0.3v-10.3h2.4v23h-2.3l-0.2-3c-0.5,0.9-1.3,1.7-2.2,2.3c-1.1,0.7-2.3,1-3.6,0.9c-1.4,0-2.7-0.3-3.9-1
	c-1.1-0.7-2-1.7-2.6-2.9c-0.6-1.4-0.9-2.9-0.9-4.4c0-1.5,0.3-3,0.9-4.3c0.6-1.2,1.5-2.2,2.6-2.9c1.2-0.7,2.5-1,3.9-1
	c1.3,0,2.6,0.3,3.8,1C250.5,267.6,251.3,268.5,251.9,269.5L251.9,269.5z M241.1,274.3c-0.1,1.6,0.3,3.2,1.3,4.4
	c1,1.1,2.4,1.7,3.8,1.6c0.9,0,1.9-0.2,2.7-0.7c0.8-0.5,1.5-1.2,1.9-2.1c0.5-1,0.7-2.1,0.7-3.2c0-1.1-0.2-2.2-0.7-3.2
	c-0.4-0.8-1.1-1.5-1.9-2c-0.8-0.5-1.7-0.8-2.7-0.7c-1.5-0.1-2.9,0.5-3.8,1.6C241.4,271.2,240.9,272.8,241.1,274.3L241.1,274.3z
	 M259.4,266.3h2.4v16h-2.5L259.4,266.3z M260.6,263.1c-0.5,0-0.9-0.2-1.2-0.5c-0.6-0.7-0.6-1.7,0-2.4c0.3-0.3,0.8-0.5,1.2-0.5
	c0.9,0,1.7,0.8,1.7,1.7C262.3,262.3,261.5,263.1,260.6,263.1z M268.1,266.3l5,13.3l5.1-13.3h2.5l-6.4,16h-2.5l-6.3-16H268.1z
	 M284.5,266.3h2.4v16h-2.5L284.5,266.3z M285.7,263.1c-0.9,0-1.7-0.8-1.7-1.7c0-0.9,0.8-1.7,1.7-1.7l0,0c0.9,0,1.7,0.8,1.7,1.7
	c0,0.5-0.2,0.9-0.5,1.2C286.6,263,286.1,263.2,285.7,263.1L285.7,263.1z M304.6,269.5h-0.3v-10.3h2.4v23h-2.2l-0.2-3
	c-0.5,0.9-1.3,1.7-2.2,2.3c-1.1,0.7-2.3,1-3.6,0.9c-1.4,0-2.7-0.3-3.9-1c-1.1-0.7-2-1.7-2.6-2.9c-0.6-1.4-0.9-2.9-0.9-4.4
	c0-1.5,0.3-3,0.9-4.3c0.6-1.2,1.5-2.2,2.6-2.9c1.2-0.7,2.5-1,3.9-1c1.3,0,2.6,0.3,3.8,1C303.3,267.6,304.1,268.5,304.6,269.5
	L304.6,269.5z M293.9,274.3c-0.1,1.6,0.4,3.1,1.4,4.4c1,1.1,2.4,1.7,3.8,1.6c0.9,0,1.9-0.2,2.7-0.7c0.8-0.5,1.5-1.2,1.9-2.1
	c0.5-1,0.7-2.1,0.7-3.2c0-1.1-0.2-2.2-0.7-3.2c-0.4-0.8-1.1-1.5-1.9-2c-0.8-0.5-1.7-0.8-2.7-0.7c-1.5-0.1-2.9,0.5-3.8,1.6
	C294.3,271.2,293.7,272.7,293.9,274.3L293.9,274.3z M324.8,282.3h-2.2l-0.2-2.3c-0.5,0.8-1.2,1.5-2,1.9c-0.9,0.4-1.9,0.7-2.9,0.6
	c-1.1,0-2.2-0.2-3.2-0.8c-0.9-0.5-1.7-1.3-2.1-2.3c-0.5-1.2-0.8-2.5-0.7-3.9v-9.3h2.4v9c-0.1,1.3,0.3,2.7,1.1,3.7
	c0.8,0.9,1.9,1.3,3.1,1.3c1.2,0.1,2.4-0.4,3.2-1.3c0.9-1.1,1.3-2.6,1.2-4v-8.7h2.4L324.8,282.3z M339.7,282.3l-0.2-2.9
	c-0.4,1-1.1,1.8-2,2.3c-1,0.6-2.2,0.8-3.3,0.8c-1,0-2-0.2-2.9-0.5c-0.8-0.3-1.4-0.9-1.9-1.5c-0.4-0.7-0.7-1.6-0.6-2.4
	c0-1.3,0.5-2.5,1.5-3.3c1.3-1,2.8-1.5,4.4-1.6l4.9-0.5v-1.3c0-0.8-0.3-1.6-1-2.1c-0.8-0.6-1.7-0.9-2.7-0.8c-1,0-2,0.2-2.8,0.8
	c-0.7,0.5-1.3,1.3-1.5,2.2l-2.2-0.8c0.4-1.3,1.2-2.5,2.3-3.3c1.2-0.8,2.7-1.2,4.2-1.2c1.6-0.1,3.2,0.4,4.4,1.5
	c1.1,1,1.7,2.5,1.6,3.9v10.8L339.7,282.3z M339.5,274.6l-5,0.6c-0.9,0.1-1.7,0.4-2.4,0.9c-1,0.9-1.1,2.4-0.2,3.3
	c0.1,0.1,0.2,0.2,0.2,0.2c0.7,0.5,1.5,0.7,2.4,0.7c1,0,2-0.2,2.9-0.7c0.7-0.4,1.3-1.1,1.6-1.9c0.4-0.8,0.5-1.7,0.5-2.6L339.5,274.6z
	 M346.6,259.2h2.4v23h-2.4V259.2z M360.6,282.5c-1.4,0-2.8-0.4-4-1.1c-1.2-0.7-2.1-1.8-2.7-3c-0.7-1.3-1-2.8-1-4.3
	c0-1.4,0.3-2.9,1-4.2c0.6-1.2,1.6-2.2,2.7-2.9c1.2-0.7,2.5-1.1,3.9-1.1c1.4,0,2.7,0.3,3.9,1c1.1,0.6,2.1,1.5,2.7,2.7
	c0.7,1.2,1,2.5,0.9,3.9c0,0.2,0,0.5,0,0.7s0,0.5-0.1,0.8h-12.5c0,0.9,0.3,1.8,0.7,2.6c0.8,1.6,2.5,2.5,4.3,2.5
	c1.1,0,2.2-0.2,3.1-0.7c0.8-0.4,1.5-1.1,1.9-2l2.1,0.8c-0.6,1.3-1.6,2.4-2.8,3.1C363.4,282.2,362,282.6,360.6,282.5L360.6,282.5z
	 M365.3,273c0-0.9-0.2-1.7-0.6-2.4c-0.4-0.7-1-1.3-1.7-1.7c-0.8-0.4-1.7-0.6-2.6-0.6c-0.8,0-1.6,0.2-2.3,0.6c-0.7,0.4-1.3,1-1.8,1.7
	c-0.5,0.7-0.7,1.5-0.8,2.4H365.3z M373.2,277.4c0.1,0.6,0.3,1.1,0.7,1.6c0.4,0.4,0.8,0.7,1.3,0.9c0.6,0.2,1.3,0.3,1.9,0.3
	c0.9,0.1,1.8-0.2,2.6-0.6c0.6-0.4,0.9-1,0.9-1.7c0-0.5-0.2-1-0.5-1.3c-0.4-0.4-0.9-0.7-1.4-0.8c-0.6-0.3-1.3-0.5-1.9-0.6l-1.8-0.4
	c-0.6-0.2-1.2-0.4-1.8-0.8c-0.6-0.3-1-0.7-1.4-1.2c-0.4-0.6-0.6-1.3-0.5-2c0-0.9,0.2-1.7,0.7-2.4c0.5-0.7,1.3-1.3,2.1-1.6
	c1-0.4,2-0.6,3.1-0.6c1.2,0,2.4,0.3,3.5,0.9c1.1,0.6,1.8,1.5,2.2,2.7l-2.2,0.8c-0.1-0.5-0.4-1-0.8-1.3c-0.4-0.3-0.8-0.5-1.3-0.6
	c-0.5-0.1-0.9-0.2-1.4-0.2c-0.8,0-1.6,0.2-2.3,0.6c-0.6,0.4-0.9,1-0.9,1.7c0,0.4,0.1,0.7,0.3,1c0.2,0.3,0.5,0.5,0.8,0.6
	c0.4,0.2,0.8,0.3,1.2,0.5c0.5,0.1,1,0.2,1.5,0.4c0.6,0.2,1.3,0.3,1.9,0.6c0.6,0.2,1.2,0.5,1.8,0.9c0.5,0.3,1,0.8,1.3,1.3
	c0.4,0.6,0.6,1.3,0.5,2c0,0.9-0.3,1.7-0.8,2.5c-0.6,0.7-1.3,1.3-2.1,1.6c-1,0.4-2.1,0.6-3.1,0.6c-1.4,0.1-2.9-0.3-4.1-1.1
	c-1.1-0.8-1.9-1.9-2.1-3.3L373.2,277.4z M388.4,282.4c-0.5,0-0.9-0.2-1.3-0.5c-0.6-0.7-0.6-1.8,0-2.5c0.3-0.3,0.8-0.5,1.3-0.5
	c1,0,1.8,0.8,1.8,1.8C390.2,281.6,389.4,282.4,388.4,282.4z M235.8,128c-0.5,0-0.9-0.2-1.3-0.5c-0.6-0.7-0.6-1.8,0-2.5
	c0.3-0.3,0.8-0.5,1.3-0.5c1,0,1.8,0.8,1.8,1.8C237.6,127.3,236.8,128,235.8,128z"/>
<g>
	<path class="st0" d="M26.9,34.4c2.1,2.1,3.1,5,3.1,8.5c0,1.6-0.3,3.2-0.8,4.6s-1.2,2.7-2.2,3.7c-0.9,1.1-2.1,1.9-3.5,2.5
		c-1.4,0.6-2.9,0.9-4.6,0.9s-3.2-0.3-4.6-0.9c-1.4-0.6-2.5-1.4-3.5-2.5c-1-1.1-1.7-2.3-2.2-3.7c-0.5-1.4-0.8-3-0.8-4.6
		c0-1.7,0.3-3.2,0.8-4.6s1.2-2.7,2.2-3.7s2.1-1.9,3.5-2.5c1.4-0.6,2.9-0.9,4.6-0.9C22.2,31.1,24.8,32.2,26.9,34.4z M14.9,48.1
		c1.1,1.2,2.4,1.8,4.1,1.8c1,0,1.9-0.2,2.6-0.6c0.7-0.4,1.3-0.9,1.8-1.5c0.5-0.6,0.8-1.4,1-2.2c0.2-0.8,0.3-1.7,0.3-2.7
		c0-0.9-0.1-1.8-0.3-2.6c-0.2-0.9-0.5-1.6-1-2.3c-0.5-0.6-1-1.2-1.8-1.6c-0.7-0.4-1.6-0.6-2.6-0.6c-1,0-1.9,0.2-2.7,0.6
		c-0.7,0.4-1.4,0.9-1.8,1.5c-0.5,0.6-0.8,1.4-1,2.3c-0.2,0.9-0.3,1.7-0.3,2.7C13.2,45.1,13.8,46.9,14.9,48.1z"/>
	<path class="st0" d="M32,31.4h8.8c0.8,0,1.5,0,2.3,0.1c0.8,0.1,1.5,0.2,2.2,0.4c0.7,0.2,1.3,0.5,1.9,0.9c0.6,0.4,1.1,1,1.6,1.7
		c0.8,1.2,1.2,2.6,1.2,4.1c0,1.3-0.2,2.5-0.7,3.5c-0.5,1-1.1,1.7-1.9,2.3c-0.8,0.6-1.7,1-2.8,1.3c-1.1,0.3-2.2,0.4-3.5,0.4h-4v8.2
		H32V31.4z M37.2,41.2h4c0.5,0,0.9,0,1.4-0.1c0.4,0,0.8-0.2,1.2-0.3c0.3-0.2,0.6-0.4,0.8-0.8c0.2-0.3,0.3-0.8,0.3-1.4
		c0-0.2,0-0.4-0.1-0.6c0-0.2-0.1-0.5-0.2-0.7c-0.1-0.2-0.2-0.4-0.4-0.6c-0.2-0.2-0.4-0.3-0.6-0.3c-0.2,0-0.4-0.1-0.8-0.1
		c-0.4,0-0.9-0.1-1.6-0.1h-3.9V41.2z"/>
	<path class="st0" d="M66,45.4h5.2l-0.1,1.3c-0.1,1.3-0.5,2.4-1,3.4c-0.5,1-1.2,1.8-2.1,2.5c-0.8,0.7-1.8,1.2-2.9,1.5
		c-1.1,0.3-2.3,0.5-3.5,0.5c-1.8,0-3.3-0.3-4.6-0.9s-2.4-1.4-3.3-2.5c-0.9-1.1-1.6-2.3-2.1-3.7c-0.5-1.4-0.7-3-0.7-4.6
		c0-1.7,0.2-3.2,0.7-4.6c0.5-1.4,1.2-2.7,2.1-3.7c0.9-1.1,2-1.9,3.3-2.5c1.3-0.6,2.9-0.9,4.6-0.9c1.2,0,2.3,0.2,3.4,0.5
		c1.1,0.3,2.1,0.8,3,1.5c0.9,0.6,1.6,1.4,2.2,2.4c0.6,0.9,0.9,2,1,3.3l0.1,1.3H66L65.9,39c0-0.6-0.2-1.1-0.5-1.5s-0.6-0.7-1-1
		s-0.8-0.4-1.3-0.5c-0.5-0.1-1-0.2-1.5-0.2c-1,0-1.9,0.2-2.6,0.6c-0.7,0.4-1.3,0.9-1.7,1.6c-0.4,0.6-0.7,1.4-0.9,2.3
		c-0.2,0.9-0.3,1.7-0.3,2.6c0,0.9,0.1,1.8,0.3,2.6c0.2,0.8,0.5,1.6,0.9,2.2s1,1.2,1.7,1.6c0.7,0.4,1.6,0.6,2.6,0.6
		c1.2,0,2.1-0.3,3-0.8s1.3-1.4,1.4-2.6L66,45.4z"/>
	<path class="st0" d="M73.3,54.3V31.4h5.1v22.9H73.3z"/>
	<path class="st0" d="M99.4,34.4c2.1,2.1,3.1,5,3.1,8.5c0,1.6-0.3,3.2-0.8,4.6s-1.2,2.7-2.2,3.7c-0.9,1.1-2.1,1.9-3.5,2.5
		c-1.4,0.6-2.9,0.9-4.6,0.9s-3.2-0.3-4.6-0.9c-1.4-0.6-2.5-1.4-3.5-2.5c-1-1.1-1.7-2.3-2.2-3.7c-0.5-1.4-0.8-3-0.8-4.6
		c0-1.7,0.3-3.2,0.8-4.6s1.2-2.7,2.2-3.7s2.1-1.9,3.5-2.5c1.4-0.6,2.9-0.9,4.6-0.9C94.7,31.1,97.3,32.2,99.4,34.4z M87.4,48.1
		c1.1,1.2,2.4,1.8,4.1,1.8c1,0,1.9-0.2,2.6-0.6c0.7-0.4,1.3-0.9,1.8-1.5c0.5-0.6,0.8-1.4,1-2.2c0.2-0.8,0.3-1.7,0.3-2.7
		c0-0.9-0.1-1.8-0.3-2.6c-0.2-0.9-0.5-1.6-1-2.3c-0.5-0.6-1-1.2-1.8-1.6c-0.7-0.4-1.6-0.6-2.6-0.6c-1,0-1.9,0.2-2.7,0.6
		c-0.7,0.4-1.4,0.9-1.8,1.5c-0.5,0.6-0.8,1.4-1,2.3c-0.2,0.9-0.3,1.7-0.3,2.7C85.7,45.1,86.3,46.9,87.4,48.1z"/>
	<path class="st0" d="M104.5,31.4h4.6l8.9,13.3V31.4h5v22.9h-4.6L109.6,41v13.3h-5V31.4z"/>
	<path class="st0" d="M137.1,54.3V31.4h5.1v22.9H137.1z"/>
</g>
<g>
	<path class="st0" d="M26.9,187.6c2.1,2.1,3.1,5,3.1,8.5c0,1.6-0.3,3.2-0.8,4.6s-1.2,2.7-2.2,3.7c-0.9,1.1-2.1,1.9-3.5,2.5
		c-1.4,0.6-2.9,0.9-4.6,0.9s-3.2-0.3-4.6-0.9c-1.4-0.6-2.5-1.4-3.5-2.5c-1-1.1-1.7-2.3-2.2-3.7c-0.5-1.4-0.8-3-0.8-4.6
		c0-1.7,0.3-3.2,0.8-4.6s1.2-2.7,2.2-3.7s2.1-1.9,3.5-2.5c1.4-0.6,2.9-0.9,4.6-0.9C22.2,184.3,24.8,185.4,26.9,187.6z M14.9,201.4
		c1.1,1.2,2.4,1.8,4.1,1.8c1,0,1.9-0.2,2.6-0.6c0.7-0.4,1.3-0.9,1.8-1.5c0.5-0.6,0.8-1.4,1-2.2c0.2-0.8,0.3-1.7,0.3-2.7
		c0-0.9-0.1-1.8-0.3-2.6c-0.2-0.9-0.5-1.6-1-2.3c-0.5-0.6-1-1.2-1.8-1.6c-0.7-0.4-1.6-0.6-2.6-0.6c-1,0-1.9,0.2-2.7,0.6
		c-0.7,0.4-1.4,0.9-1.8,1.5c-0.5,0.6-0.8,1.4-1,2.3c-0.2,0.9-0.3,1.7-0.3,2.7C13.2,198.4,13.8,200.1,14.9,201.4z"/>
	<path class="st0" d="M32,184.7h8.8c0.8,0,1.5,0,2.3,0.1c0.8,0.1,1.5,0.2,2.2,0.4c0.7,0.2,1.3,0.5,1.9,0.9c0.6,0.4,1.1,1,1.6,1.7
		c0.8,1.2,1.2,2.6,1.2,4.1c0,1.3-0.2,2.5-0.7,3.5c-0.5,1-1.1,1.7-1.9,2.3c-0.8,0.6-1.7,1-2.8,1.3c-1.1,0.3-2.2,0.4-3.5,0.4h-4v8.2
		H32V184.7z M37.2,194.5h4c0.5,0,0.9,0,1.4-0.1c0.4,0,0.8-0.2,1.2-0.3c0.3-0.2,0.6-0.4,0.8-0.8c0.2-0.3,0.3-0.8,0.3-1.4
		c0-0.2,0-0.4-0.1-0.6c0-0.2-0.1-0.5-0.2-0.7c-0.1-0.2-0.2-0.4-0.4-0.6c-0.2-0.2-0.4-0.3-0.6-0.3c-0.2,0-0.4-0.1-0.8-0.1
		c-0.4,0-0.9-0.1-1.6-0.1h-3.9V194.5z"/>
	<path class="st0" d="M66,198.7h5.2l-0.1,1.3c-0.1,1.3-0.5,2.4-1,3.4c-0.5,1-1.2,1.8-2.1,2.5c-0.8,0.7-1.8,1.2-2.9,1.5
		c-1.1,0.3-2.3,0.5-3.5,0.5c-1.8,0-3.3-0.3-4.6-0.9s-2.4-1.4-3.3-2.5c-0.9-1.1-1.6-2.3-2.1-3.7c-0.5-1.4-0.7-3-0.7-4.6
		c0-1.7,0.2-3.2,0.7-4.6c0.5-1.4,1.2-2.7,2.1-3.7c0.9-1.1,2-1.9,3.3-2.5c1.3-0.6,2.9-0.9,4.6-0.9c1.2,0,2.3,0.2,3.4,0.5
		c1.1,0.3,2.1,0.8,3,1.5c0.9,0.6,1.6,1.4,2.2,2.4c0.6,0.9,0.9,2,1,3.3l0.1,1.3H66l-0.1-1.1c0-0.6-0.2-1.1-0.5-1.5s-0.6-0.7-1-1
		s-0.8-0.4-1.3-0.5c-0.5-0.1-1-0.2-1.5-0.2c-1,0-1.9,0.2-2.6,0.6c-0.7,0.4-1.3,0.9-1.7,1.6c-0.4,0.6-0.7,1.4-0.9,2.3
		c-0.2,0.9-0.3,1.7-0.3,2.6c0,0.9,0.1,1.8,0.3,2.6c0.2,0.8,0.5,1.6,0.9,2.2s1,1.2,1.7,1.6c0.7,0.4,1.6,0.6,2.6,0.6
		c1.2,0,2.1-0.3,3-0.8s1.3-1.4,1.4-2.6L66,198.7z"/>
	<path class="st0" d="M73.3,207.5v-22.9h5.1v22.9H73.3z"/>
	<path class="st0" d="M99.4,187.6c2.1,2.1,3.1,5,3.1,8.5c0,1.6-0.3,3.2-0.8,4.6s-1.2,2.7-2.2,3.7c-0.9,1.1-2.1,1.9-3.5,2.5
		c-1.4,0.6-2.9,0.9-4.6,0.9s-3.2-0.3-4.6-0.9c-1.4-0.6-2.5-1.4-3.5-2.5c-1-1.1-1.7-2.3-2.2-3.7c-0.5-1.4-0.8-3-0.8-4.6
		c0-1.7,0.3-3.2,0.8-4.6s1.2-2.7,2.2-3.7s2.1-1.9,3.5-2.5c1.4-0.6,2.9-0.9,4.6-0.9C94.7,184.3,97.3,185.4,99.4,187.6z M87.4,201.4
		c1.1,1.2,2.4,1.8,4.1,1.8c1,0,1.9-0.2,2.6-0.6c0.7-0.4,1.3-0.9,1.8-1.5c0.5-0.6,0.8-1.4,1-2.2c0.2-0.8,0.3-1.7,0.3-2.7
		c0-0.9-0.1-1.8-0.3-2.6c-0.2-0.9-0.5-1.6-1-2.3c-0.5-0.6-1-1.2-1.8-1.6c-0.7-0.4-1.6-0.6-2.6-0.6c-1,0-1.9,0.2-2.7,0.6
		c-0.7,0.4-1.4,0.9-1.8,1.5c-0.5,0.6-0.8,1.4-1,2.3c-0.2,0.9-0.3,1.7-0.3,2.7C85.7,198.4,86.3,200.1,87.4,201.4z"/>
	<path class="st0" d="M104.5,184.7h4.6L118,198v-13.3h5v22.9h-4.6l-8.8-13.3v13.3h-5V184.7z"/>
	<path class="st0" d="M143.8,197.1c0.7-0.4,1.3-0.8,2-1.2s1.3-0.8,1.8-1.3c0.5-0.4,1-0.9,1.3-1.3c0.3-0.4,0.5-0.9,0.5-1.3
		c0-1.6-1.1-2.3-3.4-2.3c-0.6,0-1.1,0.1-1.5,0.2c-0.4,0.1-0.7,0.3-0.9,0.5c-0.2,0.2-0.4,0.4-0.5,0.6c-0.1,0.2-0.2,0.4-0.2,0.6h-5.1
		c0-0.7,0.1-1.4,0.5-2.3c0.3-0.8,0.8-1.6,1.4-2.3c0.6-0.7,1.5-1.3,2.5-1.7c1-0.5,2.3-0.7,3.8-0.7c1.7,0,3.1,0.3,4.2,0.8
		c1.1,0.5,2,1.2,2.6,1.9c0.6,0.8,1.1,1.6,1.4,2.4c0.3,0.9,0.4,1.6,0.4,2.3c0,1.2-0.3,2.3-0.8,3.2c-0.5,0.9-1.2,1.8-2,2.6
		c-0.8,0.8-1.7,1.4-2.7,2.1c-1,0.6-1.9,1.2-2.8,1.7c-0.2,0.1-0.5,0.3-0.7,0.4s-0.5,0.3-0.8,0.5h9v5.1h-17.2V205
		c0-0.9,0.2-1.8,0.6-2.5c0.4-0.8,0.9-1.4,1.6-2.1c0.7-0.6,1.4-1.2,2.3-1.7C142.1,198.2,143,197.6,143.8,197.1z"/>
</g>
</svg>
