<?xml version="1.0" encoding="utf-8"?>
<!-- Generator: Adobe Illustrator 18.1.1, SVG Export Plug-In . SVG Version: 6.00 Build 0)  -->
<svg version="1.1" id="Capa_1" xmlns="http://www.w3.org/2000/svg" xmlns:xlink="http://www.w3.org/1999/xlink" x="0px" y="0px"
	 viewBox="0 245 550 313" enable-background="new 0 245 550 313" xml:space="preserve">
<path fill="#FFFFFF" d="M1.7,320c0-1.4,0.3-2.5,1.1-3.6c0.6-0.8,1.7-1.6,2.5-2.2c1.1-0.5,2.5-0.8,3.8-0.8s2.8,0.3,3.8,0.8
	c0.8,0.5,1.6,1.1,2.2,2.2c0.5,0.8,0.8,1.9,0.8,3c0,0.8-0.3,1.6-0.5,2.2c-0.3,0.5-0.8,1.1-1.4,1.4c-0.6,0.3-0.8,0.5-1.4,0.8l0,0
	c0.5,0.3,1.4,0.5,1.9,0.8c0.5,0.3,1.1,0.8,1.4,1.4c0.3,0.8,0.5,1.4,0.5,2.2c0,1.1-0.3,2.2-0.8,3.3c-0.5,0.8-1.4,1.6-2.5,2.2
	c-1.1,0.5-2.5,0.8-3.9,0.8s-2.7-0.3-4.1-0.6c-1.1-0.3-2.2-1.1-2.8-2.2c-0.8-1.1-1.1-2.5-1.1-4.1h4.9c0,0.8,0,1.4,0.6,1.9
	c0.6,0.3,1.4,0.5,1.9,0.5c0.5,0,0.8,0,1.1-0.3c0.3-0.3,0.6-0.5,0.8-0.8c0.3-0.3,0.3-0.8,0.3-1.1c0-0.8-0.3-1.4-0.8-1.6
	c-0.8-0.3-1.9-0.5-2.8-0.5H6.9v-3.6h0.8c0.6,0,1.1,0,1.7,0s0.8-0.3,1.1-0.5c0.3-0.6,0.5-1.1,0.5-1.4c0-0.5-0.3-1.1-0.6-1.6
	c-0.3-0.3-0.8-0.5-1.4-0.5s-0.8,0-1.4,0.3c-0.3,0.3-0.6,0.5-0.6,0.8c-0.3,0.3-0.6,0.5-0.6,0.8L1.7,320L1.7,320z M32.5,313.9v4.1
	h-8.5v3.9c0.3-0.5,0.8-0.8,1.4-1.1s1.4-0.3,2.2-0.3c1.1,0,1.9,0.3,3,0.5c0.8,0.3,1.4,0.8,1.9,1.6c0.5,0.5,0.8,1.4,1.1,2.2
	c0.3,0.8,0.3,1.6,0.3,2.5c0,1.4-0.3,2.8-0.8,3.9s-1.4,1.9-2.5,2.5c-1.4,0.5-2.5,0.8-3.8,0.8s-2.8-0.3-4.1-0.8
	c-1.1-0.5-1.9-1.4-2.8-2.2c-0.6-1.1-0.8-2.2-1.1-3.3h4.9c0,0.5,0.3,1.1,0.8,1.4c0.5,0.5,1.1,0.5,1.9,0.5c0.5,0,1.1,0,1.4-0.3
	s0.5-0.5,0.8-1.1c0.3-0.5,0.3-1.1,0.3-1.6c0-0.8-0.3-1.4-0.5-1.9c-0.5-0.5-1.1-0.5-1.9-0.5c-0.5,0-1.1,0.3-1.7,0.5
	c-0.3,0.3-0.5,0.5-0.8,1.1h-5v-12.4L32.5,313.9L32.5,313.9z M36.3,323.8c0-1.4,0-2.8,0.5-4.1c0.3-1.1,0.8-2.2,1.4-3.3
	c0.5-0.8,1.7-1.6,2.5-2.2c1.1-0.5,2.5-0.8,3.8-0.8s2.8,0.3,3.8,0.8c1.1,0.5,1.9,1.1,2.5,2.2c0.8,1.1,1.1,2.2,1.4,3.3
	c0.5,2.8,0.5,5.8,0,8.5c-0.3,1.1-0.8,2.2-1.4,3.3c-0.6,0.8-1.7,1.6-2.5,2.2c-1.1,0.5-2.5,0.8-3.8,0.8s-2.8-0.3-3.8-0.8
	c-1.1-0.5-1.9-1.1-2.5-2.2s-1.1-2.2-1.4-3.3C36.3,326.9,36.3,325.5,36.3,323.8z M47.6,323.8c0-0.8,0-1.6,0-2.2
	c0-0.5-0.3-1.4-0.3-1.9c-0.3-0.5-0.5-1.1-0.8-1.4c-0.6-0.3-1.1-0.5-1.7-0.5s-1.1,0.3-1.7,0.5c-0.5,0.3-0.8,0.8-0.8,1.4
	c-0.3,0.5-0.3,1.4-0.3,1.9c0,0.8,0,1.4,0,2.2s0,1.6,0,2.5c0,0.5,0.3,1.4,0.3,1.9c0.3,0.5,0.5,1.1,0.8,1.4c0.5,0.3,1.1,0.5,1.7,0.5
	s1.1,0,1.7-0.5c0.6-0.3,0.8-0.8,0.8-1.4c0.3-0.5,0.3-1.4,0.3-1.9C47.6,325.5,47.6,324.6,47.6,323.8z M55.3,323.8
	c0-1.4,0-2.8,0.6-4.1c0.3-1.1,0.8-2.2,1.4-3.3c0.5-0.8,1.7-1.6,2.5-2.2c1.1-0.5,2.5-0.8,3.8-0.8s2.8,0.3,3.8,0.8
	c1.1,0.5,1.9,1.1,2.5,2.2c0.8,1.1,1.1,2.2,1.4,3.3c0.6,2.8,0.6,5.8,0,8.5c-0.3,1.1-0.8,2.2-1.4,3.3c-0.6,0.8-1.7,1.6-2.5,2.2
	c-1.1,0.5-2.5,0.8-3.8,0.8s-2.8-0.3-3.8-0.8c-1.1-0.5-1.9-1.1-2.5-2.2c-0.8-1.1-1.1-2.2-1.4-3.3C55.3,326.9,55.3,325.5,55.3,323.8z
	 M66.6,323.8c0-0.8,0-1.6,0-2.2c0-0.5-0.3-1.4-0.3-1.9c-0.3-0.5-0.6-1.1-0.8-1.4c-1.1-0.5-2.5-0.5-3.3,0c-0.6,0.3-0.8,0.8-0.8,1.4
	c-0.3,0.5-0.3,1.4-0.3,1.9c0,0.8,0,1.4,0,2.2s0,1.6,0,2.5c0,0.5,0.3,1.4,0.3,1.9c0.3,0.5,0.5,1.1,0.8,1.4c1.1,0.5,2.5,0.5,3.3,0
	c0.6-0.3,0.8-0.8,0.8-1.4c0.3-0.5,0.3-1.4,0.3-1.9C66.6,325.5,66.6,324.6,66.6,323.8z M82.5,313.9h4.9v12.4c0,0.8,0.3,1.4,0.6,1.9
	c0.3,0.5,0.8,1.1,1.4,1.4s1.4,0.5,1.9,0.5s1.4,0,1.9-0.5c0.6-0.3,1.1-0.8,1.4-1.4s0.6-1.4,0.6-1.9v-12.4h4.9v11.8
	c0,1.4-0.3,2.5-0.8,3.9c-0.6,1.1-1.1,1.9-1.9,2.8s-1.9,1.4-3,1.6c-1.1,0.3-2.2,0.5-3.3,0.5c-1.7,0-3-0.3-4.4-0.8
	c-1.4-0.5-2.5-1.6-3.3-2.8c-0.8-1.4-1.4-3-1.1-4.7L82.5,313.9z M107.5,328c0,0.5,0.3,1.1,0.6,1.4c0.3,0.3,0.6,0.5,1.1,0.8
	c0.6,0.3,1.1,0.3,1.4,0.3c0.8,0,1.4-0.3,2.2-0.5c0.6-0.3,0.8-0.8,0.8-1.4s-0.3-0.8-0.6-1.1c-0.3-0.3-0.8-0.5-1.4-0.8
	c-0.6-0.3-1.1-0.5-1.9-0.5c-0.6-0.3-1.6-0.5-2.5-0.8c-0.8-0.3-1.7-0.5-2.2-1.1c-0.5-0.5-1.4-1.1-1.6-1.6c-0.6-0.8-0.6-1.6-0.6-2.8
	s0.3-2.2,1.1-3.3c0.6-0.8,1.6-1.6,2.8-1.9c2.5-0.8,4.9-0.8,7.4,0c1.1,0.3,1.9,0.8,2.5,1.6c0.8,0.8,1.1,1.6,1.4,2.8l-4.7,0.8
	c0-0.3-0.3-0.8-0.6-1.1c-0.3-0.3-0.6-0.5-1.1-0.5s-0.8-0.3-1.1-0.3c-0.5,0-0.8,0-1.4,0.3c-0.3,0.3-0.8,0.3-1.1,0.5s-0.3,0.5-0.3,1.1
	c0,0.3,0,0.8,0.3,1.1c0.3,0.3,0.8,0.5,1.1,0.8c0.6,0.3,1.1,0.6,1.7,0.6c0.8,0.3,1.6,0.5,2.5,0.8c0.8,0.3,1.7,0.6,2.5,1.1
	c0.8,0.5,1.4,1.1,1.6,1.6c0.6,0.8,0.8,1.6,0.6,2.8c0,2.2-1.4,4.4-3.3,5.2c-1.4,0.5-2.8,0.8-4.1,0.8s-2.8-0.3-3.8-0.5
	c-1.1-0.3-2.2-1.1-2.8-1.9c-0.8-0.8-1.4-1.9-1.4-3L107.5,328z M129.3,313.9c1.9,0,3.9,0.3,5.5,1.4c1.6,0.8,2.8,2.2,3.9,3.6
	c1.9,3.3,1.9,7.1,0,10.7c-0.8,1.6-2.2,2.8-3.9,3.6c-1.6,0.8-3.9,1.4-5.5,1.4H121v-20.4h8.3V313.9z M129,329.9c1.6,0,3.3-0.5,4.4-1.6
	c1.1-1.1,1.6-2.8,1.6-4.4s-0.6-3.3-1.6-4.4c-1.1-1.1-2.8-1.6-4.4-1.6h-3v11.8L129,329.9z M65.4,453.1h4.9v12.4
	c0,0.8,0.3,1.4,0.6,1.9s0.8,1.1,1.4,1.4s1.4,0.5,1.9,0.3c0.8,0,1.4,0,1.9-0.3s1.1-0.8,1.4-1.4s0.6-1.4,0.6-1.9v-12.4h4.9v12.1
	c0,1.4-0.3,2.5-0.8,3.9c-0.6,1.1-1.1,1.9-1.9,2.8c-0.8,0.8-1.9,1.4-3,1.6S75.1,474,74,474c-1.7,0-3-0.3-4.4-0.8
	c-1.4-0.5-2.5-1.6-3.3-2.8c-0.8-1.4-1.4-3-1.1-4.7L65.4,453.1z M90.2,467.1c0,0.5,0.3,1.1,0.6,1.4s0.6,0.5,1.1,0.8
	c0.6,0.3,1.1,0.3,1.4,0.3c0.8,0,1.4-0.3,2.2-0.5c0.6-0.3,0.8-0.8,0.8-1.4s-0.3-0.8-0.6-1.1c-0.3-0.3-0.8-0.5-1.4-0.8
	c-0.6-0.3-1.1-0.5-1.9-0.5c-0.8-0.3-1.6-0.5-2.5-0.8c-0.8-0.3-1.6-0.5-2.2-1.1c-0.6-0.5-1.4-1.1-1.7-1.6c-0.5-0.8-0.5-1.6-0.5-2.8
	s0.3-2.2,1.1-3.3c0.5-0.8,1.6-1.6,2.8-1.9c2.5-0.8,4.9-0.8,7.4,0c1.1,0.3,1.9,0.8,2.5,1.6c0.8,0.8,1.1,1.6,1.4,2.8l-4.7,0.8
	c0-0.3-0.3-0.8-0.6-1.1c-0.3-0.3-0.5-0.5-1.1-0.5c-0.3,0-0.8-0.3-1.1-0.3c-0.6,0-0.8,0-1.4,0.3c-0.3,0.3-0.8,0.3-1.1,0.5
	c-0.3,0.3-0.3,0.5-0.3,1.1c0,0.3,0,0.8,0.3,1.1c0.3,0.3,0.8,0.5,1.1,0.8c0.6,0.3,1.1,0.6,1.6,0.6c0.8,0.3,1.7,0.5,2.5,0.8
	c0.8,0.3,1.6,0.6,2.5,1.1c0.8,0.6,1.4,1.1,1.6,1.6c0.6,0.8,0.8,1.7,0.6,2.8c0,2.2-1.4,4.4-3.3,5.2c-1.4,0.6-2.8,0.8-4.1,0.8
	s-2.8-0.3-3.9-0.5c-1.1-0.3-2.2-1.1-2.8-1.9c-0.8-0.8-1.4-1.9-1.4-3L90.2,467.1z M112.2,453.1c1.9,0,3.9,0.3,5.5,1.4
	c1.6,0.8,2.8,2.2,3.9,3.6c1.9,3.3,1.9,7.1,0,10.7c-0.8,1.6-2.2,2.8-3.9,3.6c-1.6,0.8-3.9,1.4-5.5,1.4h-8.3v-20.4L112.2,453.1
	L112.2,453.1z M111.9,469c1.6,0,3.3-0.5,4.4-1.6c1.1-1.1,1.6-2.8,1.6-4.4s-0.6-3.3-1.6-4.4c-1.1-1.1-2.8-1.6-4.4-1.6h-3v11.8
	L111.9,469L111.9,469z M152.9,331.3L152.9,331.3l0.3,8.8H151v-20.4h1.9l0.3,2.8c0.6-0.8,1.1-1.6,1.9-2.2c1.1-0.5,2.2-0.8,3.3-0.8
	c2.5,0,4.7,1.4,5.8,3.6c0.6,1.1,0.8,2.5,0.8,4.1c0,1.4-0.3,2.8-0.8,4.1c-0.6,1.1-1.4,1.9-2.5,2.5c-1.1,0.5-2.2,0.8-3.6,0.8
	c-1.1,0-2.5-0.3-3.6-0.8C154,332.9,153.2,332.1,152.9,331.3z M162.5,326.9c0-1.4-0.3-2.8-1.4-4.1c-0.8-1.1-2.2-1.6-3.6-1.4
	c-0.8,0-1.6,0.3-2.5,0.5c-0.8,0.5-1.4,1.1-1.6,1.9c-0.6,0.8-0.6,1.9-0.6,3s0.3,1.9,0.6,3c0.3,0.8,1.1,1.4,1.6,1.9
	c0.8,0.6,1.6,0.6,2.5,0.6c1.4,0,2.5-0.6,3.6-1.4C162.3,329.9,162.5,328.2,162.5,326.9L162.5,326.9z M177.6,334l-0.3-2.8
	c-0.3,0.8-1.1,1.6-1.9,2.2c-0.8,0.5-1.9,0.8-3,0.8c-0.8,0-1.9-0.3-2.8-0.5c-1.4-0.5-2.5-1.9-2.2-3.6c0-1.1,0.6-2.2,1.4-3
	c1.1-0.8,2.5-1.4,4.1-1.4l4.4-0.5v-1.1c0-0.8-0.3-1.4-0.8-1.9c-0.8-0.6-1.6-0.8-2.5-0.8c-0.8,0-1.9,0.3-2.5,0.8
	c-0.5,0.5-1.1,1.1-1.4,1.9l-1.9-0.8c0.3-1.1,1.1-2.2,2.2-3c1.1-0.8,2.5-1.1,3.8-1.1s3,0.3,4.1,1.4c1.1,0.8,1.7,2.2,1.4,3.6v9.9
	L177.6,334L177.6,334z M177.4,327.1l-4.4,0.5c-0.8,0-1.6,0.3-2.2,0.8c-0.6,0.3-0.8,1.1-0.8,1.6s0.3,1.4,0.8,1.6
	c0.6,0.5,1.4,0.5,2.2,0.5s1.9-0.3,2.8-0.5c0.5-0.3,1.1-1.1,1.4-1.6c0.3-0.8,0.5-1.6,0.5-2.5L177.4,327.1z M184,319.7h1.9v2.2
	c0.3-0.5,0.8-1.1,1.4-1.4s1.1-0.5,1.9-0.8c0.8-0.3,1.4-0.3,2.2,0v2.2c-0.8-0.3-1.4-0.3-2.2,0c-0.5,0.3-1.1,0.5-1.6,0.8
	c-0.5,0.3-0.8,1.1-1.1,1.6c-0.3,0.8-0.3,1.4-0.3,2.2v7.4H184L184,319.7z M203.2,334l-0.3-2.8c-0.3,0.8-1.1,1.6-1.9,2.2
	c-0.8,0.5-1.9,0.8-3,0.8c-0.8,0-1.9-0.3-2.8-0.5c-0.8-0.3-1.4-0.8-1.6-1.4s-0.5-1.4-0.5-2.2c0-1.1,0.5-2.2,1.4-3
	c1.1-0.8,2.5-1.4,4.1-1.4l4.4-0.5v-1.1c0-0.8-0.3-1.4-0.8-1.9c-0.8-0.6-1.6-0.8-2.5-0.8c-0.8,0-1.9,0.3-2.5,0.8
	c-0.6,0.5-1.1,1.1-1.4,1.9l-1.9-0.8c0.3-1.1,1.1-2.2,2.2-3c1.1-0.8,2.5-1.1,3.9-1.1s3,0.3,4.1,1.4c1.1,0.8,1.6,2.2,1.4,3.6v9.9
	L203.2,334L203.2,334z M203.2,327.1l-4.4,0.5c-0.8,0-1.6,0.3-2.2,0.8c-0.8,0.8-1.1,2.2-0.3,3l0.3,0.3c0.5,0.5,1.4,0.5,2.2,0.5
	s1.9-0.3,2.8-0.5c0.5-0.3,1.1-1.1,1.6-1.6s0.5-1.6,0.5-2.5L203.2,327.1z M229.6,334h-1.9l-0.3-2.2c-0.6,0.8-1.1,1.4-1.9,1.6
	s-1.6,0.5-2.8,0.5c-1.1,0-1.9-0.3-3-0.8c-0.8-0.5-1.6-1.1-1.9-2.2c-0.5-1.1-0.8-2.2-0.5-3.6v-8.5h2.2v8.3c0,1.1,0.3,2.5,0.8,3.3
	c0.8,0.8,1.6,1.1,2.8,1.1s2.2-0.3,3-1.1c0.8-1.1,1.1-2.5,1.1-3.6v-8h2.2V334H229.6z M234,319.7h1.9v2.2c0.6-0.8,1.1-1.4,1.9-1.6
	c0.8-0.5,1.6-0.5,2.8-0.5c1.1,0,1.9,0.3,3,0.8c0.8,0.6,1.6,1.4,1.9,2.2c0.5,1.1,0.8,2.2,0.8,3.6v8.3h-2.2v-8c0-1.1-0.3-2.5-1.1-3.6
	c-0.8-0.8-1.6-1.4-2.8-1.1c-1.1,0-2.2,0.3-3,1.4c-0.8,1.1-1.1,2.5-1.1,3.9v7.7h-2.5L234,319.7z M269.5,319.7h1.9v11.5
	c0,1.6-0.3,3.3-1.1,4.4c-0.8,1.4-1.9,2.2-3.6,3c-1.6,0.8-3.6,1.1-5.5,1.1l-0.3-1.9c2.8,0,4.7-0.5,6-1.6s2.2-3,2.2-4.7v-0.3h0.3
	c-1.1,1.9-3.3,3.3-5.5,3.3c-1.4,0-2.5-0.3-3.6-0.8c-1.1-0.5-1.9-1.6-2.5-2.8c-0.5-1.4-0.8-2.8-0.8-3.9c0-1.4,0.3-2.8,0.8-3.9
	c0.6-1.1,1.4-1.9,2.5-2.5c1.1-0.5,2.2-0.8,3.6-0.8c0.8,0,1.6,0,2.5,0.3c0.5,0.3,1.4,0.5,1.6,1.1c0.5,0.5,0.8,0.8,1.1,1.4
	L269.5,319.7z M259.9,326.9c0,1.4,0.3,2.8,1.4,4.1c0.8,1.1,2.2,1.6,3.6,1.4c0.8,0,1.6-0.3,2.5-0.5c0.8-0.5,1.4-1.1,1.6-1.9
	c0.5-0.8,0.5-1.9,0.5-3s-0.3-1.9-0.5-3c-0.3-0.8-1.1-1.4-1.6-1.9c-1.9-1.1-4.4-0.8-5.8,0.8C260.4,324.1,259.9,325.5,259.9,326.9
	L259.9,326.9z M276.1,319.7h1.9v2.2c0.3-0.5,0.8-1.1,1.4-1.4s1.1-0.5,1.9-0.8c0.8-0.3,1.4-0.3,2.2,0v2.2c-0.8-0.3-1.4-0.3-2.2,0
	c-0.5,0.3-1.1,0.5-1.6,0.8c-0.5,0.5-0.8,1.1-1.1,1.6c-0.3,0.8-0.3,1.4-0.3,2.2v7.7h-2.2L276.1,319.7z M298.4,334h-1.9l-0.3-2.2
	c-0.5,0.8-1.1,1.4-1.9,1.6c-0.8,0.3-1.6,0.5-2.8,0.5s-1.9-0.3-3-0.8c-0.8-0.5-1.6-1.1-1.9-2.2c-0.6-1.1-0.8-2.2-0.6-3.6v-8.5h2.2
	v8.3c0,1.1,0.3,2.5,1.1,3.3c0.8,0.8,1.6,1.1,2.8,1.1s2.2-0.3,3-1.1c0.8-1.1,1.1-2.5,1.1-3.6v-8h2.2L298.4,334z M304.7,331.3
	L304.7,331.3l0.3,8.8h-2.2v-20.4h1.9l0.3,2.8c0.5-0.8,1.1-1.6,1.9-2.2c1.1-0.5,2.2-0.8,3.3-0.8c2.5,0,4.7,1.4,5.8,3.6
	c0.5,1.1,0.8,2.5,0.8,4.1c0,1.4-0.3,2.8-0.8,4.1c-0.6,1.1-1.4,1.9-2.5,2.5c-1.1,0.5-2.2,0.8-3.6,0.8s-2.5-0.3-3.6-0.8
	C306.1,332.9,305.3,332.1,304.7,331.3L304.7,331.3z M314.6,326.9c0-1.4-0.3-2.8-1.4-4.1c-0.8-1.1-2.2-1.6-3.6-1.4
	c-0.8,0-1.6,0.3-2.5,0.5c-0.8,0.5-1.4,1.1-1.6,1.9c-0.5,0.8-0.5,1.9-0.5,3s0.3,1.9,0.5,3c0.3,0.8,1.1,1.4,1.6,1.9
	c0.8,0.6,1.6,0.6,2.5,0.6c1.4,0,2.5-0.6,3.6-1.4C314,329.9,314.6,328.2,314.6,326.9L314.6,326.9z M326.7,334.3
	c-1.4,0-2.5-0.3-3.9-0.8c-1.1-0.5-1.9-1.4-2.5-2.5c-1.4-2.5-1.4-5.5,0-8c0.5-1.1,1.6-1.9,2.8-2.5c1.1-0.5,2.5-0.8,3.9-0.8
	s2.5,0.3,3.9,0.8c1.1,0.5,1.9,1.4,2.8,2.5c0.5,1.1,1.1,2.5,0.8,3.9c0,1.4-0.3,2.8-0.8,4.1c-0.5,1.1-1.6,1.9-2.8,2.5
	C329.2,334,328.1,334.3,326.7,334.3L326.7,334.3z M326.7,332.4c0.8,0,1.6-0.3,2.5-0.5c0.8-0.5,1.4-1.1,1.9-1.9
	c0.5-0.8,0.8-1.9,0.8-3s-0.3-2.2-0.8-3c-0.5-0.8-1.1-1.4-1.9-1.6c-0.8-0.3-1.6-0.6-2.5-0.6s-1.6,0.3-2.5,0.6
	c-0.8,0.5-1.4,1.1-1.9,1.9s-0.8,1.9-0.5,3c0,1.1,0.3,2.2,0.5,3c0.3,0.8,1.1,1.4,1.6,1.9C325,332.1,325.9,332.4,326.7,332.4
	L326.7,332.4z M13.2,353.5L13.2,353.5l-0.3-9.4h2.2v20.9h-1.9l-0.3-2.8c-0.6,0.8-1.1,1.4-1.9,1.9c-1.1,0.5-2.2,0.8-3.3,0.8
	c-1.4,0-2.5-0.3-3.6-0.8c-1.1-0.5-1.9-1.6-2.5-2.8c-0.5-1.4-0.8-2.8-0.8-3.9c0-1.4,0.3-2.8,0.8-3.9s1.4-1.9,2.5-2.8
	c1.1-0.5,2.2-0.8,3.6-0.8c1.1,0,2.5,0.3,3.6,0.8C12.1,351.9,12.6,352.7,13.2,353.5z M3.6,357.9c0,1.4,0.3,2.8,1.4,4.1
	c0.6,0.8,1.9,1.4,3.3,1.1c0.8,0,1.6-0.3,2.5-0.5s1.4-1.1,1.6-1.9c0.5-0.8,0.5-1.9,0.5-3s-0.3-1.7-0.5-2.8c-0.3-0.8-1.1-1.4-1.6-1.9
	s-1.7-0.6-2.5-0.3c-1.4,0-2.8,0.5-3.6,1.4C3.8,354.9,3.3,356.5,3.6,357.9L3.6,357.9z M25.6,365.4c-1.4,0-2.5-0.3-3.6-1.1
	c-1.1-0.5-1.9-1.6-2.5-2.8c-0.5-1.1-0.8-2.5-0.8-3.9s0.3-2.8,0.8-3.9c0.5-1.1,1.4-1.9,2.5-2.5c1.1-0.5,2.2-1.1,3.6-1.1
	s2.5,0.3,3.6,0.8c1.1,0.5,1.9,1.4,2.5,2.5s0.8,2.2,0.8,3.6c0,0.3,0,0.5,0,0.5c0,0.3,0,0.5,0,0.8H20.9c0,0.8,0.3,1.6,0.5,2.5
	c0.8,1.4,2.2,2.2,3.9,2.2c1.1,0,1.9-0.3,2.8-0.5s1.4-1.1,1.7-1.9l1.9,0.8c-0.5,1.1-1.4,2.2-2.5,2.8C28.3,365.1,27,365.4,25.6,365.4
	L25.6,365.4z M30,356.5c0-0.8-0.3-1.6-0.5-2.2c-0.3-0.5-0.8-1.1-1.7-1.6c-0.8-0.3-1.6-0.5-2.5-0.5c-0.8,0-1.4,0.3-2.2,0.5
	s-1.1,0.8-1.6,1.6c-0.5,0.5-0.5,1.4-0.8,2.2H30z M56.9,344.7v1.9H46.5v6.9c0.5-0.5,1.1-1.1,1.9-1.6c0.8-0.3,1.9-0.5,3-0.5
	s2.2,0.3,3.3,0.5c0.8,0.3,1.7,0.8,2.2,1.6c0.6,0.5,0.8,1.4,1.1,2.2s0.3,1.6,0.3,2.2c0,1.4-0.3,2.5-0.8,3.6c-0.6,1.1-1.4,1.9-2.5,2.8
	s-2.5,1.1-3.8,1.1s-2.5-0.3-3.6-0.8c-1.1-0.5-1.9-1.1-2.5-1.9c-0.6-0.8-1.1-1.9-1.1-3h2.2c0.3,1.1,0.8,2.2,1.7,2.8
	c0.8,0.5,2.2,1.1,3.3,0.8c0.8,0,1.9-0.3,2.8-0.5c0.8-0.5,1.4-1.1,1.7-1.9c0.3-0.8,0.6-1.6,0.6-2.8c0.3-2.5-1.4-4.4-3.8-4.7
	c-0.3,0-0.6,0-0.8,0c-1.1,0-1.9,0.3-3,0.8c-0.8,0.5-1.4,1.1-1.9,1.9h-2.2v-11.5C44.3,344.7,56.9,344.7,56.9,344.7z M61.9,354.9
	c0-1.4,0-2.8,0.3-4.1c0.3-1.1,0.6-2.2,1.1-3.3c0.6-0.8,1.4-1.6,2.2-2.2c1.1-0.5,2.5-0.8,3.6-0.8c1.4,0,2.5,0.3,3.6,0.8
	c0.8,0.5,1.7,1.4,2.2,2.2c0.6,1.1,0.8,2.2,1.1,3.3c0.3,1.4,0.3,2.8,0.3,4.1s0,2.8-0.3,4.1c-0.3,1.1-0.6,2.2-1.1,3.3
	c-0.5,0.8-1.4,1.6-2.2,2.2c-1.1,0.5-2.5,0.8-3.6,0.8c-1.4,0-2.5-0.3-3.6-0.8c-0.8-0.5-1.7-1.4-2.2-2.2c-0.6-1.1-0.8-2.2-1.1-3.3
	C61.9,357.6,61.9,356.3,61.9,354.9L61.9,354.9z M74,354.9c0-1.1,0-2.2-0.3-3.3c0-0.8-0.3-1.9-0.6-2.8s-0.8-1.4-1.4-1.9
	c-0.8-0.5-1.7-0.8-2.8-0.5c-0.8,0-1.9,0.3-2.5,0.5c-0.6,0.5-1.1,1.1-1.4,1.9c-0.3,0.8-0.6,1.6-0.6,2.8s-0.3,2.2-0.3,3.3
	c0,1.1,0,2.2,0.3,3.3c0,0.8,0.3,1.9,0.6,2.8s0.8,1.4,1.4,1.9c0.8,0.5,1.7,0.5,2.5,0.5s1.9-0.3,2.8-0.5c0.6-0.5,1.1-1.1,1.4-1.9
	c0.3-0.8,0.6-1.6,0.6-2.8C73.7,357.1,74,356,74,354.9L74,354.9z M87.7,360.1L87.7,360.1l0.3,8.8h-2.2v-20.4H88l0.3,2.8
	c0.6-0.8,1.1-1.6,1.9-2.2c1.1-0.5,2.2-0.8,3.3-0.8c2.5,0,4.7,1.4,5.8,3.6c0.6,1.1,0.8,2.5,0.8,4.1c0,1.4-0.3,2.8-0.8,3.9
	s-1.4,1.9-2.5,2.5c-1.1,0.5-2.2,0.8-3.6,0.8c-1.1,0-2.5-0.3-3.6-0.8C88.8,362,88.3,361.2,87.7,360.1L87.7,360.1z M97.6,355.7
	c0-1.4-0.3-2.8-1.4-4.1c-0.8-1.1-2.2-1.6-3.6-1.4c-0.8,0-1.6,0.3-2.5,0.5c-0.8,0.5-1.4,1.1-1.6,1.9c-0.6,0.8-0.6,1.9-0.6,3
	s0.3,1.9,0.6,3c0.3,0.8,1.1,1.4,1.6,1.9c0.5,0.6,1.6,0.6,2.5,0.6c1.4,0,2.5-0.6,3.6-1.4C97.1,358.8,97.6,357.4,97.6,355.7z
	 M109.4,363.4c-1.4,0-2.5-0.3-3.6-1.1s-1.9-1.6-2.5-2.8s-0.8-2.5-0.8-3.9s0.3-2.8,0.8-3.9s1.4-1.9,2.5-2.5c1.1-0.5,2.2-1.1,3.6-1.1
	s2.5,0.3,3.6,0.8c1.1,0.5,1.9,1.4,2.5,2.5s0.8,2.2,0.8,3.6c0,0.3,0,0.5,0,0.5c0,0.3,0,0.5,0,0.8h-11.3c0,0.8,0.3,1.6,0.6,2.5
	c0.3,0.5,0.8,1.4,1.6,1.6s1.4,0.5,2.2,0.5c1.1,0,1.9-0.3,2.8-0.5s1.4-1.1,1.6-1.9l1.9,0.8c-0.6,1.1-1.4,2.2-2.5,2.8
	C112.2,363.1,110.8,363.4,109.4,363.4L109.4,363.4z M113.9,354.9c0-0.8-0.3-1.6-0.6-2.2s-0.8-1.1-1.6-1.6c-0.8-0.3-1.7-0.5-2.5-0.5
	c-0.8,0-1.4,0.3-2.2,0.5c-0.6,0.3-1.1,0.8-1.6,1.6c-0.6,0.5-0.6,1.4-0.8,2.2H113.9z M119.9,348.6h1.9v2.2c0.3-0.5,0.8-1.1,1.4-1.4
	s1.1-0.5,1.9-0.8c0.8-0.3,1.4-0.3,2.2,0v2.2c-0.8-0.3-1.4-0.3-2.2,0c-0.6,0.3-1.1,0.5-1.6,0.8c-0.6,0.5-0.8,1.1-1.1,1.6
	c-0.3,0.8-0.3,1.4-0.3,2.2v7.7h-2.2C119.9,363.1,119.9,348.6,119.9,348.6z M131.4,358.8c0,0.5,0.3,1.1,0.6,1.4
	c0.3,0.3,0.8,0.5,1.1,0.8c0.6,0.3,1.1,0.3,1.6,0.3c0.8,0,1.6-0.3,2.5-0.5c0.6-0.3,0.8-0.8,0.8-1.6c0-0.5-0.3-0.8-0.6-1.1
	c-0.3-0.3-0.8-0.5-1.4-0.8c-0.6-0.3-1.1-0.5-1.6-0.5l-1.6-0.3c-0.3-0.3-0.8-0.3-1.4-0.8c-0.6-0.3-0.8-0.5-1.4-1.1
	c-0.3-0.5-0.6-1.1-0.6-1.9c0-0.8,0.3-1.6,0.6-2.2c0.6-0.5,1.1-1.1,1.9-1.4s1.9-0.5,2.8-0.5c1.1,0,2.2,0.3,3.3,0.8
	c0.8,0.5,1.6,1.4,1.9,2.5l-1.9,0.8c0-0.6-0.3-0.8-0.8-1.1c-0.3-0.3-0.8-0.6-1.1-0.6c-0.6,0-0.8-0.3-1.4-0.3c-0.8,0-1.4,0.3-2.2,0.6
	c-0.6,0.3-0.8,0.8-0.8,1.6c0,0.3,0,0.5,0.3,0.8c0.3,0.3,0.6,0.6,0.8,0.6c0.3,0.3,0.8,0.3,1.1,0.3c0.6,0,0.8,0.3,1.4,0.3
	c0.6,0.3,1.1,0.3,1.6,0.5c0.6,0.3,1.1,0.5,1.6,0.8c0.6,0.3,0.8,0.8,1.1,1.1c0.3,0.5,0.6,1.1,0.6,1.9c0,0.8-0.3,1.6-0.8,2.2
	c-0.6,0.5-1.1,1.1-1.9,1.4s-1.9,0.5-2.8,0.5c-1.4,0-2.8-0.3-3.9-1.1s-1.6-1.6-1.9-3L131.4,358.8z M150.4,363.4
	c-1.4,0-2.5-0.3-3.9-0.8c-1.1-0.5-1.9-1.4-2.5-2.5c-1.4-2.5-1.4-5.5,0-8c0.6-1.1,1.6-1.9,2.8-2.5c1.1-0.5,2.5-0.8,3.9-0.8
	s2.5,0.3,3.9,0.8c1.1,0.6,1.9,1.4,2.5,2.5s1.1,2.5,0.8,3.9c0,1.4-0.3,2.8-0.8,4.1c-0.6,1.1-1.6,1.9-2.8,2.5
	C152.9,363.1,151.8,363.4,150.4,363.4L150.4,363.4z M150.4,361.2c0.8,0,1.6-0.3,2.5-0.5c0.8-0.5,1.4-1.1,1.9-1.9
	c0.6-0.8,0.8-1.9,0.8-3s-0.3-2.2-0.8-3c-0.6-0.8-1.1-1.4-1.9-1.6c-1.1-0.3-1.7-0.6-2.5-0.6s-1.6,0.3-2.5,0.5
	c-0.8,0.5-1.4,1.1-1.9,1.9c-0.6,0.8-0.8,1.9-0.6,3c0,1.1,0.3,2.2,0.6,3c0.3,0.8,1.1,1.4,1.6,1.9
	C148.8,361.2,149.6,361.2,150.4,361.2z M161.1,348.6h1.9v2.2c0.6-0.8,1.1-1.4,1.9-1.6c0.8-0.5,1.6-0.5,2.8-0.5s1.9,0.3,3,0.8
	c0.8,0.6,1.6,1.4,1.9,2.2c0.6,1.1,0.8,2.2,0.8,3.6v8.3h-2.2v-8c0-1.1-0.3-2.5-1.1-3.6c-0.8-0.8-1.6-1.4-2.8-1.1
	c-1.1,0-2.2,0.3-3,1.4c-0.8,1.1-1.1,2.5-1.1,3.9v7.7h-2.2V348.6z M186.7,363.1l-0.3-2.8c-0.3,0.8-1.1,1.6-1.9,2.2
	c-0.8,0.5-1.9,0.8-3,0.8c-0.8,0-1.9-0.3-2.8-0.5c-1.4-0.5-2.5-1.9-2.2-3.6c0-1.1,0.5-2.2,1.4-3c1.1-0.8,2.5-1.4,4.1-1.4l4.4-0.5
	v-1.1c0-0.8-0.3-1.4-0.8-1.9c-0.8-0.5-1.6-0.8-2.5-0.8s-1.9,0.3-2.5,0.8c-0.5,0.5-1.1,1.1-1.4,1.9l-1.9-0.8c0.3-1.1,1.1-2.2,2.2-3
	c1.1-0.8,2.5-1.1,3.9-1.1s3,0.3,4.1,1.4c1.1,0.8,1.6,2.2,1.4,3.6v9.9H186.7z M186.5,356l-4.4,0.5c-0.8,0-1.6,0.3-2.2,0.8
	c-0.5,0.3-0.8,1.1-0.8,1.6s0.3,1.4,0.8,1.6c0.5,0.5,1.4,0.5,2.2,0.5c0.8,0,1.9-0.3,2.8-0.5c0.5-0.3,1.1-1.1,1.4-1.6
	c0.3-0.8,0.5-1.6,0.5-2.5L186.5,356z M287.1,473.1l-0.3-2.8c-0.3,0.8-1.1,1.6-1.9,2.2c-0.8,0.5-1.9,0.8-3,0.8
	c-0.8,0-1.9-0.3-2.8-0.5c-1.4-0.5-2.5-1.9-2.2-3.6c0-1.1,0.5-2.2,1.4-3c1.1-0.8,2.5-1.4,4.1-1.4l4.4-0.5v-1.1c0-0.8-0.3-1.4-0.8-1.9
	c-0.8-0.5-1.6-0.8-2.5-0.8s-1.9,0.3-2.5,0.8c-0.5,0.5-1.1,1.1-1.4,1.9l-1.9-0.8c0.3-1.1,1.1-2.2,2.2-3c1.1-0.8,2.5-1.1,3.9-1.1
	s3,0.3,4.1,1.4c1.1,0.8,1.6,2.2,1.4,3.6v9.9H287.1z M287.1,466l-4.4,0.5c-0.8,0-1.6,0.3-2.2,0.8c-0.5,0.3-0.8,1.1-0.8,1.6
	s0.3,1.4,0.8,1.6c0.5,0.5,1.4,0.5,2.2,0.5s1.9-0.3,2.8-0.5c0.5-0.3,1.1-1.1,1.4-1.6c0.3-0.8,0.5-1.6,0.5-2.5V466H287.1z
	 M194.1,358.8c0,0.5,0.3,1.1,0.5,1.4s0.8,0.5,1.1,0.8c0.5,0.3,1.1,0.3,1.6,0.3c0.8,0,1.6-0.3,2.5-0.5c0.5-0.3,0.8-0.8,0.8-1.6
	c0-0.5-0.3-0.8-0.5-1.1s-0.8-0.5-1.4-0.8c-0.5-0.3-1.1-0.5-1.6-0.5l-1.6-0.3c-0.3-0.3-0.8-0.3-1.4-0.8c-0.5-0.3-0.8-0.5-1.4-1.1
	c-0.3-0.3-0.5-1.1-0.3-1.6c0-0.8,0.3-1.6,0.5-2.2s1.1-1.1,1.9-1.4c0.8-0.3,1.9-0.5,2.8-0.5c1.1,0,2.2,0.3,3.3,0.8
	c0.8,0.5,1.6,1.4,1.9,2.5l-2.2,0.5c0-0.5-0.3-0.8-0.8-1.1c-0.3-0.3-0.8-0.5-1.1-0.5c-0.5,0-0.8-0.3-1.4-0.3c-0.8,0-1.4,0.3-2.2,0.5
	c-0.6,0.3-0.8,0.8-0.8,1.6c0,0.3,0,0.5,0.3,0.8c0.3,0.3,0.5,0.5,0.8,0.5c0.3,0.3,0.8,0.3,1.1,0.3c0.5,0,0.8,0.3,1.4,0.3
	c0.5,0.3,1.1,0.3,1.6,0.5c0.5,0.3,1.1,0.6,1.6,0.8s0.8,0.8,1.1,1.1c0.3,0.5,0.5,1.1,0.5,1.9c0,0.8-0.3,1.6-0.8,2.2
	c-0.5,0.5-1.1,1.1-1.9,1.4c-0.8,0.3-1.9,0.5-2.8,0.5c-1.4,0-2.8-0.3-3.9-1.1c-1.1-0.8-1.6-1.6-1.9-3L194.1,358.8z M39,463
	c0-1.4,0-2.8,0.5-4.1c0.3-1.1,0.8-2.2,1.4-3.3c0.5-0.8,1.7-1.6,2.5-2.2c1.1-0.5,2.5-0.8,3.8-0.8s2.8,0.3,3.8,0.8
	c1.1,0.5,1.9,1.1,2.5,2.2c0.8,1.1,1.1,2.2,1.4,3.3c0.5,2.8,0.5,5.8,0,8.5c-0.3,1.1-0.8,2.2-1.4,3.3c-0.6,0.8-1.7,1.6-2.5,2.2
	c-1.1,0.5-2.5,0.8-3.8,0.8s-2.8-0.3-3.8-0.8c-1.1-0.5-1.9-1.1-2.5-2.2s-1.1-2.2-1.4-3.3C39.3,466,39,464.4,39,463L39,463z M50.3,463
	c0-0.8,0-1.6,0-2.2c0-0.5-0.3-1.4-0.6-1.9c-0.3-0.5-0.5-1.1-0.8-1.4c-0.6-0.3-1.1-0.5-1.7-0.5c-0.5,0-1.1,0.3-1.7,0.5
	c-0.5,0.3-0.8,0.8-0.8,1.4c-0.3,0.5-0.3,1.4-0.3,1.9c0,0.8,0,1.4,0,2.2s0,1.6,0,2.5c0,0.5,0.3,1.4,0.3,1.9c0.3,0.5,0.6,1.1,0.8,1.4
	c0.6,0.3,1.1,0.5,1.7,0.5c0.6,0,1.1,0,1.7-0.5c0.6-0.3,0.8-0.8,0.8-1.4c0.3-0.5,0.3-1.4,0.6-1.9C50.3,464.6,50.3,463.8,50.3,463
	L50.3,463z M20.6,463c0-1.4,0-2.8,0.5-4.1c0.3-1.1,0.8-2.2,1.4-3.3c0.5-0.8,1.7-1.6,2.5-2.2c1.1-0.5,2.5-0.8,3.9-0.8
	s2.8,0.3,3.8,0.8c1.1,0.5,1.9,1.1,2.5,2.2c0.8,1.1,1.1,2.2,1.4,3.3c0.5,2.8,0.5,5.8,0,8.5c-0.3,1.1-0.8,2.2-1.4,3.3
	c-0.6,0.8-1.7,1.6-2.5,2.2c-1.1,0.5-2.5,0.8-3.8,0.8s-2.8-0.3-3.9-0.8c-1.1-0.5-1.9-1.1-2.5-2.2s-1.1-2.2-1.4-3.3
	C20.9,466,20.6,464.4,20.6,463L20.6,463z M31.9,463c0-0.8,0-1.6,0-2.2c0-0.5-0.3-1.4-0.5-1.9c-0.3-0.5-0.5-1.1-0.8-1.4
	s-1.1-0.5-1.7-0.5c-0.5,0-1.1,0.3-1.7,0.5c-0.5,0.3-0.8,0.8-0.8,1.4c-0.3,0.5-0.3,1.4-0.3,1.9c0,0.8,0,1.4,0,2.2s0,1.6,0,2.5
	c0,0.5,0.3,1.4,0.3,1.9c0.3,0.5,0.5,1.1,0.8,1.4c0.5,0.3,1.1,0.5,1.7,0.5s1.1,0,1.7-0.5c0.5-0.3,0.8-0.8,0.8-1.4
	c0.3-0.5,0.3-1.4,0.5-1.9C31.9,464.6,31.9,463.8,31.9,463L31.9,463z M135,470.1L135,470.1l0.3,8.8h-2.2v-20.4h1.9l0.3,2.8
	c0.6-0.8,1.1-1.6,1.9-2.2c1.1-0.5,2.2-0.8,3.3-0.8c2.5,0,4.7,1.4,5.8,3.6c0.6,1.1,0.8,2.5,0.8,4.1c0,1.4-0.3,2.8-0.8,4.1
	c-0.6,1.1-1.4,1.9-2.5,2.5c-1.1,0.5-2.2,0.8-3.6,0.8c-1.1,0-2.5-0.3-3.6-0.8C136.4,472,135.6,471.2,135,470.1L135,470.1z M144.9,466
	c0-1.4-0.3-2.8-1.4-4.1c-0.8-1.1-2.2-1.6-3.6-1.4c-0.8,0-1.6,0.3-2.5,0.5c-0.8,0.5-1.4,1.1-1.6,1.9c-0.6,0.8-0.6,1.9-0.6,3
	s0.3,1.9,0.6,3c0.3,0.8,1.1,1.4,1.6,1.9c0.8,0.6,1.6,0.6,2.5,0.6c1.4,0,2.5-0.6,3.6-1.4C144.4,468.8,144.9,467.4,144.9,466
	L144.9,466z M157,473.4c-1.4,0-2.5-0.3-3.9-0.8c-1.1-0.5-1.9-1.4-2.5-2.5c-1.4-2.5-1.4-5.5,0-8c0.6-1.1,1.6-1.9,2.8-2.5
	c1.1-0.5,2.5-0.8,3.9-0.8s2.5,0.3,3.9,0.8c1.1,0.6,1.9,1.4,2.8,2.5c0.6,1.1,1.1,2.5,0.8,4.1c0,1.4-0.3,2.8-0.8,4.1
	c-0.6,1.1-1.6,1.9-2.8,2.5C159.8,473.1,158.4,473.4,157,473.4L157,473.4z M157,471.2c0.8,0,1.6-0.3,2.5-0.5c0.8-0.5,1.4-1.1,1.9-1.9
	c0.6-0.8,0.8-1.9,0.8-3s-0.3-2.2-0.8-3c-0.6-0.8-1.1-1.4-1.9-1.6c-1.4-0.8-3.3-0.8-4.7,0c-0.8,0.5-1.4,1.1-1.9,1.9s-0.8,1.9-0.6,3
	c0,1.1,0.3,2.2,0.6,3c0.3,0.8,1.1,1.4,1.6,1.9C155.4,471.2,156.2,471.2,157,471.2L157,471.2z M168,458.6h1.9v2.2
	c0.3-0.5,0.8-1.1,1.4-1.4s1.1-0.5,1.9-0.8c0.8-0.3,1.4-0.3,2.2,0v2.2c-0.8-0.3-1.4-0.3-2.2,0c-0.6,0.3-1.1,0.5-1.6,0.8
	c-0.5,0.3-0.8,1.1-1.1,1.6c-0.3,0.8-0.3,1.4-0.3,2.2v7.7H168L168,458.6z M188.4,470.1L188.4,470.1l0.3,8.8h-2.2v-20.4h1.9l0.3,2.8
	c0.5-0.8,1.1-1.6,1.9-2.2c1.1-0.5,2.2-0.8,3.3-0.8c2.5,0,4.7,1.4,5.8,3.6c0.6,1.1,0.8,2.5,0.8,4.1c0,1.4-0.3,2.8-0.8,4.1
	c-0.5,1.1-1.4,1.9-2.5,2.5c-1.1,0.5-2.2,0.8-3.6,0.8c-1.1,0-2.5-0.3-3.6-0.8C189.5,472,188.9,471.2,188.4,470.1L188.4,470.1z
	 M198.3,466c0-1.4-0.3-2.8-1.4-4.1c-0.8-1.1-2.2-1.6-3.6-1.4c-0.8,0-1.6,0.3-2.5,0.5c-0.8,0.5-1.4,1.1-1.6,1.9
	c-0.5,0.8-0.5,1.9-0.5,3s0.3,1.9,0.5,3c0.3,0.8,0.8,1.4,1.6,1.9c0.8,0.6,1.7,0.6,2.5,0.6c1.4,0,2.5-0.6,3.6-1.4
	C197.7,468.8,198.3,467.4,198.3,466L198.3,466z M210.1,473.4c-1.4,0-2.5-0.3-3.6-1.1c-1.1-0.5-1.9-1.6-2.5-2.8
	c-0.5-1.1-0.8-2.5-0.8-3.9s0.3-2.8,0.8-3.9c0.5-1.1,1.4-1.9,2.5-2.5c1.1-0.5,2.5-1.1,3.6-1.1c1.4,0,2.5,0.3,3.6,0.8
	c1.1,0.5,1.9,1.4,2.5,2.5c0.5,1.1,0.8,2.2,0.8,3.6c0,0.3,0,0.5,0,0.5c0,0.3,0,0.5,0,0.8h-11.3c0,0.8,0.3,1.6,0.5,2.5
	c0.3,0.5,0.8,1.4,1.7,1.6s1.4,0.5,2.2,0.5c1.1,0,1.9-0.3,2.8-0.5c0.8-0.3,1.4-1.1,1.6-1.9l1.9,0.8c-0.6,1.1-1.4,2.2-2.5,2.8
	C212.9,473.1,211.5,473.4,210.1,473.4L210.1,473.4z M214.5,464.6c0-1.6-0.8-3-2.2-3.9c-0.8-0.3-1.6-0.5-2.5-0.5
	c-0.8,0-1.4,0.3-2.2,0.5c-0.6,0.3-1.1,0.8-1.7,1.6c-0.5,0.5-0.5,1.4-0.8,2.2H214.5L214.5,464.6z M220.5,458.6h1.9v2.2
	c0.3-0.5,0.8-1.1,1.4-1.4c0.6-0.3,1.1-0.5,1.9-0.8c0.8-0.3,1.4-0.3,2.2,0v2.2c-0.8-0.3-1.4-0.3-2.2,0c-0.6,0.3-1.1,0.5-1.6,0.8
	c-0.6,0.3-0.8,1.1-1.1,1.6c-0.3,0.8-0.3,1.4-0.3,2.2v7.7h-2.2L220.5,458.6z M232.1,468.8c0,0.5,0.3,1.1,0.5,1.4s0.8,0.5,1.1,0.8
	c0.5,0.3,1.1,0.3,1.6,0.3c0.8,0,1.6-0.3,2.5-0.5c0.5-0.3,0.8-0.8,0.8-1.6c0-0.5-0.3-0.8-0.5-1.1c-0.3-0.3-0.8-0.5-1.4-0.8
	c-0.6-0.3-1.1-0.5-1.7-0.5c-0.5,0-1.1-0.3-1.6-0.3c-0.5-0.3-1.1-0.3-1.6-0.8c-0.5-0.3-0.8-0.5-1.4-1.1c-0.3-0.5-0.5-1.1-0.5-1.9
	c0-0.8,0.3-1.6,0.5-2.2c0.5-0.5,1.1-1.1,1.9-1.4c0.8-0.3,1.9-0.5,2.8-0.5c1.1,0,2.2,0.3,3.3,0.8c0.8,0.5,1.6,1.4,1.9,2.5l-1.9,0.8
	c0-0.6-0.3-0.8-0.8-1.1c-0.3-0.3-0.8-0.6-1.1-0.6c-0.5,0-0.8-0.3-1.4-0.3c-0.8,0-1.4,0.3-2.2,0.6c-0.5,0.3-0.8,0.8-0.8,1.6
	c0,0.3,0,0.5,0.3,0.8c0.3,0.3,0.5,0.6,0.8,0.6c0.3,0.3,0.8,0.3,1.1,0.3c0.5,0,0.8,0.3,1.4,0.3c0.5,0.3,1.1,0.3,1.6,0.5
	c0.6,0.3,1.1,0.5,1.6,0.8c0.6,0.3,0.8,0.8,1.4,1.1c0.3,0.5,0.6,1.1,0.6,1.9c0,0.8-0.3,1.6-0.8,2.2c-0.5,0.5-1.1,1.1-1.9,1.4
	c-0.8,0.3-1.9,0.5-2.8,0.5c-1.4,0-2.8-0.3-3.9-1.1s-1.6-1.6-1.9-3L232.1,468.8z M250.8,473.4c-1.4,0-2.5-0.3-3.9-0.8
	c-1.1-0.5-1.9-1.4-2.5-2.5c-1.4-2.5-1.4-5.5,0-8c0.6-1.1,1.7-1.9,2.8-2.8c1.1-0.5,2.5-0.8,3.9-0.8s2.5,0.3,3.9,0.8
	c1.1,0.5,1.9,1.4,2.8,2.8c0.5,1.1,1.1,2.5,0.8,3.9c0,1.4-0.3,2.8-0.8,4.1c-0.5,1.1-1.6,1.9-2.8,2.8
	C253.5,473.1,252.2,473.4,250.8,473.4L250.8,473.4z M250.8,471.2c0.8,0,1.6-0.3,2.5-0.5c0.8-0.5,1.4-1.1,1.9-1.9
	c0.6-0.8,0.8-1.9,0.8-3s-0.3-2.2-0.8-3c-0.5-0.8-1.1-1.4-1.9-1.6c-1.4-0.8-3.3-0.8-4.7,0c-0.8,0.3-1.4,1.1-1.9,1.9
	c-0.6,0.8-0.8,1.9-0.6,3c0,1.1,0.3,2.2,0.6,3c0.3,0.8,1.1,1.4,1.6,1.9C249.4,471.2,250.3,471.2,250.8,471.2L250.8,471.2z
	 M261.8,458.6h1.9v2.2c0.5-0.8,1.1-1.4,1.9-1.6c0.8-0.5,1.6-0.5,2.8-0.5s1.9,0.3,3,0.8c0.8,0.6,1.6,1.4,1.9,2.2
	c0.5,1.1,0.8,2.2,0.8,3.6v8.3H272v-8c0-1.1-0.3-2.5-1.1-3.6c-0.8-0.8-1.6-1.4-2.8-1.1c-1.1,0-2.2,0.3-3,1.4
	c-0.8,1.1-1.1,2.5-1.1,3.9v7.7h-2.2L261.8,458.6z M307.7,473.1c-1.4,0-2.5-0.3-3.6-1.1c-1.1-0.5-1.9-1.6-2.5-2.8
	c-0.5-1.1-0.8-2.5-0.8-3.9s0.3-2.8,0.8-3.9c0.5-1.1,1.4-1.9,2.5-2.5c1.1-0.5,2.5-1.1,3.6-1.1c1.4,0,2.5,0.3,3.6,0.8
	c1.1,0.5,1.9,1.4,2.5,2.5c0.5,1.1,0.8,2.2,0.8,3.6c0,0.3,0,0.5,0,0.5c0,0.3,0,0.5,0,0.8h-11.3c0,0.8,0.3,1.6,0.5,2.5
	c0.3,0.5,0.8,1.4,1.6,1.6c0.8,0.3,1.4,0.5,2.2,0.5c1.1,0,1.9-0.3,2.8-0.5s1.4-1.1,1.6-1.9l1.9,0.8c-0.5,1.1-1.4,2.2-2.5,2.8
	C310.2,472.9,308.8,473.1,307.7,473.1L307.7,473.1z M312.1,464.6c0-0.8-0.3-1.6-0.5-2.2c-0.3-0.5-0.8-1.1-1.6-1.6
	c-0.8-0.3-1.6-0.5-2.5-0.5s-1.4,0.3-2.2,0.5c-0.5,0.3-1.1,0.8-1.6,1.6c-0.5,0.5-0.5,1.4-0.8,2.2H312.1z M317.9,458.6h1.9v2.2
	c0.5-0.8,1.1-1.4,1.9-1.6c0.8-0.5,1.6-0.5,2.8-0.5s1.9,0.3,3,0.8c0.8,0.6,1.6,1.4,1.9,2.2c0.6,1.1,0.8,2.2,0.8,3.6v8.3h-2.2v-8
	c0-1.1-0.3-2.5-1.1-3.6c-0.8-0.8-1.7-1.4-2.8-1.1c-1.1,0-2.2,0.3-3,1.4c-0.8,1.1-1.1,2.5-1.1,3.9v7.7h-2.2L317.9,458.6z M3,488h2.2
	v14.6H3V488z M4.1,485.3c-0.6,0-0.8-0.3-1.1-0.5c-0.5-0.5-0.5-1.7,0-2.2c0.3-0.3,0.8-0.5,1.1-0.5c0.8,0,1.6,0.8,1.6,1.7
	C5.5,484.7,4.9,485.3,4.1,485.3z M9.9,488h1.9v2.2c0.6-0.8,1.1-1.4,1.9-1.7c0.8-0.5,1.6-0.5,2.7-0.5s1.9,0.3,3,0.8
	c0.8,0.5,1.6,1.4,1.9,2.2c0.6,1.1,0.8,2.2,0.8,3.6v8.3h-2.2v-8c0-1.1-0.3-2.5-1.1-3.6c-0.8-0.8-1.6-1.4-2.8-1.1
	c-1.1,0-2.2,0.3-3,1.4c-0.8,1.1-1.1,2.5-1.1,3.9v7.7H9.9V488z M27.5,498.2c0,0.5,0.3,1.1,0.5,1.4c0.3,0.3,0.8,0.5,1.1,0.8
	c0.5,0.3,1.1,0.3,1.7,0.3c0.8,0,1.7-0.3,2.5-0.5c0.5-0.3,0.8-0.8,0.8-1.7c0-0.5-0.3-0.8-0.5-1.1c-0.3-0.3-0.8-0.5-1.4-0.5
	c-0.5-0.3-1.1-0.6-1.7-0.6l-1.6-0.5c-0.6-0.3-1.1-0.3-1.7-0.8c-0.5-0.3-0.8-0.5-1.4-1.1c-0.3-0.5-0.5-1.1-0.5-1.9s0.3-1.7,0.5-2.2
	c0.5-0.5,1.1-1.1,1.9-1.4s1.9-0.5,2.8-0.5c1.1,0,2.2,0.3,3.3,0.8c1.1,0.5,1.6,1.4,1.9,2.5l-1.9,0.8c0-0.5-0.3-0.8-0.8-1.1
	c-0.5-0.3-0.8-0.5-1.1-0.5c-0.5,0-0.8-0.3-1.4-0.3c-0.8,0-1.4,0.3-2.2,0.5c-0.5,0.3-0.8,0.8-0.8,1.7c0,0.3,0,0.5,0.3,0.8
	c0.3,0.3,0.5,0.5,0.8,0.5c0.3,0.3,0.8,0.3,1.1,0.3c0.5,0,0.8,0.3,1.4,0.3c0.5,0.3,1.1,0.3,1.6,0.5c0.5,0.3,1.1,0.5,1.7,0.8
	s0.8,0.8,1.1,1.1c0.3,0.6,0.5,1.1,0.5,1.9c0,0.8-0.3,1.6-0.8,2.2c-0.6,0.6-1.1,1.1-1.9,1.4c-0.8,0.3-1.9,0.6-2.7,0.6
	c-1.4,0-2.8-0.3-3.8-1.1c-1.1-0.8-1.7-1.6-1.9-3L27.5,498.2z M46.2,502.8c-1.4,0-2.5-0.3-3.8-0.8c-1.1-0.5-1.9-1.6-2.5-2.8
	c-1.1-2.5-1.1-5.2,0-7.7c0.5-1.1,1.4-1.9,2.5-2.8c1.1-0.5,2.5-1.1,3.8-1.1s2.8,0.3,3.8,1.1c1.1,0.6,1.9,1.7,2.5,2.8l-1.9,0.8
	c-0.3-0.8-0.8-1.4-1.7-1.9c-1.7-0.8-3.6-0.8-5.2,0c-0.8,0.5-1.4,1.1-1.7,1.9s-0.5,1.9-0.5,3c0,1.4,0.3,2.8,1.4,3.8
	c0.8,1.1,2.2,1.7,3.6,1.4c0.8,0,1.9-0.3,2.8-0.5c0.8-0.5,1.4-1.1,1.7-1.9l1.9,0.8c-0.5,1.1-1.4,2.2-2.5,2.8
	C48.9,502.6,47.6,502.8,46.2,502.8L46.2,502.8z M56.1,488H58v2.2c0.3-0.5,0.8-1.1,1.4-1.4s1.1-0.5,1.9-0.8c0.8-0.3,1.4-0.3,2.2,0
	v2.2c-0.8-0.3-1.4-0.3-2.2,0c-0.6,0.3-1.1,0.5-1.7,0.8s-0.8,1.1-1.1,1.7c-0.3,0.8-0.3,1.4-0.3,2.2v7.7h-2.2
	C56.1,502.6,56.1,488,56.1,488z M67.1,488h2.2v14.6h-2.2V488z M68.2,485.3c-0.6,0-0.8-0.3-1.1-0.5c-0.6-0.5-0.6-1.7,0-2.2
	c0.3-0.3,0.8-0.5,1.1-0.5c0.8,0,1.7,0.8,1.7,1.7C69.8,484.7,69,485.3,68.2,485.3z M76.2,499.8L76.2,499.8l0.3,8.8h-2.2v-20.3h1.9
	l0.3,2.8c0.6-0.8,1.1-1.7,1.9-2.2c1.1-0.5,2.2-0.8,3.3-0.8c2.5,0,4.7,1.4,5.8,3.6c0.5,1.1,0.8,2.5,0.8,4.1c0,1.4-0.3,2.8-0.8,4.1
	c-0.6,1.1-1.4,1.9-2.5,2.8c-1.1,0.5-2.2,0.8-3.6,0.8s-2.5-0.3-3.6-0.8C77.3,501.5,76.4,500.7,76.2,499.8L76.2,499.8z M85.8,495.4
	c0-1.4-0.3-2.8-1.4-4.1c-0.8-1.1-2.2-1.7-3.6-1.4c-0.8,0-1.7,0.3-2.5,0.5c-0.8,0.5-1.4,1.1-1.7,1.9c-0.6,0.8-0.6,1.9-0.6,3
	s0.3,1.9,0.6,3c0.3,0.8,1.1,1.4,1.7,1.9s1.7,0.5,2.5,0.5c1.4,0,2.5-0.5,3.6-1.4C85.5,498.2,85.8,496.8,85.8,495.4L85.8,495.4z
	 M97.9,502.8c-1.4,0-2.5-0.3-3.9-0.8c-1.1-0.5-1.9-1.6-2.5-2.8c-1.1-2.5-1.1-5.2,0-7.7c0.6-1.1,1.4-1.9,2.5-2.8
	c1.1-0.5,2.5-1.1,3.9-1.1s2.8,0.3,3.9,1.1c1.1,0.6,1.9,1.7,2.5,2.8l-1.9,0.8c-0.3-0.8-0.8-1.4-1.6-1.9c-1.7-0.8-3.6-0.8-5.2,0
	c-0.8,0.5-1.4,1.1-1.6,1.9c-0.3,0.8-0.6,1.9-0.6,3c0,1.4,0.3,2.8,1.4,3.8c0.8,1.1,2.2,1.7,3.6,1.4c0.8,0,1.9-0.3,2.8-0.5
	c0.8-0.5,1.4-1.1,1.6-1.9l1.9,0.8c-0.6,1.1-1.4,2.2-2.5,2.8C100.6,502.6,99.3,502.8,97.9,502.8L97.9,502.8z M108.4,488.3h2.2v14.6
	h-2.2V488.3z M109.4,485.3c-0.8,0-1.6-0.8-1.6-1.7s0.8-1.7,1.6-1.7s1.6,0.8,1.6,1.7C110.8,484.7,110.3,485.3,109.4,485.3z
	 M121.6,502.8c-1.4,0-2.5-0.3-3.9-0.8c-1.1-0.5-1.9-1.4-2.5-2.5c-1.4-2.5-1.4-5.5,0-8c0.6-1.1,1.4-1.9,2.8-2.8
	c1.1-0.5,2.5-0.8,3.9-0.8s2.5,0.3,3.9,0.8c1.1,0.5,1.9,1.4,2.8,2.8c0.6,1.1,1.1,2.5,1.1,4.1c0,1.4-0.3,2.8-1.1,4.1
	c-0.6,1.1-1.6,1.9-2.8,2.8C124.3,502.6,122.9,502.8,121.6,502.8L121.6,502.8z M121.6,500.9c0.8,0,1.6-0.3,2.5-0.5
	c0.8-0.5,1.4-1.1,1.9-1.9c0.5-0.8,0.8-1.9,0.8-3s-0.3-2.2-0.8-3c-0.6-0.8-1.1-1.4-1.9-1.6c-1.4-0.8-3.3-0.8-4.7,0
	c-0.8,0.5-1.4,1.1-1.9,1.9s-0.8,1.9-0.6,3c0,1.1,0.3,2.2,0.6,3c0.3,0.8,1.1,1.4,1.6,1.9C119.9,500.7,120.7,500.9,121.6,500.9
	L121.6,500.9z M132.6,488.3h1.9v2.2c0.6-0.8,1.1-1.4,1.9-1.7c0.8-0.5,1.6-0.5,2.8-0.5s1.9,0.3,3,0.8c0.8,0.5,1.6,1.4,1.9,2.2
	c0.6,1.1,0.8,2.2,0.8,3.6v8.3h-2.2v-8c0-1.1-0.3-2.5-1.1-3.6c-0.8-0.8-1.6-1.4-2.8-1.1c-1.1,0-2.2,0.3-3,1.4s-1.1,2.5-1.1,3.8v7.7
	h-2.2V488.3z M154.8,502.8c-1.4,0-2.5-0.3-3.6-1.1c-1.1-0.5-1.9-1.7-2.5-2.8s-0.8-2.5-0.8-3.8s0.3-2.8,0.8-3.8
	c1.1-2.2,3.6-3.6,6.1-3.6c1.4,0,2.5,0.3,3.6,0.8c1.1,0.5,1.9,1.4,2.5,2.5s0.8,2.2,0.8,3.6c0,0.3,0,0.5,0,0.5c0,0.3,0,0.5,0,0.8
	h-11.3c0,0.8,0.3,1.6,0.6,2.5c0.3,0.5,0.8,1.4,1.6,1.7c0.8,0.3,1.4,0.5,2.2,0.5c1.1,0,1.9-0.3,2.8-0.5c0.8-0.3,1.4-1.1,1.6-1.9
	l1.9,0.8c-0.6,1.1-1.4,2.2-2.5,2.8C157.6,502.6,156.2,502.8,154.8,502.8L154.8,502.8z M159.2,494.3c0-1.7-0.8-3-2.2-3.8
	c-0.8-0.3-1.6-0.5-2.5-0.5c-0.8,0-1.4,0.3-2.2,0.5c-0.6,0.3-1.1,0.8-1.6,1.6c-0.6,0.6-0.6,1.4-0.8,2.2L159.2,494.3L159.2,494.3z
	 M166.4,498.2c0,0.5,0.3,1.1,0.6,1.4c0.3,0.3,0.8,0.5,1.1,0.8c0.6,0.3,1.1,0.3,1.6,0.3c0.8,0,1.6-0.3,2.5-0.5
	c0.6-0.3,0.8-0.8,0.8-1.7c0-0.5-0.3-0.8-0.6-1.1c-0.3-0.3-0.8-0.5-1.4-0.8s-1.1-0.5-1.6-0.5l-1.6-0.3c-0.6-0.3-1.1-0.3-1.6-0.8
	c-0.6-0.3-0.8-0.5-1.4-1.1c-0.3-0.5-0.6-1.1-0.6-1.9s0.3-1.7,0.6-2.2c0.3-0.5,1.1-1.1,1.9-1.4c0.8-0.3,1.9-0.5,2.8-0.5
	c1.1,0,2.2,0.3,3.3,0.8c0.8,0.5,1.7,1.4,1.9,2.5l-1.9,0.8c0-0.5-0.3-0.8-0.8-1.1c-0.3-0.3-0.8-0.5-1.1-0.5c-0.6,0-0.8-0.3-1.4-0.3
	c-0.8,0-1.4,0.3-2.2,0.5c-0.5,0.3-0.8,0.8-0.8,1.6c0,0.3,0,0.6,0.3,0.8c0.3,0.3,0.5,0.5,0.8,0.5c0.3,0.3,0.8,0.3,1.1,0.6
	c0.6,0,0.8,0.3,1.4,0.3c0.6,0.3,1.1,0.3,1.7,0.5c0.6,0.3,1.1,0.6,1.6,0.8c0.6,0.3,0.8,0.8,1.1,1.1c0.3,0.5,0.6,1.1,0.6,1.9
	s-0.3,1.6-0.8,2.2c-0.5,0.5-1.1,1.1-1.9,1.4c-0.8,0.3-1.9,0.5-2.8,0.5c-1.4,0-2.8-0.3-3.9-1.1s-1.6-1.6-1.9-3L166.4,498.2z
	 M187.5,488.3h2.2v14.6h-2.2V488.3z M188.6,485.3c-0.5,0-0.8-0.3-1.1-0.5c-0.5-0.5-0.5-1.7,0-2.2c0.3-0.3,0.8-0.5,1.1-0.5
	s0.8,0.3,1.1,0.5c0.5,0.5,0.5,1.7,0,2.2l0,0C189.5,485.3,188.9,485.5,188.6,485.3L188.6,485.3z M194.7,488.3h1.9v2.2
	c0.5-0.8,1.1-1.4,1.9-1.7c0.8-0.5,1.6-0.5,2.8-0.5s1.9,0.3,3,0.8c0.8,0.5,1.6,1.4,1.9,2.2c0.5,1.1,0.8,2.2,0.8,3.6v8.3h-2.2v-8
	c0-1.1-0.3-2.5-1.1-3.6c-0.8-0.8-1.6-1.4-2.8-1.1c-1.1,0-2.2,0.3-3,1.4c-0.8,1.1-1.1,2.5-1.1,3.8v7.7h-2.2L194.7,488.3z M222.2,491
	L222.2,491l-0.3-9.3h2.2v20.9h-2.2l-0.3-2.8c-0.6,0.8-1.1,1.7-1.9,2.2c-1.1,0.5-2.2,0.8-3.3,0.8c-1.4,0-2.5-0.3-3.6-0.8
	s-1.9-1.7-2.5-2.8c-0.5-1.4-0.8-2.8-0.8-4.1s0.3-2.8,0.8-3.8s1.4-1.9,2.5-2.8c1.1-0.5,2.2-0.8,3.6-0.8c1.1,0,2.5,0.3,3.6,0.8
	C220.8,489.4,221.6,490.2,222.2,491L222.2,491z M212.3,495.4c0,1.4,0.3,3,1.1,4.1s2.2,1.7,3.6,1.4c0.8,0,1.6-0.3,2.5-0.5
	c0.8-0.5,1.4-1.1,1.6-1.9c0.5-0.8,0.5-1.9,0.5-3c0-1.1-0.3-1.9-0.5-3c-0.3-0.8-1.1-1.4-1.6-1.9c-0.8-0.5-1.6-0.8-2.5-0.5
	c-1.4,0-2.8,0.5-3.6,1.4C212.6,492.7,212.3,494,212.3,495.4L212.3,495.4z M229.1,488.3h2.2v14.6h-2.2V488.3z M230.2,485.3
	c-0.5,0-0.8-0.3-1.1-0.5c-0.5-0.5-0.5-1.7,0-2.2c0.3-0.3,0.8-0.5,1.1-0.5c0.8,0,1.6,0.8,1.6,1.7C231.5,484.7,231,485.3,230.2,485.3z
	 M236.8,488.3l4.4,12.1l4.7-12.1h2.2l-5.8,14.6h-2.2l-5.8-14.6H236.8z M251.6,488.3h2.2v14.6h-2.2V488.3z M252.7,485.3
	c-0.8,0-1.6-0.8-1.6-1.7s0.8-1.7,1.6-1.7l0,0c0.8,0,1.6,0.8,1.6,1.7c0,0.5-0.3,0.8-0.5,1.1C253.5,485.3,253.3,485.5,252.7,485.3
	L252.7,485.3z M270,491L270,491l-0.3-9.3h2.2v20.9h-1.9l-0.3-2.8c-0.5,0.8-1.1,1.7-1.9,2.2c-1.1,0.5-2.2,0.8-3.3,0.8
	c-1.4,0-2.5-0.3-3.6-0.8s-1.9-1.7-2.5-2.8c-0.5-1.4-0.8-2.8-0.8-4.1s0.3-2.8,0.8-3.8c0.5-1.1,1.4-1.9,2.5-2.8
	c1.1-0.5,2.2-0.8,3.6-0.8c1.1,0,2.5,0.3,3.6,0.8C268.7,489.4,269.5,490.2,270,491L270,491z M260.1,495.4c0,1.4,0.3,2.8,1.4,4.1
	c0.8,1.1,2.2,1.7,3.6,1.4c0.8,0,1.6-0.3,2.5-0.5c0.8-0.5,1.4-1.1,1.6-1.9c0.5-0.8,0.5-1.9,0.5-3c0-1.1-0.3-1.9-0.5-3
	c-0.3-0.8-1.1-1.4-1.6-1.9s-1.6-0.8-2.5-0.5c-1.4,0-2.8,0.5-3.6,1.4C260.7,492.7,260.1,494,260.1,495.4L260.1,495.4z M288.2,502.6
	h-1.9l-0.3-2.2c-0.5,0.8-1.1,1.4-1.9,1.7c-0.8,0.3-1.6,0.5-2.8,0.5s-1.9-0.3-3-0.8c-0.8-0.5-1.7-1.1-1.9-2.2
	c-0.5-1.1-0.8-2.2-0.5-3.6v-8h2.2v8.3c0,1.1,0.3,2.5,1.1,3.3s1.6,1.1,2.8,1.1s2.2-0.3,3-1.1c0.8-1.1,1.1-2.5,1.1-3.6v-8h2.2
	L288.2,502.6z M301.7,502.6l-0.3-2.8c-0.3,0.8-1.1,1.7-1.9,2.2c-0.8,0.5-1.9,0.8-3,0.8c-0.8,0-1.9-0.3-2.8-0.5
	c-0.8-0.3-1.4-0.8-1.6-1.4c-0.3-0.6-0.5-1.4-0.5-2.2c0-1.1,0.5-2.2,1.4-3c1.1-0.8,2.5-1.4,4.1-1.4l4.4-0.5v-1.1
	c0-0.8-0.3-1.4-0.8-1.9c-0.8-0.5-1.6-0.8-2.5-0.8s-1.9,0.3-2.5,0.8c-0.5,0.6-1.1,1.1-1.4,1.9l-1.9-0.8c0.3-1.1,1.1-2.2,2.2-3
	s2.5-1.1,3.9-1.1s3,0.3,4.1,1.4c1.1,0.8,1.6,2.2,1.4,3.6v9.9L301.7,502.6z M301.7,495.7l-4.7,0.5c-0.8,0-1.6,0.3-2.2,0.8
	c-0.8,0.8-1.1,2.2-0.3,3l0.3,0.3c0.5,0.6,1.4,0.6,2.2,0.6s1.9-0.3,2.8-0.6c0.5-0.3,1.1-1.1,1.4-1.6c0.3-0.8,0.5-1.7,0.5-2.5V495.7z
	 M308,481.7h2.2v20.9H308V481.7z M320.6,502.8c-1.4,0-2.5-0.3-3.6-1.1c-1.1-0.5-1.9-1.7-2.5-2.8c-0.5-1.1-0.8-2.5-0.8-3.8
	s0.3-2.8,0.8-3.8c0.5-1.1,1.4-1.9,2.5-2.8c1.1-0.6,2.2-1.1,3.6-1.1s2.5,0.3,3.6,0.8s1.9,1.4,2.5,2.5c0.5,1.1,0.8,2.2,0.8,3.6
	c0,0.3,0,0.5,0,0.5s0,0.6,0,0.8h-11.3c0,0.8,0.3,1.7,0.5,2.5c0.8,1.4,2.2,2.2,3.9,2.2c1.1,0,1.9-0.3,2.8-0.5s1.4-1.1,1.6-1.9
	l1.9,0.8c-0.5,1.1-1.4,2.2-2.5,2.8C323.4,502.6,322,502.8,320.6,502.8L320.6,502.8z M325,494.3c0-0.8-0.3-1.7-0.5-2.2
	s-0.8-1.1-1.6-1.7c-0.8-0.3-1.6-0.5-2.5-0.5s-1.4,0.3-2.2,0.5c-0.5,0.3-1.1,0.8-1.6,1.7c-0.5,0.5-0.5,1.4-0.8,2.2H325z M332.2,498.2
	c0,0.5,0.3,1.1,0.5,1.4s0.8,0.5,1.1,0.8c0.5,0.3,1.1,0.3,1.6,0.3c0.8,0,1.6-0.3,2.5-0.5c0.5-0.3,0.8-0.8,0.8-1.7
	c0-0.5-0.3-0.8-0.5-1.1c-0.3-0.3-0.8-0.5-1.4-0.8s-1.1-0.5-1.6-0.5l-1.6-0.3c-0.6-0.3-1.1-0.3-1.6-0.8c-0.6-0.3-0.8-0.5-1.4-1.1
	c-0.3-0.5-0.6-1.1-0.6-1.9s0.3-1.7,0.6-2.2c0.3-0.5,1.1-1.1,1.9-1.4s1.9-0.5,2.8-0.5c1.1,0,2.2,0.3,3.3,0.8c1.1,0.5,1.6,1.4,1.9,2.5
	l-1.9,0.8c0-0.5-0.3-0.8-0.8-1.1c-0.6-0.3-0.8-0.5-1.1-0.5c-0.5,0-0.8-0.3-1.4-0.3c-0.8,0-1.4,0.3-2.2,0.5c-0.5,0.3-0.8,0.8-0.8,1.6
	c0,0.3,0,0.6,0.3,0.8c0.3,0.3,0.5,0.5,0.8,0.5c0.3,0.3,0.8,0.3,1.1,0.6c0.5,0,0.8,0.3,1.4,0.3c0.5,0.3,1.1,0.3,1.6,0.5
	c0.5,0.3,1.1,0.6,1.6,0.8c0.5,0.3,0.8,0.8,1.1,1.1c0.3,0.5,0.5,1.1,0.5,1.9s-0.3,1.6-0.8,2.2c-0.5,0.5-1.1,1.1-1.9,1.4
	c-0.8,0.3-1.9,0.5-2.8,0.5c-1.4,0-2.8-0.3-3.9-1.1s-1.6-1.6-1.9-3L332.2,498.2z M346,502.8c-0.5,0-0.8-0.3-1.1-0.5
	c-0.5-0.5-0.5-1.7,0-2.2c0.3-0.3,0.8-0.5,1.1-0.5c0.8,0,1.6,0.8,1.6,1.7S346.8,502.8,346,502.8z M207.6,362.9
	c-0.5,0-0.8-0.3-1.1-0.5c-0.5-0.5-0.5-1.6,0-2.2c0.3-0.3,0.8-0.5,1.1-0.5c0.8,0,1.6,0.8,1.6,1.6
	C209.3,362.3,208.5,362.9,207.6,362.9z"/>
<g>
	<path fill="#FFFFFF" d="M18.1,277.9c1.9,1.9,2.8,4.4,2.8,7.7c0,1.4-0.3,3-0.8,4.1c-0.5,1.4-1.1,2.5-1.9,3.3c-0.5,1.1-1.6,1.9-3,2.5
		s-2.8,0.8-4.1,0.8s-3-0.3-4.1-0.8s-2.2-1.4-3.3-2.2c-1.1-0.8-1.6-2.2-1.9-3.3s-0.8-2.8-0.8-4.1c0-1.6,0.3-3,0.8-4.1
		c0.6-1.4,1.1-2.8,1.9-3.6c0.8-0.8,1.9-1.6,3.3-2.2c1.4-0.6,2.8-0.8,4.1-0.8C14,274.9,16.2,276,18.1,277.9z M7.4,290.3
		c0.8,1.1,2.2,1.6,3.6,1.6c0.8,0,1.6-0.3,2.5-0.5c0.5-0.3,1.1-0.8,1.6-1.4s0.8-1.4,0.8-1.9c0.3-0.8,0.3-1.7,0.3-2.5
		c0-0.8,0-1.6-0.3-2.5s-0.5-1.4-0.8-2.2c-0.5-0.5-0.8-1.1-1.6-1.4c-0.5-0.3-1.4-0.5-2.5-0.5c-0.8,0-1.6,0.3-2.5,0.5
		c-0.6,0.3-1.4,0.8-1.6,1.4c-0.6,0.6-0.8,1.4-0.8,2.2c-0.3,0.8-0.3,1.6-0.3,2.5C5.8,287.8,6.3,289.2,7.4,290.3z"/>
	<path fill="#FFFFFF" d="M22.8,275.1h8c0.8,0,1.4,0,2.2,0s1.4,0.3,1.9,0.3s1.1,0.6,1.7,0.8c0.5,0.3,1.1,0.8,1.4,1.6
		c0.8,1.1,1.1,2.5,1.1,3.9c0,1.1-0.3,2.2-0.5,3.3c-0.5,0.8-1.1,1.6-1.7,2.2c-0.8,0.5-1.7,0.8-2.5,1.1c-1.1,0.3-1.9,0.3-3.3,0.3h-3.6
		v7.4h-4.7C22.8,296,22.8,275.1,22.8,275.1z M27.5,284.2h3.6c0.5,0,0.8,0,1.4,0c0.3,0,0.8-0.3,1.1-0.3c0.3-0.3,0.5-0.3,0.8-0.8
		c0.3-0.3,0.3-0.8,0.3-1.4c0-0.3,0-0.3,0-0.5s0-0.6-0.3-0.6c0-0.3-0.3-0.3-0.3-0.5c-0.3-0.3-0.3-0.3-0.5-0.3c-0.3,0-0.3,0-0.8,0
		c-0.3,0-0.8,0-1.4,0h-3.6L27.5,284.2L27.5,284.2z"/>
	<path fill="#FFFFFF" d="M53.6,288.1h4.7v1.1c0,1.1-0.6,2.2-0.8,3c-0.6,0.8-1.1,1.6-1.9,2.2c-0.8,0.6-1.7,1.1-2.8,1.4
		s-2.2,0.6-3.3,0.6c-1.7,0-3-0.3-4.1-0.8s-2.2-1.4-3-2.2c-0.8-1.1-1.4-2.2-1.9-3.3c-0.5-1.4-0.5-2.8-0.5-4.1c0-1.6,0.3-3,0.5-4.1
		c0.5-1.4,1.1-2.5,1.9-3.3c0.8-1.1,1.9-1.7,3-2.2s2.8-0.8,4.1-0.8c1.1,0,2.2,0.3,3,0.6c1.1,0.3,1.9,0.8,2.8,1.4
		c0.8,0.5,1.4,1.4,1.9,2.2c0.5,0.8,0.8,1.9,0.8,3v1.1h-4.7v-1.1c0-0.6-0.3-1.1-0.6-1.4c-0.3-0.3-0.5-0.6-0.8-0.8
		c-0.3-0.3-0.8-0.3-1.1-0.5c-0.6,0-0.8-0.3-1.4-0.3c-0.8,0-1.7,0.3-2.5,0.6s-1.1,0.8-1.7,1.4c-0.3,0.5-0.6,1.4-0.8,2.2
		c-0.3,0.8-0.3,1.7-0.3,2.5c0,0.8,0,1.6,0.3,2.5s0.6,1.4,0.8,1.9c0.3,0.5,0.8,1.1,1.7,1.4c0.6,0.3,1.4,0.5,2.5,0.5s1.9-0.3,2.8-0.8
		c0.8-0.6,1.1-1.4,1.4-2.5V288.1z"/>
	<path fill="#FFFFFF" d="M60.2,296v-20.6h4.7V296H60.2z"/>
	<path fill="#FFFFFF" d="M83.9,277.9c1.9,1.9,2.8,4.4,2.8,7.7c0,1.4-0.3,3-0.8,4.1c-0.6,1.4-1.1,2.5-1.9,3.3
		c-0.8,1.1-1.9,1.6-3.3,2.2c-1.4,0.5-2.8,0.8-4.1,0.8s-3-0.3-4.1-0.8c-1.1-0.6-2.2-1.4-3.3-2.2c-0.8-1.1-1.7-2.2-1.9-3.3
		c-0.6-1.4-0.8-2.8-0.8-4.1c0-1.6,0.3-3,0.8-4.1c0.6-1.4,1.1-2.5,1.9-3.3c0.8-0.8,1.9-1.6,3.3-2.2c1.4-0.6,2.8-0.8,4.1-0.8
		C79.8,274.9,81.9,276,83.9,277.9z M73.2,290.3c1.1,1.1,2.2,1.6,3.8,1.6c0.8,0,1.7-0.3,2.5-0.5c0.6-0.3,1.1-0.8,1.7-1.4
		c0.6-0.6,0.8-1.4,0.8-1.9c0-0.5,0.3-1.6,0.3-2.5c0-0.8,0-1.6-0.3-2.5c-0.3-0.8-0.6-1.4-0.8-2.2c-0.6-0.6-0.8-1.1-1.7-1.4
		c-0.6-0.3-1.4-0.6-2.5-0.6c-0.8,0-1.7,0.3-2.5,0.6c-0.6,0.3-1.4,0.8-1.7,1.4c-0.6,0.5-0.8,1.4-0.8,2.2c-0.6,0.8-0.6,1.7-0.6,2.5
		C71.5,287.8,72.1,289.2,73.2,290.3z"/>
	<path fill="#FFFFFF" d="M88.6,275.1h4.1l8,12.1v-12.1h4.4v20.6h-4.1l-8-12.1v12.1h-4.4V275.1L88.6,275.1z"/>
	<path fill="#FFFFFF" d="M118.3,296v-20.6h4.7V296C122.6,296,118.3,296,118.3,296z"/>
</g>
<g>
	<path fill="#FFFFFF" d="M18.1,416.8c1.9,1.9,2.8,4.4,2.8,7.7c0,1.4-0.3,3-0.8,4.1c-0.5,1.4-1.1,2.5-1.9,3.3
		c-0.8,1.1-1.9,1.6-3.3,2.2s-2.8,0.8-4.1,0.8s-3-0.3-4.1-0.8s-2.2-1.4-3.3-2.2s-1.6-2.2-1.9-3.3s-0.8-2.8-0.8-4.1
		c0-1.6,0.3-3,0.8-4.1s1.1-2.5,1.9-3.3s1.9-1.6,3.3-2.2c1.4-0.5,2.7-0.8,4.1-0.8C14,413.8,16.2,414.9,18.1,416.8z M7.4,429.4
		c1.1,1.1,2.2,1.6,3.8,1.6c0.8,0,1.6-0.3,2.5-0.5c0.5-0.3,1.1-0.8,1.6-1.4s0.8-1.4,0.8-1.9c0.3-0.8,0.3-1.6,0.3-2.5s0-1.6-0.3-2.5
		s-0.5-1.4-0.8-2.2c-0.5-0.5-0.8-1.1-1.6-1.4c-0.5-0.3-1.4-0.5-2.5-0.5c-0.8,0-1.6,0.3-2.5,0.5c-0.6,0.3-1.4,0.8-1.6,1.4
		c-0.6,0.5-0.8,1.4-0.8,2.2s-0.3,1.6-0.3,2.5C5.8,426.7,6.3,428.3,7.4,429.4z"/>
	<path fill="#FFFFFF" d="M22.8,414.3h8c0.8,0,1.4,0,2.2,0s1.4,0.3,1.9,0.3c0.5,0.3,1.1,0.5,1.7,0.8c0.5,0.3,1.1,0.8,1.4,1.6
		c0.8,1.1,1.1,2.5,1.1,3.9c0,1.1-0.3,2.2-0.5,3.3c-0.5,0.8-1.1,1.6-1.7,2.2c-0.8,0.5-1.7,0.8-2.5,1.1c-1.1,0.3-1.9,0.3-3.3,0.3h-3.6
		v7.4h-4.7C22.8,434.9,22.8,414.3,22.8,414.3z M27.5,423.1h3.6c0.5,0,0.8,0,1.4,0c0.3,0,0.8-0.3,1.1-0.3c0.3-0.3,0.5-0.3,0.8-0.8
		c0.3-0.3,0.3-0.8,0.3-1.4c0-0.3,0-0.3,0-0.5s0-0.5-0.3-0.5c0-0.3-0.3-0.3-0.3-0.5c-0.3-0.3-0.3-0.3-0.5-0.3c-0.3,0-0.3,0-0.8,0
		c-0.3,0-0.8,0-1.4,0h-3.6L27.5,423.1L27.5,423.1L27.5,423.1z"/>
	<path fill="#FFFFFF" d="M53.6,427h4.7v1.1c0,1.1-0.6,2.2-0.8,3c-0.6,0.8-1.1,1.6-1.9,2.2c-0.8,0.5-1.7,1.1-2.8,1.4
		s-2.2,0.5-3.3,0.5c-1.7,0-3-0.3-4.1-0.8c-1.1-0.5-2.2-1.4-3-2.2c-0.8-1.1-1.4-2.2-1.9-3.3c-0.5-1.4-0.5-2.8-0.5-4.1
		c0-1.6,0.3-3,0.5-4.1c0.5-1.4,1.1-2.5,1.9-3.3c0.8-1.1,1.9-1.6,3-2.2c1.1-0.5,2.8-0.8,4.1-0.8c1.1,0,2.2,0.3,3,0.5
		c1.1,0.3,1.9,0.8,2.8,1.4s1.4,1.4,1.9,2.2c0.5,0.8,0.8,1.9,0.8,3v1.1h-4.7v-1.1c0-0.5-0.3-1.1-0.6-1.4s-0.5-0.5-0.8-0.8
		c-0.3-0.3-0.8-0.3-1.1-0.5s-0.8-0.3-1.4-0.3c-0.8,0-1.7,0.3-2.5,0.5c-0.6,0.3-1.1,0.8-1.7,1.4c-0.3,0.5-0.6,1.4-0.8,2.2
		c-0.3,0.8-0.3,1.6-0.3,2.5s0,1.6,0.3,2.5s0.6,1.4,0.8,1.9c0.3,0.5,0.8,1.1,1.7,1.4s1.4,0.5,2.5,0.5s1.9-0.3,2.8-0.8
		c0.8-0.5,1.1-1.4,1.4-2.5V427z"/>
	<path fill="#FFFFFF" d="M60.2,434.9v-20.6h4.7v20.6H60.2z"/>
	<path fill="#FFFFFF" d="M83.9,416.8c1.9,1.9,2.8,4.4,2.8,7.7c0,1.4-0.3,3-0.8,4.1c-0.6,1.4-1.1,2.5-1.9,3.3
		c-0.8,1.1-1.9,1.6-3.3,2.2s-2.8,0.8-4.1,0.8s-3-0.3-4.1-0.8s-2.2-1.4-3.3-2.2c-0.8-1.1-1.7-2.2-1.9-3.3c-0.6-1.4-0.8-2.8-0.8-4.1
		c0-1.6,0.3-3,0.8-4.1c0.6-1.4,1.1-2.5,1.9-3.3c0.8-0.8,1.9-1.6,3.3-2.2c1.4-0.5,2.8-0.8,4.1-0.8C79.8,413.8,81.9,414.9,83.9,416.8z
		 M73.2,429.4c1.1,1.1,2.2,1.6,3.8,1.6c0.8,0,1.7-0.3,2.5-0.5c0.6-0.3,1.1-0.8,1.7-1.4s0.8-1.4,0.8-1.9s0.3-1.6,0.3-2.5
		s0-1.6-0.3-2.5s-0.6-1.4-0.8-2.2c-0.6-0.5-0.8-1.1-1.7-1.4c-0.6-0.3-1.4-0.5-2.5-0.5c-0.8,0-1.7,0.3-2.5,0.5
		c-0.6,0.3-1.4,0.8-1.7,1.4c-0.6,0.5-0.8,1.4-0.8,2.2s-0.6,1.4-0.6,2.5C71.5,426.7,72.1,428.3,73.2,429.4z"/>
	<path fill="#FFFFFF" d="M88.6,414.3h4.1l8,12.1v-12.1h4.4v20.6h-4.1l-8-12.1v12.1h-4.4V414.3L88.6,414.3z"/>
	<path fill="#FFFFFF" d="M124.3,425.6c0.6-0.3,1.1-0.8,1.9-1.1s1.1-0.8,1.6-1.1c0.6-0.3,0.8-0.8,1.1-1.1c0.3-0.3,0.6-0.8,0.6-1.1
		c0-1.4-1.1-2.2-3-2.2c-0.5,0-1.1,0-1.4,0.3c-0.3,0.3-0.5,0.3-0.8,0.5c-0.3,0.3-0.3,0.3-0.6,0.6c0,0.3-0.3,0.3-0.3,0.5h-4.7
		c0-0.5,0-1.4,0.6-2.2c0.3-0.8,0.8-1.4,1.4-2.2c0.6-0.5,1.4-1.1,2.2-1.6s2.2-0.5,3.6-0.5c1.7,0,2.8,0.3,3.9,0.8
		c1.1,0.5,1.9,1.1,2.5,1.6c0.6,0.8,1.1,1.4,1.4,2.2c0.3,0.8,0.3,1.4,0.3,2.2c0,1.1-0.3,2.2-0.8,3c-0.6,0.8-1.1,1.7-1.9,2.5
		c-0.8,0.8-1.7,1.4-2.5,1.9c-0.8,0.5-1.7,1.1-2.5,1.6c-0.3,0-0.6,0.3-0.6,0.3c-0.3,0-0.6,0.3-0.8,0.5h8.3v4.7H118v-2.5
		c0-0.8,0.3-1.6,0.6-2.2c0.3-0.8,0.8-1.4,1.4-1.9s1.4-1.1,2.2-1.6C122.6,426.4,123.5,425.9,124.3,425.6z"/>
</g>
<g>
	<path fill="#FFFFFF" d="M1.9,471c0-3.6,3.3-5.5,6.6-7.1c2.5-1.4,5.2-3,5.2-4.7c0-1.4-1.1-2.2-3-2.2c-2.2,0-2.8,1.1-2.8,1.6H3
		c0-2.5,1.9-6.3,7.4-6.3c6,0,7.7,4.4,7.7,6.9c0,4.4-4.1,6.9-7.4,8.8c-0.3,0.3-0.8,0.5-1.4,0.8h8.3v4.7H1.9V471z"/>
</g>
</svg>
