<svg width="608" height="218" viewBox="0 0 608 218" fill="none" xmlns="http://www.w3.org/2000/svg">
<path d="M1 126L1 179L54 179" stroke="white" stroke-width="2"/>
<path d="M607 54L607 1L554 0.999998" stroke="white" stroke-width="2"/>
<path d="M37.44 48.384C37.504 46.8267 37.8667 45.536 38.528 44.512C39.1893 43.4667 40.1067 42.688 41.28 42.176C42.4533 41.6427 43.84 41.376 45.44 41.376C47.0827 41.376 48.4693 41.6533 49.6 42.208C50.7307 42.7627 51.584 43.5093 52.16 44.448C52.7573 45.3867 53.056 46.4533 53.056 47.648C53.056 48.6293 52.8747 49.44 52.512 50.08C52.1493 50.72 51.6907 51.2213 51.136 51.584C50.6027 51.9467 50.08 52.2133 49.568 52.384V52.512C50.336 52.768 51.008 53.1093 51.584 53.536C52.1813 53.9627 52.64 54.5067 52.96 55.168C53.3013 55.8293 53.472 56.6507 53.472 57.632C53.472 58.9333 53.1627 60.0853 52.544 61.088C51.9467 62.0693 51.072 62.8373 49.92 63.392C48.768 63.9467 47.3813 64.224 45.76 64.224C44.1173 64.224 42.656 63.9893 41.376 63.52C40.096 63.0507 39.0827 62.272 38.336 61.184C37.6107 60.096 37.2267 58.6347 37.184 56.8H42.656C42.656 57.7813 42.8907 58.4747 43.36 58.88C43.8507 59.264 44.576 59.456 45.536 59.456C46.0693 59.456 46.5173 59.3707 46.88 59.2C47.2427 59.008 47.52 58.7413 47.712 58.4C47.904 58.0587 48 57.6427 48 57.152C48 56.2347 47.6907 55.616 47.072 55.296C46.4533 54.9547 45.4613 54.784 44.096 54.784H43.072V50.624H44.096C44.672 50.624 45.216 50.5813 45.728 50.496C46.2613 50.3893 46.6987 50.1867 47.04 49.888C47.3813 49.568 47.552 49.088 47.552 48.448C47.552 47.68 47.3493 47.104 46.944 46.72C46.56 46.336 46.016 46.144 45.312 46.144C44.736 46.144 44.2773 46.2507 43.936 46.464C43.616 46.656 43.3707 46.9227 43.2 47.264C43.0507 47.6053 42.9653 47.9787 42.944 48.384H37.44ZM71.515 41.6V46.272H62.075V50.336C62.5017 49.8667 63.003 49.504 63.579 49.248C64.1763 48.992 64.9337 48.864 65.851 48.864C67.0883 48.864 68.155 49.0773 69.051 49.504C69.947 49.9307 70.683 50.496 71.259 51.2C71.8563 51.904 72.2937 52.704 72.571 53.6C72.8483 54.4747 72.987 55.36 72.987 56.256C72.987 57.92 72.6457 59.3493 71.963 60.544C71.3017 61.7387 70.363 62.656 69.147 63.296C67.931 63.9147 66.4803 64.224 64.795 64.224C63.0243 64.224 61.5097 63.9253 60.251 63.328C59.0137 62.7093 58.0537 61.8773 57.371 60.832C56.7097 59.7867 56.347 58.592 56.283 57.248H61.755C61.8617 57.8027 62.139 58.3147 62.587 58.784C63.0563 59.232 63.7283 59.456 64.603 59.456C65.243 59.456 65.755 59.3387 66.139 59.104C66.5443 58.848 66.843 58.4747 67.035 57.984C67.227 57.4933 67.323 56.9067 67.323 56.224C67.323 55.2427 67.0777 54.5173 66.587 54.048C66.1177 53.5787 65.435 53.344 64.539 53.344C63.8563 53.344 63.291 53.536 62.843 53.92C62.395 54.2827 62.107 54.6987 61.979 55.168H56.507V41.6H71.515ZM75.7205 52.8C75.7205 51.0933 75.8805 49.536 76.2005 48.128C76.5205 46.72 77.0325 45.5147 77.7365 44.512C78.4405 43.5093 79.3685 42.7413 80.5205 42.208C81.6938 41.6533 83.1125 41.376 84.7765 41.376C86.4405 41.376 87.8485 41.6533 89.0005 42.208C90.1525 42.7413 91.0805 43.5093 91.7845 44.512C92.5098 45.5147 93.0325 46.72 93.3525 48.128C93.6725 49.536 93.8325 51.0933 93.8325 52.8C93.8325 54.528 93.6725 56.096 93.3525 57.504C93.0325 58.912 92.5098 60.1173 91.7845 61.12C91.0805 62.1227 90.1525 62.8907 89.0005 63.424C87.8485 63.9573 86.4405 64.224 84.7765 64.224C83.1125 64.224 81.6938 63.9573 80.5205 63.424C79.3685 62.8907 78.4405 62.1227 77.7365 61.12C77.0325 60.1173 76.5205 58.912 76.2005 57.504C75.8805 56.096 75.7205 54.528 75.7205 52.8ZM88.1685 52.8C88.1685 51.9253 88.1365 51.0933 88.0725 50.304C88.0085 49.4933 87.8592 48.7787 87.6245 48.16C87.4112 47.5413 87.0805 47.0507 86.6325 46.688C86.1845 46.3253 85.5658 46.144 84.7765 46.144C83.9872 46.144 83.3685 46.3253 82.9205 46.688C82.4725 47.0507 82.1312 47.5413 81.8965 48.16C81.6832 48.7787 81.5445 49.4933 81.4805 50.304C81.4165 51.0933 81.3845 51.9253 81.3845 52.8C81.3845 53.7173 81.4165 54.5813 81.4805 55.392C81.5445 56.1813 81.6832 56.8853 81.8965 57.504C82.1312 58.1013 82.4725 58.5813 82.9205 58.944C83.3685 59.2853 83.9872 59.456 84.7765 59.456C85.5658 59.456 86.1845 59.2853 86.6325 58.944C87.0805 58.5813 87.4112 58.1013 87.6245 57.504C87.8592 56.8853 88.0085 56.1813 88.0725 55.392C88.1365 54.5813 88.1685 53.7173 88.1685 52.8ZM96.658 52.8C96.658 51.0933 96.818 49.536 97.138 48.128C97.458 46.72 97.97 45.5147 98.674 44.512C99.378 43.5093 100.306 42.7413 101.458 42.208C102.631 41.6533 104.05 41.376 105.714 41.376C107.378 41.376 108.786 41.6533 109.938 42.208C111.09 42.7413 112.018 43.5093 112.722 44.512C113.447 45.5147 113.97 46.72 114.29 48.128C114.61 49.536 114.77 51.0933 114.77 52.8C114.77 54.528 114.61 56.096 114.29 57.504C113.97 58.912 113.447 60.1173 112.722 61.12C112.018 62.1227 111.09 62.8907 109.938 63.424C108.786 63.9573 107.378 64.224 105.714 64.224C104.05 64.224 102.631 63.9573 101.458 63.424C100.306 62.8907 99.378 62.1227 98.674 61.12C97.97 60.1173 97.458 58.912 97.138 57.504C96.818 56.096 96.658 54.528 96.658 52.8ZM109.106 52.8C109.106 51.9253 109.074 51.0933 109.01 50.304C108.946 49.4933 108.797 48.7787 108.562 48.16C108.349 47.5413 108.018 47.0507 107.57 46.688C107.122 46.3253 106.503 46.144 105.714 46.144C104.925 46.144 104.306 46.3253 103.858 46.688C103.41 47.0507 103.069 47.5413 102.834 48.16C102.621 48.7787 102.482 49.4933 102.418 50.304C102.354 51.0933 102.322 51.9253 102.322 52.8C102.322 53.7173 102.354 54.5813 102.418 55.392C102.482 56.1813 102.621 56.8853 102.834 57.504C103.069 58.1013 103.41 58.5813 103.858 58.944C104.306 59.2853 104.925 59.456 105.714 59.456C106.503 59.456 107.122 59.2853 107.57 58.944C108.018 58.5813 108.349 58.1013 108.562 57.504C108.797 56.8853 108.946 56.1813 109.01 55.392C109.074 54.5813 109.106 53.7173 109.106 52.8ZM126.82 41.6H132.388V55.424C132.388 56.2773 132.559 57.0133 132.9 57.632C133.242 58.2293 133.722 58.688 134.34 59.008C134.959 59.3067 135.684 59.456 136.516 59.456C137.37 59.456 138.116 59.3067 138.756 59.008C139.396 58.688 139.887 58.2293 140.228 57.632C140.591 57.0133 140.772 56.2773 140.772 55.424V41.6H146.34V54.912C146.34 56.4693 146.074 57.8347 145.54 59.008C145.007 60.16 144.271 61.1307 143.332 61.92C142.415 62.688 141.359 63.264 140.164 63.648C138.97 64.032 137.722 64.224 136.42 64.224C134.671 64.224 133.071 63.8827 131.62 63.2C130.17 62.496 129.007 61.4613 128.132 60.096C127.258 58.7093 126.82 56.9813 126.82 54.912V41.6ZM154.24 57.184C154.347 57.8027 154.56 58.304 154.88 58.688C155.221 59.0507 155.627 59.3173 156.096 59.488C156.587 59.6373 157.12 59.712 157.696 59.712C158.699 59.712 159.467 59.5093 160 59.104C160.555 58.6773 160.832 58.1333 160.832 57.472C160.832 56.9387 160.661 56.512 160.32 56.192C160 55.872 159.541 55.6053 158.944 55.392C158.368 55.1573 157.696 54.9227 156.928 54.688C156.075 54.4533 155.211 54.1867 154.336 53.888C153.461 53.568 152.651 53.1733 151.904 52.704C151.157 52.2133 150.56 51.584 150.112 50.816C149.664 50.048 149.451 49.088 149.472 47.936C149.472 46.528 149.835 45.3333 150.56 44.352C151.285 43.3707 152.267 42.6347 153.504 42.144C154.741 41.632 156.16 41.376 157.76 41.376C159.211 41.376 160.501 41.5893 161.632 42.016C162.763 42.4427 163.691 43.072 164.416 43.904C165.163 44.7147 165.685 45.728 165.984 46.944L160.864 47.84C160.779 47.3707 160.587 46.9867 160.288 46.688C159.989 46.3893 159.627 46.176 159.2 46.048C158.795 45.8987 158.389 45.824 157.984 45.824C157.472 45.824 157.003 45.9093 156.576 46.08C156.149 46.2507 155.797 46.496 155.52 46.816C155.264 47.136 155.136 47.5093 155.136 47.936C155.136 48.4053 155.285 48.7893 155.584 49.088C155.904 49.3867 156.331 49.6533 156.864 49.888C157.397 50.1227 157.984 50.3467 158.624 50.56C159.499 50.8373 160.395 51.136 161.312 51.456C162.229 51.776 163.083 52.192 163.872 52.704C164.661 53.1947 165.291 53.8347 165.76 54.624C166.251 55.392 166.496 56.3627 166.496 57.536C166.496 58.7947 166.187 59.9253 165.568 60.928C164.949 61.9307 164.021 62.7307 162.784 63.328C161.547 63.9253 159.979 64.224 158.08 64.224C156.48 64.224 155.04 64 153.76 63.552C152.501 63.0827 151.467 62.4 150.656 61.504C149.845 60.608 149.312 59.5093 149.056 58.208L154.24 57.184ZM178.475 41.6C180.885 41.6 182.965 42.0693 184.715 43.008C186.485 43.9467 187.851 45.2587 188.811 46.944C189.792 48.6293 190.283 50.5813 190.283 52.8C190.283 54.9973 189.792 56.9387 188.811 58.624C187.851 60.3093 186.485 61.632 184.715 62.592C182.965 63.5307 180.885 64 178.475 64H169.323V41.6H178.475ZM178.123 59.328C180.149 59.328 181.739 58.7413 182.891 57.568C184.043 56.3947 184.619 54.8053 184.619 52.8C184.619 50.7733 184.043 49.184 182.891 48.032C181.739 46.8587 180.149 46.272 178.123 46.272H174.891V59.328H178.123ZM194.964 64.16C194.473 64.16 194.057 63.9893 193.716 63.648C193.396 63.3067 193.236 62.8907 193.236 62.4C193.236 61.9093 193.396 61.4933 193.716 61.152C194.057 60.8107 194.473 60.64 194.964 60.64C195.433 60.64 195.838 60.8107 196.18 61.152C196.521 61.4933 196.692 61.9093 196.692 62.4C196.692 62.8907 196.521 63.3067 196.18 63.648C195.838 63.9893 195.433 64.16 194.964 64.16ZM212.296 60.768L212.552 60.736V70.4H210.152V48H212.36L212.52 50.976C213.01 50.08 213.736 49.3227 214.696 48.704C215.656 48.0853 216.861 47.776 218.312 47.776C219.698 47.776 220.946 48.1173 222.056 48.8C223.165 49.4613 224.04 50.4107 224.68 51.648C225.32 52.864 225.64 54.3147 225.64 56C225.64 57.664 225.33 59.1147 224.712 60.352C224.114 61.568 223.261 62.5173 222.152 63.2C221.064 63.8827 219.784 64.224 218.312 64.224C216.776 64.224 215.506 63.8933 214.504 63.232C213.501 62.5707 212.765 61.7493 212.296 60.768ZM223.048 56C223.048 54.1653 222.568 52.7147 221.608 51.648C220.669 50.56 219.4 50.016 217.8 50.016C216.797 50.016 215.89 50.2507 215.08 50.72C214.29 51.1893 213.672 51.872 213.224 52.768C212.776 53.664 212.552 54.7413 212.552 56C212.552 57.2373 212.776 58.304 213.224 59.2C213.672 60.096 214.29 60.7893 215.08 61.28C215.89 61.7493 216.797 61.984 217.8 61.984C219.4 61.984 220.669 61.4507 221.608 60.384C222.568 59.296 223.048 57.8347 223.048 56ZM239.574 64L239.382 61.12C238.934 62.1013 238.272 62.8693 237.398 63.424C236.523 63.9573 235.414 64.224 234.07 64.224C232.918 64.224 231.936 64.0427 231.126 63.68C230.315 63.3173 229.686 62.8053 229.238 62.144C228.811 61.4613 228.598 60.6613 228.598 59.744C228.598 58.4 229.099 57.3013 230.102 56.448C231.104 55.5733 232.555 55.04 234.454 54.848L239.382 54.304V53.024C239.382 52.128 239.051 51.4133 238.39 50.88C237.728 50.3253 236.832 50.048 235.702 50.048C234.592 50.048 233.664 50.304 232.918 50.816C232.192 51.328 231.691 52.064 231.414 53.024L229.238 52.256C229.664 50.848 230.443 49.7493 231.574 48.96C232.726 48.1707 234.123 47.776 235.766 47.776C237.664 47.776 239.136 48.2667 240.182 49.248C241.248 50.208 241.782 51.52 241.782 53.184V64H239.574ZM239.382 56.352L234.422 56.928C233.355 57.056 232.544 57.3547 231.99 57.824C231.435 58.272 231.158 58.8693 231.158 59.616C231.158 60.3627 231.424 60.96 231.958 61.408C232.512 61.856 233.302 62.08 234.326 62.08C235.499 62.08 236.459 61.8453 237.206 61.376C237.952 60.9067 238.496 60.2773 238.838 59.488C239.2 58.6773 239.382 57.8027 239.382 56.864V56.352ZM246.464 48H248.672L248.8 50.336C249.227 49.76 249.739 49.2693 250.336 48.864C250.955 48.4587 251.627 48.1813 252.352 48.032C253.099 47.8613 253.888 47.8507 254.72 48V50.4C253.824 50.2293 253.013 50.2293 252.288 50.4C251.584 50.5707 250.976 50.8907 250.464 51.36C249.952 51.8293 249.557 52.4267 249.28 53.152C249.003 53.856 248.864 54.6773 248.864 55.616V64H246.464V48ZM268.011 64L267.819 61.12C267.371 62.1013 266.71 62.8693 265.835 63.424C264.961 63.9573 263.851 64.224 262.507 64.224C261.355 64.224 260.374 64.0427 259.563 63.68C258.753 63.3173 258.123 62.8053 257.675 62.144C257.249 61.4613 257.035 60.6613 257.035 59.744C257.035 58.4 257.537 57.3013 258.539 56.448C259.542 55.5733 260.993 55.04 262.891 54.848L267.819 54.304V53.024C267.819 52.128 267.489 51.4133 266.827 50.88C266.166 50.3253 265.27 50.048 264.139 50.048C263.03 50.048 262.102 50.304 261.355 50.816C260.63 51.328 260.129 52.064 259.851 53.024L257.675 52.256C258.102 50.848 258.881 49.7493 260.011 48.96C261.163 48.1707 262.561 47.776 264.203 47.776C266.102 47.776 267.574 48.2667 268.619 49.248C269.686 50.208 270.219 51.52 270.219 53.184V64H268.011ZM267.819 56.352L262.859 56.928C261.793 57.056 260.982 57.3547 260.427 57.824C259.873 58.272 259.595 58.8693 259.595 59.616C259.595 60.3627 259.862 60.96 260.395 61.408C260.95 61.856 261.739 62.08 262.763 62.08C263.937 62.08 264.897 61.8453 265.643 61.376C266.39 60.9067 266.934 60.2773 267.275 59.488C267.638 58.6773 267.819 57.8027 267.819 56.864V56.352ZM296.958 64H294.782L294.622 61.696C294.132 62.5067 293.47 63.136 292.638 63.584C291.806 64.0107 290.836 64.224 289.726 64.224C288.489 64.224 287.412 63.968 286.494 63.456C285.577 62.944 284.862 62.176 284.35 61.152C283.86 60.128 283.614 58.8373 283.614 57.28V48H285.982V57.024C285.982 58.6667 286.334 59.9147 287.038 60.768C287.764 61.6 288.798 62.016 290.142 62.016C291.508 62.016 292.585 61.5787 293.374 60.704C294.185 59.808 294.59 58.464 294.59 56.672V48H296.958V64ZM301.839 48H304.047L304.175 50.272C304.687 49.4827 305.359 48.8747 306.191 48.448C307.023 48 307.994 47.776 309.103 47.776C310.319 47.776 311.386 48.0427 312.303 48.576C313.22 49.088 313.935 49.8667 314.447 50.912C314.959 51.936 315.215 53.2267 315.215 54.784V64H312.815V55.072C312.815 53.408 312.452 52.1493 311.727 51.296C311.023 50.4213 309.999 49.984 308.655 49.984C307.268 49.984 306.18 50.4427 305.391 51.36C304.623 52.2773 304.239 53.632 304.239 55.424V64H301.839V48ZM341.127 48H343.335V61.056C343.335 63.0187 342.898 64.6933 342.023 66.08C341.148 67.488 339.879 68.5547 338.215 69.28C336.551 70.0267 334.524 70.4 332.135 70.4L331.751 68.192C334.759 68.1493 337.042 67.52 338.599 66.304C340.156 65.1093 340.935 63.36 340.935 61.056V60.704L341.191 60.768C340.7 61.7067 339.964 62.5173 338.983 63.2C338.002 63.8613 336.732 64.2027 335.175 64.224C333.703 64.224 332.412 63.8933 331.303 63.232C330.215 62.5493 329.362 61.5893 328.743 60.352C328.146 59.1147 327.847 57.664 327.847 56C327.847 54.336 328.146 52.896 328.743 51.68C329.362 50.4427 330.215 49.4827 331.303 48.8C332.412 48.1173 333.703 47.776 335.175 47.776C336.135 47.776 336.988 47.9253 337.735 48.224C338.482 48.5013 339.122 48.8853 339.655 49.376C340.188 49.8453 340.626 50.3787 340.967 50.976L341.127 48ZM330.439 56C330.439 57.8347 330.908 59.296 331.847 60.384C332.807 61.4507 334.098 61.984 335.719 61.984C336.7 61.984 337.586 61.7493 338.375 61.28C339.164 60.8107 339.783 60.128 340.231 59.232C340.7 58.336 340.935 57.2587 340.935 56C340.935 54.7413 340.7 53.6747 340.231 52.8C339.783 51.904 339.164 51.2213 338.375 50.752C337.586 50.2613 336.7 50.016 335.719 50.016C334.119 50.016 332.839 50.56 331.879 51.648C330.919 52.736 330.439 54.1867 330.439 56ZM348.245 48H350.453L350.581 50.336C351.008 49.76 351.52 49.2693 352.117 48.864C352.736 48.4587 353.408 48.1813 354.133 48.032C354.88 47.8613 355.669 47.8507 356.501 48V50.4C355.605 50.2293 354.795 50.2293 354.069 50.4C353.365 50.5707 352.757 50.8907 352.245 51.36C351.733 51.8293 351.339 52.4267 351.061 53.152C350.784 53.856 350.645 54.6773 350.645 55.616V64H348.245V48ZM372.865 64H370.689L370.529 61.696C370.038 62.5067 369.377 63.136 368.545 63.584C367.713 64.0107 366.742 64.224 365.633 64.224C364.395 64.224 363.318 63.968 362.401 63.456C361.483 62.944 360.769 62.176 360.257 61.152C359.766 60.128 359.521 58.8373 359.521 57.28V48H361.889V57.024C361.889 58.6667 362.241 59.9147 362.945 60.768C363.67 61.6 364.705 62.016 366.049 62.016C367.414 62.016 368.491 61.5787 369.281 60.704C370.091 59.808 370.497 58.464 370.497 56.672V48H372.865V64ZM379.889 60.768L380.145 60.736V70.4H377.745V48H379.953L380.113 50.976C380.604 50.08 381.329 49.3227 382.289 48.704C383.249 48.0853 384.455 47.776 385.905 47.776C387.292 47.776 388.54 48.1173 389.649 48.8C390.759 49.4613 391.633 50.4107 392.273 51.648C392.913 52.864 393.233 54.3147 393.233 56C393.233 57.664 392.924 59.1147 392.305 60.352C391.708 61.568 390.855 62.5173 389.745 63.2C388.657 63.8827 387.377 64.224 385.905 64.224C384.369 64.224 383.1 63.8933 382.097 63.232C381.095 62.5707 380.359 61.7493 379.889 60.768ZM390.641 56C390.641 54.1653 390.161 52.7147 389.201 51.648C388.263 50.56 386.993 50.016 385.393 50.016C384.391 50.016 383.484 50.2507 382.673 50.72C381.884 51.1893 381.265 51.872 380.817 52.768C380.369 53.664 380.145 54.7413 380.145 56C380.145 57.2373 380.369 58.304 380.817 59.2C381.265 60.096 381.884 60.7893 382.673 61.28C383.484 61.7493 384.391 61.984 385.393 61.984C386.993 61.984 388.263 61.4507 389.201 60.384C390.161 59.296 390.641 57.8347 390.641 56ZM404.064 64.224C402.549 64.224 401.194 63.8933 400 63.232C398.805 62.5707 397.866 61.632 397.184 60.416C396.501 59.1787 396.16 57.7173 396.16 56.032C396.16 54.3253 396.501 52.8533 397.184 51.616C397.888 50.3787 398.837 49.4293 400.032 48.768C401.248 48.1067 402.613 47.776 404.128 47.776C405.642 47.776 406.997 48.1067 408.192 48.768C409.408 49.4293 410.357 50.3787 411.04 51.616C411.744 52.832 412.096 54.2827 412.096 55.968C412.096 57.6747 411.744 59.1467 411.04 60.384C410.336 61.6213 409.376 62.5707 408.16 63.232C406.944 63.8933 405.578 64.224 404.064 64.224ZM404.032 61.952C404.97 61.952 405.856 61.7493 406.688 61.344C407.52 60.9173 408.192 60.2667 408.704 59.392C409.237 58.496 409.504 57.3653 409.504 56C409.504 54.6133 409.248 53.4827 408.736 52.608C408.224 51.7333 407.552 51.0933 406.72 50.688C405.909 50.2613 405.034 50.048 404.095 50.048C403.157 50.048 402.282 50.2613 401.472 50.688C400.661 51.0933 400 51.744 399.488 52.64C398.997 53.5147 398.752 54.6347 398.752 56C398.752 57.3867 398.997 58.5173 399.488 59.392C399.978 60.2667 400.618 60.9173 401.408 61.344C402.218 61.7493 403.093 61.952 404.032 61.952ZM437.347 51.232L437.091 51.264V40.96H439.491V64H437.283L437.123 61.024C436.633 61.92 435.897 62.6773 434.915 63.296C433.955 63.9147 432.761 64.224 431.331 64.224C429.859 64.224 428.569 63.8933 427.459 63.232C426.371 62.5493 425.518 61.5893 424.899 60.352C424.302 59.1147 424.003 57.664 424.003 56C424.003 54.336 424.302 52.896 424.899 51.68C425.518 50.4427 426.371 49.4827 427.459 48.8C428.569 48.1173 429.859 47.776 431.331 47.776C432.846 47.776 434.105 48.1067 435.107 48.768C436.11 49.4293 436.857 50.2507 437.347 51.232ZM426.595 56C426.595 57.8347 427.065 59.296 428.003 60.384C428.942 61.4507 430.222 61.984 431.843 61.984C432.846 61.984 433.742 61.7493 434.531 61.28C435.321 60.8107 435.939 60.128 436.387 59.232C436.857 58.336 437.091 57.2587 437.091 56C437.091 54.7413 436.857 53.6747 436.387 52.8C435.939 51.904 435.321 51.2213 434.531 50.752C433.742 50.2613 432.846 50.016 431.843 50.016C430.243 50.016 428.963 50.56 428.003 51.648C427.065 52.7147 426.595 54.1653 426.595 56ZM451.122 64.224C449.628 64.224 448.295 63.8613 447.122 63.136C445.97 62.4107 445.063 61.4187 444.402 60.16C443.74 58.9013 443.41 57.4613 443.41 55.84C443.41 54.2827 443.74 52.896 444.402 51.68C445.063 50.464 445.97 49.5147 447.122 48.832C448.274 48.128 449.586 47.776 451.058 47.776C452.508 47.776 453.799 48.096 454.93 48.736C456.082 49.376 456.978 50.2613 457.618 51.392C458.258 52.5227 458.556 53.8133 458.514 55.264C458.514 55.4987 458.503 55.744 458.482 56C458.46 56.256 458.439 56.5333 458.418 56.832H446.034C446.076 57.8347 446.322 58.72 446.77 59.488C447.218 60.256 447.804 60.864 448.53 61.312C449.276 61.7387 450.119 61.952 451.058 61.952C452.295 61.952 453.34 61.7173 454.194 61.248C455.068 60.7787 455.698 60.1067 456.082 59.232L458.162 60.064C457.522 61.408 456.594 62.4427 455.378 63.168C454.162 63.872 452.743 64.224 451.122 64.224ZM455.89 54.752C455.911 53.8347 455.708 53.024 455.282 52.32C454.876 51.616 454.3 51.0613 453.554 50.656C452.807 50.2507 451.943 50.048 450.962 50.048C450.108 50.048 449.33 50.2507 448.626 50.656C447.922 51.0613 447.335 51.6267 446.866 52.352C446.418 53.056 446.151 53.856 446.066 54.752H455.89ZM485.481 41.6V43.84H474.153V51.296C474.643 50.6133 475.358 50.0587 476.297 49.632C477.235 49.2053 478.291 48.992 479.465 48.992C480.83 48.992 481.982 49.216 482.921 49.664C483.859 50.112 484.617 50.6987 485.193 51.424C485.79 52.1493 486.217 52.9493 486.473 53.824C486.75 54.6773 486.889 55.52 486.889 56.352C486.889 57.76 486.59 59.0613 485.993 60.256C485.417 61.4507 484.542 62.4107 483.369 63.136C482.217 63.8613 480.777 64.224 479.049 64.224C477.555 64.224 476.243 63.9573 475.113 63.424C474.003 62.8907 473.107 62.1547 472.425 61.216C471.763 60.256 471.337 59.1467 471.145 57.888H473.641C473.939 59.2107 474.558 60.224 475.497 60.928C476.457 61.6107 477.641 61.952 479.049 61.952C480.243 61.952 481.225 61.7173 481.993 61.248C482.782 60.7787 483.358 60.128 483.721 59.296C484.105 58.464 484.297 57.504 484.297 56.416C484.297 54.7733 483.849 53.504 482.953 52.608C482.057 51.712 480.777 51.264 479.113 51.264C477.897 51.264 476.841 51.5307 475.945 52.064C475.07 52.5973 474.419 53.344 473.993 54.304H471.593V41.6H485.481ZM491.114 52.8C491.114 51.1573 491.231 49.6427 491.466 48.256C491.7 46.848 492.106 45.632 492.682 44.608C493.258 43.584 494.058 42.7947 495.082 42.24C496.127 41.664 497.439 41.376 499.018 41.376C500.596 41.376 501.898 41.664 502.922 42.24C503.946 42.7947 504.746 43.584 505.322 44.608C505.898 45.632 506.303 46.848 506.538 48.256C506.772 49.6427 506.89 51.1573 506.89 52.8C506.89 54.464 506.772 56 506.538 57.408C506.303 58.7947 505.898 60 505.322 61.024C504.746 62.048 503.946 62.8373 502.922 63.392C501.898 63.9467 500.596 64.224 499.018 64.224C497.439 64.224 496.127 63.9467 495.082 63.392C494.058 62.8373 493.258 62.048 492.682 61.024C492.106 60 491.7 58.7947 491.466 57.408C491.231 56 491.114 54.464 491.114 52.8ZM504.298 52.8C504.298 51.5413 504.234 50.368 504.106 49.28C503.999 48.1707 503.775 47.2 503.434 46.368C503.092 45.5147 502.57 44.8533 501.866 44.384C501.162 43.8933 500.212 43.648 499.018 43.648C497.844 43.648 496.895 43.8933 496.17 44.384C495.466 44.8533 494.932 45.5147 494.57 46.368C494.228 47.2 493.994 48.1707 493.866 49.28C493.759 50.368 493.706 51.5413 493.706 52.8C493.706 54.1013 493.759 55.3067 493.866 56.416C493.994 57.5253 494.228 58.496 494.57 59.328C494.932 60.16 495.466 60.8107 496.17 61.28C496.895 61.728 497.844 61.952 499.018 61.952C500.212 61.952 501.162 61.728 501.866 61.28C502.57 60.8107 503.092 60.16 503.434 59.328C503.775 58.496 503.999 57.5253 504.106 56.416C504.234 55.3067 504.298 54.1013 504.298 52.8ZM40.608 98.768L40.864 98.736V108.4H38.464V86H40.672L40.832 88.976C41.3227 88.08 42.048 87.3227 43.008 86.704C43.968 86.0853 45.1733 85.776 46.624 85.776C48.0107 85.776 49.2587 86.1173 50.368 86.8C51.4773 87.4613 52.352 88.4107 52.992 89.648C53.632 90.864 53.952 92.3147 53.952 94C53.952 95.664 53.6427 97.1147 53.024 98.352C52.4267 99.568 51.5733 100.517 50.464 101.2C49.376 101.883 48.096 102.224 46.624 102.224C45.088 102.224 43.8187 101.893 42.816 101.232C41.8133 100.571 41.0773 99.7493 40.608 98.768ZM51.36 94C51.36 92.1653 50.88 90.7147 49.92 89.648C48.9813 88.56 47.712 88.016 46.112 88.016C45.1093 88.016 44.2027 88.2507 43.392 88.72C42.6027 89.1893 41.984 89.872 41.536 90.768C41.088 91.664 40.864 92.7413 40.864 94C40.864 95.2373 41.088 96.304 41.536 97.2C41.984 98.096 42.6027 98.7893 43.392 99.28C44.2027 99.7493 45.1093 99.984 46.112 99.984C47.712 99.984 48.9813 99.4507 49.92 98.384C50.88 97.296 51.36 95.8347 51.36 94ZM64.5903 102.224C63.0969 102.224 61.7636 101.861 60.5903 101.136C59.4383 100.411 58.5316 99.4187 57.8703 98.16C57.2089 96.9013 56.8783 95.4613 56.8783 93.84C56.8783 92.2827 57.2089 90.896 57.8703 89.68C58.5316 88.464 59.4383 87.5147 60.5903 86.832C61.7423 86.128 63.0543 85.776 64.5263 85.776C65.9769 85.776 67.2676 86.096 68.3983 86.736C69.5503 87.376 70.4463 88.2613 71.0863 89.392C71.7263 90.5227 72.0249 91.8133 71.9823 93.264C71.9823 93.4987 71.9716 93.744 71.9503 94C71.9289 94.256 71.9076 94.5333 71.8863 94.832H59.5023C59.5449 95.8347 59.7903 96.72 60.2383 97.488C60.6863 98.256 61.2729 98.864 61.9983 99.312C62.7449 99.7387 63.5876 99.952 64.5263 99.952C65.7636 99.952 66.8089 99.7173 67.6623 99.248C68.5369 98.7787 69.1663 98.1067 69.5503 97.232L71.6303 98.064C70.9903 99.408 70.0623 100.443 68.8463 101.168C67.6303 101.872 66.2116 102.224 64.5903 102.224ZM69.3583 92.752C69.3796 91.8347 69.1769 91.024 68.7503 90.32C68.3449 89.616 67.7689 89.0613 67.0223 88.656C66.2756 88.2507 65.4116 88.048 64.4303 88.048C63.5769 88.048 62.7983 88.2507 62.0943 88.656C61.3903 89.0613 60.8036 89.6267 60.3343 90.352C59.8863 91.056 59.6196 91.856 59.5343 92.752H69.3583ZM75.9328 86H78.1408L78.2688 88.336C78.6954 87.76 79.2074 87.2693 79.8048 86.864C80.4234 86.4587 81.0954 86.1813 81.8208 86.032C82.5674 85.8613 83.3568 85.8507 84.1888 86V88.4C83.2928 88.2293 82.4821 88.2293 81.7568 88.4C81.0528 88.5707 80.4448 88.8907 79.9328 89.36C79.4208 89.8293 79.0261 90.4267 78.7488 91.152C78.4714 91.856 78.3328 92.6773 78.3328 93.616V102H75.9328V86ZM88.776 97.104C88.904 97.744 89.1387 98.2773 89.48 98.704C89.8213 99.1093 90.2587 99.4187 90.792 99.632C91.3467 99.8453 91.9867 99.952 92.712 99.952C93.8427 99.952 94.696 99.7387 95.272 99.312C95.8693 98.864 96.168 98.3093 96.168 97.648C96.168 97.0933 95.9867 96.6453 95.624 96.304C95.2827 95.9627 94.824 95.6853 94.248 95.472C93.672 95.2373 93.032 95.0347 92.328 94.864C91.7733 94.736 91.176 94.5867 90.536 94.416C89.896 94.224 89.288 93.968 88.712 93.648C88.136 93.328 87.6667 92.912 87.304 92.4C86.9413 91.888 86.76 91.216 86.76 90.384C86.76 89.4667 87.0053 88.6667 87.496 87.984C88.008 87.28 88.7013 86.736 89.576 86.352C90.472 85.968 91.496 85.776 92.648 85.776C93.9707 85.776 95.144 86.064 96.168 86.64C97.2133 87.216 97.9387 88.112 98.344 89.328L96.104 90.096C95.9547 89.5413 95.6773 89.1147 95.272 88.816C94.888 88.5173 94.4507 88.3147 93.96 88.208C93.4907 88.1013 93.0213 88.048 92.552 88.048C91.592 88.048 90.8133 88.24 90.216 88.624C89.64 88.9867 89.352 89.5413 89.352 90.288C89.352 90.6933 89.448 91.0347 89.64 91.312C89.832 91.568 90.0987 91.7813 90.44 91.952C90.7813 92.1227 91.1867 92.272 91.656 92.4C92.1253 92.5067 92.6373 92.6347 93.192 92.784C93.8107 92.9333 94.44 93.1253 95.08 93.36C95.72 93.5733 96.3173 93.8613 96.872 94.224C97.4267 94.5653 97.8747 95.0133 98.216 95.568C98.5787 96.1013 98.76 96.7733 98.76 97.584C98.76 98.5227 98.504 99.344 97.992 100.048C97.48 100.731 96.7653 101.264 95.848 101.648C94.952 102.032 93.9067 102.224 92.712 102.224C91.0693 102.224 89.704 101.861 88.616 101.136C87.5493 100.389 86.8347 99.3013 86.472 97.872L88.776 97.104ZM109.564 102.224C108.049 102.224 106.694 101.893 105.5 101.232C104.305 100.571 103.366 99.632 102.684 98.416C102.001 97.1787 101.66 95.7173 101.66 94.032C101.66 92.3253 102.001 90.8533 102.684 89.616C103.388 88.3787 104.337 87.4293 105.532 86.768C106.748 86.1067 108.113 85.776 109.628 85.776C111.142 85.776 112.497 86.1067 113.692 86.768C114.908 87.4293 115.857 88.3787 116.54 89.616C117.244 90.832 117.596 92.2827 117.596 93.968C117.596 95.6747 117.244 97.1467 116.54 98.384C115.836 99.6213 114.876 100.571 113.66 101.232C112.444 101.893 111.078 102.224 109.564 102.224ZM109.532 99.952C110.47 99.952 111.356 99.7493 112.188 99.344C113.02 98.9173 113.692 98.2667 114.204 97.392C114.737 96.496 115.004 95.3653 115.004 94C115.004 92.6133 114.748 91.4827 114.236 90.608C113.724 89.7333 113.052 89.0933 112.22 88.688C111.409 88.2613 110.534 88.048 109.595 88.048C108.657 88.048 107.782 88.2613 106.972 88.688C106.161 89.0933 105.5 89.744 104.988 90.64C104.497 91.5147 104.252 92.6347 104.252 94C104.252 95.3867 104.497 96.5173 104.988 97.392C105.478 98.2667 106.118 98.9173 106.908 99.344C107.718 99.7493 108.593 99.952 109.532 99.952ZM121.527 86H123.735L123.863 88.272C124.375 87.4827 125.047 86.8747 125.879 86.448C126.711 86 127.681 85.776 128.791 85.776C130.007 85.776 131.073 86.0427 131.991 86.576C132.908 87.088 133.623 87.8667 134.135 88.912C134.647 89.936 134.903 91.2267 134.903 92.784V102H132.503V93.072C132.503 91.408 132.14 90.1493 131.415 89.296C130.711 88.4213 129.687 87.984 128.343 87.984C126.956 87.984 125.868 88.4427 125.079 89.36C124.311 90.2773 123.927 91.632 123.927 93.424V102H121.527V86ZM149.574 102L149.382 99.12C148.934 100.101 148.272 100.869 147.398 101.424C146.523 101.957 145.414 102.224 144.07 102.224C142.918 102.224 141.936 102.043 141.126 101.68C140.315 101.317 139.686 100.805 139.238 100.144C138.811 99.4613 138.598 98.6613 138.598 97.744C138.598 96.4 139.099 95.3013 140.102 94.448C141.104 93.5733 142.555 93.04 144.454 92.848L149.382 92.304V91.024C149.382 90.128 149.051 89.4133 148.39 88.88C147.728 88.3253 146.832 88.048 145.702 88.048C144.592 88.048 143.664 88.304 142.918 88.816C142.192 89.328 141.691 90.064 141.414 91.024L139.238 90.256C139.664 88.848 140.443 87.7493 141.574 86.96C142.726 86.1707 144.123 85.776 145.766 85.776C147.664 85.776 149.136 86.2667 150.182 87.248C151.248 88.208 151.782 89.52 151.782 91.184V102H149.574ZM149.382 94.352L144.422 94.928C143.355 95.056 142.544 95.3547 141.99 95.824C141.435 96.272 141.158 96.8693 141.158 97.616C141.158 98.3627 141.424 98.96 141.958 99.408C142.512 99.856 143.302 100.08 144.326 100.08C145.499 100.08 146.459 99.8453 147.206 99.376C147.952 98.9067 148.496 98.2773 148.838 97.488C149.2 96.6773 149.382 95.8027 149.382 94.864V94.352ZM157.776 97.104C157.904 97.744 158.139 98.2773 158.48 98.704C158.821 99.1093 159.259 99.4187 159.792 99.632C160.347 99.8453 160.987 99.952 161.712 99.952C162.843 99.952 163.696 99.7387 164.272 99.312C164.869 98.864 165.168 98.3093 165.168 97.648C165.168 97.0933 164.987 96.6453 164.624 96.304C164.283 95.9627 163.824 95.6853 163.248 95.472C162.672 95.2373 162.032 95.0347 161.328 94.864C160.773 94.736 160.176 94.5867 159.536 94.416C158.896 94.224 158.288 93.968 157.712 93.648C157.136 93.328 156.667 92.912 156.304 92.4C155.941 91.888 155.76 91.216 155.76 90.384C155.76 89.4667 156.005 88.6667 156.496 87.984C157.008 87.28 157.701 86.736 158.576 86.352C159.472 85.968 160.496 85.776 161.648 85.776C162.971 85.776 164.144 86.064 165.168 86.64C166.213 87.216 166.939 88.112 167.344 89.328L165.104 90.096C164.955 89.5413 164.677 89.1147 164.272 88.816C163.888 88.5173 163.451 88.3147 162.96 88.208C162.491 88.1013 162.021 88.048 161.552 88.048C160.592 88.048 159.813 88.24 159.216 88.624C158.64 88.9867 158.352 89.5413 158.352 90.288C158.352 90.6933 158.448 91.0347 158.64 91.312C158.832 91.568 159.099 91.7813 159.44 91.952C159.781 92.1227 160.187 92.272 160.656 92.4C161.125 92.5067 161.637 92.6347 162.192 92.784C162.811 92.9333 163.44 93.1253 164.08 93.36C164.72 93.5733 165.317 93.8613 165.872 94.224C166.427 94.5653 166.875 95.0133 167.216 95.568C167.579 96.1013 167.76 96.7733 167.76 97.584C167.76 98.5227 167.504 99.344 166.992 100.048C166.48 100.731 165.765 101.264 164.848 101.648C163.952 102.032 162.907 102.224 161.712 102.224C160.069 102.224 158.704 101.861 157.616 101.136C156.549 100.389 155.835 99.3013 155.472 97.872L157.776 97.104ZM172.964 102.16C172.473 102.16 172.057 101.989 171.716 101.648C171.396 101.307 171.236 100.891 171.236 100.4C171.236 99.9093 171.396 99.4933 171.716 99.152C172.057 98.8107 172.473 98.64 172.964 98.64C173.433 98.64 173.838 98.8107 174.18 99.152C174.521 99.4933 174.692 99.9093 174.692 100.4C174.692 100.891 174.521 101.307 174.18 101.648C173.838 101.989 173.433 102.16 172.964 102.16ZM198.232 102.224C196.653 102.224 195.181 101.947 193.816 101.392C192.472 100.837 191.288 100.059 190.264 99.056C189.261 98.032 188.472 96.8267 187.896 95.44C187.341 94.032 187.064 92.4853 187.064 90.8C187.064 89.1147 187.341 87.5787 187.896 86.192C188.472 84.784 189.261 83.5787 190.264 82.576C191.288 81.552 192.472 80.7627 193.816 80.208C195.181 79.6533 196.653 79.376 198.232 79.376C199.789 79.376 201.24 79.6533 202.583 80.208C203.949 80.7627 205.133 81.552 206.136 82.576C207.138 83.5787 207.917 84.784 208.472 86.192C209.048 87.5787 209.336 89.1147 209.336 90.8C209.336 92.4853 209.048 94.032 208.472 95.44C207.917 96.8267 207.138 98.032 206.136 99.056C205.133 100.059 203.949 100.837 202.583 101.392C201.24 101.947 199.789 102.224 198.232 102.224ZM198.232 99.984C199.832 99.984 201.272 99.6107 202.552 98.864C203.832 98.1173 204.845 97.0613 205.592 95.696C206.338 94.3093 206.712 92.6773 206.712 90.8C206.712 88.9013 206.338 87.2693 205.592 85.904C204.845 84.5173 203.832 83.4613 202.552 82.736C201.272 81.9893 199.832 81.616 198.232 81.616C196.61 81.616 195.149 81.9893 193.848 82.736C192.568 83.4613 191.554 84.5173 190.808 85.904C190.061 87.2693 189.688 88.9013 189.688 90.8C189.688 92.6773 190.061 94.3093 190.808 95.696C191.554 97.0613 192.568 98.1173 193.848 98.864C195.149 99.6107 196.61 99.984 198.232 99.984ZM228.136 77.2H230.152V104.4H228.136V77.2ZM225.896 95.184C226.003 95.8027 226.216 96.304 226.536 96.688C226.878 97.0507 227.283 97.3173 227.752 97.488C228.243 97.6373 228.776 97.712 229.352 97.712C230.355 97.712 231.123 97.5093 231.656 97.104C232.211 96.6773 232.488 96.1333 232.488 95.472C232.488 94.9387 232.318 94.512 231.976 94.192C231.656 93.872 231.198 93.6053 230.6 93.392C230.024 93.1573 229.352 92.9227 228.584 92.688C227.731 92.4533 226.867 92.1867 225.992 91.888C225.118 91.568 224.307 91.1733 223.56 90.704C222.814 90.2133 222.216 89.584 221.768 88.816C221.32 88.048 221.107 87.088 221.128 85.936C221.128 84.528 221.491 83.3333 222.216 82.352C222.942 81.3707 223.923 80.6347 225.16 80.144C226.398 79.632 227.816 79.376 229.416 79.376C230.867 79.376 232.158 79.5893 233.288 80.016C234.419 80.4427 235.347 81.072 236.072 81.904C236.819 82.7147 237.342 83.728 237.64 84.944L232.52 85.84C232.435 85.3707 232.243 84.9867 231.944 84.688C231.646 84.3893 231.283 84.176 230.856 84.048C230.451 83.8987 230.046 83.824 229.64 83.824C229.128 83.824 228.659 83.9093 228.232 84.08C227.806 84.2507 227.454 84.496 227.176 84.816C226.92 85.136 226.792 85.5093 226.792 85.936C226.792 86.4053 226.942 86.7893 227.24 87.088C227.56 87.3867 227.987 87.6533 228.52 87.888C229.054 88.1227 229.64 88.3467 230.28 88.56C231.155 88.8373 232.051 89.136 232.968 89.456C233.886 89.776 234.739 90.192 235.528 90.704C236.318 91.1947 236.947 91.8347 237.416 92.624C237.907 93.392 238.152 94.3627 238.152 95.536C238.152 96.7947 237.843 97.9253 237.224 98.928C236.606 99.9307 235.678 100.731 234.44 101.328C233.203 101.925 231.635 102.224 229.736 102.224C228.136 102.224 226.696 102 225.416 101.552C224.158 101.083 223.123 100.4 222.312 99.504C221.502 98.608 220.968 97.5093 220.712 96.208L225.896 95.184ZM243.315 84.272H240.115V79.6H248.883V102H243.315V84.272ZM267.296 79.6V84.272H257.856V88.336C258.283 87.8667 258.784 87.504 259.36 87.248C259.958 86.992 260.715 86.864 261.632 86.864C262.87 86.864 263.936 87.0773 264.832 87.504C265.728 87.9307 266.464 88.496 267.04 89.2C267.638 89.904 268.075 90.704 268.352 91.6C268.63 92.4747 268.768 93.36 268.768 94.256C268.768 95.92 268.427 97.3493 267.744 98.544C267.083 99.7387 266.144 100.656 264.928 101.296C263.712 101.915 262.262 102.224 260.576 102.224C258.806 102.224 257.291 101.925 256.032 101.328C254.795 100.709 253.835 99.8773 253.152 98.832C252.491 97.7867 252.128 96.592 252.064 95.248H257.536C257.643 95.8027 257.92 96.3147 258.368 96.784C258.838 97.232 259.51 97.456 260.384 97.456C261.024 97.456 261.536 97.3387 261.92 97.104C262.326 96.848 262.624 96.4747 262.816 95.984C263.008 95.4933 263.104 94.9067 263.104 94.224C263.104 93.2427 262.859 92.5173 262.368 92.048C261.899 91.5787 261.216 91.344 260.32 91.344C259.638 91.344 259.072 91.536 258.624 91.92C258.176 92.2827 257.888 92.6987 257.76 93.168H252.288V79.6H267.296ZM271.502 90.8C271.502 89.0933 271.662 87.536 271.982 86.128C272.302 84.72 272.814 83.5147 273.518 82.512C274.222 81.5093 275.15 80.7413 276.302 80.208C277.475 79.6533 278.894 79.376 280.558 79.376C282.222 79.376 283.63 79.6533 284.782 80.208C285.934 80.7413 286.862 81.5093 287.566 82.512C288.291 83.5147 288.814 84.72 289.134 86.128C289.454 87.536 289.614 89.0933 289.614 90.8C289.614 92.528 289.454 94.096 289.134 95.504C288.814 96.912 288.291 98.1173 287.566 99.12C286.862 100.123 285.934 100.891 284.782 101.424C283.63 101.957 282.222 102.224 280.558 102.224C278.894 102.224 277.475 101.957 276.302 101.424C275.15 100.891 274.222 100.123 273.518 99.12C272.814 98.1173 272.302 96.912 271.982 95.504C271.662 94.096 271.502 92.528 271.502 90.8ZM283.95 90.8C283.95 89.9253 283.918 89.0933 283.854 88.304C283.79 87.4933 283.64 86.7787 283.406 86.16C283.192 85.5413 282.862 85.0507 282.414 84.688C281.966 84.3253 281.347 84.144 280.558 84.144C279.768 84.144 279.15 84.3253 278.702 84.688C278.254 85.0507 277.912 85.5413 277.678 86.16C277.464 86.7787 277.326 87.4933 277.262 88.304C277.198 89.0933 277.166 89.9253 277.166 90.8C277.166 91.7173 277.198 92.5813 277.262 93.392C277.326 94.1813 277.464 94.8853 277.678 95.504C277.912 96.1013 278.254 96.5813 278.702 96.944C279.15 97.2853 279.768 97.456 280.558 97.456C281.347 97.456 281.966 97.2853 282.414 96.944C282.862 96.5813 283.192 96.1013 283.406 95.504C283.64 94.8853 283.79 94.1813 283.854 93.392C283.918 92.5813 283.95 91.7173 283.95 90.8ZM316.544 102H311.776L311.392 100.144C310.88 100.763 310.272 101.264 309.568 101.648C308.864 102.032 308.085 102.224 307.232 102.224C306.059 102.224 305.035 101.957 304.16 101.424C303.307 100.869 302.635 100.08 302.144 99.056C301.675 98.0107 301.44 96.7627 301.44 95.312V86H306.688V94.704C306.688 95.6213 306.88 96.3253 307.264 96.816C307.648 97.2853 308.224 97.52 308.992 97.52C309.739 97.52 310.304 97.2747 310.688 96.784C311.093 96.272 311.296 95.5573 311.296 94.64V86H316.544V102ZM323.917 96.688C324.002 97.008 324.13 97.2747 324.301 97.488C324.472 97.68 324.696 97.8293 324.973 97.936C325.25 98.0427 325.57 98.096 325.933 98.096C326.488 98.096 326.914 98 327.213 97.808C327.533 97.616 327.693 97.3707 327.693 97.072C327.693 96.7733 327.565 96.5493 327.309 96.4C327.074 96.2293 326.765 96.0907 326.381 95.984C325.997 95.8773 325.592 95.7813 325.165 95.696C324.632 95.5893 324.034 95.4507 323.373 95.28C322.712 95.1093 322.072 94.864 321.453 94.544C320.856 94.2027 320.354 93.744 319.949 93.168C319.565 92.592 319.373 91.856 319.373 90.96C319.373 89.9787 319.629 89.104 320.141 88.336C320.653 87.5467 321.4 86.928 322.381 86.48C323.384 86.0107 324.61 85.776 326.061 85.776C327.832 85.776 329.24 86.1387 330.285 86.864C331.33 87.5893 332.056 88.592 332.461 89.872L327.917 90.896C327.853 90.64 327.725 90.448 327.533 90.32C327.362 90.1707 327.149 90.064 326.893 90C326.637 89.936 326.381 89.904 326.125 89.904C325.634 89.904 325.272 90 325.037 90.192C324.802 90.3627 324.685 90.5653 324.685 90.8C324.685 90.992 324.749 91.152 324.877 91.28C325.005 91.3867 325.176 91.472 325.389 91.536C325.624 91.6 325.89 91.664 326.189 91.728C326.509 91.7707 326.84 91.8347 327.181 91.92C327.821 92.0693 328.472 92.2507 329.133 92.464C329.816 92.656 330.445 92.9333 331.021 93.296C331.618 93.6587 332.098 94.1387 332.461 94.736C332.824 95.3333 333.016 96.112 333.037 97.072C333.037 98.032 332.77 98.9067 332.237 99.696C331.704 100.464 330.914 101.083 329.869 101.552C328.845 102 327.565 102.224 326.029 102.224C324.152 102.224 322.594 101.851 321.357 101.104C320.141 100.336 319.384 99.2053 319.085 97.712L323.917 96.688ZM346.801 88.496H346.033V78.96H351.281V102H346.545L346.257 99.984C345.873 100.581 345.275 101.104 344.465 101.552C343.654 102 342.779 102.224 341.841 102.224C340.518 102.224 339.334 101.893 338.289 101.232C337.243 100.549 336.422 99.6 335.825 98.384C335.227 97.1467 334.929 95.6853 334.929 94C334.929 92.2933 335.227 90.832 335.825 89.616C336.422 88.3787 337.233 87.4293 338.257 86.768C339.302 86.1067 340.497 85.776 341.841 85.776C343.014 85.776 344.017 86.0427 344.849 86.576C345.702 87.1093 346.353 87.7493 346.801 88.496ZM340.593 94C340.593 95.0027 340.838 95.8133 341.329 96.432C341.841 97.0293 342.502 97.328 343.313 97.328C343.803 97.328 344.251 97.2 344.657 96.944C345.083 96.688 345.414 96.3147 345.649 95.824C345.905 95.3333 346.033 94.7253 346.033 94C346.033 93.2747 345.905 92.6667 345.649 92.176C345.414 91.6853 345.083 91.312 344.657 91.056C344.251 90.7787 343.803 90.64 343.313 90.64C342.481 90.64 341.819 90.9493 341.329 91.568C340.838 92.1867 340.593 92.9973 340.593 94ZM366.421 98.768L366.677 98.736V108.4H364.277V86H366.485L366.645 88.976C367.135 88.08 367.861 87.3227 368.821 86.704C369.781 86.0853 370.986 85.776 372.437 85.776C373.823 85.776 375.071 86.1173 376.181 86.8C377.29 87.4613 378.165 88.4107 378.805 89.648C379.445 90.864 379.765 92.3147 379.765 94C379.765 95.664 379.455 97.1147 378.837 98.352C378.239 99.568 377.386 100.517 376.277 101.2C375.189 101.883 373.909 102.224 372.437 102.224C370.901 102.224 369.631 101.893 368.629 101.232C367.626 100.571 366.89 99.7493 366.421 98.768ZM377.173 94C377.173 92.1653 376.693 90.7147 375.733 89.648C374.794 88.56 373.525 88.016 371.925 88.016C370.922 88.016 370.015 88.2507 369.205 88.72C368.415 89.1893 367.797 89.872 367.349 90.768C366.901 91.664 366.677 92.7413 366.677 94C366.677 95.2373 366.901 96.304 367.349 97.2C367.797 98.096 368.415 98.7893 369.205 99.28C370.015 99.7493 370.922 99.984 371.925 99.984C373.525 99.984 374.794 99.4507 375.733 98.384C376.693 97.296 377.173 95.8347 377.173 94ZM390.595 102.224C389.08 102.224 387.725 101.893 386.531 101.232C385.336 100.571 384.397 99.632 383.715 98.416C383.032 97.1787 382.691 95.7173 382.691 94.032C382.691 92.3253 383.032 90.8533 383.715 89.616C384.419 88.3787 385.368 87.4293 386.563 86.768C387.779 86.1067 389.144 85.776 390.659 85.776C392.173 85.776 393.528 86.1067 394.723 86.768C395.939 87.4293 396.888 88.3787 397.571 89.616C398.275 90.832 398.627 92.2827 398.627 93.968C398.627 95.6747 398.275 97.1467 397.571 98.384C396.867 99.6213 395.907 100.571 394.691 101.232C393.475 101.893 392.109 102.224 390.595 102.224ZM390.563 99.952C391.501 99.952 392.387 99.7493 393.219 99.344C394.051 98.9173 394.723 98.2667 395.235 97.392C395.768 96.496 396.035 95.3653 396.035 94C396.035 92.6133 395.779 91.4827 395.267 90.608C394.755 89.7333 394.083 89.0933 393.251 88.688C392.44 88.2613 391.565 88.048 390.627 88.048C389.688 88.048 388.813 88.2613 388.003 88.688C387.192 89.0933 386.531 89.744 386.019 90.64C385.528 91.5147 385.283 92.6347 385.283 94C385.283 95.3867 385.528 96.5173 386.019 97.392C386.509 98.2667 387.149 98.9173 387.939 99.344C388.749 99.7493 389.624 99.952 390.563 99.952ZM402.558 86H404.766L404.894 88.336C405.32 87.76 405.832 87.2693 406.43 86.864C407.048 86.4587 407.72 86.1813 408.446 86.032C409.192 85.8613 409.982 85.8507 410.814 86V88.4C409.918 88.2293 409.107 88.2293 408.382 88.4C407.678 88.5707 407.07 88.8907 406.558 89.36C406.046 89.8293 405.651 90.4267 405.374 91.152C405.096 91.856 404.958 92.6773 404.958 93.616V102H402.558V86ZM425.202 98.768L425.458 98.736V108.4H423.058V86H425.266L425.426 88.976C425.916 88.08 426.642 87.3227 427.602 86.704C428.562 86.0853 429.767 85.776 431.218 85.776C432.604 85.776 433.852 86.1173 434.962 86.8C436.071 87.4613 436.946 88.4107 437.586 89.648C438.226 90.864 438.546 92.3147 438.546 94C438.546 95.664 438.236 97.1147 437.618 98.352C437.02 99.568 436.167 100.517 435.058 101.2C433.97 101.883 432.69 102.224 431.218 102.224C429.682 102.224 428.412 101.893 427.41 101.232C426.407 100.571 425.671 99.7493 425.202 98.768ZM435.954 94C435.954 92.1653 435.474 90.7147 434.514 89.648C433.575 88.56 432.306 88.016 430.706 88.016C429.703 88.016 428.796 88.2507 427.986 88.72C427.196 89.1893 426.578 89.872 426.13 90.768C425.682 91.664 425.458 92.7413 425.458 94C425.458 95.2373 425.682 96.304 426.13 97.2C426.578 98.096 427.196 98.7893 427.986 99.28C428.796 99.7493 429.703 99.984 430.706 99.984C432.306 99.984 433.575 99.4507 434.514 98.384C435.474 97.296 435.954 95.8347 435.954 94ZM449.184 102.224C447.691 102.224 446.357 101.861 445.184 101.136C444.032 100.411 443.125 99.4187 442.464 98.16C441.803 96.9013 441.472 95.4613 441.472 93.84C441.472 92.2827 441.803 90.896 442.464 89.68C443.125 88.464 444.032 87.5147 445.184 86.832C446.336 86.128 447.648 85.776 449.12 85.776C450.571 85.776 451.861 86.096 452.992 86.736C454.144 87.376 455.04 88.2613 455.68 89.392C456.32 90.5227 456.619 91.8133 456.576 93.264C456.576 93.4987 456.565 93.744 456.544 94C456.523 94.256 456.501 94.5333 456.48 94.832H444.096C444.139 95.8347 444.384 96.72 444.832 97.488C445.28 98.256 445.867 98.864 446.592 99.312C447.339 99.7387 448.181 99.952 449.12 99.952C450.357 99.952 451.403 99.7173 452.256 99.248C453.131 98.7787 453.76 98.1067 454.144 97.232L456.224 98.064C455.584 99.408 454.656 100.443 453.44 101.168C452.224 101.872 450.805 102.224 449.184 102.224ZM453.952 92.752C453.973 91.8347 453.771 91.024 453.344 90.32C452.939 89.616 452.363 89.0613 451.616 88.656C450.869 88.2507 450.005 88.048 449.024 88.048C448.171 88.048 447.392 88.2507 446.688 88.656C445.984 89.0613 445.397 89.6267 444.928 90.352C444.48 91.056 444.213 91.856 444.128 92.752H453.952ZM460.527 86H462.735L462.863 88.336C463.289 87.76 463.801 87.2693 464.399 86.864C465.017 86.4587 465.689 86.1813 466.415 86.032C467.161 85.8613 467.951 85.8507 468.783 86V88.4C467.887 88.2293 467.076 88.2293 466.351 88.4C465.647 88.5707 465.039 88.8907 464.527 89.36C464.015 89.8293 463.62 90.4267 463.343 91.152C463.065 91.856 462.927 92.6773 462.927 93.616V102H460.527V86ZM473.37 97.104C473.498 97.744 473.732 98.2773 474.074 98.704C474.415 99.1093 474.852 99.4187 475.386 99.632C475.94 99.8453 476.58 99.952 477.306 99.952C478.436 99.952 479.29 99.7387 479.866 99.312C480.463 98.864 480.762 98.3093 480.762 97.648C480.762 97.0933 480.58 96.6453 480.218 96.304C479.876 95.9627 479.418 95.6853 478.842 95.472C478.266 95.2373 477.626 95.0347 476.922 94.864C476.367 94.736 475.77 94.5867 475.13 94.416C474.49 94.224 473.882 93.968 473.306 93.648C472.73 93.328 472.26 92.912 471.898 92.4C471.535 91.888 471.354 91.216 471.354 90.384C471.354 89.4667 471.599 88.6667 472.09 87.984C472.602 87.28 473.295 86.736 474.17 86.352C475.066 85.968 476.09 85.776 477.242 85.776C478.564 85.776 479.738 86.064 480.762 86.64C481.807 87.216 482.532 88.112 482.938 89.328L480.698 90.096C480.548 89.5413 480.271 89.1147 479.866 88.816C479.482 88.5173 479.044 88.3147 478.554 88.208C478.084 88.1013 477.615 88.048 477.146 88.048C476.186 88.048 475.407 88.24 474.81 88.624C474.234 88.9867 473.946 89.5413 473.946 90.288C473.946 90.6933 474.042 91.0347 474.234 91.312C474.426 91.568 474.692 91.7813 475.034 91.952C475.375 92.1227 475.78 92.272 476.25 92.4C476.719 92.5067 477.231 92.6347 477.786 92.784C478.404 92.9333 479.034 93.1253 479.674 93.36C480.314 93.5733 480.911 93.8613 481.466 94.224C482.02 94.5653 482.468 95.0133 482.81 95.568C483.172 96.1013 483.354 96.7733 483.354 97.584C483.354 98.5227 483.098 99.344 482.586 100.048C482.074 100.731 481.359 101.264 480.442 101.648C479.546 102.032 478.5 102.224 477.306 102.224C475.663 102.224 474.298 101.861 473.21 101.136C472.143 100.389 471.428 99.3013 471.066 97.872L473.37 97.104ZM494.157 102.224C492.643 102.224 491.288 101.893 490.093 101.232C488.899 100.571 487.96 99.632 487.277 98.416C486.595 97.1787 486.253 95.7173 486.253 94.032C486.253 92.3253 486.595 90.8533 487.277 89.616C487.981 88.3787 488.931 87.4293 490.125 86.768C491.341 86.1067 492.707 85.776 494.221 85.776C495.736 85.776 497.091 86.1067 498.285 86.768C499.501 87.4293 500.451 88.3787 501.133 89.616C501.837 90.832 502.189 92.2827 502.189 93.968C502.189 95.6747 501.837 97.1467 501.133 98.384C500.429 99.6213 499.469 100.571 498.253 101.232C497.037 101.893 495.672 102.224 494.157 102.224ZM494.125 99.952C495.064 99.952 495.949 99.7493 496.781 99.344C497.613 98.9173 498.285 98.2667 498.797 97.392C499.331 96.496 499.597 95.3653 499.597 94C499.597 92.6133 499.341 91.4827 498.829 90.608C498.317 89.7333 497.645 89.0933 496.813 88.688C496.003 88.2613 495.128 88.048 494.189 88.048C493.251 88.048 492.376 88.2613 491.565 88.688C490.755 89.0933 490.093 89.744 489.581 90.64C489.091 91.5147 488.845 92.6347 488.845 94C488.845 95.3867 489.091 96.5173 489.581 97.392C490.072 98.2667 490.712 98.9173 491.501 99.344C492.312 99.7493 493.187 99.952 494.125 99.952ZM506.12 86H508.328L508.456 88.272C508.968 87.4827 509.64 86.8747 510.472 86.448C511.304 86 512.275 85.776 513.384 85.776C514.6 85.776 515.667 86.0427 516.584 86.576C517.502 87.088 518.216 87.8667 518.728 88.912C519.24 89.936 519.496 91.2267 519.496 92.784V102H517.096V93.072C517.096 91.408 516.734 90.1493 516.008 89.296C515.304 88.4213 514.28 87.984 512.936 87.984C511.55 87.984 510.462 88.4427 509.672 89.36C508.904 90.2773 508.52 91.632 508.52 93.424V102H506.12V86ZM534.168 102L533.976 99.12C533.528 100.101 532.866 100.869 531.992 101.424C531.117 101.957 530.008 102.224 528.664 102.224C527.512 102.224 526.53 102.043 525.72 101.68C524.909 101.317 524.28 100.805 523.832 100.144C523.405 99.4613 523.192 98.6613 523.192 97.744C523.192 96.4 523.693 95.3013 524.696 94.448C525.698 93.5733 527.149 93.04 529.048 92.848L533.976 92.304V91.024C533.976 90.128 533.645 89.4133 532.984 88.88C532.322 88.3253 531.426 88.048 530.296 88.048C529.186 88.048 528.258 88.304 527.512 88.816C526.786 89.328 526.285 90.064 526.008 91.024L523.832 90.256C524.258 88.848 525.037 87.7493 526.168 86.96C527.32 86.1707 528.717 85.776 530.36 85.776C532.258 85.776 533.73 86.2667 534.776 87.248C535.842 88.208 536.376 89.52 536.376 91.184V102H534.168ZM533.976 94.352L529.016 94.928C527.949 95.056 527.138 95.3547 526.584 95.824C526.029 96.272 525.752 96.8693 525.752 97.616C525.752 98.3627 526.018 98.96 526.552 99.408C527.106 99.856 527.896 100.08 528.92 100.08C530.093 100.08 531.053 99.8453 531.8 99.376C532.546 98.9067 533.09 98.2773 533.432 97.488C533.794 96.6773 533.976 95.8027 533.976 94.864V94.352ZM556.747 102.224C555.253 102.224 553.92 101.861 552.747 101.136C551.595 100.411 550.688 99.4187 550.027 98.16C549.365 96.9013 549.035 95.4613 549.035 93.84C549.035 92.2827 549.365 90.896 550.027 89.68C550.688 88.464 551.595 87.5147 552.747 86.832C553.899 86.128 555.211 85.776 556.683 85.776C558.133 85.776 559.424 86.096 560.555 86.736C561.707 87.376 562.603 88.2613 563.243 89.392C563.883 90.5227 564.181 91.8133 564.139 93.264C564.139 93.4987 564.128 93.744 564.107 94C564.085 94.256 564.064 94.5333 564.043 94.832H551.659C551.701 95.8347 551.947 96.72 552.395 97.488C552.843 98.256 553.429 98.864 554.155 99.312C554.901 99.7387 555.744 99.952 556.683 99.952C557.92 99.952 558.965 99.7173 559.819 99.248C560.693 98.7787 561.323 98.1067 561.707 97.232L563.787 98.064C563.147 99.408 562.219 100.443 561.003 101.168C559.787 101.872 558.368 102.224 556.747 102.224ZM561.515 92.752C561.536 91.8347 561.333 91.024 560.907 90.32C560.501 89.616 559.925 89.0613 559.179 88.656C558.432 88.2507 557.568 88.048 556.587 88.048C555.733 88.048 554.955 88.2507 554.251 88.656C553.547 89.0613 552.96 89.6267 552.491 90.352C552.043 91.056 551.776 91.856 551.691 92.752H561.515ZM568.089 86H570.297L570.425 88.272C570.937 87.4827 571.609 86.8747 572.441 86.448C573.273 86 574.244 85.776 575.353 85.776C576.569 85.776 577.636 86.0427 578.553 86.576C579.47 87.088 580.185 87.8667 580.697 88.912C581.209 89.936 581.465 91.2267 581.465 92.784V102H579.065V93.072C579.065 91.408 578.702 90.1493 577.977 89.296C577.273 88.4213 576.249 87.984 574.905 87.984C573.518 87.984 572.43 88.4427 571.641 89.36C570.873 90.2773 570.489 91.632 570.489 93.424V102H568.089V86ZM38.944 124H41.312V140H38.944V124ZM40.16 120.8C39.6693 120.8 39.264 120.64 38.944 120.32C38.624 120 38.464 119.605 38.464 119.136C38.464 118.645 38.624 118.24 38.944 117.92C39.264 117.6 39.6693 117.44 40.16 117.44C40.608 117.44 40.992 117.6 41.312 117.92C41.6533 118.24 41.824 118.645 41.824 119.136C41.824 119.605 41.6533 120 41.312 120.32C40.992 120.64 40.608 120.8 40.16 120.8ZM46.714 124H48.922L49.05 126.272C49.562 125.483 50.234 124.875 51.066 124.448C51.898 124 52.8687 123.776 53.978 123.776C55.194 123.776 56.2607 124.043 57.178 124.576C58.0953 125.088 58.81 125.867 59.322 126.912C59.834 127.936 60.09 129.227 60.09 130.784V140H57.69V131.072C57.69 129.408 57.3273 128.149 56.602 127.296C55.898 126.421 54.874 125.984 53.53 125.984C52.1433 125.984 51.0553 126.443 50.266 127.36C49.498 128.277 49.114 129.632 49.114 131.424V140H46.714V124ZM66.0573 135.104C66.1853 135.744 66.4199 136.277 66.7613 136.704C67.1026 137.109 67.5399 137.419 68.0733 137.632C68.6279 137.845 69.2679 137.952 69.9933 137.952C71.1239 137.952 71.9773 137.739 72.5533 137.312C73.1506 136.864 73.4493 136.309 73.4493 135.648C73.4493 135.093 73.2679 134.645 72.9053 134.304C72.5639 133.963 72.1053 133.685 71.5293 133.472C70.9533 133.237 70.3133 133.035 69.6093 132.864C69.0546 132.736 68.4573 132.587 67.8173 132.416C67.1773 132.224 66.5693 131.968 65.9933 131.648C65.4173 131.328 64.9479 130.912 64.5853 130.4C64.2226 129.888 64.0413 129.216 64.0413 128.384C64.0413 127.467 64.2866 126.667 64.7773 125.984C65.2893 125.28 65.9826 124.736 66.8573 124.352C67.7533 123.968 68.7773 123.776 69.9293 123.776C71.2519 123.776 72.4253 124.064 73.4493 124.64C74.4946 125.216 75.2199 126.112 75.6253 127.328L73.3853 128.096C73.2359 127.541 72.9586 127.115 72.5533 126.816C72.1693 126.517 71.7319 126.315 71.2413 126.208C70.7719 126.101 70.3026 126.048 69.8333 126.048C68.8733 126.048 68.0946 126.24 67.4973 126.624C66.9213 126.987 66.6333 127.541 66.6333 128.288C66.6333 128.693 66.7293 129.035 66.9213 129.312C67.1133 129.568 67.3799 129.781 67.7213 129.952C68.0626 130.123 68.4679 130.272 68.9373 130.4C69.4066 130.507 69.9186 130.635 70.4733 130.784C71.0919 130.933 71.7213 131.125 72.3613 131.36C73.0013 131.573 73.5986 131.861 74.1533 132.224C74.7079 132.565 75.1559 133.013 75.4973 133.568C75.8599 134.101 76.0413 134.773 76.0413 135.584C76.0413 136.523 75.7853 137.344 75.2733 138.048C74.7613 138.731 74.0466 139.264 73.1293 139.648C72.2333 140.032 71.1879 140.224 69.9933 140.224C68.3506 140.224 66.9853 139.861 65.8973 139.136C64.8306 138.389 64.1159 137.301 63.7533 135.872L66.0573 135.104ZM86.7488 140.224C85.1914 140.224 83.8261 139.883 82.6528 139.2C81.4794 138.517 80.5621 137.568 79.9008 136.352C79.2608 135.115 78.9408 133.685 78.9408 132.064C78.9408 130.421 79.2608 128.981 79.9008 127.744C80.5621 126.485 81.4794 125.515 82.6528 124.832C83.8261 124.128 85.1914 123.776 86.7488 123.776C88.3914 123.776 89.8314 124.16 91.0688 124.928C92.3061 125.675 93.2021 126.72 93.7568 128.064L91.5488 128.832C91.2288 127.979 90.6421 127.307 89.7888 126.816C88.9568 126.304 87.9861 126.048 86.8767 126.048C85.7888 126.048 84.8394 126.293 84.0288 126.784C83.2394 127.275 82.6208 127.968 82.1727 128.864C81.7461 129.76 81.5328 130.816 81.5328 132.032C81.5328 133.824 82.0128 135.264 82.9728 136.352C83.9328 137.419 85.2128 137.952 86.8128 137.952C87.9008 137.952 88.8714 137.707 89.7248 137.216C90.5781 136.725 91.2074 136.064 91.6128 135.232L93.7888 136C93.2128 137.323 92.3061 138.357 91.0688 139.104C89.8314 139.851 88.3914 140.224 86.7488 140.224ZM97.714 124H99.922L100.05 126.336C100.477 125.76 100.989 125.269 101.586 124.864C102.205 124.459 102.877 124.181 103.602 124.032C104.349 123.861 105.138 123.851 105.97 124V126.4C105.074 126.229 104.263 126.229 103.538 126.4C102.834 126.571 102.226 126.891 101.714 127.36C101.202 127.829 100.807 128.427 100.53 129.152C100.253 129.856 100.114 130.677 100.114 131.616V140H97.714V124ZM109.725 124H112.093V140H109.725V124ZM110.941 120.8C110.451 120.8 110.045 120.64 109.725 120.32C109.405 120 109.245 119.605 109.245 119.136C109.245 118.645 109.405 118.24 109.725 117.92C110.045 117.6 110.451 117.44 110.941 117.44C111.389 117.44 111.773 117.6 112.093 117.92C112.435 118.24 112.605 118.645 112.605 119.136C112.605 119.605 112.435 120 112.093 120.32C111.773 120.64 111.389 120.8 110.941 120.8ZM119.639 136.768L119.895 136.736V146.4H117.495V124H119.703L119.863 126.976C120.354 126.08 121.079 125.323 122.039 124.704C122.999 124.085 124.205 123.776 125.655 123.776C127.042 123.776 128.29 124.117 129.399 124.8C130.509 125.461 131.383 126.411 132.023 127.648C132.663 128.864 132.983 130.315 132.983 132C132.983 133.664 132.674 135.115 132.055 136.352C131.458 137.568 130.605 138.517 129.495 139.2C128.407 139.883 127.127 140.224 125.655 140.224C124.119 140.224 122.85 139.893 121.847 139.232C120.845 138.571 120.109 137.749 119.639 136.768ZM130.391 132C130.391 130.165 129.911 128.715 128.951 127.648C128.013 126.56 126.743 126.016 125.143 126.016C124.141 126.016 123.234 126.251 122.423 126.72C121.634 127.189 121.015 127.872 120.567 128.768C120.119 129.664 119.895 130.741 119.895 132C119.895 133.237 120.119 134.304 120.567 135.2C121.015 136.096 121.634 136.789 122.423 137.28C123.234 137.749 124.141 137.984 125.143 137.984C126.743 137.984 128.013 137.451 128.951 136.384C129.911 135.296 130.391 133.835 130.391 132ZM143.718 140.224C142.16 140.224 140.795 139.883 139.622 139.2C138.448 138.517 137.531 137.568 136.87 136.352C136.23 135.115 135.91 133.685 135.91 132.064C135.91 130.421 136.23 128.981 136.87 127.744C137.531 126.485 138.448 125.515 139.622 124.832C140.795 124.128 142.16 123.776 143.718 123.776C145.36 123.776 146.8 124.16 148.038 124.928C149.275 125.675 150.171 126.72 150.726 128.064L148.518 128.832C148.198 127.979 147.611 127.307 146.758 126.816C145.926 126.304 144.955 126.048 143.845 126.048C142.758 126.048 141.808 126.293 140.998 126.784C140.208 127.275 139.59 127.968 139.141 128.864C138.715 129.76 138.502 130.816 138.502 132.032C138.502 133.824 138.982 135.264 139.942 136.352C140.902 137.419 142.182 137.952 143.782 137.952C144.87 137.952 145.84 137.707 146.694 137.216C147.547 136.725 148.176 136.064 148.582 135.232L150.758 136C150.182 137.323 149.275 138.357 148.038 139.104C146.8 139.851 145.36 140.224 143.718 140.224ZM155.163 124H157.531V140H155.163V124ZM156.379 120.8C155.888 120.8 155.483 120.64 155.163 120.32C154.843 120 154.683 119.605 154.683 119.136C154.683 118.645 154.843 118.24 155.163 117.92C155.483 117.6 155.888 117.44 156.379 117.44C156.827 117.44 157.211 117.6 157.531 117.92C157.872 118.24 158.043 118.645 158.043 119.136C158.043 119.605 157.872 120 157.531 120.32C157.211 120.64 156.827 120.8 156.379 120.8ZM169.845 140.224C168.33 140.224 166.975 139.893 165.781 139.232C164.586 138.571 163.647 137.632 162.965 136.416C162.282 135.179 161.941 133.717 161.941 132.032C161.941 130.325 162.282 128.853 162.965 127.616C163.669 126.379 164.618 125.429 165.813 124.768C167.029 124.107 168.394 123.776 169.909 123.776C171.423 123.776 172.778 124.107 173.973 124.768C175.189 125.429 176.138 126.379 176.821 127.616C177.525 128.832 177.877 130.283 177.877 131.968C177.877 133.675 177.525 135.147 176.821 136.384C176.117 137.621 175.157 138.571 173.941 139.232C172.725 139.893 171.359 140.224 169.845 140.224ZM169.813 137.952C170.751 137.952 171.637 137.749 172.469 137.344C173.301 136.917 173.973 136.267 174.485 135.392C175.018 134.496 175.285 133.365 175.285 132C175.285 130.613 175.029 129.483 174.517 128.608C174.005 127.733 173.333 127.093 172.501 126.688C171.69 126.261 170.815 126.048 169.877 126.048C168.938 126.048 168.063 126.261 167.253 126.688C166.442 127.093 165.781 127.744 165.269 128.64C164.778 129.515 164.533 130.635 164.533 132C164.533 133.387 164.778 134.517 165.269 135.392C165.759 136.267 166.399 136.917 167.189 137.344C167.999 137.749 168.874 137.952 169.813 137.952ZM181.808 124H184.016L184.144 126.272C184.656 125.483 185.328 124.875 186.16 124.448C186.992 124 187.962 123.776 189.072 123.776C190.288 123.776 191.354 124.043 192.272 124.576C193.189 125.088 193.904 125.867 194.416 126.912C194.928 127.936 195.184 129.227 195.184 130.784V140H192.784V131.072C192.784 129.408 192.421 128.149 191.696 127.296C190.992 126.421 189.968 125.984 188.624 125.984C187.237 125.984 186.149 126.443 185.36 127.36C184.592 128.277 184.208 129.632 184.208 131.424V140H181.808V124ZM206.559 140.224C205.066 140.224 203.732 139.861 202.559 139.136C201.407 138.411 200.5 137.419 199.839 136.16C199.178 134.901 198.847 133.461 198.847 131.84C198.847 130.283 199.178 128.896 199.839 127.68C200.5 126.464 201.407 125.515 202.559 124.832C203.711 124.128 205.023 123.776 206.495 123.776C207.946 123.776 209.236 124.096 210.367 124.736C211.519 125.376 212.415 126.261 213.055 127.392C213.695 128.523 213.994 129.813 213.951 131.264C213.951 131.499 213.94 131.744 213.919 132C213.898 132.256 213.876 132.533 213.855 132.832H201.471C201.514 133.835 201.759 134.72 202.207 135.488C202.655 136.256 203.242 136.864 203.967 137.312C204.714 137.739 205.556 137.952 206.495 137.952C207.732 137.952 208.778 137.717 209.631 137.248C210.506 136.779 211.135 136.107 211.519 135.232L213.599 136.064C212.959 137.408 212.031 138.443 210.815 139.168C209.599 139.872 208.18 140.224 206.559 140.224ZM211.327 130.752C211.348 129.835 211.146 129.024 210.719 128.32C210.314 127.616 209.738 127.061 208.991 126.656C208.244 126.251 207.38 126.048 206.399 126.048C205.546 126.048 204.767 126.251 204.063 126.656C203.359 127.061 202.772 127.627 202.303 128.352C201.855 129.056 201.588 129.856 201.503 130.752H211.327ZM219.214 135.104C219.342 135.744 219.576 136.277 219.918 136.704C220.259 137.109 220.696 137.419 221.23 137.632C221.784 137.845 222.424 137.952 223.15 137.952C224.28 137.952 225.134 137.739 225.71 137.312C226.307 136.864 226.606 136.309 226.606 135.648C226.606 135.093 226.424 134.645 226.062 134.304C225.72 133.963 225.262 133.685 224.686 133.472C224.11 133.237 223.47 133.035 222.766 132.864C222.211 132.736 221.614 132.587 220.974 132.416C220.334 132.224 219.726 131.968 219.15 131.648C218.574 131.328 218.104 130.912 217.742 130.4C217.379 129.888 217.198 129.216 217.198 128.384C217.198 127.467 217.443 126.667 217.934 125.984C218.446 125.28 219.139 124.736 220.014 124.352C220.91 123.968 221.934 123.776 223.086 123.776C224.408 123.776 225.582 124.064 226.606 124.64C227.651 125.216 228.376 126.112 228.782 127.328L226.542 128.096C226.392 127.541 226.115 127.115 225.71 126.816C225.326 126.517 224.888 126.315 224.398 126.208C223.928 126.101 223.459 126.048 222.99 126.048C222.03 126.048 221.251 126.24 220.654 126.624C220.078 126.987 219.79 127.541 219.79 128.288C219.79 128.693 219.886 129.035 220.078 129.312C220.27 129.568 220.536 129.781 220.878 129.952C221.219 130.123 221.624 130.272 222.094 130.4C222.563 130.507 223.075 130.635 223.63 130.784C224.248 130.933 224.878 131.125 225.518 131.36C226.158 131.573 226.755 131.861 227.31 132.224C227.864 132.565 228.312 133.013 228.654 133.568C229.016 134.101 229.198 134.773 229.198 135.584C229.198 136.523 228.942 137.344 228.43 138.048C227.918 138.731 227.203 139.264 226.286 139.648C225.39 140.032 224.344 140.224 223.15 140.224C221.507 140.224 220.142 139.861 219.054 139.136C217.987 138.389 217.272 137.301 216.91 135.872L219.214 135.104ZM242.538 124H244.906V140H242.538V124ZM243.754 120.8C243.263 120.8 242.858 120.64 242.538 120.32C242.218 120 242.058 119.605 242.058 119.136C242.058 118.645 242.218 118.24 242.538 117.92C242.858 117.6 243.263 117.44 243.754 117.44C244.202 117.44 244.586 117.6 244.906 117.92C245.247 118.24 245.418 118.645 245.418 119.136C245.418 119.605 245.247 120 244.906 120.32C244.586 120.64 244.202 120.8 243.754 120.8ZM250.308 124H252.516L252.644 126.272C253.156 125.483 253.828 124.875 254.66 124.448C255.492 124 256.462 123.776 257.572 123.776C258.788 123.776 259.854 124.043 260.772 124.576C261.689 125.088 262.404 125.867 262.916 126.912C263.428 127.936 263.684 129.227 263.684 130.784V140H261.284V131.072C261.284 129.408 260.921 128.149 260.196 127.296C259.492 126.421 258.468 125.984 257.124 125.984C255.737 125.984 254.649 126.443 253.86 127.36C253.092 128.277 252.708 129.632 252.708 131.424V140H250.308V124ZM280.691 127.232L280.435 127.264V116.96H282.835V140H280.627L280.467 137.024C279.976 137.92 279.24 138.677 278.259 139.296C277.299 139.915 276.104 140.224 274.675 140.224C273.203 140.224 271.912 139.893 270.803 139.232C269.715 138.549 268.862 137.589 268.243 136.352C267.646 135.115 267.347 133.664 267.347 132C267.347 130.336 267.646 128.896 268.243 127.68C268.862 126.443 269.715 125.483 270.803 124.8C271.912 124.117 273.203 123.776 274.675 123.776C276.19 123.776 277.448 124.107 278.451 124.768C279.454 125.429 280.2 126.251 280.691 127.232ZM269.939 132C269.939 133.835 270.408 135.296 271.347 136.384C272.286 137.451 273.566 137.984 275.187 137.984C276.19 137.984 277.086 137.749 277.875 137.28C278.664 136.811 279.283 136.128 279.731 135.232C280.2 134.336 280.435 133.259 280.435 132C280.435 130.741 280.2 129.675 279.731 128.8C279.283 127.904 278.664 127.221 277.875 126.752C277.086 126.261 276.19 126.016 275.187 126.016C273.587 126.016 272.307 126.56 271.347 127.648C270.408 128.715 269.939 130.165 269.939 132ZM288.225 124H290.593V140H288.225V124ZM289.441 120.8C288.951 120.8 288.545 120.64 288.225 120.32C287.905 120 287.745 119.605 287.745 119.136C287.745 118.645 287.905 118.24 288.225 117.92C288.545 117.6 288.951 117.44 289.441 117.44C289.889 117.44 290.273 117.6 290.593 117.92C290.935 118.24 291.105 118.645 291.105 119.136C291.105 119.605 290.935 120 290.593 120.32C290.273 120.64 289.889 120.8 289.441 120.8ZM296.923 124L301.979 137.312L307.067 124H309.595L303.195 140H300.699L294.363 124H296.923ZM313.35 124H315.718V140H313.35V124ZM314.566 120.8C314.076 120.8 313.67 120.64 313.35 120.32C313.03 120 312.87 119.605 312.87 119.136C312.87 118.645 313.03 118.24 313.35 117.92C313.67 117.6 314.076 117.44 314.566 117.44C315.014 117.44 315.398 117.6 315.718 117.92C316.06 118.24 316.23 118.645 316.23 119.136C316.23 119.605 316.06 120 315.718 120.32C315.398 120.64 315.014 120.8 314.566 120.8ZM333.472 127.232L333.216 127.264V116.96H335.616V140H333.408L333.248 137.024C332.758 137.92 332.022 138.677 331.04 139.296C330.08 139.915 328.886 140.224 327.456 140.224C325.984 140.224 324.694 139.893 323.584 139.232C322.496 138.549 321.643 137.589 321.024 136.352C320.427 135.115 320.128 133.664 320.128 132C320.128 130.336 320.427 128.896 321.024 127.68C321.643 126.443 322.496 125.483 323.584 124.8C324.694 124.117 325.984 123.776 327.456 123.776C328.971 123.776 330.23 124.107 331.232 124.768C332.235 125.429 332.982 126.251 333.472 127.232ZM322.72 132C322.72 133.835 323.19 135.296 324.128 136.384C325.067 137.451 326.347 137.984 327.968 137.984C328.971 137.984 329.867 137.749 330.656 137.28C331.446 136.811 332.064 136.128 332.512 135.232C332.982 134.336 333.216 133.259 333.216 132C333.216 130.741 332.982 129.675 332.512 128.8C332.064 127.904 331.446 127.221 330.656 126.752C329.867 126.261 328.971 126.016 327.968 126.016C326.368 126.016 325.088 126.56 324.128 127.648C323.19 128.715 322.72 130.165 322.72 132ZM353.615 140H351.439L351.279 137.696C350.788 138.507 350.127 139.136 349.295 139.584C348.463 140.011 347.492 140.224 346.383 140.224C345.145 140.224 344.068 139.968 343.151 139.456C342.233 138.944 341.519 138.176 341.007 137.152C340.516 136.128 340.271 134.837 340.271 133.28V124H342.639V133.024C342.639 134.667 342.991 135.915 343.695 136.768C344.42 137.6 345.455 138.016 346.799 138.016C348.164 138.016 349.241 137.579 350.031 136.704C350.841 135.808 351.247 134.464 351.247 132.672V124H353.615V140ZM368.511 140L368.319 137.12C367.871 138.101 367.21 138.869 366.335 139.424C365.461 139.957 364.351 140.224 363.007 140.224C361.855 140.224 360.874 140.043 360.063 139.68C359.253 139.317 358.623 138.805 358.175 138.144C357.749 137.461 357.535 136.661 357.535 135.744C357.535 134.4 358.037 133.301 359.039 132.448C360.042 131.573 361.493 131.04 363.391 130.848L368.319 130.304V129.024C368.319 128.128 367.989 127.413 367.327 126.88C366.666 126.325 365.77 126.048 364.639 126.048C363.53 126.048 362.602 126.304 361.855 126.816C361.13 127.328 360.629 128.064 360.351 129.024L358.175 128.256C358.602 126.848 359.381 125.749 360.511 124.96C361.663 124.171 363.061 123.776 364.703 123.776C366.602 123.776 368.074 124.267 369.119 125.248C370.186 126.208 370.719 127.52 370.719 129.184V140H368.511ZM368.319 132.352L363.359 132.928C362.293 133.056 361.482 133.355 360.927 133.824C360.373 134.272 360.095 134.869 360.095 135.616C360.095 136.363 360.362 136.96 360.895 137.408C361.45 137.856 362.239 138.08 363.263 138.08C364.437 138.08 365.397 137.845 366.143 137.376C366.89 136.907 367.434 136.277 367.775 135.488C368.138 134.677 368.319 133.803 368.319 132.864V132.352ZM375.402 116.96H377.802V140H375.402V116.96ZM389.403 140.224C387.909 140.224 386.576 139.861 385.403 139.136C384.251 138.411 383.344 137.419 382.683 136.16C382.021 134.901 381.691 133.461 381.691 131.84C381.691 130.283 382.021 128.896 382.683 127.68C383.344 126.464 384.251 125.515 385.403 124.832C386.555 124.128 387.867 123.776 389.339 123.776C390.789 123.776 392.08 124.096 393.211 124.736C394.363 125.376 395.259 126.261 395.899 127.392C396.539 128.523 396.837 129.813 396.795 131.264C396.795 131.499 396.784 131.744 396.763 132C396.741 132.256 396.72 132.533 396.699 132.832H384.315C384.357 133.835 384.603 134.72 385.051 135.488C385.499 136.256 386.085 136.864 386.811 137.312C387.557 137.739 388.4 137.952 389.339 137.952C390.576 137.952 391.621 137.717 392.475 137.248C393.349 136.779 393.979 136.107 394.363 135.232L396.443 136.064C395.803 137.408 394.875 138.443 393.659 139.168C392.443 139.872 391.024 140.224 389.403 140.224ZM394.171 130.752C394.192 129.835 393.989 129.024 393.563 128.32C393.157 127.616 392.581 127.061 391.835 126.656C391.088 126.251 390.224 126.048 389.243 126.048C388.389 126.048 387.611 126.251 386.907 126.656C386.203 127.061 385.616 127.627 385.147 128.352C384.699 129.056 384.432 129.856 384.347 130.752H394.171ZM402.057 135.104C402.185 135.744 402.42 136.277 402.761 136.704C403.103 137.109 403.54 137.419 404.073 137.632C404.628 137.845 405.268 137.952 405.993 137.952C407.124 137.952 407.977 137.739 408.553 137.312C409.151 136.864 409.449 136.309 409.449 135.648C409.449 135.093 409.268 134.645 408.905 134.304C408.564 133.963 408.105 133.685 407.529 133.472C406.953 133.237 406.313 133.035 405.609 132.864C405.055 132.736 404.457 132.587 403.817 132.416C403.177 132.224 402.569 131.968 401.993 131.648C401.417 131.328 400.948 130.912 400.585 130.4C400.223 129.888 400.041 129.216 400.041 128.384C400.041 127.467 400.287 126.667 400.777 125.984C401.289 125.28 401.983 124.736 402.857 124.352C403.753 123.968 404.777 123.776 405.929 123.776C407.252 123.776 408.425 124.064 409.449 124.64C410.495 125.216 411.22 126.112 411.625 127.328L409.385 128.096C409.236 127.541 408.959 127.115 408.553 126.816C408.169 126.517 407.732 126.315 407.241 126.208C406.772 126.101 406.303 126.048 405.833 126.048C404.873 126.048 404.095 126.24 403.497 126.624C402.921 126.987 402.633 127.541 402.633 128.288C402.633 128.693 402.729 129.035 402.921 129.312C403.113 129.568 403.38 129.781 403.721 129.952C404.063 130.123 404.468 130.272 404.937 130.4C405.407 130.507 405.919 130.635 406.473 130.784C407.092 130.933 407.721 131.125 408.361 131.36C409.001 131.573 409.599 131.861 410.153 132.224C410.708 132.565 411.156 133.013 411.497 133.568C411.86 134.101 412.041 134.773 412.041 135.584C412.041 136.523 411.785 137.344 411.273 138.048C410.761 138.731 410.047 139.264 409.129 139.648C408.233 140.032 407.188 140.224 405.993 140.224C404.351 140.224 402.985 139.861 401.897 139.136C400.831 138.389 400.116 137.301 399.753 135.872L402.057 135.104ZM417.245 140.16C416.754 140.16 416.338 139.989 415.997 139.648C415.677 139.307 415.517 138.891 415.517 138.4C415.517 137.909 415.677 137.493 415.997 137.152C416.338 136.811 416.754 136.64 417.245 136.64C417.714 136.64 418.119 136.811 418.461 137.152C418.802 137.493 418.973 137.909 418.973 138.4C418.973 138.891 418.802 139.307 418.461 139.648C418.119 139.989 417.714 140.16 417.245 140.16Z" fill="white"/>
</svg>
