<?xml version="1.0" encoding="utf-8"?>
<!-- Generator: Adobe Illustrator 23.0.0, SVG Export Plug-In . SVG Version: 6.00 Build 0)  -->
<svg version="1.1" id="Capa_1" xmlns="http://www.w3.org/2000/svg" xmlns:xlink="http://www.w3.org/1999/xlink" x="0px" y="0px"
	 viewBox="0 0 500 500" style="enable-background:new 0 0 500 500;" xml:space="preserve">
<style type="text/css">
	.st0{fill:#261D38;}
</style>
<path class="st0" d="M325.4,257.9l96.6-96.6c20.8-20.8,20.8-54.6,0-75.4c-20.8-20.8-54.6-20.8-75.4,0L250,182.6l-96.6-96.6
	c-20.8-20.8-54.6-20.8-75.4,0l0,0c-20.8,20.8-20.8,54.6,0,75.4l96.6,96.6L78,354.6c-20.8,20.8-20.8,54.6,0,75.4l0,0
	c20.8,20.8,54.6,20.8,75.4,0l96.6-96.6l96.6,96.6c20.8,20.8,54.6,20.8,75.4,0c20.8-20.8,20.8-54.6,0-75.4L325.4,257.9z"/>
</svg>
