<?xml version="1.0" encoding="utf-8"?>
<!-- Generator: Adobe Illustrator 23.0.0, SVG Export Plug-In . SVG Version: 6.00 Build 0)  -->
<svg version="1.1" id="Capa_1" xmlns="http://www.w3.org/2000/svg" xmlns:xlink="http://www.w3.org/1999/xlink" x="0px" y="0px"
	 viewBox="0 0 620.2 148.9" style="enable-background:new 0 0 620.2 148.9;" xml:space="preserve">
<style type="text/css">
	.st0{fill:#FFFFFF;}
</style>
<title>duracion</title>
<path class="st0" d="M4.2,25.4v20.2h10.5v2.2h-13V25.4H4.2z M28,47.8l-0.2-2.9c-0.4,0.9-1.1,1.8-2,2.3c-1,0.6-2.2,0.9-3.3,0.8
	c-1,0-2-0.2-2.9-0.5c-0.8-0.3-1.4-0.9-1.9-1.6c-0.4-0.7-0.7-1.6-0.6-2.4c0-1.3,0.5-2.5,1.5-3.3c1.3-1,2.8-1.5,4.4-1.6l4.9-0.5v-1.3
	c0-0.8-0.3-1.6-1-2.1c-0.8-0.6-1.7-0.9-2.7-0.8c-1,0-2,0.2-2.8,0.8c-0.7,0.5-1.3,1.3-1.5,2.2l-2.2-0.8c0.4-1.3,1.2-2.5,2.3-3.3
	c1.2-0.8,2.7-1.2,4.2-1.2c1.6-0.1,3.2,0.4,4.4,1.5c1.1,1,1.7,2.4,1.6,3.9v10.8H28z M27.8,40.2l-5,0.6c-0.9,0.1-1.7,0.4-2.4,0.9
	c-0.5,0.4-0.9,1.1-0.8,1.8c0,0.7,0.3,1.3,0.8,1.8c0.7,0.5,1.5,0.7,2.4,0.7c1,0,2-0.2,2.9-0.7c0.7-0.4,1.3-1.1,1.6-1.9
	c0.4-0.8,0.5-1.7,0.5-2.6L27.8,40.2z M50.7,48c-1.4,0-2.8-0.3-4.1-1c-1.2-0.7-2.1-1.7-2.8-2.8c-0.7-1.3-1-2.8-1-4.3
	c0-1.5,0.3-3,1-4.3c0.6-1.2,1.6-2.2,2.8-2.9c1.2-0.7,2.7-1.1,4.1-1.1c1.5,0,3,0.4,4.3,1.2c1.2,0.7,2.2,1.8,2.7,3.1l-2.2,0.8
	c-0.3-0.9-1-1.6-1.8-2c-1.8-1-4-1-5.8,0c-0.8,0.5-1.4,1.2-1.9,2c-0.4,1-0.7,2.1-0.6,3.2c-0.1,1.6,0.4,3.1,1.4,4.3
	c1,1.1,2.4,1.7,3.8,1.6c1,0,2-0.2,2.9-0.7c0.8-0.5,1.5-1.2,1.9-2l2.2,0.8c-0.6,1.3-1.5,2.4-2.7,3.1C53.7,47.7,52.2,48.1,50.7,48z
	 M71.7,47.8l-0.2-2.9c-0.4,0.9-1.1,1.7-2,2.3c-1,0.6-2.2,0.8-3.3,0.8c-1,0-2-0.1-3-0.5c-0.7-0.3-1.4-0.9-1.8-1.6
	c-0.4-0.7-0.7-1.6-0.6-2.4c0-1.3,0.5-2.5,1.5-3.3c1.2-1,2.8-1.5,4.3-1.6l4.9-0.5v-1.3c0-0.8-0.3-1.6-1-2.1c-0.8-0.6-1.7-0.9-2.7-0.8
	c-1,0-2,0.2-2.8,0.8c-0.7,0.5-1.3,1.3-1.5,2.2l-2.2-0.8c0.4-1.3,1.2-2.5,2.3-3.3c1.2-0.8,2.7-1.2,4.2-1.2c1.6-0.1,3.2,0.4,4.4,1.5
	c1.1,1,1.7,2.4,1.6,3.9v10.8L71.7,47.8z M71.5,40.2l-5,0.6c-0.9,0.1-1.7,0.4-2.4,0.9c-0.5,0.4-0.9,1.1-0.8,1.8
	c0,0.7,0.3,1.4,0.8,1.8c0.7,0.5,1.5,0.7,2.4,0.7c1,0,2-0.2,2.9-0.7c0.7-0.4,1.3-1.1,1.6-1.9c0.4-0.8,0.5-1.7,0.5-2.6L71.5,40.2z
	 M80.7,44.6H81v9.7h-2.4V31.8h2.2l0.2,3c0.5-0.9,1.3-1.7,2.2-2.3c1.1-0.6,2.3-1,3.6-0.9c1.3,0,2.6,0.3,3.8,1
	c1.1,0.7,2.1,1.7,2.6,2.9c0.7,1.3,1,2.8,1,4.3c0,1.5-0.3,3-0.9,4.3c-0.6,1.2-1.4,2.2-2.6,2.8c-1.2,0.7-2.5,1-3.8,1
	c-1.3,0-2.7-0.3-3.8-1C82,46.4,81.2,45.6,80.7,44.6L80.7,44.6z M91.5,39.8c0.1-1.6-0.4-3.1-1.4-4.3c-1-1.1-2.4-1.7-3.8-1.6
	c-1,0-1.9,0.2-2.7,0.7c-0.8,0.5-1.4,1.2-1.9,2c-0.9,2-0.9,4.4,0,6.4c0.4,0.9,1.1,1.6,1.9,2.1c0.8,0.5,1.8,0.7,2.7,0.7
	c1.4,0.1,2.8-0.5,3.8-1.6C91,42.9,91.5,41.4,91.5,39.8L91.5,39.8z M108,47.8l-0.2-2.9c-0.4,0.9-1.1,1.8-2,2.3
	c-1,0.6-2.2,0.8-3.3,0.8c-1,0-2-0.2-2.9-0.5c-0.8-0.3-1.4-0.9-1.9-1.6c-0.4-0.7-0.7-1.6-0.6-2.4c0-1.3,0.5-2.5,1.5-3.3
	c1.2-1,2.8-1.5,4.4-1.6l4.9-0.5v-1.3c0-0.8-0.3-1.6-1-2.1c-0.8-0.6-1.7-0.9-2.7-0.8c-1,0-2,0.2-2.8,0.8c-0.7,0.5-1.3,1.3-1.5,2.2
	l-2.2-0.8c0.4-1.3,1.2-2.5,2.3-3.3c1.2-0.8,2.7-1.2,4.2-1.2c1.6-0.1,3.2,0.4,4.4,1.5c1.1,1,1.7,2.4,1.6,3.9v10.8L108,47.8z
	 M107.8,40.2l-5,0.6c-0.9,0.1-1.7,0.4-2.4,0.9c-1,0.9-1.1,2.4-0.2,3.4c0.1,0.1,0.1,0.2,0.2,0.2c0.7,0.5,1.5,0.7,2.4,0.7
	c1,0,2-0.2,2.9-0.7c0.7-0.4,1.3-1.1,1.6-1.9c0.4-0.8,0.5-1.7,0.5-2.6L107.8,40.2z M121.7,48c-1.4,0-2.8-0.3-4.1-1
	c-1.2-0.7-2.1-1.7-2.8-2.8c-0.7-1.3-1-2.8-1-4.3c0-1.5,0.3-3,1-4.3c0.6-1.2,1.6-2.2,2.8-2.9c1.2-0.7,2.7-1.1,4.1-1.1
	c1.5,0,3,0.4,4.3,1.2c1.2,0.7,2.2,1.8,2.7,3.1l-2.2,0.8c-0.3-0.9-1-1.6-1.8-2c-1.8-1-4-1-5.8,0c-0.8,0.5-1.4,1.2-1.9,2
	c-0.4,1-0.7,2.1-0.6,3.2c-0.1,1.6,0.4,3.1,1.4,4.3c1,1.1,2.4,1.7,3.8,1.6c1,0,2-0.2,2.9-0.7c0.8-0.5,1.5-1.2,1.9-2l2.2,0.8
	c-0.6,1.3-1.5,2.4-2.7,3.1C124.7,47.7,123.2,48.1,121.7,48L121.7,48z M133.1,31.8h2.4v16h-2.4V31.8z M134.3,28.6
	c-0.5,0-0.9-0.2-1.2-0.5c-0.3-0.3-0.5-0.7-0.5-1.2c0-0.5,0.2-0.9,0.5-1.2c0.3-0.3,0.8-0.5,1.2-0.5c0.4,0,0.8,0.2,1.1,0.5
	c0.3,0.3,0.5,0.7,0.5,1.2c0,0.5-0.2,0.9-0.5,1.2C135.2,28.4,134.8,28.6,134.3,28.6L134.3,28.6z M141.9,31.8v-4.5h2.4v4.5h4.3v2.2
	h-4.3v8.6c-0.1,0.8,0.1,1.5,0.6,2.1c0.4,0.5,1,0.7,1.6,0.8c0.7,0.1,1.4,0.1,2.1,0v2.1c-0.8,0.2-1.6,0.2-2.5,0.2
	c-0.8-0.1-1.5-0.3-2.1-0.7c-0.6-0.4-1.2-1-1.5-1.7c-0.4-0.9-0.6-1.8-0.5-2.8v-8.6h-2.4v-2.2H141.9z M162.1,47.8l-0.2-2.9
	c-0.4,0.9-1.1,1.7-2,2.3c-1,0.6-2.2,0.8-3.3,0.8c-1,0-2-0.1-3-0.5c-0.7-0.3-1.4-0.9-1.8-1.6c-0.4-0.7-0.7-1.6-0.6-2.4
	c0-1.3,0.5-2.5,1.5-3.3c1.2-1,2.8-1.5,4.4-1.6l4.9-0.5v-1.3c0-0.8-0.3-1.6-1-2.1c-0.8-0.6-1.7-0.9-2.7-0.8c-1,0-2,0.2-2.8,0.8
	c-0.7,0.5-1.3,1.3-1.5,2.2l-2.2-0.8c0.4-1.3,1.2-2.5,2.3-3.3c1.2-0.8,2.7-1.2,4.2-1.2c1.6-0.1,3.2,0.4,4.4,1.5
	c1.1,1,1.7,2.4,1.6,3.9v10.8H162.1z M161.9,40.2l-5,0.6c-0.9,0.1-1.7,0.4-2.4,0.9c-0.5,0.4-0.9,1.1-0.8,1.8c0,0.7,0.3,1.4,0.8,1.8
	c0.7,0.5,1.5,0.7,2.4,0.7c1,0,2-0.2,2.9-0.7c0.7-0.4,1.3-1.1,1.6-1.9c0.4-0.8,0.5-1.7,0.5-2.6L161.9,40.2z M175.8,48
	c-1.4,0-2.8-0.3-4.1-1c-1.2-0.7-2.1-1.7-2.8-2.8c-0.7-1.3-1-2.8-1-4.3c0-1.5,0.3-3,1-4.3c0.6-1.2,1.6-2.2,2.8-2.9
	c1.2-0.7,2.7-1.1,4.1-1.1c1.5,0,3,0.4,4.3,1.2c1.2,0.7,2.2,1.8,2.7,3.1l-2.2,0.8c-0.3-0.9-1-1.6-1.8-2c-1.8-1-4-1-5.8,0
	c-0.8,0.5-1.4,1.2-1.9,2.1c-0.4,1-0.7,2.1-0.6,3.2c0,1.6,0.5,3.1,1.5,4.2c1,1.1,2.4,1.7,3.8,1.6c1,0,2-0.2,2.9-0.7
	c0.8-0.5,1.5-1.2,1.9-2l2.2,0.8c-0.6,1.3-1.5,2.4-2.7,3.1C178.9,47.7,177.4,48.1,175.8,48L175.8,48z M187.3,31.8h2.4v16h-2.4V31.8z
	 M188.5,28.6c-0.5,0-0.9-0.2-1.2-0.5c-0.3-0.3-0.5-0.7-0.5-1.2c0-0.9,0.7-1.7,1.6-1.7c0,0,0.1,0,0.1,0c0.4,0,0.8,0.2,1.1,0.5
	c0.3,0.3,0.5,0.8,0.5,1.2C190.2,27.9,189.4,28.6,188.5,28.6L188.5,28.6z M204.9,24.9v2l-6,3.3v-1.7L204.9,24.9z M202,48
	c-1.4,0-2.8-0.3-4.1-1c-1.2-0.6-2.2-1.6-2.8-2.8c-0.7-1.4-1-2.9-1-4.4c-0.1-1.5,0.3-3.1,1-4.4c0.7-1.2,1.6-2.2,2.8-2.8
	c1.3-0.7,2.7-1,4.1-1c1.4,0,2.8,0.3,4.1,1c1.2,0.7,2.2,1.6,2.9,2.8c0.7,1.3,1.1,2.8,1.1,4.3c0,1.5-0.3,3.1-1.1,4.4
	c-0.7,1.2-1.6,2.2-2.9,2.9C204.8,47.7,203.4,48.1,202,48z M202,45.8c0.9,0,1.8-0.2,2.7-0.6c0.8-0.4,1.5-1.1,2-2
	c0.6-1,0.8-2.2,0.8-3.4c0-1.2-0.2-2.3-0.8-3.4c-0.5-0.8-1.2-1.5-2-1.9c-1.6-0.9-3.6-0.9-5.3,0c-0.9,0.4-1.6,1.1-2,2
	c-0.5,1-0.8,2.2-0.7,3.4c0,1.2,0.2,2.3,0.7,3.4c0.4,0.8,1.1,1.5,1.9,2C200.2,45.6,201.1,45.8,202,45.8L202,45.8z M214,31.8h2.2
	l0.1,2.3c0.5-0.8,1.2-1.4,2-1.8c0.9-0.5,1.9-0.7,2.9-0.7c1.1,0,2.2,0.2,3.2,0.8c0.9,0.5,1.7,1.4,2.1,2.3c0.5,1.2,0.8,2.5,0.8,3.9
	v9.2H225v-8.9c0.1-1.3-0.3-2.7-1.1-3.8c-0.8-0.9-1.9-1.4-3.1-1.3c-1.2-0.1-2.4,0.4-3.3,1.4c-0.8,1.2-1.3,2.6-1.1,4.1v8.6H214
	L214,31.8z M247.8,48c-1.4,0-2.8-0.3-4.1-1c-1.2-0.7-2.1-1.7-2.8-2.8c-0.7-1.3-1-2.8-1-4.3c0-1.5,0.3-3,1-4.3
	c0.6-1.2,1.6-2.2,2.8-2.9c1.2-0.7,2.7-1.1,4.1-1.1c1.5,0,3,0.3,4.3,1.1c1.2,0.7,2.2,1.8,2.7,3.1l-2.2,0.8c-0.3-0.9-1-1.6-1.8-2
	c-1.8-1-4-1-5.8,0c-0.8,0.5-1.4,1.2-1.9,2.1c-0.4,1-0.7,2.1-0.6,3.2c-0.1,1.6,0.4,3.1,1.4,4.3c1,1.1,2.4,1.7,3.8,1.6
	c1,0,2-0.2,2.9-0.7c0.8-0.5,1.5-1.2,1.9-2l2.2,0.8c-0.6,1.3-1.5,2.4-2.7,3.1C250.8,47.7,249.3,48.1,247.8,48z M265.6,48
	c-1.4,0-2.8-0.3-4.1-1c-1.2-0.6-2.2-1.6-2.8-2.8c-0.7-1.4-1-2.9-1-4.4c0-1.5,0.3-3,1-4.4c0.7-1.2,1.7-2.2,2.9-2.8
	c1.3-0.7,2.7-1,4.1-1c1.4,0,2.8,0.3,4.1,1c1.2,0.7,2.2,1.6,2.9,2.8c0.7,1.3,1.1,2.8,1,4.3c0,1.5-0.3,3.1-1,4.4
	c-0.7,1.2-1.7,2.2-2.9,2.8C268.5,47.7,267.1,48.1,265.6,48z M265.6,45.8c0.9,0,1.8-0.2,2.7-0.6c0.8-0.4,1.5-1.1,2-2
	c0.6-1,0.8-2.2,0.8-3.4c0.1-1.2-0.2-2.3-0.8-3.4c-0.5-0.8-1.2-1.5-2-1.9c-1.6-0.9-3.6-0.9-5.3,0c-0.9,0.4-1.6,1.1-2,2
	c-0.5,1-0.8,2.2-0.7,3.4c-0.1,1.2,0.2,2.3,0.7,3.4c0.4,0.8,1.1,1.5,1.9,2C263.8,45.6,264.7,45.8,265.6,45.8L265.6,45.8z M277.6,31.8
	h2.2l0.1,2.3c0.5-0.8,1.2-1.4,2-1.8c0.9-0.5,1.9-0.7,2.9-0.7c1.1,0,2.2,0.2,3.2,0.8c0.9,0.5,1.7,1.3,2.1,2.3
	c0.6,1.2,0.8,2.5,0.8,3.9v9.2h-2.4v-8.9c0.1-1.3-0.3-2.7-1.1-3.8c-0.8-0.9-1.9-1.4-3.1-1.3c-1.2-0.1-2.4,0.4-3.3,1.4
	c-0.8,1.2-1.3,2.6-1.1,4.1v8.6h-2.4L277.6,31.8z M297,42.9c0.1,0.6,0.3,1.1,0.7,1.6c0.4,0.4,0.8,0.7,1.3,0.9
	c0.6,0.2,1.3,0.3,1.9,0.3c0.9,0.1,1.8-0.2,2.6-0.6c0.6-0.4,0.9-1,0.9-1.7c0-0.5-0.2-1-0.5-1.3c-0.4-0.4-0.9-0.7-1.4-0.8
	c-0.6-0.2-1.3-0.4-1.9-0.6c-0.5-0.1-1.1-0.3-1.8-0.4c-0.6-0.2-1.2-0.5-1.8-0.8c-0.6-0.3-1-0.7-1.4-1.3c-0.4-0.6-0.6-1.3-0.5-2
	c0-0.9,0.2-1.7,0.7-2.4c0.5-0.7,1.3-1.3,2.1-1.6c1-0.4,2-0.6,3.1-0.6c1.2,0,2.4,0.3,3.5,0.9c1,0.6,1.8,1.5,2.2,2.7l-2.2,0.8
	c-0.1-0.5-0.4-1-0.8-1.3c-0.4-0.3-0.8-0.5-1.3-0.6c-0.5-0.1-0.9-0.2-1.4-0.2c-0.8,0-1.6,0.2-2.3,0.6c-0.6,0.4-0.9,1-0.9,1.7
	c0,0.4,0.1,0.7,0.3,1c0.2,0.3,0.5,0.5,0.8,0.6c0.4,0.2,0.8,0.3,1.2,0.5l1.5,0.4c0.6,0.2,1.3,0.4,1.9,0.6c0.6,0.2,1.2,0.5,1.8,0.9
	c0.6,0.3,1,0.8,1.4,1.3c0.4,0.6,0.6,1.3,0.5,2c0,0.9-0.3,1.8-0.8,2.5c-0.6,0.7-1.3,1.3-2.1,1.6c-1,0.4-2.1,0.6-3.1,0.6
	c-1.4,0-2.9-0.3-4.1-1.1c-1.1-0.8-1.9-2-2.1-3.3L297,42.9z M311.9,31.8v-4.5h2.4v4.5h4.3v2.2h-4.3v8.6c-0.1,0.8,0.1,1.5,0.6,2.1
	c0.4,0.5,1,0.7,1.6,0.8c0.7,0.1,1.3,0.1,2,0v2.1c-0.8,0.2-1.6,0.2-2.5,0.2c-0.8-0.1-1.5-0.3-2.1-0.7c-0.6-0.4-1.2-1-1.5-1.7
	c-0.4-0.9-0.6-1.8-0.5-2.8v-8.6h-2.4v-2.2L311.9,31.8z M332.1,47.8l-0.2-2.9c-0.4,0.9-1.1,1.8-2,2.3c-1,0.6-2.2,0.8-3.3,0.8
	c-1,0-2-0.2-3-0.5c-0.8-0.3-1.4-0.9-1.9-1.6c-0.4-0.7-0.7-1.6-0.6-2.4c0-1.3,0.5-2.5,1.5-3.3c1.2-1,2.8-1.5,4.4-1.6l4.9-0.5v-1.3
	c0-0.8-0.3-1.6-1-2.1c-0.8-0.6-1.7-0.9-2.7-0.8c-1,0-2,0.2-2.8,0.8c-0.7,0.5-1.3,1.3-1.5,2.2l-2.2-0.8c0.4-1.3,1.2-2.5,2.3-3.3
	c1.2-0.8,2.7-1.2,4.2-1.2c1.6-0.1,3.2,0.4,4.4,1.5c1.1,1,1.7,2.4,1.6,3.9v10.8L332.1,47.8z M331.9,40.2l-5,0.6
	c-0.9,0.1-1.7,0.4-2.4,0.9c-0.6,0.4-0.9,1.1-0.8,1.8c0,0.7,0.3,1.3,0.8,1.8c0.7,0.5,1.5,0.7,2.4,0.7c1,0,2-0.2,2.9-0.7
	c0.7-0.4,1.3-1.1,1.6-1.9c0.4-0.8,0.6-1.7,0.5-2.6L331.9,40.2z M360.3,35.1H360V24.8h2.4v23h-2.2l-0.2-3c-0.5,0.9-1.3,1.7-2.2,2.3
	c-1.1,0.6-2.3,1-3.6,0.9c-1.4,0-2.7-0.3-3.9-1c-1.1-0.7-2-1.7-2.6-2.9c-0.6-1.4-0.9-2.9-0.9-4.3c0-1.5,0.3-3,0.9-4.3
	c0.6-1.2,1.5-2.2,2.6-2.9c1.2-0.7,2.5-1,3.9-1c1.3,0,2.6,0.3,3.8,1C359,33.2,359.8,34,360.3,35.1L360.3,35.1z M349.5,39.8
	c-0.1,1.6,0.4,3.1,1.4,4.4c1,1.1,2.4,1.7,3.8,1.6c0.9,0,1.9-0.2,2.7-0.7c0.8-0.5,1.4-1.2,1.9-2c0.5-1,0.7-2.1,0.7-3.2
	c0-1.1-0.2-2.2-0.7-3.2c-0.4-0.8-1.1-1.5-1.9-2c-0.8-0.5-1.7-0.7-2.7-0.7c-1.5-0.1-2.9,0.5-3.8,1.6C350,36.8,349.5,38.3,349.5,39.8
	L349.5,39.8z M374.1,48c-1.4,0-2.8-0.4-4-1.1c-1.2-0.7-2.1-1.8-2.7-3c-0.7-1.3-1-2.8-1-4.3c0-1.4,0.3-2.9,1-4.2
	c0.6-1.2,1.6-2.1,2.7-2.8c1.2-0.7,2.6-1.1,3.9-1.1c1.4,0,2.7,0.3,3.9,1c1.1,0.6,2.1,1.5,2.7,2.7c0.7,1.2,1,2.5,0.9,3.9
	c0,0.2,0,0.5,0,0.7s0,0.5-0.1,0.8H369c0,0.9,0.3,1.8,0.7,2.7c0.4,0.7,1,1.4,1.8,1.8c0.8,0.4,1.6,0.7,2.5,0.6c1.1,0,2.2-0.2,3.1-0.7
	c0.8-0.4,1.5-1.1,1.9-2l2.1,0.8c-0.6,1.3-1.6,2.4-2.8,3.1C377,47.7,375.6,48.1,374.1,48z M378.9,38.6c0-0.9-0.2-1.7-0.6-2.4
	c-0.4-0.7-1-1.3-1.7-1.7c-0.8-0.4-1.7-0.6-2.6-0.6c-0.8,0-1.6,0.2-2.3,0.6c-0.7,0.4-1.3,1-1.8,1.7c-0.5,0.7-0.7,1.5-0.8,2.4H378.9z
	 M401.8,48c-1.5,0-3.1-0.3-4.5-1c-1.3-0.6-2.3-1.6-3.1-2.8c-0.8-1.3-1.2-2.7-1.2-4.2c0-1.2,0.2-2.4,0.7-3.5c0.6-1.4,1.3-2.6,2.2-3.8
	l5.5-7.4h6.1L401,34l-4.4,5.2c0.2-1.8,1-3.4,2.2-4.7c1.2-1.1,2.7-1.6,4.3-1.6c1.2,0,2.5,0.3,3.6,0.9c1.1,0.6,2,1.4,2.6,2.5
	c0.7,1.2,1,2.6,1,3.9c0,1.5-0.4,2.9-1.2,4.2c-0.8,1.2-1.8,2.1-3.1,2.7C404.8,47.7,403.3,48.1,401.8,48L401.8,48z M398.8,40.2
	c0,0.6,0.1,1.1,0.3,1.6c0.2,0.5,0.6,0.8,1,1.1c0.5,0.3,1.1,0.4,1.6,0.4c0.6,0,1.1-0.1,1.6-0.4c0.4-0.2,0.8-0.6,1-1.1
	c0.2-0.5,0.4-1.1,0.4-1.6c0-0.6-0.1-1.1-0.4-1.6c-0.2-0.5-0.6-0.8-1-1.1c-0.5-0.3-1-0.4-1.6-0.4c-0.6,0-1.1,0.1-1.6,0.4
	c-0.4,0.2-0.8,0.6-1,1.1C398.9,39.1,398.7,39.6,398.8,40.2L398.8,40.2z M412.9,36.6c0-1.6,0.1-3.1,0.5-4.7c0.3-1.3,0.8-2.5,1.5-3.6
	c0.7-1,1.7-1.8,2.8-2.3c1.3-0.6,2.8-0.9,4.3-0.8c1.5,0,2.9,0.2,4.2,0.8c1.1,0.5,2.1,1.3,2.8,2.3c0.7,1.1,1.2,2.3,1.5,3.6
	c0.6,3.1,0.6,6.3,0,9.4c-0.3,1.3-0.8,2.5-1.6,3.6c-0.7,1-1.7,1.8-2.8,2.3c-1.3,0.6-2.8,0.8-4.2,0.8c-1.5,0-2.9-0.2-4.3-0.8
	c-1.1-0.5-2.1-1.3-2.8-2.3c-0.7-1.1-1.3-2.3-1.5-3.6C413,39.8,412.8,38.2,412.9,36.6L412.9,36.6z M425.4,36.6c0-0.9,0-1.7-0.1-2.5
	c0-0.7-0.2-1.5-0.4-2.1c-0.2-0.6-0.5-1.1-1-1.5c-0.5-0.4-1.2-0.6-1.9-0.5c-0.7,0-1.3,0.2-1.9,0.5c-0.5,0.4-0.8,0.9-1,1.5
	c-0.2,0.7-0.4,1.4-0.4,2.1c-0.1,0.8-0.1,1.6-0.1,2.5s0,1.8,0.1,2.6c0,0.7,0.2,1.4,0.4,2.1c0.2,0.6,0.5,1.1,1,1.4
	c0.5,0.4,1.2,0.6,1.9,0.5c0.7,0,1.3-0.1,1.9-0.5c0.5-0.4,0.8-0.9,1-1.4c0.2-0.7,0.4-1.4,0.4-2.1C425.3,38.4,425.3,37.5,425.4,36.6
	L425.4,36.6z M443,24.8h5.3v8.8c0.5-0.6,1.1-1.1,1.7-1.4c0.7-0.4,1.6-0.6,2.4-0.6c1.1,0,2.2,0.3,3.2,0.8c0.9,0.6,1.6,1.4,2,2.3
	c0.5,1.2,0.8,2.4,0.7,3.7v9.3h-5.6v-8.7c0.1-0.7-0.1-1.5-0.6-2.1c-0.4-0.5-1-0.8-1.7-0.7c-0.7,0-1.4,0.3-1.7,0.9
	c-0.4,0.7-0.6,1.5-0.6,2.3v8.3H443L443,24.8z M465.6,42.5c0.1,0.3,0.2,0.6,0.4,0.8c0.2,0.2,0.4,0.4,0.7,0.5c0.3,0.1,0.7,0.2,1,0.2
	c0.4,0,0.9-0.1,1.3-0.3c0.3-0.1,0.5-0.4,0.5-0.7c0-0.3-0.1-0.5-0.4-0.7c-0.3-0.2-0.6-0.3-0.9-0.4c-0.4-0.1-0.8-0.2-1.2-0.3
	s-1.1-0.3-1.8-0.4c-0.7-0.2-1.3-0.4-1.9-0.7c-0.6-0.3-1.1-0.8-1.5-1.4c-0.4-0.7-0.6-1.4-0.6-2.2c0-0.9,0.3-1.8,0.8-2.6
	c0.6-0.8,1.3-1.5,2.2-1.9c1.2-0.5,2.4-0.7,3.7-0.7c1.5-0.1,3,0.3,4.2,1.1c1,0.7,1.8,1.8,2.2,3l-4.5,1c-0.1-0.2-0.2-0.4-0.4-0.6
	c-0.2-0.2-0.4-0.3-0.6-0.3c-0.2-0.1-0.5-0.1-0.8-0.1c-0.4,0-0.8,0.1-1.1,0.3c-0.2,0.1-0.3,0.4-0.3,0.6c0,0.2,0.1,0.4,0.2,0.5
	c0.2,0.1,0.3,0.2,0.5,0.3l0.8,0.2c0.3,0,0.7,0.1,1,0.2c0.7,0.2,1.3,0.3,2,0.5c0.7,0.2,1.3,0.5,1.9,0.8c0.6,0.4,1,0.9,1.3,1.5
	c0.9,1.6,0.8,3.5-0.2,5c-0.6,0.8-1.4,1.5-2.4,1.8c-1.2,0.5-2.5,0.7-3.8,0.7c-1.6,0.1-3.2-0.3-4.7-1.1c-1.2-0.7-2-2-2.3-3.4
	L465.6,42.5z M497.5,34.3h-0.8v-9.5h5.3v23h-4.7l-0.3-2c-0.5,0.7-1.1,1.2-1.8,1.6c-0.8,0.4-1.7,0.7-2.6,0.7c-1.3,0-2.5-0.3-3.5-1
	c-1.1-0.7-1.9-1.7-2.5-2.8c-0.6-1.4-0.9-2.9-0.9-4.4c0-1.5,0.3-3,0.9-4.4c0.5-1.2,1.4-2.2,2.4-2.8c1.1-0.7,2.3-1,3.6-1
	c1.1,0,2.1,0.2,3,0.8C496.3,32.9,496.9,33.5,497.5,34.3L497.5,34.3z M491.3,39.8c0,0.9,0.2,1.7,0.7,2.4c0.8,1,2.2,1.2,3.3,0.5
	c0.4-0.3,0.8-0.7,1-1.1c0.5-1.2,0.5-2.5,0-3.6c-0.2-0.5-0.6-0.9-1-1.1c-0.4-0.3-0.9-0.4-1.3-0.4c-0.8,0-1.5,0.3-2,0.9
	C491.5,38.1,491.2,38.9,491.3,39.8L491.3,39.8z M512.7,48c-1.5,0-3-0.3-4.4-1c-1.2-0.7-2.2-1.7-2.8-2.9c-0.7-1.4-1-2.9-1-4.4
	c0-1.5,0.3-2.9,1-4.2c0.7-1.2,1.6-2.2,2.8-2.8c1.3-0.7,2.7-1,4.1-1c1.5,0,2.9,0.3,4.2,1c1.2,0.6,2.2,1.6,2.8,2.8
	c0.7,1.3,1,2.7,1,4.2c0,0.2,0,0.5,0,0.8s-0.1,0.6-0.1,0.9H510c0.1,0.5,0.3,0.9,0.5,1.3c0.3,0.3,0.6,0.6,1,0.8
	c0.4,0.2,0.9,0.3,1.3,0.3c0.5,0,1-0.1,1.5-0.3c0.4-0.2,0.8-0.6,1-1l4.7,1.1c-0.6,1.4-1.6,2.7-2.9,3.5
	C515.8,47.7,514.2,48.1,512.7,48L512.7,48z M514.7,38.2c0-0.4-0.1-0.8-0.3-1.2c-0.2-0.3-0.4-0.6-0.8-0.8c-0.3-0.2-0.7-0.3-1.1-0.3
	c-0.4,0-0.8,0.1-1.1,0.3c-0.3,0.2-0.6,0.5-0.8,0.8c-0.2,0.3-0.3,0.7-0.4,1.1H514.7z M7.8,86c-1.5,0.1-2.9-0.3-4.2-1
	c-1.2-0.7-2.2-1.7-2.8-2.9c-1.3-2.7-1.3-5.9,0-8.6c0.7-1.2,1.6-2.2,2.8-2.9c1.3-0.7,2.7-1,4.1-1c1.7,0,3.4,0.5,4.8,1.4
	c1.4,0.9,2.4,2.3,2.8,3.9l-5,1.1c-0.2-0.5-0.5-0.9-0.9-1.2c-0.4-0.3-0.9-0.4-1.3-0.4c-0.5,0-1,0.2-1.4,0.4c-0.4,0.3-0.8,0.8-1,1.3
	c-0.2,0.6-0.4,1.2-0.3,1.8c0,0.9,0.2,1.8,0.8,2.5c0.4,0.6,1.2,1,2,1c0.5,0,1-0.1,1.3-0.4c0.4-0.3,0.8-0.7,1-1.2l5,1.1
	c-0.5,1.6-1.5,2.9-2.8,3.8C11.2,85.6,9.5,86.1,7.8,86z M18,62.8h5.3v23H18V62.8z M35.5,85.8l-0.3-2c-0.5,0.6-1.1,1.1-1.8,1.6
	c-0.7,0.4-1.6,0.6-2.4,0.6c-0.9,0-1.8-0.2-2.6-0.5c-0.7-0.3-1.4-0.9-1.9-1.5c-1.2-1.8-0.9-4.2,0.7-5.8c1.3-1,2.8-1.5,4.4-1.6
	l3.5-0.4v-0.9c0-0.3-0.2-0.7-0.4-0.9c-0.4-0.3-0.9-0.5-1.4-0.5c-0.5,0-1,0.1-1.4,0.4c-0.4,0.3-0.7,0.8-0.8,1.3l-4.5-1.6
	c0.4-1.3,1.3-2.5,2.5-3.2c1.3-0.8,2.9-1.2,4.4-1.1c1.9-0.1,3.7,0.5,5.1,1.7c1.2,1.2,1.9,2.9,1.8,4.6v10L35.5,85.8z M35.2,79.1
	l-2.5,0.3c-0.4,0-0.8,0.2-1.1,0.5c-0.3,0.2-0.4,0.6-0.4,0.9c0,0.4,0.2,0.7,0.4,0.9c0.4,0.3,0.9,0.4,1.3,0.4c0.4,0,0.8-0.1,1.2-0.3
	c0.3-0.2,0.6-0.5,0.8-0.9c0.2-0.5,0.3-0.9,0.3-1.4L35.2,79.1z M47.6,80.5c0.1,0.3,0.2,0.6,0.4,0.8c0.2,0.2,0.4,0.4,0.7,0.4
	c0.3,0.1,0.7,0.2,1,0.2c0.4,0,0.9-0.1,1.3-0.3c0.3-0.1,0.5-0.4,0.5-0.7c0-0.3-0.1-0.5-0.4-0.7c-0.3-0.2-0.6-0.3-0.9-0.4
	c-0.4-0.1-0.8-0.2-1.2-0.3s-1.1-0.3-1.8-0.4c-0.7-0.2-1.3-0.4-1.9-0.7c-0.6-0.3-1.1-0.8-1.5-1.4c-0.4-0.7-0.6-1.4-0.6-2.2
	c0-0.9,0.2-1.8,0.8-2.6c0.6-0.8,1.3-1.5,2.2-1.9c1.2-0.5,2.4-0.7,3.7-0.7c1.5-0.1,3,0.3,4.2,1.1c1,0.7,1.8,1.8,2.2,3l-4.5,1
	c0-0.2-0.2-0.4-0.4-0.6c-0.2-0.2-0.4-0.3-0.6-0.3c-0.3-0.1-0.5-0.1-0.8-0.1c-0.4,0-0.8,0.1-1.1,0.3c-0.2,0.1-0.3,0.4-0.3,0.6
	c0,0.2,0.1,0.4,0.2,0.5c0.2,0.1,0.3,0.2,0.5,0.3l0.8,0.2c0.3,0,0.7,0.1,1,0.2c0.6,0.2,1.3,0.3,2,0.5c0.7,0.2,1.3,0.5,1.9,0.8
	c0.6,0.4,1.1,0.8,1.4,1.4c0.4,0.7,0.6,1.5,0.6,2.3c0,0.9-0.3,1.9-0.8,2.6c-0.6,0.8-1.4,1.5-2.4,1.8c-1.2,0.5-2.5,0.7-3.8,0.7
	c-1.6,0.1-3.3-0.3-4.7-1.1c-1.2-0.8-2-2-2.3-3.4L47.6,80.5z M66.8,86c-1.5,0-3-0.3-4.3-1c-1.2-0.7-2.2-1.7-2.8-2.9
	c-0.7-1.4-1-2.9-1-4.4c0-1.5,0.3-2.9,1-4.2c0.7-1.2,1.6-2.2,2.8-2.8c1.3-0.7,2.7-1,4.1-1c1.5,0,2.9,0.3,4.2,1
	c1.2,0.6,2.1,1.6,2.8,2.8c0.7,1.3,1,2.7,1,4.2c0,0.2,0,0.5,0,0.8s-0.1,0.6-0.1,0.9H64.2c0.1,0.5,0.3,0.9,0.6,1.3
	c0.3,0.3,0.6,0.6,1,0.8c0.4,0.2,0.9,0.3,1.3,0.3c0.5,0,1-0.1,1.5-0.3c0.4-0.2,0.8-0.6,1-1l4.7,1.2c-0.6,1.4-1.6,2.7-2.9,3.5
	C70,85.7,68.4,86.1,66.8,86L66.8,86z M68.8,76.1c0-0.4-0.1-0.8-0.3-1.2c-0.2-0.3-0.4-0.6-0.8-0.8c-0.3-0.2-0.7-0.3-1.1-0.3
	c-0.4,0-0.8,0.1-1.1,0.3c-0.3,0.2-0.6,0.5-0.8,0.8c-0.2,0.3-0.3,0.7-0.4,1.1H68.8z M93.6,86c-1.5,0-2.9-0.3-4.2-1
	c-1.2-0.7-2.2-1.6-2.9-2.8c-0.7-1.3-1.1-2.9-1.1-4.4c0-1.5,0.3-3,1.1-4.3c0.7-1.2,1.7-2.2,2.9-2.8c2.7-1.4,5.8-1.4,8.5,0
	c1.3,0.6,2.3,1.6,3,2.8c1.5,2.7,1.5,6,0,8.7c-0.7,1.2-1.7,2.2-3,2.8C96.6,85.7,95.1,86.1,93.6,86L93.6,86z M93.6,81.2
	c0.5,0,0.9-0.1,1.3-0.4c0.4-0.3,0.8-0.7,1-1.2c0.5-1.2,0.5-2.6,0-3.8c-0.2-0.5-0.6-0.9-1-1.2c-0.4-0.3-0.8-0.4-1.3-0.4
	c-0.5,0-0.9,0.1-1.3,0.4c-0.4,0.3-0.7,0.7-0.9,1.2c-0.3,0.6-0.4,1.3-0.4,1.9c0,0.7,0.1,1.3,0.3,1.9c0.2,0.5,0.5,0.9,0.9,1.2
	C92.7,81.1,93.2,81.3,93.6,81.2L93.6,81.2z M104.5,69.8h4.7l0.4,1.8c0.5-0.6,1.1-1.1,1.8-1.5c0.7-0.4,1.5-0.6,2.4-0.6
	c1.1,0,2.2,0.2,3.2,0.8c0.9,0.5,1.5,1.4,1.9,2.3c0.5,1.2,0.7,2.4,0.7,3.7v9.3h-5.3v-8.7c0.1-0.7-0.1-1.5-0.6-2.1
	c-0.4-0.5-1-0.8-1.7-0.7c-0.7,0-1.3,0.2-1.7,0.7c-0.4,0.6-0.6,1.4-0.6,2.1v8.7h-5.3V69.8z M122.6,62.8h5.2v23h-5.2V62.8z
	 M131.6,69.8h5.3v16h-5.3V69.8z M134.3,68.6c-0.9,0-1.7-0.3-2.4-0.8c-0.6-0.5-0.9-1.3-0.9-2.1c0-0.8,0.3-1.5,0.9-2.1
	c0.6-0.6,1.5-0.9,2.4-0.9c0.9,0,1.7,0.3,2.3,0.9c0.6,0.5,0.9,1.3,0.9,2.1c0,0.8-0.3,1.6-0.9,2.1C136,68.3,135.2,68.7,134.3,68.6
	L134.3,68.6z M140.7,69.8h4.7l0.4,1.8c0.5-0.6,1.1-1.1,1.8-1.5c0.7-0.4,1.5-0.6,2.4-0.6c1.1,0,2.2,0.2,3.2,0.8
	c0.9,0.6,1.6,1.4,1.9,2.4c0.5,1.2,0.7,2.4,0.7,3.7v9.3h-5.3v-8.7c0.1-0.7-0.1-1.5-0.6-2.1c-0.4-0.5-1-0.8-1.7-0.7
	c-0.7,0-1.3,0.2-1.7,0.7c-0.4,0.6-0.6,1.4-0.6,2.1v8.7h-5.3L140.7,69.8z M166.4,86c-1.5,0-3-0.3-4.4-1c-1.2-0.7-2.2-1.7-2.8-2.9
	c-0.7-1.4-1-2.9-1-4.4c0-1.5,0.3-2.9,1-4.2c0.7-1.2,1.6-2.2,2.8-2.8c1.3-0.7,2.7-1,4.1-1c1.5,0,2.9,0.3,4.2,1
	c1.2,0.6,2.1,1.6,2.7,2.7c0.7,1.3,1,2.7,1,4.2c0,0.2,0,0.5,0,0.8s-0.1,0.6-0.1,0.9h-10.2c0.1,0.5,0.3,0.9,0.5,1.3
	c0.3,0.3,0.6,0.6,1,0.8c0.4,0.2,0.9,0.3,1.3,0.3c0.5,0,1-0.1,1.5-0.3c0.4-0.2,0.8-0.6,1-1l4.7,1.2c-0.6,1.4-1.6,2.7-2.9,3.5
	C169.6,85.7,168,86.1,166.4,86z M168.4,76.2c0-0.4-0.1-0.8-0.3-1.2c-0.2-0.3-0.4-0.6-0.8-0.8c-0.3-0.2-0.7-0.3-1.1-0.3
	c-0.4,0-0.8,0.1-1.1,0.3c-0.3,0.2-0.6,0.5-0.8,0.8c-0.2,0.3-0.3,0.7-0.4,1.1L168.4,76.2z M193.2,86c-1.5,0-3-0.3-4.4-1
	c-1.2-0.7-2.2-1.7-2.9-2.9c-0.7-1.4-1-2.9-1-4.4c0-1.5,0.3-2.9,1-4.2c0.7-1.2,1.6-2.2,2.8-2.8c1.3-0.7,2.7-1,4.1-1
	c1.5,0,2.9,0.3,4.2,1c1.2,0.6,2.1,1.6,2.8,2.8c0.7,1.3,1,2.7,1,4.2c0,0.2,0,0.5,0,0.8s-0.1,0.6-0.1,0.9h-10.2
	c0.1,0.5,0.3,0.9,0.5,1.3c0.3,0.3,0.6,0.6,1,0.8c0.4,0.2,0.9,0.3,1.4,0.3c0.5,0,1-0.1,1.5-0.3c0.4-0.2,0.8-0.6,1-1l4.7,1.2
	c-0.6,1.4-1.6,2.7-2.9,3.5C196.4,85.7,194.8,86.1,193.2,86L193.2,86z M195.2,76.2c0-0.4-0.1-0.8-0.4-1.2c-0.2-0.3-0.4-0.6-0.8-0.8
	c-0.3-0.2-0.7-0.3-1.1-0.3c-0.4,0-0.8,0.1-1.1,0.3c-0.3,0.2-0.6,0.5-0.8,0.8c-0.2,0.3-0.3,0.7-0.4,1.1H195.2z M203.4,69.8h4.7
	l0.4,1.8c0.5-0.6,1.1-1.1,1.8-1.5c0.7-0.4,1.5-0.6,2.4-0.6c1.1,0,2.2,0.2,3.2,0.8c0.9,0.6,1.5,1.4,1.9,2.3c0.5,1.2,0.7,2.4,0.7,3.7
	v9.3h-5.3v-8.7c0.1-0.7-0.1-1.5-0.6-2.1c-0.4-0.5-1-0.8-1.7-0.7c-0.7,0-1.3,0.2-1.7,0.7c-0.4,0.6-0.6,1.4-0.6,2.1v8.7h-5.3
	L203.4,69.8z M235.1,69.8l2.9,9.6l3-9.6h5.7l-5.7,16h-5.9l-5.7-16H235.1z M249.4,69.8h5.3v16h-5.3V69.8z M252,68.6
	c-0.9,0-1.7-0.3-2.4-0.8c-0.6-0.5-0.9-1.3-0.9-2.1c0-0.8,0.3-1.5,0.9-2.1c0.6-0.6,1.5-0.9,2.4-0.9c0.9,0,1.7,0.3,2.3,0.9
	c0.6,0.5,0.9,1.3,0.9,2.1c0,0.8-0.3,1.6-0.9,2.1C253.7,68.4,252.9,68.7,252,68.6L252,68.6z M263,69.8l2.9,9.6l3-9.6h5.7l-5.7,16
	h-5.8l-5.7-16H263z M283.7,86c-1.5,0-2.9-0.3-4.2-1c-1.2-0.7-2.3-1.6-3-2.8c-0.7-1.3-1.1-2.9-1-4.4c0-1.5,0.3-3,1.1-4.3
	c0.7-1.2,1.7-2.2,3-2.8c2.7-1.4,5.8-1.4,8.5,0c1.3,0.6,2.3,1.6,3,2.8c0.7,1.3,1.1,2.8,1,4.4c0,1.5-0.3,3.1-1.1,4.4
	c-0.7,1.2-1.7,2.2-3,2.8C286.7,85.7,285.2,86.1,283.7,86z M283.7,81.3c0.5,0,0.9-0.1,1.3-0.4c0.4-0.3,0.8-0.7,1-1.2
	c0.5-1.2,0.5-2.6,0-3.8c-0.2-0.5-0.6-0.9-1-1.2c-0.4-0.3-0.8-0.4-1.3-0.4c-0.5,0-0.9,0.1-1.3,0.4c-0.4,0.3-0.7,0.7-0.9,1.2
	c-0.3,0.6-0.4,1.3-0.4,1.9c0,0.7,0.1,1.3,0.3,1.9c0.2,0.5,0.5,0.9,0.9,1.2C282.8,81.2,283.2,81.3,283.7,81.3z M303.6,69.8h4.7
	l0.4,1.7c0.5-0.6,1.1-1,1.8-1.4c0.7-0.4,1.5-0.6,2.3-0.5c0.9,0,1.8,0.2,2.6,0.6c0.8,0.4,1.5,1.1,2,1.8c0.6-0.7,1.4-1.3,2.2-1.8
	c0.9-0.5,1.9-0.7,2.9-0.7c1.1,0,2.3,0.3,3.3,0.8c0.9,0.5,1.7,1.4,2.2,2.3c0.5,1.2,0.8,2.4,0.8,3.7v9.3h-5.3v-8.7
	c0.1-0.7-0.2-1.4-0.6-2c-0.4-0.5-1.1-0.7-1.7-0.7c-0.7,0-1.3,0.2-1.8,0.7c-0.4,0.6-0.7,1.3-0.6,2.1v8.6h-5.3v-8.7
	c0.1-0.7-0.2-1.4-0.6-2c-0.4-0.5-1-0.7-1.7-0.7c-0.7-0.1-1.3,0.2-1.7,0.7c-0.4,0.6-0.6,1.3-0.6,2v8.7h-5.3L303.6,69.8z M340.8,85.8
	l-0.4-2c-0.5,0.6-1.1,1.1-1.8,1.6c-0.7,0.4-1.6,0.6-2.4,0.6c-0.9,0-1.8-0.2-2.6-0.5c-0.8-0.3-1.4-0.9-1.9-1.6
	c-1.2-1.8-0.9-4.2,0.7-5.8c1.3-1,2.8-1.5,4.5-1.6l3.5-0.4v-0.9c0-0.3-0.2-0.7-0.5-0.9c-0.4-0.3-0.9-0.5-1.4-0.5
	c-0.5,0-1,0.1-1.4,0.4c-0.4,0.3-0.7,0.8-0.8,1.3l-4.5-1.6c0.4-1.4,1.3-2.5,2.5-3.3c1.3-0.8,2.9-1.2,4.4-1.1c1.9-0.1,3.7,0.5,5.1,1.7
	c1.2,1.2,1.8,2.9,1.8,4.6v10L340.8,85.8z M340.5,79.1l-2.5,0.3c-0.4,0-0.8,0.2-1.1,0.5c-0.3,0.2-0.4,0.6-0.4,0.9
	c0,0.4,0.2,0.7,0.4,0.9c0.4,0.3,0.9,0.4,1.3,0.4c0.4,0,0.8-0.1,1.1-0.3c0.3-0.2,0.6-0.5,0.8-0.9c0.2-0.5,0.3-0.9,0.3-1.4V79.1z
	 M352.9,80.5c0.1,0.3,0.2,0.6,0.4,0.8c0.2,0.2,0.4,0.4,0.7,0.4c0.3,0.1,0.7,0.2,1,0.2c0.4,0,0.9-0.1,1.3-0.3
	c0.3-0.1,0.5-0.4,0.5-0.7c0-0.3-0.1-0.5-0.4-0.7c-0.3-0.2-0.6-0.3-0.9-0.4c-0.4-0.1-0.8-0.2-1.2-0.3s-1.1-0.3-1.8-0.4
	c-0.7-0.2-1.3-0.4-1.9-0.7c-0.6-0.3-1.1-0.8-1.5-1.4c-0.4-0.7-0.6-1.4-0.6-2.2c0-0.9,0.3-1.8,0.8-2.6c0.5-0.8,1.3-1.5,2.2-1.9
	c1.2-0.5,2.4-0.7,3.7-0.7c1.5-0.1,3,0.3,4.2,1.1c1,0.7,1.8,1.8,2.2,3l-4.5,1c0-0.2-0.2-0.4-0.4-0.6c-0.2-0.2-0.4-0.3-0.6-0.3
	c-0.3-0.1-0.5-0.1-0.8-0.1c-0.4,0-0.8,0.1-1.1,0.3c-0.2,0.1-0.3,0.4-0.4,0.6c0,0.2,0.1,0.4,0.2,0.5c0.2,0.1,0.3,0.2,0.5,0.3l0.8,0.2
	c0.3,0,0.6,0.1,1,0.2c0.7,0.2,1.3,0.3,2,0.5c0.7,0.2,1.3,0.5,1.9,0.8c0.6,0.4,1.1,0.9,1.4,1.4c0.4,0.7,0.6,1.5,0.6,2.3
	c0,0.9-0.3,1.9-0.8,2.6c-0.6,0.8-1.4,1.5-2.4,1.8c-1.2,0.5-2.5,0.7-3.8,0.7c-1.6,0.1-3.3-0.3-4.7-1.1c-1.2-0.8-2-2-2.2-3.4
	L352.9,80.5z M376,68.1h-3.2v-4.7h8.8v22.4H376L376,68.1z M384.6,81.8l5.9-5.6c1.1-1,1.9-1.8,2.5-2.5c0.5-0.5,1-1.1,1.3-1.8
	c0.3-0.5,0.4-1.1,0.4-1.7c0-0.6-0.2-1.2-0.6-1.7c-0.5-0.4-1.1-0.7-1.7-0.6c-0.4,0-0.9,0.1-1.2,0.4c-0.4,0.3-0.7,0.6-0.9,1.1
	c-0.2,0.6-0.4,1.2-0.4,1.8h-5.4c0-1.6,0.4-3.2,1.2-4.6c0.7-1.1,1.7-2,2.9-2.6c2.7-1.2,5.7-1.1,8.4,0.1c1.1,0.6,1.9,1.4,2.5,2.5
	c0.5,1,0.8,2.2,0.8,3.4c0,0.9-0.1,1.8-0.5,2.7c-0.3,0.9-0.8,1.8-1.5,2.5c-0.9,1.1-1.9,2.1-3,3l-3.3,3h8.6v4.7h-16.1V81.8z
	 M403.5,74.6c0-1.6,0.1-3.1,0.5-4.7c0.3-1.3,0.8-2.5,1.5-3.6c0.7-1,1.7-1.8,2.8-2.3c1.3-0.6,2.8-0.9,4.3-0.8c1.5,0,2.9,0.2,4.2,0.8
	c1.1,0.5,2.1,1.3,2.8,2.3c0.8,1.1,1.3,2.3,1.5,3.6c0.6,3.1,0.6,6.3,0,9.4c-0.3,1.3-0.8,2.5-1.5,3.6c-0.7,1-1.7,1.8-2.8,2.3
	c-1.3,0.6-2.8,0.8-4.2,0.8c-1.5,0-2.9-0.2-4.3-0.8c-1.1-0.5-2.1-1.3-2.8-2.3c-0.7-1.1-1.3-2.3-1.5-3.6
	C403.6,77.8,403.5,76.2,403.5,74.6z M415.9,74.6c0-0.9,0-1.7-0.1-2.5c0-0.7-0.2-1.5-0.5-2.1c-0.2-0.6-0.5-1.1-1-1.5
	c-0.5-0.4-1.2-0.6-1.9-0.6c-0.7,0-1.3,0.2-1.9,0.6c-0.5,0.4-0.8,0.9-1,1.5c-0.2,0.7-0.4,1.4-0.4,2.1c-0.1,0.8-0.1,1.6-0.1,2.5
	s0,1.8,0.1,2.6c0,0.7,0.2,1.4,0.4,2.1c0.2,0.6,0.5,1.1,1,1.4c0.5,0.4,1.2,0.6,1.9,0.5c0.7,0,1.3-0.1,1.9-0.5c0.5-0.4,0.8-0.9,1-1.4
	c0.2-0.7,0.4-1.4,0.5-2.1C415.9,76.4,415.9,75.5,415.9,74.6L415.9,74.6z M433.6,62.8h5.3v8.8c0.5-0.6,1.1-1.1,1.7-1.4
	c0.7-0.4,1.6-0.6,2.4-0.6c1.1,0,2.2,0.3,3.2,0.8c0.9,0.5,1.6,1.4,2,2.3c0.5,1.2,0.8,2.4,0.7,3.7v9.3h-5.6v-8.7
	c0.1-0.7-0.1-1.5-0.6-2.1c-0.4-0.5-1-0.8-1.7-0.7c-0.7,0-1.4,0.3-1.7,0.9c-0.4,0.7-0.6,1.5-0.6,2.3v8.3h-5.3V62.8z M456.2,80.5
	c0.1,0.3,0.2,0.6,0.4,0.8c0.2,0.2,0.4,0.4,0.7,0.4c0.3,0.1,0.7,0.2,1,0.2c0.4,0,0.9-0.1,1.3-0.3c0.3-0.1,0.5-0.4,0.5-0.7
	c0-0.3-0.1-0.5-0.4-0.7c-0.3-0.2-0.6-0.3-0.9-0.4c-0.4-0.1-0.8-0.2-1.2-0.3s-1.1-0.3-1.8-0.4c-0.7-0.2-1.3-0.4-1.9-0.7
	c-0.6-0.3-1.1-0.8-1.5-1.4c-0.4-0.7-0.6-1.4-0.6-2.2c0-0.9,0.3-1.8,0.8-2.6c0.6-0.8,1.3-1.5,2.2-1.9c1.2-0.5,2.4-0.7,3.7-0.7
	c1.5-0.1,3,0.3,4.2,1.1c1,0.7,1.8,1.8,2.2,3l-4.5,1c0-0.2-0.2-0.4-0.4-0.6c-0.2-0.2-0.4-0.3-0.6-0.3c-0.3-0.1-0.5-0.1-0.8-0.1
	c-0.4,0-0.8,0.1-1.1,0.3c-0.2,0.1-0.3,0.4-0.4,0.6c0,0.2,0.1,0.4,0.2,0.5c0.2,0.1,0.3,0.2,0.5,0.3l0.8,0.2c0.3,0,0.7,0.1,1,0.2
	c0.7,0.2,1.3,0.3,1.9,0.5c0.7,0.2,1.3,0.5,1.9,0.8c0.6,0.4,1.1,0.9,1.4,1.4c0.4,0.7,0.6,1.6,0.5,2.4c0,0.9-0.3,1.9-0.8,2.6
	c-0.6,0.8-1.5,1.4-2.4,1.8c-1.2,0.5-2.5,0.7-3.8,0.7c-1.6,0.1-3.2-0.3-4.6-1.1c-1.2-0.8-2-2-2.3-3.4L456.2,80.5z M9.6,123.8l-0.3-2
	c-0.5,0.6-1.1,1.1-1.8,1.6c-0.7,0.4-1.6,0.6-2.4,0.6c-0.9,0-1.8-0.2-2.6-0.5c-0.7-0.3-1.4-0.9-1.8-1.6c-1.2-1.8-0.9-4.2,0.7-5.8
	c1.3-1,2.8-1.5,4.5-1.6l3.5-0.4v-0.9c0-0.3-0.2-0.7-0.5-0.9c-0.4-0.3-0.9-0.5-1.4-0.5c-0.5,0-1,0.1-1.4,0.4
	c-0.4,0.3-0.7,0.8-0.8,1.3l-4.5-1.6c0.4-1.3,1.3-2.5,2.5-3.3c1.3-0.8,2.9-1.2,4.4-1.1c1.9-0.1,3.7,0.5,5.1,1.7
	c1.2,1.2,1.9,2.9,1.8,4.6v10L9.6,123.8z M9.3,117.1l-2.5,0.3c-0.4,0-0.8,0.2-1.1,0.5c-0.2,0.2-0.4,0.6-0.4,0.9
	c0,0.4,0.2,0.7,0.5,0.9c0.4,0.3,0.8,0.4,1.3,0.4c0.4,0,0.8-0.1,1.2-0.3c0.3-0.2,0.6-0.5,0.8-0.9c0.2-0.5,0.3-0.9,0.3-1.4L9.3,117.1z
	 M21.7,118.5c0.1,0.3,0.2,0.6,0.4,0.8c0.2,0.2,0.4,0.4,0.7,0.4c0.3,0.1,0.7,0.2,1,0.2c0.4,0,0.9-0.1,1.3-0.3
	c0.3-0.1,0.5-0.4,0.5-0.7c0-0.3-0.1-0.5-0.4-0.7c-0.3-0.2-0.6-0.3-0.9-0.4c-0.4-0.1-0.8-0.2-1.2-0.3s-1.1-0.3-1.8-0.4
	c-0.7-0.2-1.3-0.4-1.9-0.7c-0.6-0.3-1.1-0.8-1.5-1.4c-0.4-0.7-0.6-1.4-0.6-2.2c0-0.9,0.3-1.8,0.8-2.6c0.6-0.8,1.3-1.5,2.2-1.9
	c1.2-0.5,2.4-0.7,3.7-0.7c1.5-0.1,2.9,0.3,4.2,1.1c1,0.7,1.8,1.8,2.2,3l-4.6,1c0-0.2-0.2-0.4-0.4-0.6c-0.2-0.2-0.4-0.3-0.6-0.3
	c-0.3-0.1-0.5-0.1-0.8-0.1c-0.4,0-0.8,0.1-1.1,0.3c-0.2,0.1-0.3,0.4-0.3,0.6c0,0.2,0.1,0.4,0.2,0.5c0.2,0.1,0.3,0.2,0.5,0.3l0.8,0.2
	c0.3,0,0.7,0.1,1,0.2c0.7,0.2,1.3,0.3,2,0.5c0.7,0.2,1.3,0.5,1.9,0.8c0.6,0.4,1.1,0.8,1.4,1.4c0.4,0.7,0.6,1.5,0.6,2.3
	c0,0.9-0.3,1.9-0.8,2.6c-0.6,0.8-1.4,1.5-2.4,1.8c-1.2,0.5-2.5,0.7-3.8,0.7c-1.7,0.1-3.3-0.3-4.8-1.1c-1.2-0.8-2-2-2.3-3.4
	L21.7,118.5z M34,107.8h5.2v16H34V107.8z M36.6,106.6c-0.9,0-1.7-0.3-2.4-0.8c-0.6-0.5-0.9-1.3-0.9-2.1c0-0.8,0.3-1.5,0.9-2.1
	c0.6-0.6,1.5-0.9,2.4-0.9c0.9,0,1.7,0.3,2.3,0.9c0.6,0.5,0.9,1.3,0.9,2.1c0,0.8-0.3,1.6-0.9,2.1C38.3,106.4,37.5,106.7,36.6,106.6z
	 M43.1,107.8h4.7l0.4,1.8c0.5-0.6,1.1-1.1,1.8-1.5c0.7-0.4,1.5-0.6,2.4-0.6c1.1,0,2.2,0.2,3.2,0.8c0.9,0.5,1.5,1.4,1.9,2.3
	c0.5,1.2,0.7,2.4,0.7,3.7v9.3h-5.3v-8.7c0.1-0.7-0.1-1.5-0.6-2.1c-0.4-0.5-1-0.8-1.7-0.7c-0.7,0-1.3,0.2-1.7,0.7
	c-0.4,0.6-0.6,1.4-0.6,2.1v8.7h-5.2V107.8z M68.6,124c-1.5,0.1-2.9-0.3-4.2-1c-1.2-0.7-2.2-1.7-2.8-2.9c-1.3-2.7-1.3-5.9,0-8.6
	c0.6-1.2,1.6-2.2,2.8-2.9c1.3-0.7,2.7-1,4.1-1c1.7,0,3.4,0.5,4.8,1.4c1.4,0.9,2.4,2.3,2.8,3.9l-5,1c-0.2-0.5-0.5-0.9-0.9-1.2
	c-0.4-0.3-0.9-0.4-1.3-0.4c-0.5,0-1,0.2-1.4,0.4c-0.4,0.3-0.8,0.8-1,1.3c-0.2,0.6-0.4,1.2-0.4,1.8c0,0.9,0.2,1.8,0.8,2.5
	c0.5,0.6,1.2,1,2,1c0.5,0,1-0.1,1.3-0.4c0.4-0.3,0.8-0.7,1-1.2l5,1.1c-0.5,1.6-1.5,2.9-2.8,3.8C71.9,123.6,70.2,124.1,68.6,124
	L68.6,124z M78.7,107.8h4.8l0.4,2.2c0.4-0.6,0.9-1,1.4-1.4c0.6-0.4,1.2-0.7,1.9-0.8c0.8-0.2,1.6-0.2,2.4,0v5
	c-0.6-0.2-1.2-0.2-1.8-0.2c-0.7,0.1-1.3,0.3-1.9,0.6c-0.6,0.4-1.1,0.9-1.4,1.5c-0.4,0.8-0.6,1.7-0.6,2.7v6.4h-5.2L78.7,107.8z
	 M102.7,99.8v3.7l-6.7,2.7v-3.3L102.7,99.8z M98.9,124c-1.5,0-2.9-0.3-4.2-1c-1.2-0.7-2.2-1.6-2.9-2.8c-0.7-1.3-1.1-2.9-1.1-4.4
	c0-1.5,0.3-3,1.1-4.3c0.7-1.2,1.7-2.2,2.9-2.8c2.7-1.4,5.8-1.4,8.5,0c1.3,0.6,2.3,1.6,3,2.8c0.7,1.3,1.1,2.8,1.1,4.3
	c0,1.5-0.3,3.1-1.1,4.4c-0.7,1.2-1.7,2.2-3,2.8C101.9,123.7,100.4,124.1,98.9,124L98.9,124z M98.9,119.3c0.5,0,0.9-0.1,1.3-0.4
	c0.4-0.3,0.8-0.7,1-1.2c0.5-1.2,0.5-2.6,0-3.8c-0.2-0.5-0.6-0.9-1-1.2c-0.4-0.3-0.8-0.4-1.3-0.4c-0.5,0-0.9,0.1-1.3,0.4
	c-0.4,0.3-0.7,0.7-0.9,1.2c-0.3,0.6-0.4,1.3-0.4,1.9c0,0.7,0.1,1.3,0.3,1.9c0.2,0.5,0.5,0.9,0.9,1.2C98,119.2,98.4,119.3,98.9,119.3
	L98.9,119.3z M109.8,107.8h4.7l0.4,1.8c0.5-0.6,1.1-1.1,1.8-1.5c0.7-0.4,1.5-0.6,2.4-0.6c1.1,0,2.2,0.2,3.2,0.8
	c0.9,0.5,1.5,1.4,1.9,2.3c0.5,1.2,0.7,2.4,0.7,3.7v9.3h-5.3v-8.7c0.1-0.7-0.1-1.5-0.6-2.1c-0.4-0.5-1-0.8-1.7-0.7
	c-0.7,0-1.3,0.2-1.7,0.7c-0.4,0.6-0.6,1.4-0.6,2.1v8.7h-5.3V107.8z M128.6,107.8h5.3v16h-5.3V107.8z M131.2,106.6
	c-0.9,0-1.7-0.3-2.4-0.8c-0.6-0.5-0.9-1.3-0.9-2.1c0-0.8,0.3-1.5,0.9-2.1c1.4-1.1,3.3-1.1,4.7,0c0.6,0.5,0.9,1.3,0.9,2.1
	c0,0.8-0.3,1.6-0.9,2.1C132.9,106.4,132.1,106.7,131.2,106.6L131.2,106.6z M145,124c-1.5,0.1-2.9-0.3-4.2-1
	c-1.2-0.7-2.2-1.7-2.8-2.9c-1.3-2.7-1.3-5.9,0-8.6c0.6-1.2,1.6-2.2,2.8-2.9c1.3-0.7,2.7-1,4.1-1c1.7,0,3.4,0.5,4.8,1.4
	c1.4,0.9,2.4,2.3,2.9,3.9l-5,1.1c-0.2-0.5-0.5-0.9-0.9-1.2c-0.4-0.3-0.9-0.4-1.3-0.4c-0.5,0-1,0.2-1.4,0.4c-0.4,0.3-0.8,0.8-1,1.3
	c-0.2,0.6-0.4,1.2-0.4,1.8c0,0.9,0.2,1.8,0.8,2.5c0.4,0.6,1.2,1,1.9,1c0.5,0,1-0.1,1.4-0.4c0.4-0.3,0.8-0.7,1-1.2l5,1.1
	c-0.5,1.6-1.5,2.9-2.9,3.8C148.3,123.6,146.7,124.1,145,124L145,124z M164.3,123.8l-0.4-2c-0.5,0.6-1.1,1.2-1.8,1.6
	c-0.7,0.4-1.6,0.6-2.4,0.6c-0.9,0-1.8-0.2-2.6-0.5c-0.8-0.3-1.4-0.9-1.9-1.6c-1.2-1.8-0.9-4.2,0.7-5.8c1.3-1,2.8-1.5,4.4-1.6
	l3.5-0.4v-0.9c0-0.3-0.2-0.7-0.4-0.9c-0.4-0.3-0.9-0.5-1.4-0.5c-0.5,0-1,0.1-1.4,0.4c-0.4,0.3-0.7,0.8-0.8,1.3l-4.4-1.6
	c0.4-1.4,1.3-2.5,2.5-3.3c1.3-0.8,2.9-1.2,4.4-1.1c1.9-0.1,3.7,0.5,5.1,1.7c1.2,1.2,1.8,2.9,1.7,4.6v10L164.3,123.8z M163.9,117.1
	l-2.5,0.3c-0.4,0-0.8,0.2-1.1,0.5c-0.3,0.2-0.4,0.6-0.4,0.9c0,0.4,0.2,0.7,0.4,0.9c0.4,0.3,0.8,0.4,1.3,0.4c0.4,0,0.8-0.1,1.2-0.3
	c0.3-0.2,0.6-0.5,0.8-0.9c0.2-0.5,0.3-0.9,0.3-1.4V117.1z M176.4,118.5c0.1,0.3,0.2,0.6,0.4,0.8c0.2,0.2,0.4,0.4,0.7,0.4
	c0.3,0.1,0.7,0.2,1,0.2c0.4,0,0.9-0.1,1.3-0.3c0.3-0.1,0.4-0.4,0.4-0.7c0-0.3-0.1-0.5-0.4-0.7c-0.3-0.2-0.6-0.3-0.9-0.4
	c-0.4-0.1-0.8-0.2-1.2-0.3s-1.1-0.3-1.8-0.4c-0.7-0.2-1.3-0.4-1.9-0.7c-0.6-0.3-1.1-0.8-1.5-1.4c-0.4-0.7-0.6-1.4-0.6-2.2
	c0-0.9,0.2-1.8,0.8-2.6c0.6-0.8,1.3-1.5,2.2-1.9c1.2-0.5,2.4-0.7,3.7-0.7c1.5-0.1,3,0.3,4.2,1.1c1,0.7,1.8,1.8,2.2,3l-4.5,1
	c-0.1-0.2-0.2-0.4-0.4-0.6c-0.2-0.2-0.4-0.3-0.6-0.3c-0.2-0.1-0.5-0.1-0.8-0.1c-0.4,0-0.8,0.1-1.1,0.3c-0.2,0.1-0.3,0.4-0.4,0.6
	c0,0.2,0.1,0.4,0.2,0.5c0.2,0.1,0.3,0.2,0.5,0.3l0.8,0.2c0.3,0,0.7,0.1,1,0.2c0.7,0.2,1.3,0.3,1.9,0.5c0.7,0.2,1.3,0.5,1.9,0.8
	c0.6,0.4,1.1,0.8,1.4,1.4c0.4,0.7,0.6,1.5,0.6,2.3c0,0.9-0.3,1.9-0.8,2.6c-0.6,0.8-1.4,1.5-2.4,1.8c-1.2,0.5-2.5,0.7-3.8,0.7
	c-1.6,0.1-3.2-0.3-4.7-1.1c-1.2-0.8-2-2-2.3-3.4L176.4,118.5z M191,124.1c-0.9,0-1.8-0.3-2.4-0.9c-1.2-1.2-1.2-3.1,0-4.2
	c0,0,0,0,0,0c0.7-0.6,1.5-0.9,2.4-0.9c0.9,0,1.8,0.3,2.4,0.9c1.2,1.1,1.2,3,0.1,4.2c0,0-0.1,0.1-0.1,0.1
	C192.8,123.8,191.9,124.1,191,124.1L191,124.1z"/>
</svg>
