<svg width="622" height="200" viewBox="0 0 622 200" fill="none" xmlns="http://www.w3.org/2000/svg">
<path d="M1 95L1 148L54 148" stroke="white" stroke-width="2"/>
<path d="M621 54L621 1L568 0.999998" stroke="white" stroke-width="2"/>
<path d="M46.28 23.6V43.76H56.744V46H43.72V23.6H46.28ZM70.105 46L69.913 43.12C69.465 44.1013 68.8037 44.8693 67.929 45.424C67.0543 45.9573 65.945 46.224 64.601 46.224C63.449 46.224 62.4677 46.0427 61.657 45.68C60.8463 45.3173 60.217 44.8053 59.769 44.144C59.3423 43.4613 59.129 42.6613 59.129 41.744C59.129 40.4 59.6303 39.3013 60.633 38.448C61.6357 37.5733 63.0863 37.04 64.985 36.848L69.913 36.304V35.024C69.913 34.128 69.5823 33.4133 68.921 32.88C68.2597 32.3253 67.3637 32.048 66.233 32.048C65.1237 32.048 64.1957 32.304 63.449 32.816C62.7237 33.328 62.2223 34.064 61.945 35.024L59.769 34.256C60.1957 32.848 60.9743 31.7493 62.105 30.96C63.257 30.1707 64.6543 29.776 66.297 29.776C68.1957 29.776 69.6677 30.2667 70.713 31.248C71.7797 32.208 72.313 33.52 72.313 35.184V46H70.105ZM69.913 38.352L64.953 38.928C63.8863 39.056 63.0757 39.3547 62.521 39.824C61.9663 40.272 61.689 40.8693 61.689 41.616C61.689 42.3627 61.9557 42.96 62.489 43.408C63.0437 43.856 63.833 44.08 64.857 44.08C66.0303 44.08 66.9903 43.8453 67.737 43.376C68.4837 42.9067 69.0277 42.2773 69.369 41.488C69.7317 40.6773 69.913 39.8027 69.913 38.864V38.352ZM92.78 46.224C91.2227 46.224 89.8573 45.8827 88.684 45.2C87.5107 44.5173 86.5933 43.568 85.932 42.352C85.292 41.1147 84.972 39.6853 84.972 38.064C84.972 36.4213 85.292 34.9813 85.932 33.744C86.5933 32.4853 87.5107 31.5147 88.684 30.832C89.8573 30.128 91.2227 29.776 92.78 29.776C94.4227 29.776 95.8627 30.16 97.1 30.928C98.3373 31.6747 99.2333 32.72 99.788 34.064L97.58 34.832C97.26 33.9787 96.6733 33.3067 95.82 32.816C94.988 32.304 94.0173 32.048 92.908 32.048C91.82 32.048 90.8707 32.2933 90.06 32.784C89.2707 33.2747 88.652 33.968 88.204 34.864C87.7773 35.76 87.564 36.816 87.564 38.032C87.564 39.824 88.044 41.264 89.004 42.352C89.964 43.4187 91.244 43.952 92.844 43.952C93.932 43.952 94.9027 43.7067 95.756 43.216C96.6093 42.7253 97.2387 42.064 97.644 41.232L99.82 42C99.244 43.3227 98.3373 44.3573 97.1 45.104C95.8627 45.8507 94.4227 46.224 92.78 46.224ZM113.761 46L113.569 43.12C113.121 44.1013 112.46 44.8693 111.585 45.424C110.711 45.9573 109.601 46.224 108.257 46.224C107.105 46.224 106.124 46.0427 105.313 45.68C104.503 45.3173 103.873 44.8053 103.425 44.144C102.999 43.4613 102.785 42.6613 102.785 41.744C102.785 40.4 103.287 39.3013 104.289 38.448C105.292 37.5733 106.743 37.04 108.641 36.848L113.569 36.304V35.024C113.569 34.128 113.239 33.4133 112.577 32.88C111.916 32.3253 111.02 32.048 109.889 32.048C108.78 32.048 107.852 32.304 107.105 32.816C106.38 33.328 105.879 34.064 105.601 35.024L103.425 34.256C103.852 32.848 104.631 31.7493 105.761 30.96C106.913 30.1707 108.311 29.776 109.953 29.776C111.852 29.776 113.324 30.2667 114.369 31.248C115.436 32.208 115.969 33.52 115.969 35.184V46H113.761ZM113.569 38.352L108.609 38.928C107.543 39.056 106.732 39.3547 106.177 39.824C105.623 40.272 105.345 40.8693 105.345 41.616C105.345 42.3627 105.612 42.96 106.145 43.408C106.7 43.856 107.489 44.08 108.513 44.08C109.687 44.08 110.647 43.8453 111.393 43.376C112.14 42.9067 112.684 42.2773 113.025 41.488C113.388 40.6773 113.569 39.8027 113.569 38.864V38.352ZM122.796 42.768L123.052 42.736V52.4H120.652V30H122.86L123.02 32.976C123.51 32.08 124.236 31.3227 125.196 30.704C126.156 30.0853 127.361 29.776 128.812 29.776C130.198 29.776 131.446 30.1173 132.556 30.8C133.665 31.4613 134.54 32.4107 135.18 33.648C135.82 34.864 136.14 36.3147 136.14 38C136.14 39.664 135.83 41.1147 135.212 42.352C134.614 43.568 133.761 44.5173 132.652 45.2C131.564 45.8827 130.284 46.224 128.812 46.224C127.276 46.224 126.006 45.8933 125.004 45.232C124.001 44.5707 123.265 43.7493 122.796 42.768ZM133.548 38C133.548 36.1653 133.068 34.7147 132.108 33.648C131.169 32.56 129.9 32.016 128.3 32.016C127.297 32.016 126.39 32.2507 125.58 32.72C124.79 33.1893 124.172 33.872 123.724 34.768C123.276 35.664 123.052 36.7413 123.052 38C123.052 39.2373 123.276 40.304 123.724 41.2C124.172 42.096 124.79 42.7893 125.58 43.28C126.39 43.7493 127.297 43.984 128.3 43.984C129.9 43.984 131.169 43.4507 132.108 42.384C133.068 41.296 133.548 39.8347 133.548 38ZM150.074 46L149.882 43.12C149.434 44.1013 148.772 44.8693 147.898 45.424C147.023 45.9573 145.914 46.224 144.57 46.224C143.418 46.224 142.436 46.0427 141.626 45.68C140.815 45.3173 140.186 44.8053 139.738 44.144C139.311 43.4613 139.098 42.6613 139.098 41.744C139.098 40.4 139.599 39.3013 140.602 38.448C141.604 37.5733 143.055 37.04 144.954 36.848L149.882 36.304V35.024C149.882 34.128 149.551 33.4133 148.89 32.88C148.228 32.3253 147.332 32.048 146.202 32.048C145.092 32.048 144.164 32.304 143.418 32.816C142.692 33.328 142.191 34.064 141.914 35.024L139.738 34.256C140.164 32.848 140.943 31.7493 142.074 30.96C143.226 30.1707 144.623 29.776 146.266 29.776C148.164 29.776 149.636 30.2667 150.682 31.248C151.748 32.208 152.282 33.52 152.282 35.184V46H150.074ZM149.882 38.352L144.922 38.928C143.855 39.056 143.044 39.3547 142.49 39.824C141.935 40.272 141.658 40.8693 141.658 41.616C141.658 42.3627 141.924 42.96 142.458 43.408C143.012 43.856 143.802 44.08 144.826 44.08C145.999 44.08 146.959 43.8453 147.706 43.376C148.452 42.9067 148.996 42.2773 149.338 41.488C149.7 40.6773 149.882 39.8027 149.882 38.864V38.352ZM163.78 46.224C162.223 46.224 160.857 45.8827 159.684 45.2C158.511 44.5173 157.593 43.568 156.932 42.352C156.292 41.1147 155.972 39.6853 155.972 38.064C155.972 36.4213 156.292 34.9813 156.932 33.744C157.593 32.4853 158.511 31.5147 159.684 30.832C160.857 30.128 162.223 29.776 163.78 29.776C165.423 29.776 166.863 30.16 168.1 30.928C169.337 31.6747 170.233 32.72 170.788 34.064L168.58 34.832C168.26 33.9787 167.673 33.3067 166.82 32.816C165.988 32.304 165.017 32.048 163.908 32.048C162.82 32.048 161.871 32.2933 161.06 32.784C160.271 33.2747 159.652 33.968 159.204 34.864C158.777 35.76 158.564 36.816 158.564 38.032C158.564 39.824 159.044 41.264 160.004 42.352C160.964 43.4187 162.244 43.952 163.844 43.952C164.932 43.952 165.903 43.7067 166.756 43.216C167.609 42.7253 168.239 42.064 168.644 41.232L170.82 42C170.244 43.3227 169.337 44.3573 168.1 45.104C166.863 45.8507 165.423 46.224 163.78 46.224ZM175.225 30H177.593V46H175.225V30ZM176.441 26.8C175.951 26.8 175.545 26.64 175.225 26.32C174.905 26 174.745 25.6053 174.745 25.136C174.745 24.6453 174.905 24.24 175.225 23.92C175.545 23.6 175.951 23.44 176.441 23.44C176.889 23.44 177.273 23.6 177.593 23.92C177.935 24.24 178.105 24.6453 178.105 25.136C178.105 25.6053 177.935 26 177.593 26.32C177.273 26.64 176.889 26.8 176.441 26.8ZM184.019 30V25.52H186.419V30H190.675V32.24H186.419V40.848C186.419 41.8293 186.622 42.544 187.027 42.992C187.454 43.44 187.987 43.7067 188.627 43.792C189.289 43.8773 189.971 43.8773 190.675 43.792V45.872C189.843 46.064 189.022 46.1173 188.211 46.032C187.422 45.9467 186.707 45.712 186.067 45.328C185.449 44.9227 184.947 44.3573 184.563 43.632C184.201 42.9067 184.019 41.9787 184.019 40.848V32.24H181.619V30H184.019ZM204.261 46L204.069 43.12C203.621 44.1013 202.96 44.8693 202.085 45.424C201.211 45.9573 200.101 46.224 198.757 46.224C197.605 46.224 196.624 46.0427 195.813 45.68C195.003 45.3173 194.373 44.8053 193.925 44.144C193.499 43.4613 193.285 42.6613 193.285 41.744C193.285 40.4 193.787 39.3013 194.789 38.448C195.792 37.5733 197.243 37.04 199.141 36.848L204.069 36.304V35.024C204.069 34.128 203.739 33.4133 203.077 32.88C202.416 32.3253 201.52 32.048 200.389 32.048C199.28 32.048 198.352 32.304 197.605 32.816C196.88 33.328 196.379 34.064 196.101 35.024L193.925 34.256C194.352 32.848 195.131 31.7493 196.261 30.96C197.413 30.1707 198.811 29.776 200.453 29.776C202.352 29.776 203.824 30.2667 204.869 31.248C205.936 32.208 206.469 33.52 206.469 35.184V46H204.261ZM204.069 38.352L199.109 38.928C198.043 39.056 197.232 39.3547 196.677 39.824C196.123 40.272 195.845 40.8693 195.845 41.616C195.845 42.3627 196.112 42.96 196.645 43.408C197.2 43.856 197.989 44.08 199.013 44.08C200.187 44.08 201.147 43.8453 201.893 43.376C202.64 42.9067 203.184 42.2773 203.525 41.488C203.888 40.6773 204.069 39.8027 204.069 38.864V38.352ZM217.968 46.224C216.41 46.224 215.045 45.8827 213.872 45.2C212.698 44.5173 211.781 43.568 211.12 42.352C210.48 41.1147 210.16 39.6853 210.16 38.064C210.16 36.4213 210.48 34.9813 211.12 33.744C211.781 32.4853 212.698 31.5147 213.872 30.832C215.045 30.128 216.41 29.776 217.968 29.776C219.61 29.776 221.05 30.16 222.288 30.928C223.525 31.6747 224.421 32.72 224.976 34.064L222.768 34.832C222.448 33.9787 221.861 33.3067 221.008 32.816C220.176 32.304 219.205 32.048 218.095 32.048C217.008 32.048 216.058 32.2933 215.248 32.784C214.458 33.2747 213.84 33.968 213.391 34.864C212.965 35.76 212.752 36.816 212.752 38.032C212.752 39.824 213.232 41.264 214.192 42.352C215.152 43.4187 216.432 43.952 218.032 43.952C219.12 43.952 220.09 43.7067 220.944 43.216C221.797 42.7253 222.426 42.064 222.832 41.232L225.008 42C224.432 43.3227 223.525 44.3573 222.288 45.104C221.05 45.8507 219.61 46.224 217.968 46.224ZM229.413 30H231.781V46H229.413V30ZM230.629 26.8C230.138 26.8 229.733 26.64 229.413 26.32C229.093 26 228.933 25.6053 228.933 25.136C228.933 24.6453 229.093 24.24 229.413 23.92C229.733 23.6 230.138 23.44 230.629 23.44C231.077 23.44 231.461 23.6 231.781 23.92C232.122 24.24 232.293 24.6453 232.293 25.136C232.293 25.6053 232.122 26 231.781 26.32C231.461 26.64 231.077 26.8 230.629 26.8ZM247.007 23.12V25.136L240.991 28.464V26.736L247.007 23.12ZM244.095 46.224C242.58 46.224 241.225 45.8933 240.031 45.232C238.836 44.5707 237.897 43.632 237.215 42.416C236.532 41.1787 236.191 39.7173 236.191 38.032C236.191 36.3253 236.532 34.8533 237.215 33.616C237.919 32.3787 238.868 31.4293 240.063 30.768C241.279 30.1067 242.644 29.776 244.159 29.776C245.673 29.776 247.028 30.1067 248.223 30.768C249.439 31.4293 250.388 32.3787 251.071 33.616C251.775 34.832 252.127 36.2827 252.127 37.968C252.127 39.6747 251.775 41.1467 251.071 42.384C250.367 43.6213 249.407 44.5707 248.191 45.232C246.975 45.8933 245.609 46.224 244.095 46.224ZM244.063 43.952C245.001 43.952 245.887 43.7493 246.719 43.344C247.551 42.9173 248.223 42.2667 248.735 41.392C249.268 40.496 249.535 39.3653 249.535 38C249.535 36.6133 249.279 35.4827 248.767 34.608C248.255 33.7333 247.583 33.0933 246.751 32.688C245.94 32.2613 245.065 32.048 244.127 32.048C243.188 32.048 242.313 32.2613 241.503 32.688C240.692 33.0933 240.031 33.744 239.519 34.64C239.028 35.5147 238.783 36.6347 238.783 38C238.783 39.3867 239.028 40.5173 239.519 41.392C240.009 42.2667 240.649 42.9173 241.439 43.344C242.249 43.7493 243.124 43.952 244.063 43.952ZM256.058 30H258.266L258.394 32.272C258.906 31.4827 259.578 30.8747 260.41 30.448C261.242 30 262.212 29.776 263.322 29.776C264.538 29.776 265.604 30.0427 266.522 30.576C267.439 31.088 268.154 31.8667 268.666 32.912C269.178 33.936 269.434 35.2267 269.434 36.784V46H267.034V37.072C267.034 35.408 266.671 34.1493 265.946 33.296C265.242 32.4213 264.218 31.984 262.874 31.984C261.487 31.984 260.399 32.4427 259.61 33.36C258.842 34.2773 258.458 35.632 258.458 37.424V46H256.058V30ZM289.874 46.224C288.316 46.224 286.951 45.8827 285.778 45.2C284.604 44.5173 283.687 43.568 283.026 42.352C282.386 41.1147 282.066 39.6853 282.066 38.064C282.066 36.4213 282.386 34.9813 283.026 33.744C283.687 32.4853 284.604 31.5147 285.778 30.832C286.951 30.128 288.316 29.776 289.874 29.776C291.516 29.776 292.956 30.16 294.194 30.928C295.431 31.6747 296.327 32.72 296.882 34.064L294.674 34.832C294.354 33.9787 293.767 33.3067 292.914 32.816C292.082 32.304 291.111 32.048 290.002 32.048C288.914 32.048 287.964 32.2933 287.154 32.784C286.364 33.2747 285.746 33.968 285.298 34.864C284.871 35.76 284.658 36.816 284.658 38.032C284.658 39.824 285.138 41.264 286.098 42.352C287.058 43.4187 288.338 43.952 289.938 43.952C291.026 43.952 291.996 43.7067 292.85 43.216C293.703 42.7253 294.332 42.064 294.738 41.232L296.914 42C296.338 43.3227 295.431 44.3573 294.194 45.104C292.956 45.8507 291.516 46.224 289.874 46.224ZM307.751 46.224C306.236 46.224 304.882 45.8933 303.687 45.232C302.492 44.5707 301.554 43.632 300.871 42.416C300.188 41.1787 299.847 39.7173 299.847 38.032C299.847 36.3253 300.188 34.8533 300.871 33.616C301.575 32.3787 302.524 31.4293 303.719 30.768C304.935 30.1067 306.3 29.776 307.815 29.776C309.33 29.776 310.684 30.1067 311.879 30.768C313.095 31.4293 314.044 32.3787 314.727 33.616C315.431 34.832 315.783 36.2827 315.783 37.968C315.783 39.6747 315.431 41.1467 314.727 42.384C314.023 43.6213 313.063 44.5707 311.847 45.232C310.631 45.8933 309.266 46.224 307.751 46.224ZM307.719 43.952C308.658 43.952 309.543 43.7493 310.375 43.344C311.207 42.9173 311.879 42.2667 312.391 41.392C312.924 40.496 313.191 39.3653 313.191 38C313.191 36.6133 312.935 35.4827 312.423 34.608C311.911 33.7333 311.239 33.0933 310.407 32.688C309.596 32.2613 308.722 32.048 307.783 32.048C306.844 32.048 305.97 32.2613 305.159 32.688C304.348 33.0933 303.687 33.744 303.175 34.64C302.684 35.5147 302.439 36.6347 302.439 38C302.439 39.3867 302.684 40.5173 303.175 41.392C303.666 42.2667 304.306 42.9173 305.095 43.344C305.906 43.7493 306.78 43.952 307.719 43.952ZM319.714 30H321.922L322.05 32.272C322.562 31.4827 323.234 30.8747 324.066 30.448C324.898 30 325.869 29.776 326.978 29.776C328.194 29.776 329.261 30.0427 330.178 30.576C331.095 31.088 331.81 31.8667 332.322 32.912C332.834 33.936 333.09 35.2267 333.09 36.784V46H330.69V37.072C330.69 35.408 330.327 34.1493 329.602 33.296C328.898 32.4213 327.874 31.984 326.53 31.984C325.143 31.984 324.055 32.4427 323.266 33.36C322.498 34.2773 322.114 35.632 322.114 37.424V46H319.714V30ZM339.057 41.104C339.185 41.744 339.42 42.2773 339.761 42.704C340.103 43.1093 340.54 43.4187 341.073 43.632C341.628 43.8453 342.268 43.952 342.993 43.952C344.124 43.952 344.977 43.7387 345.553 43.312C346.151 42.864 346.449 42.3093 346.449 41.648C346.449 41.0933 346.268 40.6453 345.905 40.304C345.564 39.9627 345.105 39.6853 344.529 39.472C343.953 39.2373 343.313 39.0347 342.609 38.864C342.055 38.736 341.457 38.5867 340.817 38.416C340.177 38.224 339.569 37.968 338.993 37.648C338.417 37.328 337.948 36.912 337.585 36.4C337.223 35.888 337.041 35.216 337.041 34.384C337.041 33.4667 337.287 32.6667 337.777 31.984C338.289 31.28 338.983 30.736 339.857 30.352C340.753 29.968 341.777 29.776 342.929 29.776C344.252 29.776 345.425 30.064 346.449 30.64C347.495 31.216 348.22 32.112 348.625 33.328L346.385 34.096C346.236 33.5413 345.959 33.1147 345.553 32.816C345.169 32.5173 344.732 32.3147 344.241 32.208C343.772 32.1013 343.303 32.048 342.833 32.048C341.873 32.048 341.095 32.24 340.497 32.624C339.921 32.9867 339.633 33.5413 339.633 34.288C339.633 34.6933 339.729 35.0347 339.921 35.312C340.113 35.568 340.38 35.7813 340.721 35.952C341.063 36.1227 341.468 36.272 341.937 36.4C342.407 36.5067 342.919 36.6347 343.473 36.784C344.092 36.9333 344.721 37.1253 345.361 37.36C346.001 37.5733 346.599 37.8613 347.153 38.224C347.708 38.5653 348.156 39.0133 348.497 39.568C348.86 40.1013 349.041 40.7733 349.041 41.584C349.041 42.5227 348.785 43.344 348.273 44.048C347.761 44.7307 347.047 45.264 346.129 45.648C345.233 46.032 344.188 46.224 342.993 46.224C341.351 46.224 339.985 45.8613 338.897 45.136C337.831 44.3893 337.116 43.3013 336.753 41.872L339.057 41.104ZM353.957 30V25.52H356.357V30H360.613V32.24H356.357V40.848C356.357 41.8293 356.559 42.544 356.965 42.992C357.391 43.44 357.925 43.7067 358.565 43.792C359.226 43.8773 359.909 43.8773 360.613 43.792V45.872C359.781 46.064 358.959 46.1173 358.149 46.032C357.359 45.9467 356.645 45.712 356.005 45.328C355.386 44.9227 354.885 44.3573 354.501 43.632C354.138 42.9067 353.957 41.9787 353.957 40.848V32.24H351.557V30H353.957ZM374.199 46L374.007 43.12C373.559 44.1013 372.897 44.8693 372.023 45.424C371.148 45.9573 370.039 46.224 368.695 46.224C367.543 46.224 366.561 46.0427 365.751 45.68C364.94 45.3173 364.311 44.8053 363.863 44.144C363.436 43.4613 363.223 42.6613 363.223 41.744C363.223 40.4 363.724 39.3013 364.727 38.448C365.729 37.5733 367.18 37.04 369.079 36.848L374.007 36.304V35.024C374.007 34.128 373.676 33.4133 373.015 32.88C372.353 32.3253 371.457 32.048 370.327 32.048C369.217 32.048 368.289 32.304 367.543 32.816C366.817 33.328 366.316 34.064 366.039 35.024L363.863 34.256C364.289 32.848 365.068 31.7493 366.199 30.96C367.351 30.1707 368.748 29.776 370.391 29.776C372.289 29.776 373.761 30.2667 374.807 31.248C375.873 32.208 376.407 33.52 376.407 35.184V46H374.199ZM374.007 38.352L369.047 38.928C367.98 39.056 367.169 39.3547 366.615 39.824C366.06 40.272 365.783 40.8693 365.783 41.616C365.783 42.3627 366.049 42.96 366.583 43.408C367.137 43.856 367.927 44.08 368.951 44.08C370.124 44.08 371.084 43.8453 371.831 43.376C372.577 42.9067 373.121 42.2773 373.463 41.488C373.825 40.6773 374.007 39.8027 374.007 38.864V38.352ZM402.41 33.232L402.154 33.264V22.96H404.554V46H402.346L402.186 43.024C401.695 43.92 400.959 44.6773 399.978 45.296C399.018 45.9147 397.823 46.224 396.394 46.224C394.922 46.224 393.631 45.8933 392.522 45.232C391.434 44.5493 390.58 43.5893 389.962 42.352C389.364 41.1147 389.066 39.664 389.066 38C389.066 36.336 389.364 34.896 389.962 33.68C390.58 32.4427 391.434 31.4827 392.522 30.8C393.631 30.1173 394.922 29.776 396.394 29.776C397.908 29.776 399.167 30.1067 400.17 30.768C401.172 31.4293 401.919 32.2507 402.41 33.232ZM391.658 38C391.658 39.8347 392.127 41.296 393.066 42.384C394.004 43.4507 395.284 43.984 396.906 43.984C397.908 43.984 398.804 43.7493 399.594 43.28C400.383 42.8107 401.002 42.128 401.45 41.232C401.919 40.336 402.154 39.2587 402.154 38C402.154 36.7413 401.919 35.6747 401.45 34.8C401.002 33.904 400.383 33.2213 399.594 32.752C398.804 32.2613 397.908 32.016 396.906 32.016C395.306 32.016 394.026 32.56 393.066 33.648C392.127 34.7147 391.658 36.1653 391.658 38ZM416.184 46.224C414.691 46.224 413.357 45.8613 412.184 45.136C411.032 44.4107 410.125 43.4187 409.464 42.16C408.803 40.9013 408.472 39.4613 408.472 37.84C408.472 36.2827 408.803 34.896 409.464 33.68C410.125 32.464 411.032 31.5147 412.184 30.832C413.336 30.128 414.648 29.776 416.12 29.776C417.571 29.776 418.861 30.096 419.992 30.736C421.144 31.376 422.04 32.2613 422.68 33.392C423.32 34.5227 423.619 35.8133 423.576 37.264C423.576 37.4987 423.565 37.744 423.544 38C423.523 38.256 423.501 38.5333 423.48 38.832H411.096C411.139 39.8347 411.384 40.72 411.832 41.488C412.28 42.256 412.867 42.864 413.592 43.312C414.339 43.7387 415.181 43.952 416.12 43.952C417.357 43.952 418.403 43.7173 419.256 43.248C420.131 42.7787 420.76 42.1067 421.144 41.232L423.224 42.064C422.584 43.408 421.656 44.4427 420.44 45.168C419.224 45.872 417.805 46.224 416.184 46.224ZM420.952 36.752C420.973 35.8347 420.771 35.024 420.344 34.32C419.939 33.616 419.363 33.0613 418.616 32.656C417.869 32.2507 417.005 32.048 416.024 32.048C415.171 32.048 414.392 32.2507 413.688 32.656C412.984 33.0613 412.397 33.6267 411.928 34.352C411.48 35.056 411.213 35.856 411.128 36.752H420.952ZM443.887 46.224C442.223 46.224 440.741 45.8827 439.439 45.2C438.138 44.5173 437.103 43.5787 436.335 42.384C435.589 41.168 435.215 39.7813 435.215 38.224C435.215 37.0933 435.439 35.9307 435.887 34.736C436.357 33.5413 437.082 32.2827 438.063 30.96L443.535 23.6H449.679L443.151 32.176L438.735 37.392C439.034 35.3653 439.781 33.808 440.975 32.72C442.17 31.632 443.61 31.088 445.295 31.088C446.597 31.088 447.791 31.376 448.879 31.952C449.967 32.5067 450.842 33.328 451.503 34.416C452.165 35.4827 452.495 36.7947 452.495 38.352C452.495 39.952 452.101 41.3493 451.311 42.544C450.522 43.7173 449.477 44.624 448.175 45.264C446.874 45.904 445.445 46.224 443.887 46.224ZM440.847 38.384C440.847 39.0027 440.965 39.5467 441.199 40.016C441.455 40.4853 441.807 40.848 442.255 41.104C442.725 41.36 443.269 41.488 443.887 41.488C444.506 41.488 445.039 41.36 445.487 41.104C445.935 40.848 446.277 40.4853 446.511 40.016C446.746 39.5467 446.863 39.0027 446.863 38.384C446.863 37.7653 446.746 37.232 446.511 36.784C446.277 36.3147 445.935 35.952 445.487 35.696C445.039 35.44 444.506 35.312 443.887 35.312C443.269 35.312 442.725 35.44 442.255 35.696C441.807 35.952 441.455 36.3147 441.199 36.784C440.965 37.232 440.847 37.7653 440.847 38.384ZM454.971 34.8C454.971 33.0933 455.131 31.536 455.451 30.128C455.771 28.72 456.283 27.5147 456.987 26.512C457.691 25.5093 458.619 24.7413 459.771 24.208C460.944 23.6533 462.363 23.376 464.027 23.376C465.691 23.376 467.099 23.6533 468.251 24.208C469.403 24.7413 470.331 25.5093 471.035 26.512C471.76 27.5147 472.283 28.72 472.603 30.128C472.923 31.536 473.083 33.0933 473.083 34.8C473.083 36.528 472.923 38.096 472.603 39.504C472.283 40.912 471.76 42.1173 471.035 43.12C470.331 44.1227 469.403 44.8907 468.251 45.424C467.099 45.9573 465.691 46.224 464.027 46.224C462.363 46.224 460.944 45.9573 459.771 45.424C458.619 44.8907 457.691 44.1227 456.987 43.12C456.283 42.1173 455.771 40.912 455.451 39.504C455.131 38.096 454.971 36.528 454.971 34.8ZM467.419 34.8C467.419 33.9253 467.387 33.0933 467.323 32.304C467.259 31.4933 467.109 30.7787 466.875 30.16C466.661 29.5413 466.331 29.0507 465.883 28.688C465.435 28.3253 464.816 28.144 464.027 28.144C463.237 28.144 462.619 28.3253 462.171 28.688C461.723 29.0507 461.381 29.5413 461.147 30.16C460.933 30.7787 460.795 31.4933 460.731 32.304C460.667 33.0933 460.635 33.9253 460.635 34.8C460.635 35.7173 460.667 36.5813 460.731 37.392C460.795 38.1813 460.933 38.8853 461.147 39.504C461.381 40.1013 461.723 40.5813 462.171 40.944C462.619 41.2853 463.237 41.456 464.027 41.456C464.816 41.456 465.435 41.2853 465.883 40.944C466.331 40.5813 466.661 40.1013 466.875 39.504C467.109 38.8853 467.259 38.1813 467.323 37.392C467.387 36.5813 467.419 35.7173 467.419 34.8ZM485.069 22.96H490.317V31.792C490.786 31.216 491.362 30.736 492.045 30.352C492.749 29.968 493.559 29.776 494.477 29.776C495.714 29.776 496.781 30.0533 497.677 30.608C498.573 31.1413 499.255 31.92 499.725 32.944C500.215 33.968 500.461 35.2053 500.461 36.656V46H494.893V37.296C494.893 36.3787 494.701 35.6853 494.317 35.216C493.933 34.7253 493.367 34.48 492.621 34.48C491.853 34.48 491.277 34.7787 490.893 35.376C490.509 35.9733 490.317 36.7413 490.317 37.68V46H485.069V22.96ZM507.667 40.688C507.752 41.008 507.88 41.2747 508.051 41.488C508.222 41.68 508.446 41.8293 508.723 41.936C509 42.0427 509.32 42.096 509.683 42.096C510.238 42.096 510.664 42 510.963 41.808C511.283 41.616 511.443 41.3707 511.443 41.072C511.443 40.7733 511.315 40.5493 511.059 40.4C510.824 40.2293 510.515 40.0907 510.131 39.984C509.747 39.8773 509.342 39.7813 508.915 39.696C508.382 39.5893 507.784 39.4507 507.123 39.28C506.462 39.1093 505.822 38.864 505.203 38.544C504.606 38.2027 504.104 37.744 503.699 37.168C503.315 36.592 503.123 35.856 503.123 34.96C503.123 33.9787 503.379 33.104 503.891 32.336C504.403 31.5467 505.15 30.928 506.131 30.48C507.134 30.0107 508.36 29.776 509.811 29.776C511.582 29.776 512.99 30.1387 514.035 30.864C515.08 31.5893 515.806 32.592 516.211 33.872L511.667 34.896C511.603 34.64 511.475 34.448 511.283 34.32C511.112 34.1707 510.899 34.064 510.643 34C510.387 33.936 510.131 33.904 509.875 33.904C509.384 33.904 509.022 34 508.787 34.192C508.552 34.3627 508.435 34.5653 508.435 34.8C508.435 34.992 508.499 35.152 508.627 35.28C508.755 35.3867 508.926 35.472 509.139 35.536C509.374 35.6 509.64 35.664 509.939 35.728C510.259 35.7707 510.59 35.8347 510.931 35.92C511.571 36.0693 512.222 36.2507 512.883 36.464C513.566 36.656 514.195 36.9333 514.771 37.296C515.368 37.6587 515.848 38.1387 516.211 38.736C516.574 39.3333 516.766 40.112 516.787 41.072C516.787 42.032 516.52 42.9067 515.987 43.696C515.454 44.464 514.664 45.0827 513.619 45.552C512.595 46 511.315 46.224 509.779 46.224C507.902 46.224 506.344 45.8507 505.107 45.104C503.891 44.336 503.134 43.2053 502.835 41.712L507.667 40.688ZM539.52 32.496H538.752V22.96H544V46H539.264L538.976 43.984C538.592 44.5813 537.994 45.104 537.184 45.552C536.373 46 535.498 46.224 534.56 46.224C533.237 46.224 532.053 45.8933 531.008 45.232C529.962 44.5493 529.141 43.6 528.544 42.384C527.946 41.1467 527.648 39.6853 527.648 38C527.648 36.2933 527.946 34.832 528.544 33.616C529.141 32.3787 529.952 31.4293 530.976 30.768C532.021 30.1067 533.216 29.776 534.56 29.776C535.733 29.776 536.736 30.0427 537.568 30.576C538.421 31.1093 539.072 31.7493 539.52 32.496ZM533.312 38C533.312 39.0027 533.557 39.8133 534.048 40.432C534.56 41.0293 535.221 41.328 536.032 41.328C536.522 41.328 536.97 41.2 537.376 40.944C537.802 40.688 538.133 40.3147 538.368 39.824C538.624 39.3333 538.752 38.7253 538.752 38C538.752 37.2747 538.624 36.6667 538.368 36.176C538.133 35.6853 537.802 35.312 537.376 35.056C536.97 34.7787 536.522 34.64 536.032 34.64C535.2 34.64 534.538 34.9493 534.048 35.568C533.557 36.1867 533.312 36.9973 533.312 38ZM554.715 46.224C553.051 46.224 551.6 45.8827 550.363 45.2C549.147 44.496 548.197 43.5147 547.515 42.256C546.853 40.9973 546.523 39.5253 546.523 37.84C546.523 36.2613 546.853 34.864 547.515 33.648C548.197 32.432 549.136 31.4827 550.331 30.8C551.525 30.1173 552.901 29.776 554.459 29.776C556.08 29.776 557.488 30.1067 558.683 30.768C559.877 31.408 560.805 32.3253 561.467 33.52C562.128 34.7147 562.458 36.112 562.458 37.712C562.458 37.9467 562.448 38.2027 562.427 38.48C562.405 38.7573 562.373 39.0667 562.331 39.408H552.123C552.229 39.8987 552.411 40.3253 552.667 40.688C552.944 41.0293 553.275 41.296 553.659 41.488C554.064 41.6587 554.512 41.744 555.003 41.744C555.557 41.744 556.048 41.6267 556.475 41.392C556.901 41.1573 557.243 40.816 557.499 40.368L562.235 41.552C561.595 43.0667 560.624 44.2293 559.323 45.04C558.043 45.8293 556.507 46.224 554.715 46.224ZM556.731 36.336C556.709 35.888 556.592 35.4933 556.379 35.152C556.187 34.8107 555.931 34.544 555.611 34.352C555.291 34.16 554.928 34.0747 554.523 34.096C554.117 34.1173 553.744 34.224 553.403 34.416C553.083 34.608 552.805 34.8747 552.571 35.216C552.357 35.536 552.229 35.9093 552.187 36.336H556.731ZM49.96 84.224C48.3813 84.2453 46.984 83.9147 45.768 83.232C44.5733 82.5493 43.6347 81.5893 42.952 80.352C42.2907 79.1147 41.96 77.6747 41.96 76.032C41.96 74.4107 42.2907 72.9813 42.952 71.744C43.6347 70.4853 44.5733 69.5147 45.768 68.832C46.9627 68.128 48.3387 67.776 49.896 67.776C51.7307 67.776 53.3307 68.2453 54.696 69.184C56.0613 70.1227 57.0107 71.4133 57.544 73.056L52.52 74.144C52.328 73.632 52.0293 73.2373 51.624 72.96C51.24 72.6827 50.792 72.544 50.28 72.544C49.7467 72.544 49.2667 72.6933 48.84 72.992C48.4347 73.2907 48.1147 73.7067 47.88 74.24C47.6453 74.7733 47.528 75.3707 47.528 76.032C47.528 77.0347 47.784 77.856 48.296 78.496C48.808 79.136 49.4587 79.456 50.248 79.456C50.76 79.456 51.208 79.3173 51.592 79.04C51.9973 78.7627 52.3173 78.368 52.552 77.856L57.576 78.976C57.064 80.5547 56.1147 81.824 54.728 82.784C53.3627 83.7227 51.7733 84.2027 49.96 84.224ZM60.1 60.96H65.348V84H60.1V60.96ZM77.6263 84L77.2743 82.016C76.6983 82.6773 76.1009 83.2107 75.4823 83.616C74.8849 84.0213 74.0743 84.224 73.0503 84.224C72.1116 84.224 71.2476 84.0533 70.4583 83.712C69.6903 83.3493 69.0716 82.8267 68.6023 82.144C68.1329 81.4613 67.8983 80.6293 67.8983 79.648C67.8983 78.3253 68.3676 77.2373 69.3063 76.384C70.2449 75.5307 71.7276 74.9867 73.7543 74.752L77.2743 74.368V73.44C77.2743 73.1413 77.1249 72.8427 76.8263 72.544C76.5276 72.224 76.0689 72.064 75.4503 72.064C74.8956 72.064 74.4156 72.2133 74.0103 72.512C73.6049 72.8107 73.3276 73.2267 73.1783 73.76L68.7303 72.16C69.2209 70.7093 70.0529 69.6213 71.2263 68.896C72.3996 68.1493 73.8716 67.776 75.6423 67.776C77.8823 67.776 79.5889 68.3307 80.7623 69.44C81.9356 70.5493 82.5223 72.0747 82.5223 74.016V84H77.6263ZM77.2743 77.312L74.7783 77.6C74.2876 77.664 73.9143 77.824 73.6583 78.08C73.4023 78.336 73.2743 78.6453 73.2743 79.008C73.2743 79.3707 73.4236 79.6693 73.7223 79.904C74.0423 80.1387 74.4796 80.256 75.0343 80.256C75.4823 80.256 75.8663 80.16 76.1863 79.968C76.5276 79.7547 76.7943 79.456 76.9863 79.072C77.1783 78.688 77.2743 78.208 77.2743 77.632V77.312ZM89.7295 78.688C89.8148 79.008 89.9428 79.2747 90.1135 79.488C90.2842 79.68 90.5082 79.8293 90.7855 79.936C91.0628 80.0427 91.3828 80.096 91.7455 80.096C92.3002 80.096 92.7268 80 93.0255 79.808C93.3455 79.616 93.5055 79.3707 93.5055 79.072C93.5055 78.7733 93.3775 78.5493 93.1215 78.4C92.8868 78.2293 92.5775 78.0907 92.1935 77.984C91.8095 77.8773 91.4042 77.7813 90.9775 77.696C90.4442 77.5893 89.8468 77.4507 89.1855 77.28C88.5242 77.1093 87.8842 76.864 87.2655 76.544C86.6682 76.2027 86.1668 75.744 85.7615 75.168C85.3775 74.592 85.1855 73.856 85.1855 72.96C85.1855 71.9787 85.4415 71.104 85.9535 70.336C86.4655 69.5467 87.2122 68.928 88.1935 68.48C89.1962 68.0107 90.4228 67.776 91.8735 67.776C93.6442 67.776 95.0522 68.1387 96.0975 68.864C97.1428 69.5893 97.8682 70.592 98.2735 71.872L93.7295 72.896C93.6655 72.64 93.5375 72.448 93.3455 72.32C93.1748 72.1707 92.9615 72.064 92.7055 72C92.4495 71.936 92.1935 71.904 91.9375 71.904C91.4468 71.904 91.0842 72 90.8495 72.192C90.6148 72.3627 90.4975 72.5653 90.4975 72.8C90.4975 72.992 90.5615 73.152 90.6895 73.28C90.8175 73.3867 90.9882 73.472 91.2015 73.536C91.4362 73.6 91.7028 73.664 92.0015 73.728C92.3215 73.7707 92.6522 73.8347 92.9935 73.92C93.6335 74.0693 94.2842 74.2507 94.9455 74.464C95.6282 74.656 96.2575 74.9333 96.8335 75.296C97.4308 75.6587 97.9108 76.1387 98.2735 76.736C98.6362 77.3333 98.8282 78.112 98.8495 79.072C98.8495 80.032 98.5828 80.9067 98.0495 81.696C97.5162 82.464 96.7268 83.0827 95.6815 83.552C94.6575 84 93.3775 84.224 91.8415 84.224C89.9642 84.224 88.4068 83.8507 87.1695 83.104C85.9535 82.336 85.1962 81.2053 84.8975 79.712L89.7295 78.688ZM108.933 84.224C107.269 84.224 105.819 83.8827 104.581 83.2C103.365 82.496 102.416 81.5147 101.733 80.256C101.072 78.9973 100.741 77.5253 100.741 75.84C100.741 74.2613 101.072 72.864 101.733 71.648C102.416 70.432 103.355 69.4827 104.549 68.8C105.744 68.1173 107.12 67.776 108.677 67.776C110.299 67.776 111.707 68.1067 112.901 68.768C114.096 69.408 115.024 70.3253 115.685 71.52C116.347 72.7147 116.677 74.112 116.677 75.712C116.677 75.9467 116.667 76.2027 116.645 76.48C116.624 76.7573 116.592 77.0667 116.549 77.408H106.341C106.448 77.8987 106.629 78.3253 106.885 78.688C107.163 79.0293 107.493 79.296 107.877 79.488C108.283 79.6587 108.731 79.744 109.221 79.744C109.776 79.744 110.267 79.6267 110.693 79.392C111.12 79.1573 111.461 78.816 111.717 78.368L116.453 79.552C115.813 81.0667 114.843 82.2293 113.541 83.04C112.261 83.8293 110.725 84.224 108.933 84.224ZM110.949 74.336C110.928 73.888 110.811 73.4933 110.597 73.152C110.405 72.8107 110.149 72.544 109.829 72.352C109.509 72.16 109.147 72.0747 108.741 72.096C108.336 72.1173 107.963 72.224 107.621 72.416C107.301 72.608 107.024 72.8747 106.789 73.216C106.576 73.536 106.448 73.9093 106.405 74.336H110.949ZM135.747 84.224C134.168 84.224 132.76 83.8933 131.523 83.232C130.285 82.5707 129.304 81.6213 128.579 80.384C127.875 79.1467 127.523 77.6853 127.523 76C127.523 74.3147 127.885 72.864 128.611 71.648C129.336 70.4107 130.317 69.4613 131.555 68.8C132.813 68.1173 134.232 67.776 135.811 67.776C137.389 67.776 138.808 68.1173 140.067 68.8C141.325 69.4613 142.317 70.4107 143.043 71.648C143.768 72.864 144.131 74.3147 144.131 76C144.131 77.6853 143.757 79.1467 143.01 80.384C142.285 81.6213 141.283 82.5707 140.003 83.232C138.744 83.8933 137.325 84.224 135.747 84.224ZM135.747 79.456C136.216 79.456 136.653 79.328 137.059 79.072C137.485 78.816 137.827 78.432 138.083 77.92C138.339 77.408 138.467 76.768 138.467 76C138.467 75.232 138.339 74.592 138.083 74.08C137.827 73.568 137.496 73.184 137.091 72.928C136.685 72.672 136.259 72.544 135.811 72.544C135.32 72.544 134.872 72.672 134.467 72.928C134.083 73.184 133.773 73.568 133.539 74.08C133.304 74.592 133.187 75.232 133.187 76C133.187 76.768 133.293 77.408 133.507 77.92C133.741 78.432 134.051 78.816 134.435 79.072C134.84 79.328 135.277 79.456 135.747 79.456ZM146.663 68H151.399L151.783 69.824C152.295 69.2267 152.903 68.736 153.607 68.352C154.332 67.968 155.121 67.776 155.975 67.776C157.233 67.776 158.289 68.0533 159.143 68.608C159.996 69.1413 160.636 69.92 161.062 70.944C161.511 71.968 161.735 73.2053 161.735 74.656V84H156.487V75.296C156.487 74.3787 156.295 73.6853 155.911 73.216C155.527 72.7253 154.961 72.48 154.215 72.48C153.447 72.48 152.871 72.7253 152.487 73.216C152.103 73.6853 151.911 74.3893 151.911 75.328V84H146.663V68ZM164.756 60.96H170.004V84H164.756V60.96ZM173.803 68H179.051V84H173.803V68ZM176.427 66.816C175.445 66.816 174.656 66.5387 174.059 65.984C173.461 65.408 173.163 64.7147 173.163 63.904C173.163 63.072 173.461 62.3787 174.059 61.824C174.656 61.248 175.445 60.96 176.427 60.96C177.387 60.96 178.165 61.248 178.763 61.824C179.381 62.3787 179.691 63.072 179.691 63.904C179.691 64.7147 179.381 65.408 178.763 65.984C178.165 66.5387 177.387 66.816 176.427 66.816ZM182.85 68H187.586L187.97 69.824C188.482 69.2267 189.09 68.736 189.794 68.352C190.519 67.968 191.309 67.776 192.162 67.776C193.421 67.776 194.477 68.0533 195.33 68.608C196.183 69.1413 196.823 69.92 197.25 70.944C197.698 71.968 197.922 73.2053 197.922 74.656V84H192.674V75.296C192.674 74.3787 192.482 73.6853 192.098 73.216C191.714 72.7253 191.149 72.48 190.402 72.48C189.634 72.48 189.058 72.7253 188.674 73.216C188.29 73.6853 188.098 74.3893 188.098 75.328V84H182.85V68ZM208.496 84.224C206.832 84.224 205.381 83.8827 204.144 83.2C202.928 82.496 201.978 81.5147 201.296 80.256C200.634 78.9973 200.304 77.5253 200.304 75.84C200.304 74.2613 200.634 72.864 201.296 71.648C201.978 70.432 202.917 69.4827 204.112 68.8C205.306 68.1173 206.682 67.776 208.24 67.776C209.861 67.776 211.269 68.1067 212.464 68.768C213.658 69.408 214.586 70.3253 215.248 71.52C215.909 72.7147 216.24 74.112 216.24 75.712C216.24 75.9467 216.229 76.2027 216.208 76.48C216.186 76.7573 216.154 77.0667 216.112 77.408H205.904C206.01 77.8987 206.192 78.3253 206.448 78.688C206.725 79.0293 207.056 79.296 207.44 79.488C207.845 79.6587 208.293 79.744 208.784 79.744C209.338 79.744 209.829 79.6267 210.256 79.392C210.682 79.1573 211.024 78.816 211.28 78.368L216.016 79.552C215.376 81.0667 214.405 82.2293 213.104 83.04C211.824 83.8293 210.288 84.224 208.496 84.224ZM210.512 74.336C210.49 73.888 210.373 73.4933 210.16 73.152C209.968 72.8107 209.712 72.544 209.392 72.352C209.072 72.16 208.709 72.0747 208.304 72.096C207.898 72.1173 207.525 72.224 207.184 72.416C206.864 72.608 206.586 72.8747 206.352 73.216C206.138 73.536 206.01 73.9093 205.968 74.336H210.512ZM235.277 84.224C233.613 84.224 232.162 83.8827 230.925 83.2C229.709 82.496 228.76 81.5147 228.077 80.256C227.416 78.9973 227.085 77.5253 227.085 75.84C227.085 74.2613 227.416 72.864 228.077 71.648C228.76 70.432 229.698 69.4827 230.893 68.8C232.088 68.1173 233.464 67.776 235.021 67.776C236.642 67.776 238.05 68.1067 239.245 68.768C240.44 69.408 241.368 70.3253 242.029 71.52C242.69 72.7147 243.021 74.112 243.021 75.712C243.021 75.9467 243.01 76.2027 242.989 76.48C242.968 76.7573 242.936 77.0667 242.893 77.408H232.685C232.792 77.8987 232.973 78.3253 233.229 78.688C233.506 79.0293 233.837 79.296 234.221 79.488C234.626 79.6587 235.074 79.744 235.565 79.744C236.12 79.744 236.61 79.6267 237.037 79.392C237.464 79.1573 237.805 78.816 238.061 78.368L242.797 79.552C242.157 81.0667 241.186 82.2293 239.885 83.04C238.605 83.8293 237.069 84.224 235.277 84.224ZM237.293 74.336C237.272 73.888 237.154 73.4933 236.941 73.152C236.749 72.8107 236.493 72.544 236.173 72.352C235.853 72.16 235.49 72.0747 235.085 72.096C234.68 72.1173 234.306 72.224 233.965 72.416C233.645 72.608 233.368 72.8747 233.133 73.216C232.92 73.536 232.792 73.9093 232.749 74.336H237.293ZM245.538 68H250.274L250.658 69.824C251.17 69.2267 251.778 68.736 252.482 68.352C253.207 67.968 253.996 67.776 254.85 67.776C256.108 67.776 257.164 68.0533 258.018 68.608C258.871 69.1413 259.511 69.92 259.938 70.944C260.386 71.968 260.61 73.2053 260.61 74.656V84H255.362V75.296C255.362 74.3787 255.17 73.6853 254.786 73.216C254.402 72.7253 253.836 72.48 253.09 72.48C252.322 72.48 251.746 72.7253 251.362 73.216C250.978 73.6853 250.786 74.3893 250.786 75.328V84H245.538V68ZM277.208 68L280.152 77.6L283.096 68H288.76L283.096 84H277.208L271.544 68H277.208ZM291.521 68H296.769V84H291.521V68ZM294.145 66.816C293.164 66.816 292.375 66.5387 291.777 65.984C291.18 65.408 290.881 64.7147 290.881 63.904C290.881 63.072 291.18 62.3787 291.777 61.824C292.375 61.248 293.164 60.96 294.145 60.96C295.105 60.96 295.884 61.248 296.481 61.824C297.1 62.3787 297.409 63.072 297.409 63.904C297.409 64.7147 297.1 65.408 296.481 65.984C295.884 66.5387 295.105 66.816 294.145 66.816ZM305.177 68L308.121 77.6L311.065 68H316.729L311.065 84H305.177L299.513 68H305.177ZM325.809 84.224C324.23 84.224 322.822 83.8933 321.585 83.232C320.348 82.5707 319.366 81.6213 318.641 80.384C317.937 79.1467 317.585 77.6853 317.585 76C317.585 74.3147 317.948 72.864 318.673 71.648C319.398 70.4107 320.38 69.4613 321.617 68.8C322.876 68.1173 324.294 67.776 325.873 67.776C327.452 67.776 328.87 68.1173 330.129 68.8C331.388 69.4613 332.38 70.4107 333.105 71.648C333.83 72.864 334.193 74.3147 334.193 76C334.193 77.6853 333.82 79.1467 333.073 80.384C332.348 81.6213 331.345 82.5707 330.065 83.232C328.806 83.8933 327.388 84.224 325.809 84.224ZM325.809 79.456C326.278 79.456 326.716 79.328 327.121 79.072C327.548 78.816 327.889 78.432 328.145 77.92C328.401 77.408 328.529 76.768 328.529 76C328.529 75.232 328.401 74.592 328.145 74.08C327.889 73.568 327.558 73.184 327.153 72.928C326.748 72.672 326.321 72.544 325.873 72.544C325.382 72.544 324.934 72.672 324.529 72.928C324.145 73.184 323.836 73.568 323.601 74.08C323.366 74.592 323.249 75.232 323.249 76C323.249 76.768 323.356 77.408 323.569 77.92C323.804 78.432 324.113 78.816 324.497 79.072C324.902 79.328 325.34 79.456 325.809 79.456ZM345.694 68H350.43L350.814 69.696C351.304 69.1413 351.891 68.6827 352.574 68.32C353.256 67.9573 354.014 67.776 354.846 67.776C355.784 67.776 356.67 67.9893 357.502 68.416C358.334 68.8427 359.016 69.4507 359.55 70.24C360.147 69.536 360.872 68.9493 361.726 68.48C362.579 68.0107 363.528 67.776 364.574 67.776C365.832 67.776 366.92 68.0533 367.838 68.608C368.776 69.1413 369.502 69.92 370.014 70.944C370.526 71.968 370.782 73.2053 370.782 74.656V84H365.534V75.296C365.534 74.4213 365.32 73.76 364.894 73.312C364.488 72.8427 363.912 72.608 363.166 72.608C362.398 72.608 361.8 72.8533 361.374 73.344C360.968 73.8133 360.766 74.5067 360.766 75.424V84H355.518V75.296C355.518 74.4213 355.326 73.76 354.942 73.312C354.558 72.8427 353.992 72.608 353.246 72.608C352.478 72.608 351.902 72.8427 351.518 73.312C351.134 73.7813 350.942 74.4533 350.942 75.328V84H345.694V68ZM382.908 84L382.556 82.016C381.98 82.6773 381.382 83.2107 380.764 83.616C380.166 84.0213 379.356 84.224 378.332 84.224C377.393 84.224 376.529 84.0533 375.74 83.712C374.972 83.3493 374.353 82.8267 373.884 82.144C373.414 81.4613 373.18 80.6293 373.18 79.648C373.18 78.3253 373.649 77.2373 374.588 76.384C375.526 75.5307 377.009 74.9867 379.036 74.752L382.556 74.368V73.44C382.556 73.1413 382.406 72.8427 382.108 72.544C381.809 72.224 381.35 72.064 380.732 72.064C380.177 72.064 379.697 72.2133 379.292 72.512C378.886 72.8107 378.609 73.2267 378.46 73.76L374.012 72.16C374.502 70.7093 375.334 69.6213 376.508 68.896C377.681 68.1493 379.153 67.776 380.924 67.776C383.164 67.776 384.87 68.3307 386.044 69.44C387.217 70.5493 387.804 72.0747 387.804 74.016V84H382.908ZM382.556 77.312L380.06 77.6C379.569 77.664 379.196 77.824 378.94 78.08C378.684 78.336 378.556 78.6453 378.556 79.008C378.556 79.3707 378.705 79.6693 379.004 79.904C379.324 80.1387 379.761 80.256 380.316 80.256C380.764 80.256 381.148 80.16 381.468 79.968C381.809 79.7547 382.076 79.456 382.268 79.072C382.46 78.688 382.556 78.208 382.556 77.632V77.312ZM395.011 78.688C395.096 79.008 395.224 79.2747 395.395 79.488C395.565 79.68 395.789 79.8293 396.067 79.936C396.344 80.0427 396.664 80.096 397.027 80.096C397.581 80.096 398.008 80 398.307 79.808C398.627 79.616 398.787 79.3707 398.787 79.072C398.787 78.7733 398.659 78.5493 398.403 78.4C398.168 78.2293 397.859 78.0907 397.475 77.984C397.091 77.8773 396.685 77.7813 396.259 77.696C395.725 77.5893 395.128 77.4507 394.467 77.28C393.805 77.1093 393.165 76.864 392.547 76.544C391.949 76.2027 391.448 75.744 391.043 75.168C390.659 74.592 390.467 73.856 390.467 72.96C390.467 71.9787 390.723 71.104 391.235 70.336C391.747 69.5467 392.493 68.928 393.475 68.48C394.477 68.0107 395.704 67.776 397.155 67.776C398.925 67.776 400.333 68.1387 401.379 68.864C402.424 69.5893 403.149 70.592 403.555 71.872L399.011 72.896C398.947 72.64 398.819 72.448 398.627 72.32C398.456 72.1707 398.243 72.064 397.987 72C397.731 71.936 397.475 71.904 397.219 71.904C396.728 71.904 396.365 72 396.131 72.192C395.896 72.3627 395.779 72.5653 395.779 72.8C395.779 72.992 395.843 73.152 395.971 73.28C396.099 73.3867 396.269 73.472 396.483 73.536C396.717 73.6 396.984 73.664 397.283 73.728C397.603 73.7707 397.933 73.8347 398.275 73.92C398.915 74.0693 399.565 74.2507 400.227 74.464C400.909 74.656 401.539 74.9333 402.115 75.296C402.712 75.6587 403.192 76.1387 403.555 76.736C403.917 77.3333 404.109 78.112 404.131 79.072C404.131 80.032 403.864 80.9067 403.331 81.696C402.797 82.464 402.008 83.0827 400.963 83.552C399.939 84 398.659 84.224 397.123 84.224C395.245 84.224 393.688 83.8507 392.451 83.104C391.235 82.336 390.477 81.2053 390.179 79.712L395.011 78.688ZM418.127 66.272H414.927V61.6H423.695V84H418.127V66.272ZM426.717 79.936L432.573 74.368C433.639 73.3653 434.471 72.544 435.069 71.904C435.687 71.2427 436.125 70.6453 436.381 70.112C436.658 69.5787 436.797 69.0133 436.797 68.416C436.797 67.6907 436.605 67.136 436.221 66.752C435.837 66.3467 435.261 66.144 434.493 66.144C434.023 66.144 433.607 66.272 433.245 66.528C432.882 66.7627 432.594 67.1253 432.381 67.616C432.167 68.0853 432.05 68.6827 432.029 69.408H426.653C426.695 67.5307 427.09 66.0053 427.837 64.832C428.583 63.6587 429.565 62.7947 430.781 62.24C431.997 61.664 433.33 61.376 434.781 61.376C436.573 61.376 438.034 61.6853 439.165 62.304C440.295 62.9227 441.127 63.744 441.661 64.768C442.194 65.792 442.461 66.912 442.461 68.128C442.461 69.088 442.311 69.9733 442.013 70.784C441.735 71.5733 441.245 72.4053 440.541 73.28C439.837 74.1333 438.845 75.1467 437.565 76.32L434.269 79.328H442.845V84H426.717V79.936ZM445.596 72.8C445.596 71.0933 445.756 69.536 446.076 68.128C446.396 66.72 446.908 65.5147 447.612 64.512C448.316 63.5093 449.244 62.7413 450.396 62.208C451.569 61.6533 452.988 61.376 454.652 61.376C456.316 61.376 457.724 61.6533 458.876 62.208C460.028 62.7413 460.956 63.5093 461.66 64.512C462.385 65.5147 462.908 66.72 463.228 68.128C463.548 69.536 463.708 71.0933 463.708 72.8C463.708 74.528 463.548 76.096 463.228 77.504C462.908 78.912 462.385 80.1173 461.66 81.12C460.956 82.1227 460.028 82.8907 458.876 83.424C457.724 83.9573 456.316 84.224 454.652 84.224C452.988 84.224 451.569 83.9573 450.396 83.424C449.244 82.8907 448.316 82.1227 447.612 81.12C446.908 80.1173 446.396 78.912 446.076 77.504C445.756 76.096 445.596 74.528 445.596 72.8ZM458.044 72.8C458.044 71.9253 458.012 71.0933 457.948 70.304C457.884 69.4933 457.734 68.7787 457.5 68.16C457.286 67.5413 456.956 67.0507 456.508 66.688C456.06 66.3253 455.441 66.144 454.652 66.144C453.862 66.144 453.244 66.3253 452.796 66.688C452.348 67.0507 452.006 67.5413 451.772 68.16C451.558 68.7787 451.42 69.4933 451.356 70.304C451.292 71.0933 451.26 71.9253 451.26 72.8C451.26 73.7173 451.292 74.5813 451.356 75.392C451.42 76.1813 451.558 76.8853 451.772 77.504C452.006 78.1013 452.348 78.5813 452.796 78.944C453.244 79.2853 453.862 79.456 454.652 79.456C455.441 79.456 456.06 79.2853 456.508 78.944C456.956 78.5813 457.286 78.1013 457.5 77.504C457.734 76.8853 457.884 76.1813 457.948 75.392C458.012 74.5813 458.044 73.7173 458.044 72.8ZM475.694 60.96H480.942V69.792C481.411 69.216 481.987 68.736 482.67 68.352C483.374 67.968 484.184 67.776 485.102 67.776C486.339 67.776 487.406 68.0533 488.302 68.608C489.198 69.1413 489.88 69.92 490.35 70.944C490.84 71.968 491.086 73.2053 491.086 74.656V84H485.518V75.296C485.518 74.3787 485.326 73.6853 484.942 73.216C484.558 72.7253 483.992 72.48 483.246 72.48C482.478 72.48 481.902 72.7787 481.518 73.376C481.134 73.9733 480.942 74.7413 480.942 75.68V84H475.694V60.96ZM498.292 78.688C498.377 79.008 498.505 79.2747 498.676 79.488C498.847 79.68 499.071 79.8293 499.348 79.936C499.625 80.0427 499.945 80.096 500.308 80.096C500.863 80.096 501.289 80 501.588 79.808C501.908 79.616 502.068 79.3707 502.068 79.072C502.068 78.7733 501.94 78.5493 501.684 78.4C501.449 78.2293 501.14 78.0907 500.756 77.984C500.372 77.8773 499.967 77.7813 499.54 77.696C499.007 77.5893 498.409 77.4507 497.748 77.28C497.087 77.1093 496.447 76.864 495.828 76.544C495.231 76.2027 494.729 75.744 494.324 75.168C493.94 74.592 493.748 73.856 493.748 72.96C493.748 71.9787 494.004 71.104 494.516 70.336C495.028 69.5467 495.775 68.928 496.756 68.48C497.759 68.0107 498.985 67.776 500.436 67.776C502.207 67.776 503.615 68.1387 504.66 68.864C505.705 69.5893 506.431 70.592 506.836 71.872L502.292 72.896C502.228 72.64 502.1 72.448 501.908 72.32C501.737 72.1707 501.524 72.064 501.268 72C501.012 71.936 500.756 71.904 500.5 71.904C500.009 71.904 499.647 72 499.412 72.192C499.177 72.3627 499.06 72.5653 499.06 72.8C499.06 72.992 499.124 73.152 499.252 73.28C499.38 73.3867 499.551 73.472 499.764 73.536C499.999 73.6 500.265 73.664 500.564 73.728C500.884 73.7707 501.215 73.8347 501.556 73.92C502.196 74.0693 502.847 74.2507 503.508 74.464C504.191 74.656 504.82 74.9333 505.396 75.296C505.993 75.6587 506.473 76.1387 506.836 76.736C507.199 77.3333 507.391 78.112 507.412 79.072C507.412 80.032 507.145 80.9067 506.612 81.696C506.079 82.464 505.289 83.0827 504.244 83.552C503.22 84 501.94 84.224 500.404 84.224C498.527 84.224 496.969 83.8507 495.732 83.104C494.516 82.336 493.759 81.2053 493.46 79.712L498.292 78.688ZM51.72 122L51.368 120.016C50.792 120.677 50.1947 121.211 49.576 121.616C48.9787 122.021 48.168 122.224 47.144 122.224C46.2053 122.224 45.3413 122.053 44.552 121.712C43.784 121.349 43.1653 120.827 42.696 120.144C42.2267 119.461 41.992 118.629 41.992 117.648C41.992 116.325 42.4613 115.237 43.4 114.384C44.3387 113.531 45.8213 112.987 47.848 112.752L51.368 112.368V111.44C51.368 111.141 51.2187 110.843 50.92 110.544C50.6213 110.224 50.1627 110.064 49.544 110.064C48.9893 110.064 48.5093 110.213 48.104 110.512C47.6987 110.811 47.4213 111.227 47.272 111.76L42.824 110.16C43.3147 108.709 44.1467 107.621 45.32 106.896C46.4933 106.149 47.9653 105.776 49.736 105.776C51.976 105.776 53.6827 106.331 54.856 107.44C56.0293 108.549 56.616 110.075 56.616 112.016V122H51.72ZM51.368 115.312L48.872 115.6C48.3813 115.664 48.008 115.824 47.752 116.08C47.496 116.336 47.368 116.645 47.368 117.008C47.368 117.371 47.5173 117.669 47.816 117.904C48.136 118.139 48.5733 118.256 49.128 118.256C49.576 118.256 49.96 118.16 50.28 117.968C50.6213 117.755 50.888 117.456 51.08 117.072C51.272 116.688 51.368 116.208 51.368 115.632V115.312ZM63.8233 116.688C63.9086 117.008 64.0366 117.275 64.2073 117.488C64.3779 117.68 64.6019 117.829 64.8793 117.936C65.1566 118.043 65.4766 118.096 65.8393 118.096C66.3939 118.096 66.8206 118 67.1193 117.808C67.4393 117.616 67.5993 117.371 67.5993 117.072C67.5993 116.773 67.4713 116.549 67.2153 116.4C66.9806 116.229 66.6713 116.091 66.2873 115.984C65.9033 115.877 65.4979 115.781 65.0713 115.696C64.5379 115.589 63.9406 115.451 63.2793 115.28C62.6179 115.109 61.9779 114.864 61.3593 114.544C60.7619 114.203 60.2606 113.744 59.8553 113.168C59.4713 112.592 59.2793 111.856 59.2793 110.96C59.2793 109.979 59.5353 109.104 60.0473 108.336C60.5593 107.547 61.3059 106.928 62.2873 106.48C63.2899 106.011 64.5166 105.776 65.9673 105.776C67.7379 105.776 69.1459 106.139 70.1913 106.864C71.2366 107.589 71.9619 108.592 72.3673 109.872L67.8233 110.896C67.7593 110.64 67.6313 110.448 67.4392 110.32C67.2686 110.171 67.0553 110.064 66.7993 110C66.5433 109.936 66.2873 109.904 66.0312 109.904C65.5406 109.904 65.1779 110 64.9433 110.192C64.7086 110.363 64.5913 110.565 64.5913 110.8C64.5913 110.992 64.6553 111.152 64.7833 111.28C64.9113 111.387 65.0819 111.472 65.2953 111.536C65.5299 111.6 65.7966 111.664 66.0953 111.728C66.4153 111.771 66.7459 111.835 67.0873 111.92C67.7273 112.069 68.3779 112.251 69.0393 112.464C69.7219 112.656 70.3513 112.933 70.9273 113.296C71.5246 113.659 72.0046 114.139 72.3673 114.736C72.7299 115.333 72.9219 116.112 72.9433 117.072C72.9433 118.032 72.6766 118.907 72.1433 119.696C71.6099 120.464 70.8206 121.083 69.7753 121.552C68.7513 122 67.4713 122.224 65.9353 122.224C64.0579 122.224 62.5006 121.851 61.2633 121.104C60.0473 120.336 59.2899 119.205 58.9913 117.712L63.8233 116.688ZM76.115 106H81.363V122H76.115V106ZM78.739 104.816C77.7577 104.816 76.9683 104.539 76.371 103.984C75.7737 103.408 75.475 102.715 75.475 101.904C75.475 101.072 75.7737 100.379 76.371 99.824C76.9683 99.248 77.7577 98.96 78.739 98.96C79.699 98.96 80.4777 99.248 81.075 99.824C81.6937 100.379 82.003 101.072 82.003 101.904C82.003 102.715 81.6937 103.408 81.075 103.984C80.4777 104.539 79.699 104.816 78.739 104.816ZM85.1625 106H89.8985L90.2825 107.824C90.7945 107.227 91.4025 106.736 92.1065 106.352C92.8318 105.968 93.6212 105.776 94.4745 105.776C95.7332 105.776 96.7892 106.053 97.6425 106.608C98.4958 107.141 99.1358 107.92 99.5625 108.944C100.011 109.968 100.235 111.205 100.235 112.656V122H94.9865V113.296C94.9865 112.379 94.7945 111.685 94.4105 111.216C94.0265 110.725 93.4612 110.48 92.7145 110.48C91.9465 110.48 91.3705 110.725 90.9865 111.216C90.6025 111.685 90.4105 112.389 90.4105 113.328V122H85.1625V106ZM110.616 122.224C109.038 122.245 107.64 121.915 106.424 121.232C105.23 120.549 104.291 119.589 103.608 118.352C102.947 117.115 102.616 115.675 102.616 114.032C102.616 112.411 102.947 110.981 103.608 109.744C104.291 108.485 105.23 107.515 106.424 106.832C107.619 106.128 108.995 105.776 110.552 105.776C112.387 105.776 113.987 106.245 115.352 107.184C116.718 108.123 117.667 109.413 118.2 111.056L113.176 112.144C112.984 111.632 112.686 111.237 112.28 110.96C111.896 110.683 111.448 110.544 110.936 110.544C110.403 110.544 109.923 110.693 109.496 110.992C109.091 111.291 108.771 111.707 108.536 112.24C108.302 112.773 108.184 113.371 108.184 114.032C108.184 115.035 108.44 115.856 108.952 116.496C109.464 117.136 110.115 117.456 110.904 117.456C111.416 117.456 111.864 117.317 112.248 117.04C112.654 116.763 112.974 116.368 113.208 115.856L118.232 116.976C117.72 118.555 116.771 119.824 115.384 120.784C114.019 121.723 112.43 122.203 110.616 122.224ZM120.756 106H125.524L125.876 108.176C126.282 107.6 126.762 107.131 127.316 106.768C127.871 106.384 128.5 106.128 129.204 106C129.93 105.851 130.74 105.851 131.636 106V110.992C131.082 110.821 130.474 110.768 129.812 110.832C129.172 110.896 128.554 111.099 127.956 111.44C127.38 111.781 126.911 112.293 126.548 112.976C126.186 113.659 126.004 114.544 126.004 115.632V122H120.756V106ZM144.804 98V101.712L138.116 104.432V101.104L144.804 98ZM141.028 122.224C139.449 122.224 138.041 121.893 136.804 121.232C135.566 120.571 134.585 119.621 133.86 118.384C133.156 117.147 132.804 115.685 132.804 114C132.804 112.315 133.166 110.864 133.892 109.648C134.617 108.411 135.598 107.461 136.836 106.8C138.094 106.117 139.513 105.776 141.092 105.776C142.67 105.776 144.089 106.117 145.348 106.8C146.606 107.461 147.598 108.411 148.324 109.648C149.049 110.864 149.412 112.315 149.412 114C149.412 115.685 149.038 117.147 148.292 118.384C147.566 119.621 146.564 120.571 145.284 121.232C144.025 121.893 142.606 122.224 141.028 122.224ZM141.028 117.456C141.497 117.456 141.934 117.328 142.34 117.072C142.766 116.816 143.108 116.432 143.364 115.92C143.62 115.408 143.748 114.768 143.748 114C143.748 113.232 143.62 112.592 143.364 112.08C143.108 111.568 142.777 111.184 142.372 110.928C141.966 110.672 141.54 110.544 141.092 110.544C140.601 110.544 140.153 110.672 139.748 110.928C139.364 111.184 139.054 111.568 138.82 112.08C138.585 112.592 138.468 113.232 138.468 114C138.468 114.768 138.574 115.408 138.788 115.92C139.022 116.432 139.332 116.816 139.716 117.072C140.121 117.328 140.558 117.456 141.028 117.456ZM151.944 106H156.68L157.064 107.824C157.576 107.227 158.184 106.736 158.888 106.352C159.613 105.968 160.402 105.776 161.256 105.776C162.514 105.776 163.57 106.053 164.424 106.608C165.277 107.141 165.917 107.92 166.344 108.944C166.792 109.968 167.016 111.205 167.016 112.656V122H161.768V113.296C161.768 112.379 161.576 111.685 161.192 111.216C160.808 110.725 160.242 110.48 159.496 110.48C158.728 110.48 158.152 110.725 157.768 111.216C157.384 111.685 157.192 112.389 157.192 113.328V122H151.944V106ZM170.678 106H175.926V122H170.678V106ZM173.302 104.816C172.32 104.816 171.531 104.539 170.934 103.984C170.336 103.408 170.038 102.715 170.038 101.904C170.038 101.072 170.336 100.379 170.934 99.824C171.531 99.248 172.32 98.96 173.302 98.96C174.262 98.96 175.04 99.248 175.638 99.824C176.256 100.379 176.566 101.072 176.566 101.904C176.566 102.715 176.256 103.408 175.638 103.984C175.04 104.539 174.262 104.816 173.302 104.816ZM187.085 122.224C185.506 122.245 184.109 121.915 182.893 121.232C181.698 120.549 180.76 119.589 180.077 118.352C179.416 117.115 179.085 115.675 179.085 114.032C179.085 112.411 179.416 110.981 180.077 109.744C180.76 108.485 181.698 107.515 182.893 106.832C184.088 106.128 185.464 105.776 187.021 105.776C188.856 105.776 190.456 106.245 191.821 107.184C193.186 108.123 194.136 109.413 194.669 111.056L189.645 112.144C189.453 111.632 189.154 111.237 188.749 110.96C188.365 110.683 187.917 110.544 187.405 110.544C186.872 110.544 186.392 110.693 185.965 110.992C185.56 111.291 185.24 111.707 185.005 112.24C184.77 112.773 184.653 113.371 184.653 114.032C184.653 115.035 184.909 115.856 185.421 116.496C185.933 117.136 186.584 117.456 187.373 117.456C187.885 117.456 188.333 117.317 188.717 117.04C189.122 116.763 189.442 116.368 189.677 115.856L194.701 116.976C194.189 118.555 193.24 119.824 191.853 120.784C190.488 121.723 188.898 122.203 187.085 122.224ZM206.345 122L205.993 120.016C205.417 120.677 204.82 121.211 204.201 121.616C203.604 122.021 202.793 122.224 201.769 122.224C200.83 122.224 199.966 122.053 199.177 121.712C198.409 121.349 197.79 120.827 197.321 120.144C196.852 119.461 196.617 118.629 196.617 117.648C196.617 116.325 197.086 115.237 198.025 114.384C198.964 113.531 200.446 112.987 202.473 112.752L205.993 112.368V111.44C205.993 111.141 205.844 110.843 205.545 110.544C205.246 110.224 204.788 110.064 204.169 110.064C203.614 110.064 203.134 110.213 202.729 110.512C202.324 110.811 202.046 111.227 201.897 111.76L197.449 110.16C197.94 108.709 198.772 107.621 199.945 106.896C201.118 106.149 202.59 105.776 204.361 105.776C206.601 105.776 208.308 106.331 209.481 107.44C210.654 108.549 211.241 110.075 211.241 112.016V122H206.345ZM205.993 115.312L203.497 115.6C203.006 115.664 202.633 115.824 202.377 116.08C202.121 116.336 201.993 116.645 201.993 117.008C201.993 117.371 202.142 117.669 202.441 117.904C202.761 118.139 203.198 118.256 203.753 118.256C204.201 118.256 204.585 118.16 204.905 117.968C205.246 117.755 205.513 117.456 205.705 117.072C205.897 116.688 205.993 116.208 205.993 115.632V115.312ZM218.448 116.688C218.534 117.008 218.662 117.275 218.832 117.488C219.003 117.68 219.227 117.829 219.504 117.936C219.782 118.043 220.102 118.096 220.464 118.096C221.019 118.096 221.446 118 221.744 117.808C222.064 117.616 222.224 117.371 222.224 117.072C222.224 116.773 222.096 116.549 221.84 116.4C221.606 116.229 221.296 116.091 220.912 115.984C220.528 115.877 220.123 115.781 219.696 115.696C219.163 115.589 218.566 115.451 217.904 115.28C217.243 115.109 216.603 114.864 215.984 114.544C215.387 114.203 214.886 113.744 214.48 113.168C214.096 112.592 213.904 111.856 213.904 110.96C213.904 109.979 214.16 109.104 214.672 108.336C215.184 107.547 215.931 106.928 216.912 106.48C217.915 106.011 219.142 105.776 220.592 105.776C222.363 105.776 223.771 106.139 224.816 106.864C225.862 107.589 226.587 108.592 226.992 109.872L222.448 110.896C222.384 110.64 222.256 110.448 222.064 110.32C221.894 110.171 221.68 110.064 221.424 110C221.168 109.936 220.912 109.904 220.656 109.904C220.166 109.904 219.803 110 219.568 110.192C219.334 110.363 219.216 110.565 219.216 110.8C219.216 110.992 219.28 111.152 219.408 111.28C219.536 111.387 219.707 111.472 219.92 111.536C220.155 111.6 220.422 111.664 220.72 111.728C221.04 111.771 221.371 111.835 221.712 111.92C222.352 112.069 223.003 112.251 223.664 112.464C224.347 112.656 224.976 112.933 225.552 113.296C226.15 113.659 226.63 114.139 226.992 114.736C227.355 115.333 227.547 116.112 227.568 117.072C227.568 118.032 227.302 118.907 226.768 119.696C226.235 120.464 225.446 121.083 224.4 121.552C223.376 122 222.096 122.224 220.56 122.224C218.683 122.224 217.126 121.851 215.888 121.104C214.672 120.336 213.915 119.205 213.616 117.712L218.448 116.688ZM233.14 122.256C232.137 122.256 231.327 121.968 230.708 121.392C230.111 120.795 229.812 120.08 229.812 119.248C229.812 118.395 230.111 117.68 230.708 117.104C231.327 116.507 232.137 116.208 233.14 116.208C234.143 116.208 234.943 116.507 235.54 117.104C236.159 117.68 236.468 118.395 236.468 119.248C236.468 120.08 236.159 120.795 235.54 121.392C234.943 121.968 234.143 122.256 233.14 122.256Z" fill="white"/>
</svg>
