<svg id="Capa_1" data-name="Capa 1" xmlns="http://www.w3.org/2000/svg" viewBox="0 0 620.19 148.86"><defs><style>.cls-1{fill:#fff;}.cls-2{fill:none;stroke:#fff;stroke-miterlimit:10;stroke-width:3px;}</style></defs><title>duracion</title><path class="cls-1" d="M55.07,29.48V49.64H65.53v2.24h-13V29.48ZM78.9,51.88,78.7,49a5.18,5.18,0,0,1-2,2.3,6.22,6.22,0,0,1-3.33.8,7.21,7.21,0,0,1-2.94-.54A4.32,4.32,0,0,1,68.56,50a4.39,4.39,0,0,1-.64-2.4,4.12,4.12,0,0,1,1.5-3.29,7.65,7.65,0,0,1,4.36-1.6l4.92-.55V40.9a2.61,2.61,0,0,0-1-2.14A4.08,4.08,0,0,0,75,37.93a4.74,4.74,0,0,0-2.78.77,3.85,3.85,0,0,0-1.5,2.2l-2.18-.76a6,6,0,0,1,2.34-3.3,7.23,7.23,0,0,1,4.19-1.18,6.18,6.18,0,0,1,4.41,1.47,5,5,0,0,1,1.6,3.93V51.88Zm-.2-7.65-5,.58a4.68,4.68,0,0,0-2.43.89,2.21,2.21,0,0,0-.83,1.8,2.24,2.24,0,0,0,.8,1.79,3.66,3.66,0,0,0,2.37.67,5.34,5.34,0,0,0,2.88-.7,4.15,4.15,0,0,0,1.63-1.89,6.41,6.41,0,0,0,.54-2.63Zm22.87,7.87a8,8,0,0,1-4.1-1,7.19,7.19,0,0,1-2.75-2.85,9.17,9.17,0,0,1-1-4.29,9.29,9.29,0,0,1,1-4.32,7.22,7.22,0,0,1,2.75-2.91,7.87,7.87,0,0,1,4.1-1.05,8,8,0,0,1,4.32,1.15,6.48,6.48,0,0,1,2.69,3.13l-2.21.77a3.86,3.86,0,0,0-1.76-2,5.91,5.91,0,0,0-5.76,0A5.15,5.15,0,0,0,97,40.74a7.44,7.44,0,0,0-.64,3.17,6.3,6.3,0,0,0,1.44,4.32,4.9,4.9,0,0,0,3.84,1.6,5.78,5.78,0,0,0,2.92-.73,4.56,4.56,0,0,0,1.88-2l2.18.77a6.62,6.62,0,0,1-2.72,3.1A8.18,8.18,0,0,1,101.57,52.1Zm21-.22L122.36,49a5.24,5.24,0,0,1-2,2.3,6.27,6.27,0,0,1-3.33.8,7.26,7.26,0,0,1-3-.54A4.24,4.24,0,0,1,112.22,50a4.39,4.39,0,0,1-.64-2.4,4.12,4.12,0,0,1,1.5-3.29,7.58,7.58,0,0,1,4.35-1.6l4.93-.55V40.9a2.61,2.61,0,0,0-1-2.14,4.08,4.08,0,0,0-2.69-.83,4.72,4.72,0,0,0-2.78.77,3.91,3.91,0,0,0-1.51,2.2l-2.17-.76a6,6,0,0,1,2.33-3.3,7.23,7.23,0,0,1,4.19-1.18,6.23,6.23,0,0,1,4.42,1.47,5,5,0,0,1,1.6,3.93V51.88Zm-.19-7.65-5,.58a4.61,4.61,0,0,0-2.43.89,2.18,2.18,0,0,0-.83,1.8,2.21,2.21,0,0,0,.8,1.79,3.65,3.65,0,0,0,2.36.67,5.3,5.3,0,0,0,2.88-.7,4.17,4.17,0,0,0,1.64-1.89,6.41,6.41,0,0,0,.54-2.63Zm9.23,4.42.25,0v9.66h-2.4V35.88h2.21l.16,3A6.32,6.32,0,0,1,134,36.58a6.6,6.6,0,0,1,3.61-.92,7,7,0,0,1,3.75,1A6.9,6.9,0,0,1,144,39.53a9.22,9.22,0,0,1,1,4.35,9.58,9.58,0,0,1-.93,4.35,6.75,6.75,0,0,1-2.56,2.85,7.1,7.1,0,0,1-3.84,1,6.83,6.83,0,0,1-3.81-1A6.08,6.08,0,0,1,131.59,48.65Zm10.75-4.77a6.27,6.27,0,0,0-1.44-4.35,4.77,4.77,0,0,0-3.81-1.63,5.33,5.33,0,0,0-2.72.7,4.82,4.82,0,0,0-1.86,2,8,8,0,0,0,0,6.43,5,5,0,0,0,1.86,2.08,5.33,5.33,0,0,0,2.72.7,4.81,4.81,0,0,0,3.81-1.6A6.35,6.35,0,0,0,142.34,43.88Zm16.53,8-.2-2.88a5.18,5.18,0,0,1-2,2.3,6.27,6.27,0,0,1-3.33.8,7.21,7.21,0,0,1-2.94-.54A4.32,4.32,0,0,1,148.53,50a4.39,4.39,0,0,1-.64-2.4,4.12,4.12,0,0,1,1.5-3.29,7.64,7.64,0,0,1,4.35-1.6l4.93-.55V40.9a2.61,2.61,0,0,0-1-2.14,4.08,4.08,0,0,0-2.69-.83,4.72,4.72,0,0,0-2.78.77,3.91,3.91,0,0,0-1.51,2.2l-2.17-.76a5.94,5.94,0,0,1,2.34-3.3,7.2,7.2,0,0,1,4.19-1.18,6.2,6.2,0,0,1,4.41,1.47,5,5,0,0,1,1.6,3.93V51.88Zm-.2-7.65-5,.58a4.68,4.68,0,0,0-2.43.89,2.38,2.38,0,0,0,0,3.59,3.66,3.66,0,0,0,2.37.67,5.34,5.34,0,0,0,2.88-.7,4.15,4.15,0,0,0,1.63-1.89,6.41,6.41,0,0,0,.54-2.63Zm13.9,7.87a8,8,0,0,1-4.09-1,7.14,7.14,0,0,1-2.76-2.85,9.17,9.17,0,0,1-1-4.29,9.29,9.29,0,0,1,1-4.32,7.17,7.17,0,0,1,2.76-2.91,7.8,7.8,0,0,1,4.09-1.05,8,8,0,0,1,4.32,1.15,6.48,6.48,0,0,1,2.69,3.13l-2.21.77a3.86,3.86,0,0,0-1.76-2,5.91,5.91,0,0,0-5.76,0A5.15,5.15,0,0,0,168,40.74a7.44,7.44,0,0,0-.64,3.17,6.35,6.35,0,0,0,1.44,4.32,4.92,4.92,0,0,0,3.84,1.6,5.78,5.78,0,0,0,2.92-.73,4.56,4.56,0,0,0,1.88-2l2.18.77a6.62,6.62,0,0,1-2.72,3.1A8.18,8.18,0,0,1,172.57,52.1ZM184,35.88h2.36v16H184Zm1.21-3.2A1.64,1.64,0,0,1,184,32.2a1.6,1.6,0,0,1-.48-1.18A1.66,1.66,0,0,1,184,29.8a1.64,1.64,0,0,1,1.21-.48,1.56,1.56,0,0,1,1.15.48A1.58,1.58,0,0,1,186.9,31a1.53,1.53,0,0,1-.52,1.18A1.56,1.56,0,0,1,185.23,32.68Zm7.58,3.2V31.4h2.4v4.48h4.26v2.24h-4.26v8.61a3.11,3.11,0,0,0,.61,2.14,2.56,2.56,0,0,0,1.6.8,7.81,7.81,0,0,0,2.05,0v2.08a7.41,7.41,0,0,1-2.47.16,5.15,5.15,0,0,1-2.14-.7,4.55,4.55,0,0,1-1.51-1.7,6.23,6.23,0,0,1-.54-2.78V38.12h-2.4V35.88Zm20.24,16L212.86,49a5.24,5.24,0,0,1-2,2.3,6.27,6.27,0,0,1-3.33.8,7.26,7.26,0,0,1-3-.54A4.24,4.24,0,0,1,202.72,50a4.39,4.39,0,0,1-.64-2.4,4.12,4.12,0,0,1,1.5-3.29,7.58,7.58,0,0,1,4.35-1.6l4.93-.55V40.9a2.61,2.61,0,0,0-1-2.14,4.08,4.08,0,0,0-2.69-.83,4.72,4.72,0,0,0-2.78.77,3.91,3.91,0,0,0-1.51,2.2l-2.17-.76a6,6,0,0,1,2.33-3.3,7.23,7.23,0,0,1,4.19-1.18,6.21,6.21,0,0,1,4.42,1.47,5,5,0,0,1,1.6,3.93V51.88Zm-.19-7.65-5,.58a4.61,4.61,0,0,0-2.43.89,2.18,2.18,0,0,0-.83,1.8,2.21,2.21,0,0,0,.8,1.79,3.65,3.65,0,0,0,2.36.67,5.3,5.3,0,0,0,2.88-.7,4.12,4.12,0,0,0,1.64-1.89,6.41,6.41,0,0,0,.54-2.63Zm13.9,7.87a8,8,0,0,1-4.1-1,7.19,7.19,0,0,1-2.75-2.85,9.17,9.17,0,0,1-1-4.29,9.29,9.29,0,0,1,1-4.32,7.22,7.22,0,0,1,2.75-2.91,7.87,7.87,0,0,1,4.1-1.05,8,8,0,0,1,4.32,1.15,6.48,6.48,0,0,1,2.69,3.13l-2.21.77a3.86,3.86,0,0,0-1.76-2,5.91,5.91,0,0,0-5.76,0,5.15,5.15,0,0,0-1.86,2.08,7.44,7.44,0,0,0-.64,3.17A6.3,6.3,0,0,0,223,48.23a4.9,4.9,0,0,0,3.84,1.6,5.72,5.72,0,0,0,2.91-.73,4.53,4.53,0,0,0,1.89-2l2.18.77a6.62,6.62,0,0,1-2.72,3.1A8.18,8.18,0,0,1,226.76,52.1ZM238.2,35.88h2.37v16H238.2Zm1.22-3.2a1.66,1.66,0,0,1-1.22-.48,1.6,1.6,0,0,1-.48-1.18,1.64,1.64,0,0,1,1.7-1.7,1.56,1.56,0,0,1,1.15.48,1.61,1.61,0,0,1,.51,1.22,1.69,1.69,0,0,1-1.66,1.66ZM255.8,29v2l-6,3.32V32.62Zm-2.91,23.1a8.29,8.29,0,0,1-4.07-1A7.16,7.16,0,0,1,246,48.3a8.88,8.88,0,0,1-1-4.39,8.9,8.9,0,0,1,1-4.41,7.27,7.27,0,0,1,2.84-2.85,8.46,8.46,0,0,1,4.1-1,8.25,8.25,0,0,1,4.06,1,7,7,0,0,1,2.85,2.85,8.45,8.45,0,0,1,1.06,4.35,8.67,8.67,0,0,1-1.06,4.41A7.18,7.18,0,0,1,257,51.11,8.42,8.42,0,0,1,252.89,52.1Zm0-2.27a5.93,5.93,0,0,0,2.66-.61,4.91,4.91,0,0,0,2-1.95,6.54,6.54,0,0,0,.8-3.39,6.65,6.65,0,0,0-.77-3.39,4.66,4.66,0,0,0-2-1.92,5.7,5.7,0,0,0-5.25,0,4.64,4.64,0,0,0-2,2,6.85,6.85,0,0,0-.74,3.36,6.87,6.87,0,0,0,.74,3.39,4.75,4.75,0,0,0,1.92,1.95A5.71,5.71,0,0,0,252.85,49.83Zm12-13.95h2.21l.13,2.27a5.18,5.18,0,0,1,2-1.82,6,6,0,0,1,2.91-.67,6.16,6.16,0,0,1,3.2.8,5.25,5.25,0,0,1,2.15,2.33,8.69,8.69,0,0,1,.76,3.87v9.22h-2.4V43a5.71,5.71,0,0,0-1.08-3.77,3.72,3.72,0,0,0-3.08-1.32,4.07,4.07,0,0,0-3.26,1.38,6.18,6.18,0,0,0-1.15,4.06v8.58h-2.4ZM298.66,52.1a8,8,0,0,1-4.09-1,7.19,7.19,0,0,1-2.75-2.85,9.17,9.17,0,0,1-1-4.29,9.29,9.29,0,0,1,1-4.32,7.22,7.22,0,0,1,2.75-2.91,7.83,7.83,0,0,1,4.09-1.05A8,8,0,0,1,303,36.81a6.42,6.42,0,0,1,2.69,3.13l-2.2.77a3.84,3.84,0,0,0-1.77-2,5.91,5.91,0,0,0-5.76,0,5.2,5.2,0,0,0-1.85,2.08,7.29,7.29,0,0,0-.64,3.17,6.3,6.3,0,0,0,1.44,4.32,4.9,4.9,0,0,0,3.84,1.6,5.72,5.72,0,0,0,2.91-.73,4.64,4.64,0,0,0,1.89-2l2.17.77A6.56,6.56,0,0,1,303,51,8.13,8.13,0,0,1,298.66,52.1Zm17.88,0a8.25,8.25,0,0,1-4.06-1,7.12,7.12,0,0,1-2.82-2.81,9,9,0,0,1-1-4.39,9,9,0,0,1,1-4.41,7.3,7.3,0,0,1,2.85-2.85,8.46,8.46,0,0,1,4.1-1,8.27,8.27,0,0,1,4.06,1,7,7,0,0,1,2.85,2.85,8.54,8.54,0,0,1,1.05,4.35,8.77,8.77,0,0,1-1.05,4.41,7.31,7.31,0,0,1-2.88,2.85A8.46,8.46,0,0,1,316.54,52.1Zm0-2.27a6,6,0,0,0,2.66-.61,4.83,4.83,0,0,0,2-1.95,6.45,6.45,0,0,0,.8-3.39,6.55,6.55,0,0,0-.77-3.39,4.64,4.64,0,0,0-2-1.92,5.7,5.7,0,0,0-5.25,0,4.64,4.64,0,0,0-2,2,6.74,6.74,0,0,0-.74,3.36,6.76,6.76,0,0,0,.74,3.39,4.75,4.75,0,0,0,1.92,1.95A5.71,5.71,0,0,0,316.51,49.83Zm12-13.95h2.21l.13,2.27a5.21,5.21,0,0,1,2-1.82,6,6,0,0,1,2.91-.67,6.21,6.21,0,0,1,3.2.8,5.17,5.17,0,0,1,2.14,2.33,8.55,8.55,0,0,1,.77,3.87v9.22h-2.4V43a5.65,5.65,0,0,0-1.09-3.77,3.7,3.7,0,0,0-3.07-1.32,4.06,4.06,0,0,0-3.26,1.38,6.18,6.18,0,0,0-1.15,4.06v8.58H328.5ZM347.85,47a3.67,3.67,0,0,0,.7,1.6,3.2,3.2,0,0,0,1.31.93,5.23,5.23,0,0,0,1.92.32,4.24,4.24,0,0,0,2.56-.64,2,2,0,0,0,.9-1.66,1.79,1.79,0,0,0-.54-1.35,3.93,3.93,0,0,0-1.38-.83,16.1,16.1,0,0,0-1.92-.61c-.55-.12-1.15-.27-1.79-.44a9.84,9.84,0,0,1-1.83-.77,4.22,4.22,0,0,1-1.4-1.25,3.36,3.36,0,0,1-.55-2,4,4,0,0,1,.74-2.4,5,5,0,0,1,2.08-1.63,7.78,7.78,0,0,1,3.07-.57,7,7,0,0,1,3.52.86,4.61,4.61,0,0,1,2.18,2.69l-2.24.77a2.24,2.24,0,0,0-.84-1.28,3.22,3.22,0,0,0-1.31-.61,6.16,6.16,0,0,0-1.41-.16,4.28,4.28,0,0,0-2.33.57,1.84,1.84,0,0,0-.87,1.67,1.75,1.75,0,0,0,.29,1,2.16,2.16,0,0,0,.8.64,6.82,6.82,0,0,0,1.22.45l1.53.38a18.46,18.46,0,0,1,1.89.58,7.58,7.58,0,0,1,1.79.86,4.05,4.05,0,0,1,1.35,1.35,3.5,3.5,0,0,1,.54,2,4.05,4.05,0,0,1-.77,2.47,5.06,5.06,0,0,1-2.14,1.6,8,8,0,0,1-3.14.57A7.26,7.26,0,0,1,347.69,51a5.5,5.5,0,0,1-2.15-3.27Zm14.9-11.1V31.4h2.4v4.48h4.25v2.24h-4.25v8.61a3.11,3.11,0,0,0,.61,2.14,2.56,2.56,0,0,0,1.6.8,7.74,7.74,0,0,0,2,0v2.08a7.34,7.34,0,0,1-2.46.16,5.15,5.15,0,0,1-2.14-.7,4.55,4.55,0,0,1-1.51-1.7,6.23,6.23,0,0,1-.54-2.78V38.12h-2.4V35.88Zm20.24,16L382.8,49a5.2,5.2,0,0,1-2,2.3,6.21,6.21,0,0,1-3.32.8,7.23,7.23,0,0,1-2.95-.54A4.32,4.32,0,0,1,372.65,50a4.48,4.48,0,0,1-.64-2.4,4.1,4.1,0,0,1,1.51-3.29,7.58,7.58,0,0,1,4.35-1.6l4.93-.55V40.9a2.61,2.61,0,0,0-1-2.14,4.1,4.1,0,0,0-2.69-.83,4.78,4.78,0,0,0-2.79.77,3.94,3.94,0,0,0-1.5,2.2l-2.18-.76a6,6,0,0,1,2.34-3.3,7.23,7.23,0,0,1,4.19-1.18,6.23,6.23,0,0,1,4.42,1.47,5,5,0,0,1,1.6,3.93V51.88Zm-.19-7.65-5,.58a4.61,4.61,0,0,0-2.43.89,2.19,2.19,0,0,0-.84,1.8,2.24,2.24,0,0,0,.8,1.79,3.69,3.69,0,0,0,2.37.67,5.32,5.32,0,0,0,2.88-.7,4.09,4.09,0,0,0,1.63-1.89,6.26,6.26,0,0,0,.55-2.63Zm28.4-5.12-.26,0V28.84h2.4v23h-2.2l-.16-3a6.24,6.24,0,0,1-2.21,2.28,6.48,6.48,0,0,1-3.58.92,7.44,7.44,0,0,1-3.88-1,7,7,0,0,1-2.56-2.88,10,10,0,0,1-.89-4.35,9.83,9.83,0,0,1,.89-4.32,7,7,0,0,1,2.56-2.88,7.27,7.27,0,0,1,3.88-1,6.71,6.71,0,0,1,3.77,1A6.33,6.33,0,0,1,411.2,39.11Zm-10.75,4.77a6.44,6.44,0,0,0,1.41,4.38,4.82,4.82,0,0,0,3.84,1.6,5.13,5.13,0,0,0,2.68-.7,4.82,4.82,0,0,0,1.86-2,6.85,6.85,0,0,0,.7-3.23,6.7,6.7,0,0,0-.7-3.2,4.82,4.82,0,0,0-1.86-2,5,5,0,0,0-2.68-.73,4.86,4.86,0,0,0-3.84,1.63A6.36,6.36,0,0,0,400.45,43.88ZM425,52.1A7.52,7.52,0,0,1,421,51a7.76,7.76,0,0,1-2.72-3,9.17,9.17,0,0,1-1-4.32,8.58,8.58,0,0,1,1-4.16A7.39,7.39,0,0,1,421,36.71a7.47,7.47,0,0,1,3.94-1.05,7.71,7.71,0,0,1,3.87,1,6.79,6.79,0,0,1,2.69,2.65,7.29,7.29,0,0,1,.9,3.87c0,.24,0,.48,0,.74s0,.53-.07.83H419.89a5.61,5.61,0,0,0,.73,2.66,5.21,5.21,0,0,0,1.76,1.82,5,5,0,0,0,2.53.64,6.45,6.45,0,0,0,3.14-.7,4.16,4.16,0,0,0,1.89-2l2.07.83a7,7,0,0,1-2.78,3.11A8.38,8.38,0,0,1,425,52.1Zm4.77-9.47a4.38,4.38,0,0,0-.61-2.43,4.3,4.3,0,0,0-1.72-1.66,5.31,5.31,0,0,0-2.6-.61,4.53,4.53,0,0,0-2.33.61,5.16,5.16,0,0,0-1.76,1.69,5.3,5.3,0,0,0-.8,2.4Zm22.94,9.47a9.45,9.45,0,0,1-4.45-1,8,8,0,0,1-3.1-2.82A7.74,7.74,0,0,1,444,44.1a9.8,9.8,0,0,1,.67-3.48,16.56,16.56,0,0,1,2.17-3.78l5.48-7.36h6.14l-6.53,8.58-4.41,5.21a7.51,7.51,0,0,1,2.24-4.67A6.16,6.16,0,0,1,454.09,37a7.6,7.6,0,0,1,3.58.86,6.48,6.48,0,0,1,2.62,2.47,7.24,7.24,0,0,1,1,3.93,7.41,7.41,0,0,1-1.19,4.19A7.86,7.86,0,0,1,457,51.14,9.61,9.61,0,0,1,452.68,52.1Zm-3-7.84A3.7,3.7,0,0,0,450,45.9,2.69,2.69,0,0,0,451.05,47a3.3,3.3,0,0,0,1.63.39,3.14,3.14,0,0,0,1.6-.39,2.42,2.42,0,0,0,1-1.08,3.57,3.57,0,0,0,.35-1.64,3.37,3.37,0,0,0-.35-1.6,2.48,2.48,0,0,0-1-1.08,3.14,3.14,0,0,0-1.6-.39,3.3,3.3,0,0,0-1.63.39A2.75,2.75,0,0,0,450,42.66,3.49,3.49,0,0,0,449.64,44.26Zm14.12-3.58a21.08,21.08,0,0,1,.48-4.67,10.09,10.09,0,0,1,1.54-3.62,6.81,6.81,0,0,1,2.78-2.3,9.81,9.81,0,0,1,4.26-.83,9.59,9.59,0,0,1,4.22.83,6.9,6.9,0,0,1,2.79,2.3A9.94,9.94,0,0,1,481.39,36a23.1,23.1,0,0,1,0,9.37A9.86,9.86,0,0,1,479.83,49,6.9,6.9,0,0,1,477,51.3a9.9,9.9,0,0,1-4.22.8,10.12,10.12,0,0,1-4.26-.8,6.81,6.81,0,0,1-2.78-2.3,10,10,0,0,1-1.54-3.62A21.16,21.16,0,0,1,463.76,40.68Zm12.45,0c0-.87,0-1.71-.1-2.5a7.79,7.79,0,0,0-.44-2.14,3.19,3.19,0,0,0-1-1.47,2.85,2.85,0,0,0-1.85-.55,2.9,2.9,0,0,0-1.86.55,3.3,3.3,0,0,0-1,1.47,8.64,8.64,0,0,0-.42,2.14c-.06.79-.09,1.63-.09,2.5s0,1.78.09,2.59a8.48,8.48,0,0,0,.42,2.11,3.32,3.32,0,0,0,1,1.44,3,3,0,0,0,1.86.52,2.91,2.91,0,0,0,1.85-.52,3.2,3.2,0,0,0,1-1.44,7.64,7.64,0,0,0,.44-2.11C476.18,42.46,476.21,41.6,476.21,40.68Zm17.65-11.84h5.25v8.83a6.1,6.1,0,0,1,1.73-1.44,5,5,0,0,1,2.43-.57,5.94,5.94,0,0,1,3.2.83,5.14,5.14,0,0,1,2,2.33,8.6,8.6,0,0,1,.73,3.72v9.34h-5.57v-8.7a3.24,3.24,0,0,0-.57-2.08,2,2,0,0,0-1.7-.74,1.92,1.92,0,0,0-1.73.9,4.19,4.19,0,0,0-.57,2.3v8.32h-5.25Zm22.6,17.73a2.05,2.05,0,0,0,.38.8,1.8,1.8,0,0,0,.67.45,2.84,2.84,0,0,0,1,.16,2.38,2.38,0,0,0,1.28-.29.85.85,0,0,0,.48-.74.72.72,0,0,0-.38-.67,2.88,2.88,0,0,0-.93-.42c-.38-.1-.79-.2-1.21-.28s-1.14-.25-1.8-.42a9.17,9.17,0,0,1-1.92-.74,4.78,4.78,0,0,1-1.5-1.37,3.94,3.94,0,0,1-.58-2.21,4.61,4.61,0,0,1,.77-2.62,5.13,5.13,0,0,1,2.24-1.86,8.63,8.63,0,0,1,3.68-.7,7.36,7.36,0,0,1,4.23,1.08,5.62,5.62,0,0,1,2.17,3l-4.54,1a.94.94,0,0,0-.39-.58,1.43,1.43,0,0,0-.64-.32,3.3,3.3,0,0,0-.76-.1,1.69,1.69,0,0,0-1.09.29.73.73,0,0,0-.35.61.65.65,0,0,0,.19.48,1.52,1.52,0,0,0,.51.26l.8.19a9.54,9.54,0,0,1,1,.19q1,.23,1.95.54a7,7,0,0,1,1.89.84A4.14,4.14,0,0,1,525,44.62a4.83,4.83,0,0,1-.22,5,5.7,5.7,0,0,1-2.37,1.85,9.54,9.54,0,0,1-3.84.67A8.85,8.85,0,0,1,513.9,51a4.9,4.9,0,0,1-2.27-3.39Zm31.85-8.19h-.77V28.84h5.25v23h-4.74l-.28-2A4.9,4.9,0,0,1,546,51.43a5.36,5.36,0,0,1-2.63.67,6.5,6.5,0,0,1-3.55-1,6.87,6.87,0,0,1-2.46-2.85,9.9,9.9,0,0,1-.9-4.38,9.78,9.78,0,0,1,.9-4.38,6.7,6.7,0,0,1,2.43-2.85,6.55,6.55,0,0,1,3.58-1,5.41,5.41,0,0,1,3,.8A5.78,5.78,0,0,1,548.31,38.38Zm-6.21,5.5a3.81,3.81,0,0,0,.74,2.43,2.59,2.59,0,0,0,3.33.51,2.53,2.53,0,0,0,1-1.12,4.55,4.55,0,0,0,0-3.64,2.59,2.59,0,0,0-1-1.12,2.34,2.34,0,0,0-1.35-.42,2.39,2.39,0,0,0-2,.93A3.81,3.81,0,0,0,542.1,43.88Zm21.41,8.22a8.92,8.92,0,0,1-4.36-1,7.38,7.38,0,0,1-2.84-2.94,9.27,9.27,0,0,1-1-4.42,8.51,8.51,0,0,1,1-4.19,7.33,7.33,0,0,1,2.81-2.85,8.21,8.21,0,0,1,4.13-1,8.58,8.58,0,0,1,4.22,1,6.78,6.78,0,0,1,2.79,2.75,8.54,8.54,0,0,1,1,4.19c0,.24,0,.49,0,.77s-.06.59-.1.93H560.91a3.45,3.45,0,0,0,.55,1.28,2.94,2.94,0,0,0,1,.8,3.44,3.44,0,0,0,1.34.25,3,3,0,0,0,1.48-.35,2.63,2.63,0,0,0,1-1L571,47.43a7.3,7.3,0,0,1-2.92,3.49A8.58,8.58,0,0,1,563.51,52.1Zm2-9.88a2.44,2.44,0,0,0-.35-1.19,2.12,2.12,0,0,0-.77-.8,1.9,1.9,0,0,0-1.09-.25,2.46,2.46,0,0,0-1.12.32,2.74,2.74,0,0,0-.83.8,2.41,2.41,0,0,0-.38,1.12ZM58.75,90.1a8,8,0,0,1-4.19-1,7.3,7.3,0,0,1-2.82-2.88,9.86,9.86,0,0,1,0-8.61,7.38,7.38,0,0,1,2.82-2.91,8,8,0,0,1,4.13-1,8.34,8.34,0,0,1,4.8,1.4,7.28,7.28,0,0,1,2.84,3.88l-5,1.08a2.39,2.39,0,0,0-.9-1.18,2.2,2.2,0,0,0-1.34-.42,2.46,2.46,0,0,0-1.44.45,3.15,3.15,0,0,0-1,1.25,4.47,4.47,0,0,0-.35,1.79,3.78,3.78,0,0,0,.77,2.47,2.39,2.39,0,0,0,1.95,1,2.2,2.2,0,0,0,1.34-.42,2.76,2.76,0,0,0,1-1.18l5,1.12a7.24,7.24,0,0,1-2.85,3.8A8.4,8.4,0,0,1,58.75,90.1ZM68.89,66.84h5.25v23H68.89Zm17.53,23-.35-2a9.08,9.08,0,0,1-1.8,1.6,4.28,4.28,0,0,1-2.43.6,6.47,6.47,0,0,1-2.59-.51A4.51,4.51,0,0,1,77.39,88a4.61,4.61,0,0,1,.71-5.76,8,8,0,0,1,4.45-1.63l3.52-.38v-.93a1.3,1.3,0,0,0-.45-.9,1.81,1.81,0,0,0-1.38-.48,2.37,2.37,0,0,0-1.44.45A2.3,2.3,0,0,0,82,79.64L77.52,78A5.85,5.85,0,0,1,80,74.78a8,8,0,0,1,4.41-1.12,7.17,7.17,0,0,1,5.12,1.66,6,6,0,0,1,1.76,4.58v10Zm-.35-6.69-2.5.29a1.84,1.84,0,0,0-1.12.48,1.26,1.26,0,0,0-.38.93,1.07,1.07,0,0,0,.44.89,2.16,2.16,0,0,0,1.32.36A2.23,2.23,0,0,0,85,85.85a2.13,2.13,0,0,0,.8-.9,3.21,3.21,0,0,0,.29-1.44Zm12.45,1.38a2.2,2.2,0,0,0,.38.8,1.84,1.84,0,0,0,.68.45,2.75,2.75,0,0,0,1,.16,2.4,2.4,0,0,0,1.28-.29.85.85,0,0,0,.48-.74.72.72,0,0,0-.39-.67,2.88,2.88,0,0,0-.93-.42c-.38-.1-.78-.2-1.21-.28s-1.13-.25-1.79-.42a9.17,9.17,0,0,1-1.92-.74,4.71,4.71,0,0,1-1.51-1.37A3.94,3.94,0,0,1,94,78.84a4.6,4.6,0,0,1,.76-2.62A5.19,5.19,0,0,1,97,74.36a8.66,8.66,0,0,1,3.68-.7,7.34,7.34,0,0,1,4.23,1.08,5.62,5.62,0,0,1,2.17,3l-4.54,1a.92.92,0,0,0-.38-.58,1.49,1.49,0,0,0-.64-.32,3.46,3.46,0,0,0-.77-.1,1.73,1.73,0,0,0-1.09.29.76.76,0,0,0-.35.61.65.65,0,0,0,.19.48,1.52,1.52,0,0,0,.51.26l.8.19a9.54,9.54,0,0,1,1,.19c.64.15,1.3.33,2,.54a7.1,7.1,0,0,1,1.88.84,4.14,4.14,0,0,1,1.44,1.44,4.53,4.53,0,0,1,.58,2.33,4.63,4.63,0,0,1-.8,2.63,5.58,5.58,0,0,1-2.37,1.85,9.54,9.54,0,0,1-3.84.67A8.9,8.9,0,0,1,96,89a4.94,4.94,0,0,1-2.27-3.39Zm19.2,5.53a8.91,8.91,0,0,1-4.35-1,7.47,7.47,0,0,1-2.85-2.94,9.39,9.39,0,0,1-1-4.42,8.62,8.62,0,0,1,1-4.19,7.43,7.43,0,0,1,2.82-2.85,8.19,8.19,0,0,1,4.13-1,8.58,8.58,0,0,1,4.22,1,6.84,6.84,0,0,1,2.79,2.75,8.54,8.54,0,0,1,1,4.19c0,.24,0,.49,0,.77s-.06.59-.1.93H115.13a3.45,3.45,0,0,0,.55,1.28,2.85,2.85,0,0,0,1,.8,3.4,3.4,0,0,0,1.34.25,2.91,2.91,0,0,0,1.47-.35,2.59,2.59,0,0,0,1-1l4.73,1.18a7.34,7.34,0,0,1-2.91,3.49A8.59,8.59,0,0,1,117.72,90.1Zm2-9.88a2.44,2.44,0,0,0-.35-1.19,2.12,2.12,0,0,0-.77-.8,1.9,1.9,0,0,0-1.09-.25,2.42,2.42,0,0,0-1.12.32,2.63,2.63,0,0,0-.83.8,2.41,2.41,0,0,0-.38,1.12Zm24.8,9.88a8.86,8.86,0,0,1-4.23-1,7.39,7.39,0,0,1-2.94-2.85,8.71,8.71,0,0,1-1.06-4.38,8.38,8.38,0,0,1,1.09-4.35,7.41,7.41,0,0,1,2.95-2.85,9.39,9.39,0,0,1,8.51,0,7.28,7.28,0,0,1,3,2.85,9.17,9.17,0,0,1,0,8.73,7.26,7.26,0,0,1-3,2.85A9,9,0,0,1,144.54,90.1Zm0-4.76a2.39,2.39,0,0,0,1.31-.39,2.62,2.62,0,0,0,1-1.15,4.92,4.92,0,0,0,0-3.84,2.69,2.69,0,0,0-1-1.15,2.32,2.32,0,0,0-1.28-.39,2.41,2.41,0,0,0-1.34.39,2.58,2.58,0,0,0-.93,1.15,4.51,4.51,0,0,0-.35,1.92,4.88,4.88,0,0,0,.32,1.92,2.58,2.58,0,0,0,.93,1.15A2.36,2.36,0,0,0,144.54,85.34Zm10.91-11.46h4.74l.38,1.82a6.73,6.73,0,0,1,1.83-1.47,5,5,0,0,1,2.37-.57,5.64,5.64,0,0,1,3.16.83,4.79,4.79,0,0,1,1.92,2.33,9.26,9.26,0,0,1,.68,3.72v9.34h-5.25v-8.7a3.18,3.18,0,0,0-.58-2.08,2,2,0,0,0-1.69-.74,2.06,2.06,0,0,0-1.73.74,3.24,3.24,0,0,0-.58,2.11v8.67h-5.25Zm18.1-7h5.24v23h-5.24Zm9,7h5.25v16h-5.25Zm2.63-1.18a3.33,3.33,0,0,1-2.37-.84,2.76,2.76,0,0,1-.9-2.08,2.73,2.73,0,0,1,.9-2.08,3.3,3.3,0,0,1,2.37-.86,3.22,3.22,0,0,1,2.33.86,2.69,2.69,0,0,1,.93,2.08,2.72,2.72,0,0,1-.93,2.08A3.25,3.25,0,0,1,185.22,72.7Zm6.42,1.18h4.74l.38,1.82a6.58,6.58,0,0,1,1.83-1.47,5,5,0,0,1,2.36-.57,5.65,5.65,0,0,1,3.17.83A4.9,4.9,0,0,1,206,76.82a9.26,9.26,0,0,1,.67,3.72v9.34h-5.25v-8.7a3.24,3.24,0,0,0-.57-2.08,2,2,0,0,0-1.7-.74,2.07,2.07,0,0,0-1.73.74,3.3,3.3,0,0,0-.57,2.11v8.67h-5.25ZM217.29,90.1a8.92,8.92,0,0,1-4.36-1,7.38,7.38,0,0,1-2.84-2.94,9.27,9.27,0,0,1-1-4.42,8.51,8.51,0,0,1,1-4.19,7.33,7.33,0,0,1,2.81-2.85,8.21,8.21,0,0,1,4.13-1,8.64,8.64,0,0,1,4.23,1A6.82,6.82,0,0,1,224,77.4a8.54,8.54,0,0,1,1,4.19c0,.24,0,.49,0,.77s-.05.59-.1.93H214.7a3.28,3.28,0,0,0,.54,1.28,3,3,0,0,0,1,.8,3.44,3.44,0,0,0,1.34.25,3,3,0,0,0,1.48-.35,2.63,2.63,0,0,0,1-1l4.74,1.18a7.34,7.34,0,0,1-2.91,3.49A8.61,8.61,0,0,1,217.29,90.1Zm2-9.88A2.44,2.44,0,0,0,219,79a2.12,2.12,0,0,0-.77-.8,1.9,1.9,0,0,0-1.09-.25,2.38,2.38,0,0,0-1.11.32,2.66,2.66,0,0,0-.84.8,2.41,2.41,0,0,0-.38,1.12Zm24.77,9.88a8.85,8.85,0,0,1-4.35-1,7.33,7.33,0,0,1-2.85-2.94,9.39,9.39,0,0,1-1-4.42,8.62,8.62,0,0,1,1-4.19,7.33,7.33,0,0,1,2.81-2.85,8.24,8.24,0,0,1,4.13-1,8.64,8.64,0,0,1,4.23,1,6.82,6.82,0,0,1,2.78,2.75,8.54,8.54,0,0,1,1,4.19c0,.24,0,.49,0,.77s-.05.59-.1.93h-10.2a3.28,3.28,0,0,0,.54,1.28,3,3,0,0,0,1,.8,3.49,3.49,0,0,0,1.35.25,3,3,0,0,0,1.47-.35,2.5,2.5,0,0,0,1-1l4.74,1.18a7.34,7.34,0,0,1-2.91,3.49A8.61,8.61,0,0,1,244.07,90.1Zm2-9.88a2.34,2.34,0,0,0-.35-1.19,2.12,2.12,0,0,0-.77-.8,1.88,1.88,0,0,0-1.08-.25,2.39,2.39,0,0,0-1.12.32,2.77,2.77,0,0,0-.84.8,2.41,2.41,0,0,0-.38,1.12Zm8.25-6.34h4.73l.39,1.82a6.69,6.69,0,0,1,1.82-1.47,5.06,5.06,0,0,1,2.37-.57,5.67,5.67,0,0,1,3.17.83,4.9,4.9,0,0,1,1.92,2.33,9.26,9.26,0,0,1,.67,3.72v9.34h-5.25v-8.7a3.24,3.24,0,0,0-.57-2.08,2,2,0,0,0-1.7-.74,2.07,2.07,0,0,0-1.73.74,3.3,3.3,0,0,0-.57,2.11v8.67h-5.25Zm31.67,0,2.94,9.6,2.95-9.6h5.66l-5.66,16H286l-5.66-16Zm14.31,0h5.25v16h-5.25Zm2.63-1.18a3.32,3.32,0,0,1-2.37-.84,2.76,2.76,0,0,1-.9-2.08,2.73,2.73,0,0,1,.9-2.08,3.29,3.29,0,0,1,2.37-.86,3.24,3.24,0,0,1,2.33.86,2.69,2.69,0,0,1,.93,2.08,2.72,2.72,0,0,1-.93,2.08A3.27,3.27,0,0,1,302.94,72.7Zm11,1.18,2.94,9.6,2.95-9.6h5.66l-5.66,16H314l-5.67-16ZM334.6,90.1a8.79,8.79,0,0,1-4.22-1,7.41,7.41,0,0,1-2.95-2.85,8.71,8.71,0,0,1-1.05-4.38,8.38,8.38,0,0,1,1.08-4.35,7.41,7.41,0,0,1,3-2.85,9.39,9.39,0,0,1,8.51,0,7.36,7.36,0,0,1,3,2.85A8.38,8.38,0,0,1,343,81.88a8.25,8.25,0,0,1-1.12,4.38,7.23,7.23,0,0,1-3,2.85A9,9,0,0,1,334.6,90.1Zm0-4.76a2.36,2.36,0,0,0,1.31-.39,2.7,2.7,0,0,0,1-1.15,5,5,0,0,0,0-3.84,2.78,2.78,0,0,0-1-1.15,2.32,2.32,0,0,0-1.28-.39,2.41,2.41,0,0,0-1.34.39,2.72,2.72,0,0,0-.93,1.15,4.67,4.67,0,0,0-.35,1.92,5.06,5.06,0,0,0,.32,1.92,2.58,2.58,0,0,0,.93,1.15A2.36,2.36,0,0,0,334.6,85.34Zm19.88-11.46h4.74l.38,1.7a6,6,0,0,1,1.77-1.38,4.78,4.78,0,0,1,2.27-.54,5.69,5.69,0,0,1,2.65.64,5.28,5.28,0,0,1,2,1.82,7.71,7.71,0,0,1,2.18-1.76,5.79,5.79,0,0,1,2.85-.7,6.15,6.15,0,0,1,3.26.83,5.41,5.41,0,0,1,2.18,2.33,8.31,8.31,0,0,1,.76,3.72v9.34h-5.25v-8.7a2.81,2.81,0,0,0-.63-2,2.17,2.17,0,0,0-1.73-.7,2.27,2.27,0,0,0-1.8.73,3.15,3.15,0,0,0-.6,2.08v8.58h-5.25v-8.7a3,3,0,0,0-.58-2,2.05,2.05,0,0,0-1.69-.7,2.09,2.09,0,0,0-1.73.7,3.08,3.08,0,0,0-.58,2v8.67h-5.25Zm37.22,16-.35-2a9.33,9.33,0,0,1-1.79,1.6,4.34,4.34,0,0,1-2.44.6,6.47,6.47,0,0,1-2.59-.51A4.51,4.51,0,0,1,382.67,88a4.61,4.61,0,0,1,.71-5.76,8,8,0,0,1,4.45-1.63l3.52-.38v-.93a1.3,1.3,0,0,0-.45-.9,1.81,1.81,0,0,0-1.38-.48,2.37,2.37,0,0,0-1.44.45,2.3,2.3,0,0,0-.83,1.25L382.8,78a5.9,5.9,0,0,1,2.5-3.26,8,8,0,0,1,4.42-1.12,7.2,7.2,0,0,1,5.12,1.66,6,6,0,0,1,1.75,4.58v10Zm-.35-6.69-2.5.29a1.84,1.84,0,0,0-1.12.48,1.26,1.26,0,0,0-.38.93,1.09,1.09,0,0,0,.44.89,2.18,2.18,0,0,0,1.32.36,2.21,2.21,0,0,0,1.15-.29,2.13,2.13,0,0,0,.8-.9,3.21,3.21,0,0,0,.29-1.44Zm12.45,1.38a2.06,2.06,0,0,0,.39.8,1.72,1.72,0,0,0,.67.45,2.75,2.75,0,0,0,1,.16,2.4,2.4,0,0,0,1.28-.29.85.85,0,0,0,.48-.74.72.72,0,0,0-.39-.67,2.92,2.92,0,0,0-.92-.42c-.39-.1-.79-.2-1.22-.28s-1.13-.25-1.79-.42a9.17,9.17,0,0,1-1.92-.74,4.71,4.71,0,0,1-1.51-1.37,3.94,3.94,0,0,1-.57-2.21,4.54,4.54,0,0,1,.77-2.62,5.07,5.07,0,0,1,2.24-1.86,8.63,8.63,0,0,1,3.68-.7,7.33,7.33,0,0,1,4.22,1.08,5.63,5.63,0,0,1,2.18,3l-4.55,1a.92.92,0,0,0-.38-.58,1.49,1.49,0,0,0-.64-.32,3.39,3.39,0,0,0-.77-.1,1.73,1.73,0,0,0-1.09.29.76.76,0,0,0-.35.61.65.65,0,0,0,.19.48,1.52,1.52,0,0,0,.51.26l.8.19c.32,0,.65.11,1,.19q1,.23,1.95.54a7.31,7.31,0,0,1,1.89.84,4.31,4.31,0,0,1,1.44,1.44,4.63,4.63,0,0,1,.57,2.33,4.56,4.56,0,0,1-.8,2.63,5.58,5.58,0,0,1-2.37,1.85,9.54,9.54,0,0,1-3.84.67A8.9,8.9,0,0,1,401.24,89,5,5,0,0,1,399,85.59Zm23.12-12.42h-3.2V67.48h8.77v22.4h-5.57Zm8.59,13.67,5.85-5.57c1.07-1,1.9-1.83,2.5-2.47A7.16,7.16,0,0,0,445.17,76a3.59,3.59,0,0,0,.42-1.69,2.25,2.25,0,0,0-.58-1.67,2.29,2.29,0,0,0-1.73-.61,2.06,2.06,0,0,0-1.24.39,2.3,2.3,0,0,0-.87,1.09,4.7,4.7,0,0,0-.35,1.79h-5.38a8.85,8.85,0,0,1,1.19-4.58,6.8,6.8,0,0,1,2.94-2.59,10.33,10.33,0,0,1,8.39.06,5.87,5.87,0,0,1,2.49,2.47,7.18,7.18,0,0,1,.8,3.36,7.56,7.56,0,0,1-.45,2.65,8.29,8.29,0,0,1-1.47,2.5,31.12,31.12,0,0,1-3,3l-3.3,3h8.58v4.67H435.51Zm18.88-7.14a21.08,21.08,0,0,1,.48-4.67,10.26,10.26,0,0,1,1.53-3.62,6.84,6.84,0,0,1,2.79-2.3,9.79,9.79,0,0,1,4.25-.83,9.64,9.64,0,0,1,4.23.83,6.81,6.81,0,0,1,2.78,2.3A9.78,9.78,0,0,1,472,74a23.1,23.1,0,0,1,0,9.37A9.71,9.71,0,0,1,470.45,87a6.81,6.81,0,0,1-2.78,2.3,10,10,0,0,1-4.23.8,10.11,10.11,0,0,1-4.25-.8A6.84,6.84,0,0,1,456.4,87a10.18,10.18,0,0,1-1.53-3.62A21.16,21.16,0,0,1,454.39,78.68Zm12.45,0c0-.87,0-1.71-.1-2.5a7.78,7.78,0,0,0-.45-2.14,3.1,3.1,0,0,0-1-1.47,2.9,2.9,0,0,0-1.86-.55,2.85,2.85,0,0,0-1.85.55,3.4,3.4,0,0,0-1,1.47,8.65,8.65,0,0,0-.41,2.14c-.07.79-.1,1.63-.1,2.5s0,1.78.1,2.59a8.49,8.49,0,0,0,.41,2.11,3.42,3.42,0,0,0,1,1.44,2.91,2.91,0,0,0,1.85.52,3,3,0,0,0,1.86-.52,3.11,3.11,0,0,0,1-1.44,7.63,7.63,0,0,0,.45-2.11C466.8,80.46,466.84,79.6,466.84,78.68Zm17.64-11.84h5.25v8.83a6.24,6.24,0,0,1,1.73-1.44,5,5,0,0,1,2.43-.57,5.89,5.89,0,0,1,3.2.83,5.09,5.09,0,0,1,2.05,2.33,8.6,8.6,0,0,1,.74,3.72v9.34h-5.57v-8.7a3.18,3.18,0,0,0-.58-2.08,2,2,0,0,0-1.69-.74,1.91,1.91,0,0,0-1.73.9,4.11,4.11,0,0,0-.58,2.3v8.32h-5.25Zm22.6,17.73a2.21,2.21,0,0,0,.39.8,1.72,1.72,0,0,0,.67.45,2.84,2.84,0,0,0,1,.16,2.4,2.4,0,0,0,1.28-.29.85.85,0,0,0,.48-.74.72.72,0,0,0-.39-.67,2.92,2.92,0,0,0-.92-.42c-.39-.1-.79-.2-1.22-.28s-1.13-.25-1.79-.42a9.17,9.17,0,0,1-1.92-.74,4.57,4.57,0,0,1-1.5-1.37,3.86,3.86,0,0,1-.58-2.21,4.54,4.54,0,0,1,.77-2.62,5.13,5.13,0,0,1,2.24-1.86,8.63,8.63,0,0,1,3.68-.7,7.31,7.31,0,0,1,4.22,1.08,5.63,5.63,0,0,1,2.18,3l-4.55,1a.92.92,0,0,0-.38-.58,1.49,1.49,0,0,0-.64-.32,3.39,3.39,0,0,0-.77-.1,1.73,1.73,0,0,0-1.09.29.76.76,0,0,0-.35.61.65.65,0,0,0,.19.48,1.49,1.49,0,0,0,.52.26l.79.19a9.71,9.71,0,0,1,1,.19q1,.23,1.95.54a7.31,7.31,0,0,1,1.89.84,4.31,4.31,0,0,1,1.44,1.44A4.63,4.63,0,0,1,516.2,85a4.56,4.56,0,0,1-.8,2.63A5.58,5.58,0,0,1,513,89.43a9.54,9.54,0,0,1-3.84.67A8.9,8.9,0,0,1,504.52,89a5,5,0,0,1-2.27-3.39ZM60.51,127.88l-.35-2a9,9,0,0,1-1.79,1.6,4.34,4.34,0,0,1-2.44.6,6.51,6.51,0,0,1-2.59-.51A4.49,4.49,0,0,1,51.49,126a4.59,4.59,0,0,1,.7-5.76,8,8,0,0,1,4.45-1.63l3.52-.38v-.93a1.3,1.3,0,0,0-.45-.9,1.81,1.81,0,0,0-1.38-.48,2.37,2.37,0,0,0-1.44.45,2.3,2.3,0,0,0-.83,1.25L51.61,116a5.94,5.94,0,0,1,2.5-3.26,8.06,8.06,0,0,1,4.42-1.12,7.19,7.19,0,0,1,5.12,1.66,6,6,0,0,1,1.76,4.58v10Zm-.35-6.69-2.5.29a1.84,1.84,0,0,0-1.12.48,1.3,1.3,0,0,0-.38.93,1.08,1.08,0,0,0,.45.89,2.12,2.12,0,0,0,1.31.36,2.21,2.21,0,0,0,1.15-.29,2.13,2.13,0,0,0,.8-.9,3.21,3.21,0,0,0,.29-1.44Zm12.45,1.38a2.21,2.21,0,0,0,.39.8,1.72,1.72,0,0,0,.67.45,2.84,2.84,0,0,0,1,.16,2.4,2.4,0,0,0,1.28-.29.85.85,0,0,0,.48-.74.73.73,0,0,0-.38-.67,3.09,3.09,0,0,0-.93-.42c-.39-.1-.79-.2-1.22-.28s-1.13-.25-1.79-.42a9.17,9.17,0,0,1-1.92-.74,4.57,4.57,0,0,1-1.5-1.37,3.86,3.86,0,0,1-.58-2.21,4.61,4.61,0,0,1,.77-2.62,5.13,5.13,0,0,1,2.24-1.86,8.63,8.63,0,0,1,3.68-.7A7.31,7.31,0,0,1,79,112.74a5.63,5.63,0,0,1,2.18,3l-4.55,1a.92.92,0,0,0-.38-.58,1.43,1.43,0,0,0-.64-.32,3.39,3.39,0,0,0-.77-.1,1.73,1.73,0,0,0-1.09.29.76.76,0,0,0-.35.61.69.69,0,0,0,.19.48,1.49,1.49,0,0,0,.52.26l.8.19a9.54,9.54,0,0,1,1,.19q1,.23,2,.54a7.31,7.31,0,0,1,1.89.84,4.14,4.14,0,0,1,1.44,1.44,4.63,4.63,0,0,1,.57,2.33,4.56,4.56,0,0,1-.8,2.63,5.61,5.61,0,0,1-2.36,1.85,9.61,9.61,0,0,1-3.84.67A8.91,8.91,0,0,1,70.05,127a5,5,0,0,1-2.27-3.39Zm12.3-10.69h5.24v16H84.91Zm2.62-1.18a3.33,3.33,0,0,1-2.37-.84,2.75,2.75,0,0,1-.89-2.08,2.72,2.72,0,0,1,.89-2.08,3.3,3.3,0,0,1,2.37-.86,3.26,3.26,0,0,1,2.34.86,2.71,2.71,0,0,1,.92,2.08,2.74,2.74,0,0,1-.92,2.08A3.29,3.29,0,0,1,87.53,110.7ZM94,111.88h4.74l.38,1.82a6.73,6.73,0,0,1,1.83-1.47,5,5,0,0,1,2.37-.57,5.64,5.64,0,0,1,3.16.83,4.79,4.79,0,0,1,1.92,2.33,9.26,9.26,0,0,1,.68,3.72v9.34h-5.25v-8.7a3.18,3.18,0,0,0-.58-2.08,2,2,0,0,0-1.69-.74,2.06,2.06,0,0,0-1.73.74,3.24,3.24,0,0,0-.58,2.11v8.67H94Zm25.46,16.22a8,8,0,0,1-4.19-1,7.24,7.24,0,0,1-2.82-2.88,9.86,9.86,0,0,1,0-8.61,7.32,7.32,0,0,1,2.82-2.91,8,8,0,0,1,4.12-1,8.3,8.3,0,0,1,4.8,1.4,7.25,7.25,0,0,1,2.85,3.88L122,118a2.45,2.45,0,0,0-.9-1.18,2.2,2.2,0,0,0-1.34-.42,2.42,2.42,0,0,0-1.44.45,3,3,0,0,0-1,1.25,4.3,4.3,0,0,0-.36,1.79,3.84,3.84,0,0,0,.77,2.47,2.4,2.4,0,0,0,2,1,2.23,2.23,0,0,0,1.35-.42,2.91,2.91,0,0,0,1-1.18l5,1.12a7.19,7.19,0,0,1-2.85,3.8A8.34,8.34,0,0,1,119.41,128.1Zm10.14-16.22h4.76l.36,2.18a5.08,5.08,0,0,1,1.44-1.41,4.68,4.68,0,0,1,1.88-.77,6.65,6.65,0,0,1,2.44,0v5a4.77,4.77,0,0,0-1.83-.16,4.7,4.7,0,0,0-1.85.61,3.72,3.72,0,0,0-1.41,1.54,5.64,5.64,0,0,0-.55,2.65v6.37h-5.24Zm24-8v3.71l-6.68,2.72V107Zm-3.77,24.22a8.86,8.86,0,0,1-4.23-1,7.45,7.45,0,0,1-2.94-2.85,8.71,8.71,0,0,1-1.06-4.38,8.38,8.38,0,0,1,1.09-4.35,7.41,7.41,0,0,1,2.95-2.85,9.39,9.39,0,0,1,8.51,0,7.36,7.36,0,0,1,3,2.85,8.38,8.38,0,0,1,1.08,4.35,8.25,8.25,0,0,1-1.12,4.38,7.26,7.26,0,0,1-3,2.85A9,9,0,0,1,149.82,128.1Zm0-4.76a2.36,2.36,0,0,0,1.31-.39,2.62,2.62,0,0,0,1-1.15,4.92,4.92,0,0,0,0-3.84,2.69,2.69,0,0,0-1-1.15,2.32,2.32,0,0,0-1.28-.39,2.41,2.41,0,0,0-1.34.39,2.58,2.58,0,0,0-.93,1.15,4.67,4.67,0,0,0-.35,1.92,5.06,5.06,0,0,0,.32,1.92,2.58,2.58,0,0,0,.93,1.15A2.36,2.36,0,0,0,149.82,123.34Zm10.91-11.46h4.74l.38,1.82a6.89,6.89,0,0,1,1.83-1.47,5,5,0,0,1,2.37-.57,5.61,5.61,0,0,1,3.16.83,4.79,4.79,0,0,1,1.92,2.33,9.26,9.26,0,0,1,.68,3.72v9.34h-5.25v-8.7a3.18,3.18,0,0,0-.58-2.08,2,2,0,0,0-1.69-.74,2.06,2.06,0,0,0-1.73.74,3.24,3.24,0,0,0-.58,2.11v8.67h-5.25Zm18.74,0h5.25v16h-5.25Zm2.62-1.18a3.29,3.29,0,0,1-2.36-.84,2.76,2.76,0,0,1-.9-2.08,2.73,2.73,0,0,1,.9-2.08,3.64,3.64,0,0,1,4.7,0,2.69,2.69,0,0,1,.93,2.08,2.72,2.72,0,0,1-.93,2.08A3.29,3.29,0,0,1,182.09,110.7Zm13.79,17.4a8.06,8.06,0,0,1-4.2-1,7.28,7.28,0,0,1-2.81-2.88,9.86,9.86,0,0,1,0-8.61,7.36,7.36,0,0,1,2.81-2.91,8.05,8.05,0,0,1,4.13-1,8.3,8.3,0,0,1,4.8,1.4,7.25,7.25,0,0,1,2.85,3.88l-5,1.08a2.45,2.45,0,0,0-.9-1.18,2.2,2.2,0,0,0-1.34-.42,2.42,2.42,0,0,0-1.44.45,3,3,0,0,0-1,1.25,4.3,4.3,0,0,0-.36,1.79,3.84,3.84,0,0,0,.77,2.47,2.39,2.39,0,0,0,1.95,1,2.23,2.23,0,0,0,1.35-.42,2.91,2.91,0,0,0,1-1.18l5,1.12a7.19,7.19,0,0,1-2.85,3.8A8.34,8.34,0,0,1,195.88,128.1Zm19.26-.22-.36-2a8.77,8.77,0,0,1-1.79,1.6,4.3,4.3,0,0,1-2.43.6,6.47,6.47,0,0,1-2.59-.51,4.51,4.51,0,0,1-1.86-1.57,4.61,4.61,0,0,1,.71-5.76,8,8,0,0,1,4.44-1.63l3.52-.38v-.93a1.32,1.32,0,0,0-.44-.9,1.81,1.81,0,0,0-1.38-.48,2.33,2.33,0,0,0-1.44.45,2.3,2.3,0,0,0-.83,1.25l-4.45-1.6a5.85,5.85,0,0,1,2.5-3.26,8,8,0,0,1,4.41-1.12,7.17,7.17,0,0,1,5.12,1.66A6,6,0,0,1,220,117.9v10Zm-.36-6.69-2.49.29a1.82,1.82,0,0,0-1.12.48,1.27,1.27,0,0,0-.39.93,1.08,1.08,0,0,0,.45.89,2.14,2.14,0,0,0,1.31.36,2.24,2.24,0,0,0,1.16-.29,2.2,2.2,0,0,0,.8-.9,3.21,3.21,0,0,0,.28-1.44Zm12.46,1.38a2.05,2.05,0,0,0,.38.8,1.8,1.8,0,0,0,.67.45,2.86,2.86,0,0,0,1,.16,2.34,2.34,0,0,0,1.27-.29A.85.85,0,0,0,231,123a.72.72,0,0,0-.38-.67,2.88,2.88,0,0,0-.93-.42c-.38-.1-.79-.2-1.21-.28s-1.13-.25-1.79-.42a9,9,0,0,1-1.93-.74,4.78,4.78,0,0,1-1.5-1.37,3.94,3.94,0,0,1-.57-2.21,4.6,4.6,0,0,1,.76-2.62,5.19,5.19,0,0,1,2.24-1.86,8.66,8.66,0,0,1,3.68-.7,7.36,7.36,0,0,1,4.23,1.08,5.62,5.62,0,0,1,2.17,3l-4.54,1a.94.94,0,0,0-.39-.58,1.43,1.43,0,0,0-.64-.32,3.3,3.3,0,0,0-.76-.1,1.71,1.71,0,0,0-1.09.29.73.73,0,0,0-.35.61.65.65,0,0,0,.19.48,1.52,1.52,0,0,0,.51.26l.8.19a9.54,9.54,0,0,1,1,.19q1,.23,1.95.54a7,7,0,0,1,1.89.84,4.14,4.14,0,0,1,1.44,1.44,4.53,4.53,0,0,1,.58,2.33,4.63,4.63,0,0,1-.8,2.63,5.58,5.58,0,0,1-2.37,1.85,9.54,9.54,0,0,1-3.84.67,8.87,8.87,0,0,1-4.67-1.12,4.94,4.94,0,0,1-2.27-3.39Zm14.69,5.57a3.41,3.41,0,0,1-2.43-.87,3,3,0,0,1,0-4.29,3.38,3.38,0,0,1,2.43-.89,3.28,3.28,0,0,1,2.4.89,2.94,2.94,0,0,1,0,4.29A3.31,3.31,0,0,1,241.93,128.14Z" transform="translate(-0.9 -4.06)"/><path class="cls-2" d="M578.71,5.56h35.41A5.48,5.48,0,0,1,619.6,11V46.45" transform="translate(-0.9 -4.06)"/><path class="cls-2" d="M43.29,151.42H7.88a5.48,5.48,0,0,1-5.48-5.48V110.53" transform="translate(-0.9 -4.06)"/></svg>