<svg width="202" height="65" viewBox="0 0 202 65" fill="none" xmlns="http://www.w3.org/2000/svg">
<g clip-path="url(#clip0_35_299)">
<path fill-rule="evenodd" clip-rule="evenodd" d="M60.0443 0H0C0 13.4119 2.71463 28.0601 6.82689 36.7953C9.70278 42.9234 13.1431 47.9226 16.449 51.9005C23.3566 60.2056 30.1028 64.0491 30.1028 64.0491C34.8064 61.2269 39.0799 57.9479 42.4396 54.3732C47.3313 49.1589 50.906 43.3803 53.5131 37.6554C61.2807 20.5075 60.0443 0 60.0443 0ZM55.5023 4.30029H41.9829H41.2566V39.268H48.2447C48.7649 38.2761 49.2481 37.2803 49.6967 36.2845C56.2817 21.7438 55.5023 4.30029 55.5023 4.30029ZM34.4029 18.1155V39.268H16.7981V18.1155L24.4582 32.6831H26.7428L34.4029 18.1155ZM18.0284 47.5436C18.1674 47.7168 18.3063 47.8879 18.4449 48.0569H20.6978V47.5731H20.644C19.8646 47.5193 19.7839 47.4118 19.7839 46.7399V41.7138L19.7302 41.7407C18.897 41.9826 18.2519 42.1438 17.6606 42.2513H17.6337V42.6814L18.1713 42.7082L18.1753 42.7085C18.5478 42.7351 18.5744 42.737 18.5744 43.2727V46.7399C18.5744 47.3112 18.5356 47.4744 18.0284 47.5436ZM30.0762 58.7272C30.0762 58.7272 26.0385 56.3205 21.1628 51.1478H39.6731C36.9588 53.9359 33.7957 56.5055 30.0762 58.7272ZM9.94434 34.2476V4.30029H4.46191C4.46191 15.0473 6.73271 26.7504 9.94434 34.2476ZM17.5527 4.30029L25.6139 20.0507L33.7233 4.30029H17.9007H17.5527ZM49.3468 13.1701H53.459L50.1531 15.1321L51.9539 20.6689L48.0835 17.3629L44.1056 20.6689L46.0408 15.1321L42.708 13.1701H46.8203L48.0835 7.84831L49.3468 13.1701ZM39.3239 47.8418C39.5658 47.9762 40.1033 48.0569 40.6946 48.0569C42.361 48.0569 43.5436 47.1699 43.5168 45.9335C43.5168 44.9391 42.6298 44.509 42.1998 44.3746C42.7104 44.1059 43.248 43.5952 43.248 42.977C43.248 42.8695 43.1942 41.7138 41.1784 41.7138C40.614 41.7138 40.0764 41.8213 39.5927 42.0094C39.4583 42.0632 39.4045 42.1438 39.4045 42.2782V43.0845H39.8614V43.0308C39.8614 42.6545 40.3183 42.3857 40.9365 42.3857C41.6891 42.3857 41.9579 42.8695 41.9579 43.192C41.9579 43.9715 41.1515 44.3209 40.7215 44.4015V44.8584C40.7484 44.8584 40.7685 44.8652 40.7887 44.8719C40.8089 44.8786 40.829 44.8853 40.8559 44.8853C40.8828 44.8853 42.2266 45.0735 42.2266 46.2292C42.2266 46.928 41.6622 47.3581 40.7753 47.3581C40.1033 47.3581 39.6464 47.0624 39.5927 46.6055V46.5786H39.1089V47.5193C39.1089 47.6537 39.1357 47.7612 39.3239 47.8418ZM23.7618 46.3905C23.7618 47.3849 24.595 48.0569 25.8314 48.0569C26.6914 48.0569 27.9278 47.4656 27.9009 46.2292C27.9009 45.3691 27.2828 44.8853 26.6646 44.5359C27.0409 44.2671 27.229 44.1059 27.3365 43.9984C27.5515 43.7833 27.659 43.5146 27.659 43.2189C27.659 42.3588 26.9602 41.7138 25.9389 41.7138C24.8369 41.7138 24.0037 42.4395 24.0037 43.4071C24.0037 43.9984 24.3531 44.509 25.025 44.9122C24.7294 45.0735 24.3531 45.3154 24.1918 45.4766C23.9768 45.6916 23.7618 45.9335 23.7618 46.3905ZM24.8907 46.3098C24.8907 45.8529 25.1057 45.396 25.4551 45.1541C26.3152 45.5841 26.8258 45.9067 26.8796 46.5786C26.8796 46.7936 26.799 46.9818 26.6646 47.1162C26.4764 47.2774 26.2077 47.3849 25.8851 47.3849C25.5088 47.3849 24.8907 47.2505 24.8907 46.3098ZM25.0788 43.0308C25.0788 42.6545 25.3745 42.4126 25.8314 42.4126C26.2345 42.4126 26.6914 42.6545 26.6646 43.2995C26.6646 43.8371 26.4496 44.1596 26.2614 44.3209C25.6163 44.0252 25.0788 43.7027 25.0788 43.0308ZM31.5563 47.8687C31.7982 47.9762 32.3088 48.0569 32.9002 48.0569C33.814 48.0569 34.6472 47.7612 35.1847 47.2505C35.5341 46.8743 35.7223 46.4442 35.7223 45.9604C35.7223 44.8047 34.8353 44.079 33.4915 44.079C33.3571 44.079 32.927 44.1059 32.3895 44.294V42.6545H35.4804V41.7138H31.5563V45.2885L31.61 45.2616C31.8519 45.1272 32.2282 44.9391 32.8464 44.8853H32.9808C33.6796 44.8853 34.4053 45.3691 34.4053 46.283C34.4053 46.9549 33.8677 47.3849 32.9808 47.3849C32.4164 47.3849 32.0132 47.1699 31.8788 46.8205C31.8519 46.7667 31.8251 46.713 31.8251 46.6592V46.6055H31.3413V47.5462C31.3413 47.6806 31.395 47.7881 31.5563 47.8687ZM77.9445 27.5762V28.3825H85.094V27.5762C83.0513 27.3612 82.9438 27.1999 82.89 24.7541L82.6481 15.4813C82.5943 13.1967 82.7019 13.0892 84.7983 12.8742V12.041H80.0141L74.773 23.5983L69.6125 12.041H64.8014V12.8742C67.0054 13.0892 67.1667 13.3311 66.9516 16.3414L66.5754 21.3944C66.3872 24.0284 66.226 25.2647 66.0647 26.0979C65.9034 27.0387 65.4196 27.4149 63.9951 27.5493V28.3825H69.9888V27.5493C68.3224 27.3881 67.7848 27.1999 67.7042 26.0442C67.6236 25.1841 67.6236 24.0553 67.7311 21.9588L68.0536 15.1857H68.1343L73.4291 28.2213H74.0742L79.826 14.89H79.9335L80.0141 24.7541C80.0141 27.1999 79.9066 27.3612 77.9445 27.5762ZM94.0173 27.5762V28.3825H100.065V27.5762C98.909 27.4687 98.4252 27.2537 97.8876 25.9636L93.8291 16.1802L92.6197 16.3952L88.6687 25.6142C87.9967 27.2537 87.5129 27.4149 86.3572 27.5762V28.3825H91.0876V27.5762L90.4695 27.4956C89.8244 27.3612 89.5287 27.1999 89.7975 26.3398C89.9857 25.6679 90.1738 25.1572 90.3619 24.7272H94.3936L95.0117 26.2861C95.3612 27.1999 95.173 27.3881 94.4742 27.5225L94.0173 27.5762ZM92.3509 19.4054H92.4046L93.9635 23.6252H90.7382L92.3509 19.4054ZM110.171 16.5564H115.224V17.309C114.095 17.3359 113.584 17.6047 113.477 18.3572C113.396 19.056 113.315 19.8892 113.315 21.5825V28.5169H112.079L104.526 19.5398H104.5V23.2758C104.5 25.0497 104.58 25.8561 104.661 26.4742C104.768 27.2806 105.306 27.4956 106.65 27.6031V28.3825H101.624V27.6031C102.726 27.4956 103.236 27.2806 103.344 26.5011C103.424 25.8561 103.505 25.0228 103.505 23.2758V19.8892C103.505 17.8197 103.075 17.4703 101.382 17.3359V16.5564H105.494L112.267 24.2972H112.321V21.6363C112.321 19.9161 112.24 19.0829 112.16 18.4647C112.052 17.6315 111.595 17.4165 110.171 17.3359V16.5564ZM131.753 27.5762V28.3825H125.598V27.5762C127.05 27.4418 127.238 27.2806 127.238 25.5335V22.6845H122.104V25.5335C122.104 27.3074 122.266 27.4418 123.609 27.5762V28.3825H117.535V27.5762C119.121 27.4687 119.282 27.3074 119.282 25.5335V19.3517C119.282 17.5509 119.148 17.4703 117.481 17.309V16.5296H123.663V17.309C122.266 17.4434 122.104 17.5509 122.104 19.3517V21.5019H127.238V19.3517C127.238 17.5509 127.05 17.4434 125.652 17.309V16.5296H131.753V17.2552C130.194 17.4703 130.033 17.5778 130.033 19.3786V25.5335C130.033 27.3343 130.194 27.4418 131.753 27.5762ZM140.999 27.5762V28.3825H147.047V27.5762C145.891 27.4687 145.407 27.2537 144.87 25.9636L140.811 16.1802L139.602 16.3952L135.651 25.6142C134.979 27.2537 134.495 27.4149 133.339 27.5762V28.3825H138.07V27.5762L137.451 27.4956C136.806 27.3612 136.511 27.1999 136.779 26.3398C136.968 25.6679 137.156 25.1572 137.344 24.7272H141.375L141.967 26.2861C142.343 27.1999 142.155 27.3881 141.456 27.5225L140.999 27.5762ZM139.333 19.4054H139.387L140.945 23.6252H137.72L139.333 19.4054ZM158.496 16.0995C158.496 16.9865 158.604 18.7873 158.711 19.8624L157.932 19.9161C157.663 18.8141 157.421 18.3035 157.153 17.9809C156.83 17.6047 156.266 17.4971 155.352 17.4971H154.33V25.5335C154.33 27.3612 154.492 27.4418 156.292 27.5762V28.3825H149.654V27.5762C151.347 27.4418 151.508 27.3343 151.508 25.5335V17.4971H150.836C149.492 17.4971 149.062 17.6853 148.713 18.0885C148.444 18.4379 148.202 18.9754 147.987 19.8892H147.181C147.21 19.0563 147.271 18.2869 147.325 17.607C147.37 17.0364 147.411 16.5288 147.423 16.0995H147.987C148.283 16.5027 148.471 16.5564 149.089 16.5564H156.911C157.475 16.5564 157.609 16.4489 157.905 16.0995H158.496ZM172.096 16.0995C172.096 16.9865 172.204 18.7873 172.311 19.8624L171.505 19.9161C171.236 18.8141 170.994 18.3035 170.726 17.9809C170.403 17.6047 169.839 17.4971 168.925 17.4971H167.904V25.5335C167.904 27.3612 168.065 27.4418 169.866 27.5762V28.3825H163.227V27.5762C164.92 27.4418 165.081 27.3343 165.081 25.5335V17.4971H164.409C163.066 17.4971 162.636 17.6853 162.286 18.0885C162.017 18.4379 161.775 18.9754 161.56 19.8892H160.754C160.783 19.0564 160.844 18.2871 160.898 17.6072C160.943 17.0365 160.984 16.5288 160.996 16.0995H161.56C161.856 16.5027 162.044 16.5564 162.662 16.5564H170.484C171.075 16.5564 171.209 16.4489 171.505 16.0995H172.096ZM180.375 27.5762V28.3825H186.422V27.5762C185.266 27.4687 184.783 27.2537 184.245 25.9636L180.187 16.1802L178.977 16.3952L174.999 25.6142C174.327 27.2537 173.843 27.4149 172.688 27.5762V28.3825H177.418V27.5762L176.8 27.4956C176.155 27.3612 175.859 27.1999 176.128 26.3398C176.316 25.6679 176.504 25.1572 176.692 24.7272H180.724L181.342 26.2861C181.719 27.1999 181.53 27.3881 180.832 27.5225L180.375 27.5762ZM178.708 19.4054H178.762L180.321 23.6252H177.096L178.708 19.4054ZM196.528 16.5564H201.581V17.309C200.479 17.3359 199.968 17.6047 199.861 18.3572C199.78 19.056 199.7 19.8892 199.7 21.5825V28.5169H198.463L190.911 19.5398H190.884V23.2758C190.884 25.0497 190.964 25.8561 191.045 26.4742C191.153 27.2806 191.69 27.4956 193.034 27.6031V28.3825H188.008V27.6031C189.11 27.4956 189.621 27.2806 189.728 26.5011C189.809 25.8561 189.889 25.0228 189.889 23.2758V19.8892C189.889 17.8197 189.432 17.4703 187.739 17.3359V16.5564H191.851L198.625 24.2972H198.678V21.6363C198.678 19.9161 198.598 19.0829 198.517 18.4647C198.41 17.6315 197.953 17.4165 196.528 17.3359V16.5564ZM78.509 50.7984C78.939 49.9383 79.5572 48.03 79.9066 46.8205L79.0734 46.498C77.7833 49.0245 76.3319 50.3683 74.0473 50.3683C70.4726 50.3683 67.9192 47.2505 67.9192 42.6276C67.9192 38.8648 69.9888 35.3976 73.8323 35.3976C76.0631 35.3976 77.837 36.3383 78.5896 39.2142L79.4766 39.026C79.2884 37.5746 79.1272 36.4189 78.9121 35.0482C78.8418 35.0313 78.7592 35.0106 78.6652 34.9871C77.8608 34.7856 76.2257 34.3762 74.3967 34.3762C68.5105 34.3762 64.5327 37.924 64.5327 43.1383C64.5327 47.0893 67.3279 51.4434 73.8323 51.4434C75.6062 51.4434 77.837 50.9596 78.509 50.7984ZM88.2117 51.3897C91.5714 51.3897 94.743 49.2126 94.743 44.9928C94.743 41.5794 92.2165 38.8916 88.2386 38.9185C85.1477 38.9185 81.6268 40.9343 81.6268 45.396C81.6268 48.3525 83.8845 51.3897 88.2117 51.3897ZM88.4536 50.4758C86.3303 50.4758 84.7983 48.1912 84.7983 44.8584C84.7983 41.5525 86.3572 39.8055 87.9967 39.8055C90.3351 39.8055 91.5983 42.6276 91.5983 45.5035C91.5983 49.132 90.1469 50.4758 88.4536 50.4758ZM105.171 49.4814C105.548 49.0245 105.817 48.46 106.166 47.4387L106.972 47.5999C106.838 48.4869 106.462 50.449 106.3 51.094H96.2212V50.3146C97.9414 50.1802 98.0758 50.0189 98.0758 48.2988V41.9825C98.0758 40.2355 97.9145 40.128 96.3556 40.0205V39.241H102.726V40.0205C101.059 40.128 100.898 40.2624 100.898 42.0094V48.4063C100.898 49.2932 101.005 49.6964 101.328 49.9114C101.65 50.0996 102.269 50.1533 103.102 50.1533C104.069 50.1533 104.741 50.0189 105.171 49.4814ZM118.933 51.0671C119.067 50.4221 119.443 48.46 119.605 47.5731L118.771 47.4118C118.395 48.4331 118.153 48.9976 117.777 49.4545C117.374 49.9652 116.675 50.1264 115.734 50.1264C114.901 50.1264 114.283 50.0996 113.96 49.8845C113.638 49.6964 113.53 49.2663 113.53 48.3794V41.9825C113.53 40.2086 113.665 40.1011 115.358 39.9936V39.2142H108.988V39.9936C110.52 40.1011 110.708 40.2086 110.708 41.9557V48.2719C110.708 50.0189 110.601 50.1533 108.854 50.2877V51.0671H118.933ZM131.296 51.0403C131.458 50.5565 131.834 48.7019 131.968 47.7881L131.135 47.7343C130.786 48.5407 130.463 49.132 130.114 49.4814C129.684 49.9652 129.039 50.0996 127.937 50.0996C126.942 50.0996 126.378 50.0727 126.055 49.8577C125.76 49.6695 125.625 49.1857 125.625 48.1375V45.4497H127.211C128.635 45.4497 128.797 45.6648 129.012 46.8474H129.872V43.0039H129.039C128.851 44.1596 128.662 44.3478 127.238 44.3478H125.652V40.8806C125.652 40.2086 125.706 40.1549 126.378 40.1549H127.453C128.689 40.1549 129.173 40.343 129.496 40.7462C129.764 41.0956 129.952 41.4719 130.194 42.1976L131.001 42.1438C130.893 40.9343 130.813 39.698 130.786 39.1873H121.11V39.9936C122.669 40.1011 122.803 40.2086 122.803 41.9825V48.1912C122.803 49.992 122.669 50.0996 120.949 50.2339V51.0403H131.296ZM145.488 47.4924C145.488 46.2292 145.595 46.1754 146.617 46.0142V45.2347H140.623V46.0142C142.585 46.1754 142.692 46.2829 142.692 47.5193V49.2395C142.692 50.2339 142.047 50.4758 141.322 50.4758C138.5 50.4758 136.994 47.815 136.994 44.966C136.994 41.4719 138.956 39.8323 141.053 39.8323C142.612 39.8323 144.09 40.558 144.708 42.8964L145.515 42.8426C145.392 41.5715 145.315 40.6601 145.262 40.0248C145.246 39.8273 145.232 39.6565 145.219 39.5098C144.547 39.2948 143.122 38.9185 141.456 38.9185C137.371 38.9185 133.823 41.015 133.823 45.3154C133.823 48.9169 136.591 51.3897 141.053 51.3897C142.525 51.3897 143.957 51.0441 145.136 50.7596C145.313 50.7169 145.484 50.6757 145.649 50.6371C145.541 50.2339 145.488 49.6426 145.488 48.9976V47.4924ZM158.711 51.0403C158.873 50.5565 159.249 48.7019 159.383 47.7881L158.604 47.7343C158.255 48.5407 157.932 49.132 157.583 49.4814C157.153 49.9652 156.507 50.0996 155.406 50.0996C154.411 50.0996 153.847 50.0727 153.524 49.8577C153.228 49.6695 153.094 49.1857 153.094 48.1375V45.4497H154.68C156.104 45.4497 156.266 45.6648 156.481 46.8474H157.314V43.0039H156.481C156.292 44.1596 156.104 44.3478 154.68 44.3478H153.094V40.8806C153.094 40.2086 153.148 40.1549 153.82 40.1549H154.895C156.131 40.1549 156.615 40.343 156.938 40.7462C157.206 41.0956 157.394 41.4719 157.636 42.1976L158.443 42.1438C158.335 40.9343 158.255 39.698 158.228 39.1873H148.552V39.9936C150.111 40.1011 150.245 40.2086 150.245 41.9825V48.1912C150.245 49.992 150.111 50.0996 148.39 50.2339V51.0403H158.711Z" fill="white"/>
</g>
<defs>
<clipPath id="clip0_35_299">
<rect width="202" height="65" fill="white"/>
</clipPath>
</defs>
</svg>
