<svg width="82" height="108" viewBox="0 0 82 108" fill="none" xmlns="http://www.w3.org/2000/svg">
<circle cx="41.5" cy="29.5" r="29" stroke="#EE2478"/>
<circle cx="41.5" cy="29.5" r="15.5" fill="#EE2478"/>
<path d="M2.72 78.6H5.28V101H2.72V78.6ZM10.464 85H12.672L12.8 87.272C13.312 86.4827 13.984 85.8747 14.816 85.448C15.648 85 16.6187 84.776 17.728 84.776C18.944 84.776 20.0107 85.0427 20.928 85.576C21.8453 86.088 22.56 86.8667 23.072 87.912C23.584 88.936 23.84 90.2267 23.84 91.784V101H21.44V92.072C21.44 90.408 21.0773 89.1493 20.352 88.296C19.648 87.4213 18.624 86.984 17.28 86.984C15.8933 86.984 14.8053 87.4427 14.016 88.36C13.248 89.2773 12.864 90.632 12.864 92.424V101H10.464V85ZM28.9753 85H31.3433V101H28.9753V85ZM30.1913 81.8C29.7006 81.8 29.2953 81.64 28.9753 81.32C28.6553 81 28.4953 80.6053 28.4953 80.136C28.4953 79.6453 28.6553 79.24 28.9753 78.92C29.2953 78.6 29.7006 78.44 30.1913 78.44C30.6393 78.44 31.0233 78.6 31.3433 78.92C31.6846 79.24 31.8553 79.6453 31.8553 80.136C31.8553 80.6053 31.6846 81 31.3433 81.32C31.0233 81.64 30.6393 81.8 30.1913 81.8ZM43.5613 101.224C42.0039 101.224 40.6386 100.883 39.4653 100.2C38.2919 99.5173 37.3746 98.568 36.7133 97.352C36.0733 96.1147 35.7533 94.6853 35.7533 93.064C35.7533 91.4213 36.0733 89.9813 36.7133 88.744C37.3746 87.4853 38.2919 86.5147 39.4653 85.832C40.6386 85.128 42.0039 84.776 43.5613 84.776C45.2039 84.776 46.6439 85.16 47.8813 85.928C49.1186 86.6747 50.0146 87.72 50.5693 89.064L48.3613 89.832C48.0413 88.9787 47.4546 88.3067 46.6013 87.816C45.7693 87.304 44.7986 87.048 43.6892 87.048C42.6013 87.048 41.6519 87.2933 40.8413 87.784C40.0519 88.2747 39.4333 88.968 38.9852 89.864C38.5586 90.76 38.3453 91.816 38.3453 93.032C38.3453 94.824 38.8253 96.264 39.7853 97.352C40.7453 98.4187 42.0253 98.952 43.6253 98.952C44.7133 98.952 45.6839 98.7067 46.5373 98.216C47.3906 97.7253 48.0199 97.064 48.4253 96.232L50.6013 97C50.0253 98.3227 49.1186 99.3573 47.8813 100.104C46.6439 100.851 45.2039 101.224 43.5613 101.224ZM55.0065 85H57.3745V101H55.0065V85ZM56.2225 81.8C55.7318 81.8 55.3265 81.64 55.0065 81.32C54.6865 81 54.5265 80.6053 54.5265 80.136C54.5265 79.6453 54.6865 79.24 55.0065 78.92C55.3265 78.6 55.7318 78.44 56.2225 78.44C56.6705 78.44 57.0545 78.6 57.3745 78.92C57.7158 79.24 57.8865 79.6453 57.8865 80.136C57.8865 80.6053 57.7158 81 57.3745 81.32C57.0545 81.64 56.6705 81.8 56.2225 81.8ZM69.6885 101.224C68.1738 101.224 66.8192 100.893 65.6245 100.232C64.4298 99.5707 63.4912 98.632 62.8085 97.416C62.1258 96.1787 61.7845 94.7173 61.7845 93.032C61.7845 91.3253 62.1258 89.8533 62.8085 88.616C63.5125 87.3787 64.4618 86.4293 65.6565 85.768C66.8725 85.1067 68.2378 84.776 69.7525 84.776C71.2672 84.776 72.6218 85.1067 73.8165 85.768C75.0325 86.4293 75.9818 87.3787 76.6645 88.616C77.3685 89.832 77.7205 91.2827 77.7205 92.968C77.7205 94.6747 77.3685 96.1467 76.6645 97.384C75.9605 98.6213 75.0005 99.5707 73.7845 100.232C72.5685 100.893 71.2032 101.224 69.6885 101.224ZM69.6565 98.952C70.5952 98.952 71.4805 98.7493 72.3125 98.344C73.1445 97.9173 73.8165 97.2667 74.3285 96.392C74.8618 95.496 75.1285 94.3653 75.1285 93C75.1285 91.6133 74.8725 90.4827 74.3605 89.608C73.8485 88.7333 73.1765 88.0933 72.3445 87.688C71.5338 87.2613 70.6592 87.048 69.7205 87.048C68.7818 87.048 67.9072 87.2613 67.0965 87.688C66.2858 88.0933 65.6245 88.744 65.1125 89.64C64.6218 90.5147 64.3765 91.6347 64.3765 93C64.3765 94.3867 64.6218 95.5173 65.1125 96.392C65.6032 97.2667 66.2432 97.9173 67.0325 98.344C67.8432 98.7493 68.7178 98.952 69.6565 98.952Z" fill="white"/>
</svg>
