<svg width="339" height="130" viewBox="0 0 339 130" fill="none" xmlns="http://www.w3.org/2000/svg">
<path d="M262 129L311 129L311 80" stroke="white" stroke-width="2"/>
<path d="M50 16L0.999999 16L0.999997 65" stroke="white" stroke-width="2"/>
<path d="M120.96 6.2V21.32H128.808V23H119.04V6.2H120.96ZM131.677 11H133.453V23H131.677V11ZM132.589 8.6C132.221 8.6 131.917 8.48 131.677 8.24C131.437 8 131.317 7.704 131.317 7.352C131.317 6.984 131.437 6.68 131.677 6.44C131.917 6.2 132.221 6.08 132.589 6.08C132.925 6.08 133.213 6.2 133.453 6.44C133.709 6.68 133.837 6.984 133.837 7.352C133.837 7.704 133.709 8 133.453 8.24C133.213 8.48 132.925 8.6 132.589 8.6ZM139.112 13.424C139.464 12.688 140.016 12.072 140.768 11.576C141.52 11.08 142.472 10.832 143.624 10.832C144.728 10.832 145.688 11.088 146.504 11.6C147.336 12.112 147.976 12.832 148.424 13.76C148.888 14.672 149.12 15.752 149.12 17C149.12 18.248 148.888 19.336 148.424 20.264C147.96 21.192 147.312 21.912 146.48 22.424C145.664 22.92 144.712 23.168 143.624 23.168C142.536 23.168 141.632 22.936 140.912 22.472C140.192 22.008 139.648 21.44 139.28 20.768L139.16 23H137.504V5.72H139.304V13.448L139.112 13.424ZM147.176 17C147.176 15.624 146.816 14.536 146.096 13.736C145.392 12.92 144.44 12.512 143.24 12.512C142.488 12.512 141.808 12.696 141.2 13.064C140.608 13.416 140.144 13.928 139.808 14.6C139.472 15.256 139.304 16.056 139.304 17C139.304 17.944 139.472 18.752 139.808 19.424C140.144 20.096 140.608 20.608 141.2 20.96C141.808 21.312 142.488 21.488 143.24 21.488C144.44 21.488 145.392 21.088 146.096 20.288C146.816 19.472 147.176 18.376 147.176 17ZM157.099 23.168C155.979 23.168 154.979 22.896 154.099 22.352C153.235 21.808 152.555 21.064 152.059 20.12C151.563 19.176 151.315 18.096 151.315 16.88C151.315 15.712 151.563 14.672 152.059 13.76C152.555 12.848 153.235 12.136 154.099 11.624C154.963 11.096 155.947 10.832 157.051 10.832C158.139 10.832 159.107 11.072 159.955 11.552C160.819 12.032 161.491 12.696 161.971 13.544C162.451 14.392 162.675 15.36 162.643 16.448C162.643 16.624 162.635 16.808 162.619 17C162.603 17.192 162.587 17.4 162.571 17.624H153.283C153.315 18.376 153.499 19.04 153.835 19.616C154.171 20.192 154.611 20.648 155.155 20.984C155.715 21.304 156.347 21.464 157.051 21.464C157.979 21.464 158.763 21.288 159.403 20.936C160.059 20.584 160.531 20.08 160.819 19.424L162.379 20.048C161.899 21.056 161.203 21.832 160.291 22.376C159.379 22.904 158.315 23.168 157.099 23.168ZM160.675 16.064C160.691 15.376 160.539 14.768 160.219 14.24C159.915 13.712 159.483 13.296 158.923 12.992C158.363 12.688 157.715 12.536 156.979 12.536C156.339 12.536 155.755 12.688 155.227 12.992C154.699 13.296 154.259 13.72 153.907 14.264C153.571 14.792 153.371 15.392 153.307 16.064H160.675ZM165.606 11H167.262L167.358 12.752C167.678 12.32 168.062 11.952 168.51 11.648C168.974 11.344 169.478 11.136 170.022 11.024C170.582 10.896 171.174 10.888 171.798 11V12.8C171.126 12.672 170.518 12.672 169.974 12.8C169.446 12.928 168.99 13.168 168.606 13.52C168.222 13.872 167.926 14.32 167.718 14.864C167.51 15.392 167.406 16.008 167.406 16.712V23H165.606V11ZM181.766 23L181.622 20.84C181.286 21.576 180.79 22.152 180.134 22.568C179.478 22.968 178.646 23.168 177.638 23.168C176.774 23.168 176.038 23.032 175.43 22.76C174.822 22.488 174.35 22.104 174.014 21.608C173.694 21.096 173.534 20.496 173.534 19.808C173.534 18.8 173.91 17.976 174.662 17.336C175.414 16.68 176.502 16.28 177.926 16.136L181.622 15.728V14.768C181.622 14.096 181.374 13.56 180.878 13.16C180.382 12.744 179.71 12.536 178.862 12.536C178.03 12.536 177.334 12.728 176.774 13.112C176.23 13.496 175.854 14.048 175.646 14.768L174.014 14.192C174.334 13.136 174.918 12.312 175.766 11.72C176.63 11.128 177.678 10.832 178.91 10.832C180.334 10.832 181.438 11.2 182.222 11.936C183.022 12.656 183.422 13.64 183.422 14.888V23H181.766ZM181.622 17.264L177.902 17.696C177.102 17.792 176.494 18.016 176.078 18.368C175.662 18.704 175.454 19.152 175.454 19.712C175.454 20.272 175.654 20.72 176.054 21.056C176.47 21.392 177.062 21.56 177.83 21.56C178.71 21.56 179.43 21.384 179.99 21.032C180.55 20.68 180.958 20.208 181.214 19.616C181.486 19.008 181.622 18.352 181.622 17.648V17.264ZM186.934 11H188.59L188.686 12.752C189.006 12.32 189.39 11.952 189.838 11.648C190.302 11.344 190.806 11.136 191.35 11.024C191.91 10.896 192.502 10.888 193.126 11V12.8C192.454 12.672 191.846 12.672 191.302 12.8C190.774 12.928 190.318 13.168 189.934 13.52C189.55 13.872 189.254 14.32 189.046 14.864C188.838 15.392 188.734 16.008 188.734 16.712V23H186.934V11ZM209.821 23L209.677 20.84C209.341 21.576 208.845 22.152 208.189 22.568C207.533 22.968 206.701 23.168 205.693 23.168C204.829 23.168 204.093 23.032 203.485 22.76C202.877 22.488 202.405 22.104 202.069 21.608C201.749 21.096 201.589 20.496 201.589 19.808C201.589 18.8 201.965 17.976 202.717 17.336C203.469 16.68 204.557 16.28 205.981 16.136L209.677 15.728V14.768C209.677 14.096 209.429 13.56 208.933 13.16C208.437 12.744 207.765 12.536 206.917 12.536C206.085 12.536 205.389 12.728 204.829 13.112C204.285 13.496 203.909 14.048 203.701 14.768L202.069 14.192C202.389 13.136 202.973 12.312 203.821 11.72C204.685 11.128 205.733 10.832 206.965 10.832C208.389 10.832 209.493 11.2 210.277 11.936C211.077 12.656 211.477 13.64 211.477 14.888V23H209.821ZM209.677 17.264L205.957 17.696C205.157 17.792 204.549 18.016 204.133 18.368C203.717 18.704 203.509 19.152 203.509 19.712C203.509 20.272 203.709 20.72 204.109 21.056C204.525 21.392 205.117 21.56 205.885 21.56C206.765 21.56 207.485 21.384 208.045 21.032C208.605 20.68 209.013 20.208 209.269 19.616C209.541 19.008 209.677 18.352 209.677 17.648V17.264ZM214.989 5.72H216.789V23H214.989V5.72ZM236.392 11H238.048V20.792C238.048 22.264 237.72 23.52 237.064 24.56C236.408 25.616 235.456 26.416 234.208 26.96C232.96 27.52 231.44 27.8 229.648 27.8L229.36 26.144C231.616 26.112 233.328 25.64 234.496 24.728C235.664 23.832 236.248 22.52 236.248 20.792V20.528L236.44 20.576C236.072 21.28 235.52 21.888 234.784 22.4C234.048 22.896 233.096 23.152 231.928 23.168C230.824 23.168 229.856 22.92 229.024 22.424C228.208 21.912 227.568 21.192 227.104 20.264C226.656 19.336 226.432 18.248 226.432 17C226.432 15.752 226.656 14.672 227.104 13.76C227.568 12.832 228.208 12.112 229.024 11.6C229.856 11.088 230.824 10.832 231.928 10.832C232.648 10.832 233.288 10.944 233.848 11.168C234.408 11.376 234.888 11.664 235.288 12.032C235.688 12.384 236.016 12.784 236.272 13.232L236.392 11ZM228.376 17C228.376 18.376 228.728 19.472 229.432 20.288C230.152 21.088 231.12 21.488 232.336 21.488C233.072 21.488 233.736 21.312 234.328 20.96C234.92 20.608 235.384 20.096 235.72 19.424C236.072 18.752 236.248 17.944 236.248 17C236.248 16.056 236.072 15.256 235.72 14.6C235.384 13.928 234.92 13.416 234.328 13.064C233.736 12.696 233.072 12.512 232.336 12.512C231.136 12.512 230.176 12.92 229.456 13.736C228.736 14.552 228.376 15.64 228.376 17ZM246.771 23.168C245.651 23.168 244.651 22.896 243.771 22.352C242.907 21.808 242.227 21.064 241.731 20.12C241.235 19.176 240.987 18.096 240.987 16.88C240.987 15.712 241.235 14.672 241.731 13.76C242.227 12.848 242.907 12.136 243.771 11.624C244.635 11.096 245.619 10.832 246.723 10.832C247.811 10.832 248.779 11.072 249.627 11.552C250.491 12.032 251.163 12.696 251.643 13.544C252.123 14.392 252.347 15.36 252.315 16.448C252.315 16.624 252.307 16.808 252.291 17C252.275 17.192 252.259 17.4 252.243 17.624H242.955C242.987 18.376 243.171 19.04 243.507 19.616C243.843 20.192 244.283 20.648 244.827 20.984C245.387 21.304 246.019 21.464 246.723 21.464C247.651 21.464 248.435 21.288 249.075 20.936C249.731 20.584 250.203 20.08 250.491 19.424L252.051 20.048C251.571 21.056 250.875 21.832 249.963 22.376C249.051 22.904 247.987 23.168 246.771 23.168ZM250.347 16.064C250.363 15.376 250.211 14.768 249.891 14.24C249.587 13.712 249.155 13.296 248.595 12.992C248.035 12.688 247.387 12.536 246.651 12.536C246.011 12.536 245.427 12.688 244.899 12.992C244.371 13.296 243.931 13.72 243.579 14.264C243.243 14.792 243.043 15.392 242.979 16.064H250.347ZM255.278 11H256.934L257.03 12.704C257.414 12.112 257.918 11.656 258.542 11.336C259.166 11 259.894 10.832 260.726 10.832C261.638 10.832 262.438 11.032 263.126 11.432C263.814 11.816 264.35 12.4 264.734 13.184C265.118 13.952 265.31 14.92 265.31 16.088V23H263.51V16.304C263.51 15.056 263.238 14.112 262.694 13.472C262.166 12.816 261.398 12.488 260.39 12.488C259.35 12.488 258.534 12.832 257.942 13.52C257.366 14.208 257.078 15.224 257.078 16.568V23H255.278V11ZM269.161 11H270.937V23H269.161V11ZM270.073 8.6C269.705 8.6 269.401 8.48 269.161 8.24C268.921 8 268.801 7.704 268.801 7.352C268.801 6.984 268.921 6.68 269.161 6.44C269.401 6.2 269.705 6.08 270.073 6.08C270.409 6.08 270.697 6.2 270.937 6.44C271.193 6.68 271.321 6.984 271.321 7.352C271.321 7.704 271.193 8 270.937 8.24C270.697 8.48 270.409 8.6 270.073 8.6ZM280.173 23.168C279.037 23.168 278.021 22.92 277.125 22.424C276.229 21.928 275.525 21.224 275.013 20.312C274.501 19.384 274.245 18.288 274.245 17.024C274.245 15.744 274.501 14.64 275.013 13.712C275.541 12.784 276.253 12.072 277.149 11.576C278.061 11.08 279.085 10.832 280.221 10.832C281.357 10.832 282.373 11.08 283.269 11.576C284.181 12.072 284.893 12.784 285.405 13.712C285.933 14.624 286.197 15.712 286.197 16.976C286.197 18.256 285.933 19.36 285.405 20.288C284.877 21.216 284.157 21.928 283.245 22.424C282.333 22.92 281.309 23.168 280.173 23.168ZM280.149 21.464C280.853 21.464 281.517 21.312 282.141 21.008C282.765 20.688 283.269 20.2 283.653 19.544C284.053 18.872 284.253 18.024 284.253 17C284.253 15.96 284.061 15.112 283.677 14.456C283.293 13.8 282.789 13.32 282.165 13.016C281.557 12.696 280.901 12.536 280.197 12.536C279.493 12.536 278.837 12.696 278.229 13.016C277.621 13.32 277.125 13.808 276.741 14.48C276.373 15.136 276.189 15.976 276.189 17C276.189 18.04 276.373 18.888 276.741 19.544C277.109 20.2 277.589 20.688 278.181 21.008C278.789 21.312 279.445 21.464 280.149 21.464Z" fill="white"/>
</svg>
