<svg width="50" height="92" viewBox="0 0 50 92" fill="none" xmlns="http://www.w3.org/2000/svg">
<g clip-path="url(#clip0_2_194)">
<path d="M22.4047 53.9424C34.7798 53.9424 44.8117 43.9652 44.8117 31.6597C44.8117 26.4644 43.0188 21.6891 40.0234 17.8987C43.9164 16.4169 47.0488 13.972 49.0052 9.57486C51.7309 3.47377 47.9839 0 47.9839 0C47.9839 0 45.088 8.21833 36.8224 8.64266C32.2442 8.87791 27.8009 9.06259 23.6294 9.40996C23.2249 9.38798 22.8159 9.37479 22.4047 9.37479C10.0318 9.37479 0 19.352 0 31.6597C0 43.9652 10.0318 53.9424 22.4047 53.9424ZM22.4047 19.7873C28.9968 19.7873 34.3421 25.1035 34.3421 31.6597C34.3421 38.2159 28.9968 43.5321 22.4047 43.5321C15.8126 43.5321 10.4673 38.2159 10.4673 31.6597C10.4673 25.1013 15.8126 19.7873 22.4047 19.7873Z" fill="white"/>
<path d="M35.2772 58.9067C35.264 58.9045 35.2529 58.9023 35.2397 58.9001C27.6108 57.7854 23.1917 58.3879 13.728 57.0423C3.79788 55.6308 2.56656 48.3997 2.56656 48.3997C2.56656 48.3997 -1.18267 51.8734 1.54525 57.9745C4.5937 64.8231 10.4828 66.947 17.6762 68.0463C20.4306 68.4662 23.3774 68.7366 26.4303 69.0642C27.4383 69.1719 28.4597 69.2863 29.4876 69.4138C40.2909 70.7571 41.0514 76.9593 41.0801 78.4236C41.0846 78.6215 41.0735 78.7336 41.0735 78.7336C39.4951 89.001 30.4603 89.8783 23.793 89.4341C26.375 91.0567 29.4323 91.9977 32.7129 91.9977C41.9555 91.9977 49.4474 84.5467 49.4474 75.3544C49.4474 67.0305 43.3018 60.1335 35.2772 58.9067Z" fill="white"/>
<path d="M17.6718 34.7113C18.2797 34.4607 21.1005 33.5746 19.752 29.1511C19.0578 26.6359 16.8538 26.5128 16.8538 26.5128C16.8538 26.5128 13.7523 25.9455 13.2638 30.1646C12.7752 34.3859 17.0639 34.962 17.6718 34.7113Z" fill="white"/>
<path d="M24.1156 31.9807C23.826 32.2181 23.3949 31.9719 23.459 31.6047C23.6801 30.3339 24.4538 28.298 27.1375 27.9441C29.2973 27.6868 31.771 30.4285 31.5743 32.9568C31.5477 33.3108 31.1012 33.4515 30.8647 33.1855C29.8787 32.0686 28.4683 29.9536 27.0889 30.2658C26.0499 30.501 24.8628 31.3651 24.1156 31.9807Z" fill="white"/>
</g>
<defs>
<clipPath id="clip0_2_194">
<rect width="50" height="92" fill="white"/>
</clipPath>
</defs>
</svg>
