<?xml version="1.0" encoding="utf-8"?>
<!-- Generator: Adobe Illustrator 23.0.0, SVG Export Plug-In . SVG Version: 6.00 Build 0)  -->
<svg version="1.1" id="Capa_1" xmlns="http://www.w3.org/2000/svg" xmlns:xlink="http://www.w3.org/1999/xlink" x="0px" y="0px"
	 viewBox="0 0 500 500" style="enable-background:new 0 0 500 500;" xml:space="preserve">
<style type="text/css">
	.st0{fill:#E82478;}
</style>
<g id="U6B6jz_6_">
	<g>
		<path class="st0" d="M171.4,336.5c1.1-1.8,1.8-3.8,3.2-5.2C254.8,251,335,170.9,415.1,90.7c17.3-17.3,40.7-20.5,60.3-8.4
			c24.5,15.2,29.7,49,10.9,70.9c-1.4,1.7-2.9,3.3-4.5,4.9c-92,92.1-184.1,184.2-276.2,276.2c-16.6,16.6-37.9,20.6-57.1,10.6
			c-4.3-2.2-8.4-5.2-11.9-8.6c-40.3-40.1-80.5-80.3-120.7-120.6C3,302.4-1,286.4,4.2,268.7c5.1-17.7,17.4-28.9,35.4-32.9
			c14.7-3.3,28.2,0.1,40,9.7c2.2,1.8,4.3,3.9,6.3,5.9c26.7,26.6,53.3,53.3,79.9,80c1.3,1.3,2.2,3,3.3,4.5
			C169.9,336.2,170.7,336.3,171.4,336.5z"/>
	</g>
</g>
</svg>
